<?xml version="1.0" encoding="UTF-8" standalone="no"?>
<svg
   viewBox="0 0 600 210"
   width="600"
   height="210"
   style="width: 100%; height: 100%; transform: translate3d(0px, 0px, 0px);"
   preserveAspectRatio="xMidYMid meet"
   version="1.1"
   id="svg83"
   xmlns="http://www.w3.org/2000/svg"
   xmlns:svg="http://www.w3.org/2000/svg">
  <defs
     id="defs32">
    <clipPath
       clipPathUnits="userSpaceOnUse"
       id="clipPath262">
      <g
         id="g265">
        <g
           id="g264">
          <g
             id="g263">
            <rect
               width="600"
               height="210"
               x="0"
               y="0"
               id="rect262" />
          </g>
        </g>
      </g>
    </clipPath>
  </defs>
  <path
     style="fill:#000000"
     d="m 0.09299,93.730999 c 0,0 0,-91.108002 0,-91.108002 0,0 56.662,0 56.662,0 0,0 0,14.477001 0,14.477001 0,0 -41.31001,0 -41.31001,0 0,0 0,24.337 0,24.337 0,0 38.065,0 38.065,0 0,0 0,14.479 0,14.479 0,0 -37.815,0 -37.815,0 0,0 0,37.815001 0,37.815001 z"
     id="path14" />
  <path
     id="path13"
     style="fill:#000000"
     d="M 104.88086 1.375 C 99.057869 1.375 93.98024 2.4981386 89.65625 4.7441406 C 85.41124 6.9071386 82.123932 10.02847 79.794922 14.105469 C 77.547922 18.099469 76.425781 22.840031 76.425781 28.332031 L 76.425781 68.021484 C 76.425781 73.511484 77.547922 78.296999 79.794922 82.375 C 82.123932 86.366997 85.41124 89.486377 89.65625 91.734375 C 93.98024 93.897377 99.057869 94.978516 104.88086 94.978516 C 110.78786 94.978516 115.86443 93.897377 120.10742 91.734375 C 124.35143 89.486377 127.5958 86.366997 129.8418 82.375 C 132.1728 78.296999 133.33789 73.511484 133.33789 68.021484 L 133.33789 28.207031 C 133.33789 22.798031 132.1728 18.099469 129.8418 14.105469 C 127.5958 10.02847 124.35143 6.9071386 120.10742 4.7441406 C 115.86443 2.4981386 110.78786 1.375 104.88086 1.375 z M 104.88086 15.103516 C 109.12487 15.103516 112.32722 16.226655 114.49023 18.472656 C 116.65424 20.718656 117.73633 24.005031 117.73633 28.332031 L 117.73633 68.021484 C 117.73633 72.263485 116.65424 75.551861 114.49023 77.880859 C 112.32722 80.127861 109.12487 81.251953 104.88086 81.251953 C 100.72187 81.251953 97.517484 80.127861 95.271484 77.880859 C 93.108494 75.551861 92.025391 72.263485 92.025391 68.021484 L 92.025391 28.332031 C 92.025391 24.005031 93.108494 20.718656 95.271484 18.472656 C 97.434484 16.226655 100.63886 15.103516 104.88086 15.103516 z " />
  <path
     id="path11"
     style="fill:#000000"
     d="M 154.25391 2.6230469 L 154.25391 93.730469 L 169.85547 93.730469 L 169.85547 57.537109 L 180.96484 57.537109 L 196.81445 93.730469 L 214.28516 93.730469 L 196.19141 55.292969 C 201.34841 53.377969 205.42492 50.130641 208.41992 45.556641 C 211.49892 40.979641 213.03711 35.695079 213.03711 29.705078 C 213.03711 24.21308 211.79092 19.471518 209.29492 15.478516 C 206.79892 11.401516 203.30255 8.2381855 198.81055 5.9921875 C 194.40055 3.7461855 189.15794 2.6230469 183.08594 2.6230469 L 154.25391 2.6230469 z M 169.85547 16.351562 L 183.08594 16.351562 C 187.49494 16.351562 190.94831 17.599705 193.44531 20.095703 C 195.94131 22.508703 197.18945 25.878078 197.18945 30.205078 C 197.18945 34.448078 195.94131 37.777453 193.44531 40.189453 C 190.94831 42.602453 187.49494 43.808594 183.08594 43.808594 L 169.85547 43.808594 L 169.85547 16.351562 z " />
  <path
     style="fill:#000000"
     d="m 231.58599,93.730999 c 0,0 0,-91.108002 0,-91.108002 0,0 15.601,0 15.601,0 0,0 0,36.818001 0,36.818001 0,0 10.857,0 10.857,0 0,0 17.099,-36.818001 17.099,-36.818001 0,0 16.973,0 16.973,0 0,0 -20.344,43.682001 -20.344,43.682001 0,0 21.342,47.426001 21.342,47.426001 0,0 -17.348,0 -17.348,0 0,0 -17.971,-40.062001 -17.971,-40.062001 0,0 -10.608,0 -10.608,0 0,0 0,40.062001 0,40.062001 z"
     id="path9" />
  <path
     id="path8"
     style="fill:#000000"
     d="M 309.03906 2.6230469 L 309.03906 93.730469 L 338.36719 93.730469 C 344.44319 93.730469 349.6457 92.692329 353.9707 90.611328 C 358.3817 88.44733 361.78913 85.410954 364.20312 81.501953 C 366.61613 77.588951 367.82422 73.013485 367.82422 67.771484 C 367.82422 63.029485 366.78113 58.994016 364.70312 55.666016 C 362.70513 52.336016 359.9628 49.840734 356.4668 48.177734 C 354.12429 46.977646 351.54052 46.219416 348.72852 45.882812 C 351.1899 45.508523 353.44005 44.779977 355.46875 43.683594 C 358.62975 42.019594 361.12408 39.690311 362.95508 36.695312 C 364.78508 33.700312 365.70117 30.163937 365.70117 26.085938 C 365.70117 18.846937 363.12384 13.148281 357.96484 8.9882812 C 352.80684 4.7452813 345.81509 2.6230469 336.99609 2.6230469 L 309.03906 2.6230469 z M 324.26562 15.603516 L 336.74609 15.603516 C 340.90809 15.603516 344.15342 16.684656 346.48242 18.847656 C 348.89542 21.011656 350.10156 24.005984 350.10156 27.833984 C 350.10156 31.660983 348.89542 34.697359 346.48242 36.943359 C 344.15342 39.107359 340.90809 40.189453 336.74609 40.189453 L 324.26562 40.189453 L 324.26562 15.603516 z M 324.26562 52.794922 L 337.36914 52.794922 C 341.94614 52.794922 345.52447 54.125062 348.10547 56.789062 C 350.76647 59.367062 352.09766 62.779485 352.09766 67.021484 C 352.09766 71.265486 350.76647 74.636813 348.10547 77.132812 C 345.52447 79.545813 341.94614 80.751953 337.36914 80.751953 L 324.26562 80.751953 L 324.26562 52.794922 z " />
  <path
     id="path5"
     style="fill:#000000"
     d="M 414.20117 1.375 C 408.37617 1.375 403.30356 2.4981386 398.97656 4.7441406 C 394.73456 6.9071386 391.44719 10.02847 389.11719 14.105469 C 386.86919 18.099469 385.74609 22.840031 385.74609 28.332031 L 385.74609 68.021484 C 385.74609 73.511484 386.86919 78.296999 389.11719 82.375 C 391.44719 86.366997 394.73456 89.486377 398.97656 91.734375 C 403.30356 93.897377 408.37617 94.978516 414.20117 94.978516 C 420.11017 94.978516 425.18569 93.897377 429.42969 91.734375 C 433.67169 89.486377 436.91613 86.366997 439.16211 82.375 C 441.49312 78.296999 442.65625 73.511484 442.65625 68.021484 L 442.65625 28.207031 C 442.65625 22.798031 441.49312 18.099469 439.16211 14.105469 C 436.91613 10.02847 433.67169 6.9071386 429.42969 4.7441406 C 425.18569 2.4981386 420.11017 1.375 414.20117 1.375 z M 414.20117 15.103516 C 418.44617 15.103516 421.6495 16.226655 423.8125 18.472656 C 425.9765 20.718656 427.05664 24.005031 427.05664 28.332031 L 427.05664 68.021484 C 427.05664 72.263485 425.9765 75.551861 423.8125 77.880859 C 421.6495 80.127861 418.44617 81.251953 414.20117 81.251953 C 410.04217 81.251953 406.8378 80.127861 404.5918 77.880859 C 402.4288 75.551861 401.34766 72.263485 401.34766 68.021484 L 401.34766 28.332031 C 401.34766 24.005031 402.4288 20.718656 404.5918 18.472656 C 406.7558 16.226655 409.95717 15.103516 414.20117 15.103516 z " />
  <path
     style="fill:#000000"
     d="m 461.081,93.730999 c 0,0 0,-91.108002 0,-91.108002 0,0 18.472,0 18.472,0 0,0 8.85899,28.955 8.85899,28.955 0.91499,2.912001 1.66499,5.575001 2.248,7.987 0.58299,2.413001 0.957,4.160001 1.122,5.242001 0.167,-1.082 0.541,-2.829 1.124,-5.242001 0.583,-2.411999 1.29,-5.074999 2.12301,-7.987 0,0 8.48599,-28.955 8.48599,-28.955 0,0 18.47101,0 18.47101,0 0,0 0,91.108002 0,91.108002 0,0 -14.60302,0 -14.60302,0 0,0 0,-28.331001 0,-28.331001 0,-4.16 0.12601,-8.695 0.37401,-13.603 0.25,-4.91 0.541,-9.819 0.87399,-14.728 0.33301,-4.908001 0.709,-9.568001 1.12401,-13.978 0.498,-4.41 0.915,-8.279002 1.248,-11.607001 0,0 -12.23001,43.058001 -12.23001,43.058001 0,0 -14.22899,0 -14.22899,0 0,0 -12.604,-43.058001 -12.604,-43.058001 0.41499,3.162003 0.83,6.906 1.248,11.232001 0.41499,4.244001 0.789,8.821001 1.122,13.729 0.417,4.826 0.75,9.736 0.998,14.728 0.25,4.993 0.376,9.735 0.376,14.227 0,0 0,28.331001 0,28.331001 z"
     id="path3" />
  <path
     id="path2"
     style="fill:#000000"
     d="M 541.0332 2.6230469 L 541.0332 93.730469 L 570.36328 93.730469 C 576.4353 93.730469 581.63589 92.692329 585.96289 90.611328 C 590.37188 88.44733 593.78332 85.410954 596.19531 81.501953 C 598.6083 77.588951 599.81641 73.013485 599.81641 67.771484 C 599.81641 63.029485 598.7763 58.994016 596.69531 55.666016 C 594.6983 52.336016 591.95297 49.840734 588.45898 48.177734 C 586.11716 46.977646 583.53352 46.219416 580.7207 45.882812 C 583.18252 45.508523 585.4316 44.779977 587.45898 43.683594 C 590.62197 42.019594 593.11826 39.690311 594.94727 36.695312 C 596.77827 33.700312 597.69336 30.163937 597.69336 26.085938 C 597.69336 18.846937 595.11408 13.148281 589.95508 8.9882812 C 584.79709 4.7452813 577.80929 2.6230469 568.98828 2.6230469 L 541.0332 2.6230469 z M 556.25781 15.603516 L 568.73828 15.603516 C 572.89929 15.603516 576.14362 16.684656 578.47461 18.847656 C 580.88562 21.011656 582.09375 24.005984 582.09375 27.833984 C 582.09375 31.660983 580.88562 34.697359 578.47461 36.943359 C 576.14362 39.107359 572.89929 40.189453 568.73828 40.189453 L 556.25781 40.189453 L 556.25781 15.603516 z M 556.25781 52.794922 L 569.36328 52.794922 C 573.9393 52.794922 577.51865 54.125063 580.09766 56.789062 C 582.75867 59.367062 584.0918 62.779485 584.0918 67.021484 C 584.0918 71.265486 582.75867 74.636814 580.09766 77.132812 C 577.51865 79.545813 573.9393 80.751953 569.36328 80.751953 L 556.25781 80.751953 L 556.25781 52.794922 z " />
  <g
     opacity="1"
     id="g35"
     transform="translate(7.3200002,190.60899)"
     mask="none"
     clip-path="none"
     style="fill:#000000;fill-opacity:0.95226425">
    <path
       fill="#ffffff"
       fill-opacity="1"
       d="M 5.2800002,-4.8000002 C 3.96,-6.0100002 2.21,-6.6100001 0,-6.6100001 c -2.2,0 -3.99,0.5999999 -5.3499999,1.8099999 C -6.6599998,-3.5999999 -7.3200002,-2 -7.3200002,0 c 0,1.99 0.6600004,3.5899999 1.9700003,4.8000002 C -3.99,6.0100002 -2.2,6.6100001 0,6.6100001 c 2.21,0 3.96,-0.5999999 5.2800002,-1.8099999 C 6.6399999,3.5899999 7.3200002,1.99 7.3200002,0 c 0,-2 -0.6800003,-3.5999999 -2.04,-4.8000002 z"
       id="path34"
       style="fill:#000000;fill-opacity:0.95226425" />
  </g>
  <g
     opacity="1"
     id="g38"
     transform="translate(7.3200002,158.959)"
     mask="none"
     clip-path="none"
     style="fill:#000000;fill-opacity:0.95226425">
    <path
       fill="#ffffff"
       fill-opacity="1"
       d="m 0,6.6100001 c 2.21,0 3.96,-0.5999999 5.2800002,-1.8099999 C 6.6399999,3.54 7.3200002,1.9400001 7.3200002,0 c 0,-1.99 -0.6800003,-3.5899999 -2.04,-4.8000002 C 3.96,-6.0100002 2.21,-6.6100001 0,-6.6100001 c -2.2,0 -3.99,0.5999999 -5.3499999,1.8099999 C -6.6599998,-3.5899999 -7.3200002,-1.99 -7.3200002,0 c 0,1.9400001 0.6600004,3.54 1.9700003,4.8000002 C -3.99,6.0100002 -2.2,6.6100001 0,6.6100001 Z"
       id="path37"
       style="fill:#000000;fill-opacity:0.95226425" />
  </g>
  <g
     opacity="1"
     id="g41"
     transform="translate(58.150002,168.089)"
     mask="none"
     clip-path="none"
     style="fill:#000000;fill-opacity:0.95226425">
    <path
       fill="#ffffff"
       fill-opacity="1"
       d="m -0.79000002,-16.84 c 1.21000001,-2.89 2.94000012,-5.31 5.19999982,-7.25 2.31,-1.940001 5.0100003,-3.280001 8.1100002,-4.01 0,0 0,-9.690001 0,-9.690001 C 7.3699999,-36.419998 2.9100001,-34.27 -0.87,-31.33 c -3.7200002,2.889999 -6.61,6.4 -8.6599997,10.549999 C -11.52,-16.690001 -12.52,-12.12 -12.52,-7.0799999 c 0,0 0,14.25 0,14.25 0,7.6599999 2.18,14.1699999 6.54,19.5200009 4.35,5.299999 10.52,8.999998 18.5,11.1 0,0 0,-9.92 0,-9.92 C 9.4200001,27.139999 6.7199998,25.83 4.4099998,23.940001 2.1500001,22 0.41999999,19.610001 -0.79000002,16.77 -2,13.88 -2.5999999,10.68 -2.5999999,7.1700001 c 0,0 0,-14.25 0,-14.25 C -2.5999999,-10.7 -2,-13.96 -0.79000002,-16.84 Z"
       id="path40"
       style="fill:#000000;fill-opacity:0.95226425" />
  </g>
  <g
     opacity="1"
     id="g44"
     transform="translate(102.835,168.089)"
     mask="none"
     clip-path="none"
     style="fill:#000000;fill-opacity:0.95226425">
    <path
       fill="#ffffff"
       fill-opacity="1"
       d="M 9.4449997,-20.780001 C 7.4549999,-24.93 4.5949998,-28.440001 0.86500001,-31.33 -2.865,-34.27 -7.3249998,-36.419998 -12.515,-37.790001 c 0,0 0,9.690001 0,9.690001 3.1500002,0.729999 5.85,2.069999 8.1099998,4.01 2.2500002,1.94 3.98000019,4.36 5.19000023,7.25 C 1.995,-13.96 2.595,-10.7 2.595,-7.0799999 c 0,0 0,14.25 0,14.25 C 2.595,10.68 1.995,13.88 0.78500003,16.77 -0.42500001,19.610001 -2.155,22 -4.4050002,23.940001 -6.665,25.83 -9.3649998,27.139999 -12.515,27.870001 c 0,0 0,9.92 0,9.92 C -4.5349998,35.689999 1.625,31.99 5.9850001,26.690001 10.335,21.34 12.515,14.83 12.515,7.1700001 c 0,0 0,-14.25 0,-14.25 0,-5.0400001 -1.02,-9.6100011 -3.0700003,-13.7000011 z"
       id="path43"
       style="fill:#000000;fill-opacity:0.95226425" />
  </g>
  <g
     opacity="1"
     id="g47"
     transform="translate(153.66,168.129)"
     mask="none"
     clip-path="none"
     style="fill:#000000;fill-opacity:0.95226425">
    <path
       fill="#ffffff"
       fill-opacity="1"
       d="m 13.38,-27.99 c 0,0 4.02,0 4.02,0 0,0 0,-9.050001 0,-9.050001 0,0 -5.43,0 -5.43,0 -2.9400003,0 -5.5400002,0.549999 -7.7999999,1.66 C 1.97,-34.279999 0.28999999,-32.709999 -0.87,-30.66 c -1.15,2.049999 -1.65,4.49 -1.4899999,7.32 0,0 0.7899998,12.36 0.7899998,12.36 0.1500001,2.0999999 -0.2899999,3.6999998 -1.34,4.8000002 -1,1.1099996 -2.7,1.6599998 -5.1199996,1.6599998 0,0 -9.3700003,0 -9.3700003,0 0,0 0,9.0500002 0,9.0500002 0,0 9.3700003,0 9.3700003,0 2.4199996,0 4.1199996,0.5499997 5.1199996,1.6499996 1.0500001,1.1000004 1.4900001,2.73 1.34,4.8800002 0,0 -0.7899998,11.970001 -0.7899998,11.970001 C -2.52,25.92 -2.02,28.379999 -0.87,30.43 c 1.15999999,2.099999 2.84,3.73 5.0400001,4.880001 2.2599997,1.16 4.8599996,1.73 7.7999999,1.73 0,0 5.43,0 5.43,0 0,0 0,-9.130001 0,-9.130001 0,0 -4.02,0 -4.02,0 -1.83,0 -3.3,-0.469999 -4.4000005,-1.42 C 7.9299998,25.5 7.4299998,24.129999 7.48,22.4 7.48,22.4 8.2700005,10.12 8.2700005,10.12 8.4799995,6.9699998 7.5300002,4.4499998 5.4299998,2.5599999 4.0300002,1.23 2.25,0.34999999 0.09,-0.07 2.29,-0.47 4.0999999,-1.33 5.5100002,-2.6300001 7.5599999,-4.52 8.4799995,-7.02 8.2700005,-10.11 8.2700005,-10.11 7.48,-22.389999 7.48,-22.389999 7.3800001,-24.34 7.8499999,-25.75 8.8999996,-26.65 10,-27.540001 11.5,-27.99 13.38,-27.99 Z"
       id="path46"
       style="fill:#000000;fill-opacity:0.95226425" />
  </g>
  <g
     opacity="1"
     id="g50"
     transform="translate(251.22,158.959)"
     mask="none"
     clip-path="none"
     style="fill:#000000;fill-opacity:0.95226425">
    <path
       fill="#ffffff"
       fill-opacity="1"
       d="m 5.27,-4.8000002 c -1.31,-1.21 -3.07,-1.8099999 -5.27,-1.8099999 -2.2,0 -3.99,0.5999999 -5.3499999,1.8099999 C -6.6700001,-3.5899999 -7.3200002,-1.99 -7.3200002,0 c 0,1.9400001 0.6500001,3.54 1.9700003,4.8000002 C -3.99,6.0100002 -2.2,6.6100001 0,6.6100001 c 2.2,0 3.96,-0.5999999 5.27,-1.8099999 C 6.6399999,3.54 7.3200002,1.9400001 7.3200002,0 7.3200002,-1.99 6.6399999,-3.5899999 5.27,-4.8000002 Z"
       id="path49"
       style="fill:#000000;fill-opacity:0.95226425" />
  </g>
  <g
     opacity="1"
     id="g53"
     transform="translate(251.22,190.60899)"
     mask="none"
     clip-path="none"
     style="fill:#000000;fill-opacity:0.95226425">
    <path
       fill="#ffffff"
       fill-opacity="1"
       d="m 5.27,-4.8000002 c -1.31,-1.21 -3.07,-1.8099999 -5.27,-1.8099999 -2.2,0 -3.99,0.5999999 -5.3499999,1.8099999 C -6.6700001,-3.5999999 -7.3200002,-2 -7.3200002,0 c 0,1.99 0.6500001,3.5899999 1.9700003,4.8000002 C -3.99,6.0100002 -2.2,6.6100001 0,6.6100001 c 2.2,0 3.96,-0.5999999 5.27,-1.8099999 C 6.6399999,3.5899999 7.3200002,1.99 7.3200002,0 7.3200002,-2 6.6399999,-3.5999999 5.27,-4.8000002 Z"
       id="path52"
       style="fill:#000000;fill-opacity:0.95226425" />
  </g>
  <g
     opacity="1"
     id="g56"
     transform="translate(300,168.089)"
     mask="none"
     clip-path="none"
     style="fill:#000000;fill-opacity:0.95226425">
    <path
       fill="#ffffff"
       fill-opacity="1"
       d="m -4.96,-37 c 0,0 0,74 0,74 0,0 9.92,0 9.92,0 0,0 0,-74 0,-74 z"
       id="path55"
       style="fill:#000000;fill-opacity:0.95226425" />
  </g>
  <g
     opacity="1"
     id="g59"
     transform="translate(348.78,158.959)"
     mask="none"
     clip-path="none"
     style="fill:#000000;fill-opacity:0.95226425">
    <path
       fill="#ffffff"
       fill-opacity="1"
       d="M 5.2800002,-4.8000002 C 3.96,-6.0100002 2.2,-6.6100001 0,-6.6100001 c -2.2,0 -3.99,0.5999999 -5.3499999,1.8099999 C -6.6700001,-3.5899999 -7.3200002,-1.99 -7.3200002,0 c 0,1.9400001 0.6500001,3.54 1.9700003,4.8000002 C -3.99,6.0100002 -2.2,6.6100001 0,6.6100001 c 2.2,0 3.96,-0.5999999 5.2800002,-1.8099999 C 6.6399999,3.54 7.3200002,1.9400001 7.3200002,0 c 0,-1.99 -0.6800003,-3.5899999 -2.04,-4.8000002 z"
       id="path58"
       style="fill:#000000;fill-opacity:0.95226425" />
  </g>
  <g
     opacity="1"
     id="g62"
     transform="translate(348.78,190.60899)"
     mask="none"
     clip-path="none"
     style="fill:#000000;fill-opacity:0.95226425">
    <path
       fill="#ffffff"
       fill-opacity="1"
       d="M 5.2800002,-4.8000002 C 3.96,-6.0100002 2.2,-6.6100001 0,-6.6100001 c -2.2,0 -3.99,0.5999999 -5.3499999,1.8099999 C -6.6700001,-3.5999999 -7.3200002,-2 -7.3200002,0 c 0,1.99 0.6500001,3.5899999 1.9700003,4.8000002 C -3.99,6.0100002 -2.2,6.6100001 0,6.6100001 c 2.2,0 3.96,-0.5999999 5.2800002,-1.8099999 C 6.6399999,3.5899999 7.3200002,1.99 7.3200002,0 c 0,-2 -0.6800003,-3.5999999 -2.04,-4.8000002 z"
       id="path61"
       style="fill:#000000;fill-opacity:0.95226425" />
  </g>
  <g
     opacity="1"
     id="g65"
     transform="translate(398.23001,167.69901)"
     mask="none"
     clip-path="none"
     style="fill:#000000;fill-opacity:0.95226425">
    <path
       fill="#ffffff"
       fill-opacity="1"
       d="m 12.08,16.370001 c 0,0 8.43,-15.98000101 8.43,-15.98000101 0,0 -9.53,0 -9.53,0 0,0 -4.3299999,8.26999981 -4.3299999,8.26999981 0,0 -10.8600001,-15.3499999 -10.8600001,-15.3499999 -1.1599999,-1.5800004 -2.08,-3.1200003 -2.7599998,-4.6499999 -0.6300001,-1.52 -0.94,-2.91 -0.94,-4.17 0,-1.209999 0.23,-2.26 0.71,-3.15 0.52,-0.889999 1.25,-1.57 2.1999998,-2.049999 C -4.0599999,-21.18 -2.95,-21.41 -1.6900001,-21.41 -0.38,-21.41 0.75,-21.15 1.6900001,-20.629999 2.6900001,-20.15 3.45,-19.450001 3.97,-18.5 c 0.53,0.940001 0.7900002,2.049999 0.7900002,3.31 0,0 9.1299998,0 9.1299998,0 0,-2.89 -0.65,-5.38 -1.96,-7.48 -1.26,-2.16 -3.0799996,-3.84 -5.4400002,-5.039999 C 4.1799998,-28.92 1.46,-29.52 -1.6900001,-29.52 c -3.0499997,0 -5.6999998,0.569999 -7.9500002,1.729999 C -11.9,-26.690001 -13.66,-25.139999 -14.92,-23.15 c -1.26,1.949999 -1.889999,4.23 -1.889999,6.850001 0,2.099999 0.42,4.229999 1.259999,6.3799989 0.68,1.6300001 1.56,3.3000002 2.67,4.9900003 C -15.12,-4.2199998 -16.93,-3 -18.299999,-1.26 -20.040001,1 -20.9,3.8800001 -20.9,7.4000001 c 0,0 0,7.3199999 0,7.3199999 0,4.62 1.31,8.239999 3.930001,10.87 2.629999,2.619999 6.299999,3.93 11.0199992,3.93 5.1999998,0 9.6399999,-1.989999 13.3099999,-5.979999 0,0 3.6999999,5.199999 3.6999999,5.199999 0,0 9.84,0 9.84,0 z M -0.91000003,20.15 C -2.22,20.99 -3.6400001,21.41 -5.1599998,21.41 -7.1500001,21.41 -8.7299995,20.84 -9.8800001,19.68 -10.98,18.469999 -11.54,16.82 -11.54,14.72 c 0,0 0,-7.3199999 0,-7.3199999 0,-1.52 0.27,-2.7600002 0.79,-3.7000001 0.53,-1 1.3400002,-1.71 2.4399996,-2.1299999 0,0 10.7900004,15.1200009 10.7900004,15.1200009 C 1.53,18.16 0.41,19.309999 -0.91000003,20.15 Z"
       id="path64"
       style="fill:#000000;fill-opacity:0.95226425" />
  </g>
  <g
     opacity="1"
     id="g68"
     transform="translate(495.12,168.129)"
     mask="none"
     clip-path="none"
     style="fill:#000000;fill-opacity:0.95226425">
    <path
       fill="#ffffff"
       fill-opacity="1"
       d="M 8.0299997,-4.52 C 5.6700001,-4.52 3.96,-5.0700002 2.9100001,-6.1799998 1.86,-7.2800002 1.42,-8.8800001 1.5700001,-10.98 c 0,0 0.7899998,-12.36 0.7899998,-12.36 C 2.52,-26.17 2.02,-28.610001 0.86000001,-30.66 -0.28999999,-32.709999 -2,-34.279999 -4.25,-35.380001 c -2.21,-1.110001 -4.7799997,-1.66 -7.72,-1.66 0,0 -5.43,0 -5.43,0 0,0 0,9.050001 0,9.050001 0,0 4.01,0 4.01,0 1.9,0 3.36,0.449999 4.4100005,1.34 1.1099996,0.9 1.5999994,2.31 1.4999995,4.260001 0,0 -0.7900005,12.279999 -0.7900005,12.279999 -0.209999,3.09 0.7100006,5.59 2.7600003,7.4799999 C -4.0599999,-1.33 -2.25,-0.47999999 -0.07,-0.07 -2.25,0.34 -4.0599999,1.22 -5.5100002,2.5599999 -7.5599999,4.4499998 -8.4799995,6.9699998 -8.2700005,10.12 c 0,0 0.7900005,12.28 0.7900005,12.28 0.1,1.729999 -0.3899999,3.1 -1.4999995,4.09 C -10.08,27.440001 -11.55,27.91 -13.39,27.91 c 0,0 -4.01,0 -4.01,0 0,0 0,9.130001 0,9.130001 0,0 5.43,0 5.43,0 2.9400003,0 5.51,-0.57 7.72,-1.73 C -2,34.16 -0.28999999,32.529999 0.86000001,30.43 2.02,28.379999 2.52,25.92 2.3599999,23.030001 2.3599999,23.030001 1.5700001,11.06 1.5700001,11.06 1.42,8.9099998 1.86,7.2800002 2.9100001,6.1799998 3.96,5.0799999 5.6700001,4.5300002 8.0299997,4.5300002 c 0,0 9.3700003,0 9.3700003,0 0,0 0,-9.0500002 0,-9.0500002 z"
       id="path67"
       style="fill:#000000;fill-opacity:0.95226425" />
  </g>
  <g
     opacity="1"
     id="g71"
     transform="translate(541.92999,196.789)"
     mask="none"
     clip-path="none"
     style="fill:#000000;fill-opacity:0.95226425">
    <path
       fill="#ffffff"
       fill-opacity="1"
       d="m -3.1500001,-12.24 c 0,0 -6.2999997,24.48 -6.2999997,24.48 0,0 8.65999978,0 8.65999978,0 0,0 10.23999982,-24.48 10.23999982,-24.48 z"
       id="path70"
       style="fill:#000000;fill-opacity:0.95226425" />
  </g>
  <g
     opacity="1"
     id="g74"
     transform="translate(543.90002,158.959)"
     mask="none"
     clip-path="none"
     style="fill:#000000;fill-opacity:0.95226425">
    <path
       fill="#ffffff"
       fill-opacity="1"
       d="M 5.5100002,-4.7199998 C 4.25,-5.98 2.6800001,-6.6100001 0.79000002,-6.6100001 c 0,0 -1.58000004,0 -1.58000004,0 C -2.6800001,-6.6100001 -4.25,-5.98 -5.5100002,-4.7199998 -6.77,-3.46 -7.4000001,-1.89 -7.4000001,0 c 0,1.89 0.5999999,3.47 1.8099999,4.7199998 C -4.3299999,5.98 -2.73,6.6100001 -0.79000002,6.6100001 c 0,0 1.58000004,0 1.58000004,0 C 2.73,6.6100001 4.3000002,5.98 5.5100002,4.7199998 6.77,3.47 7.4000001,1.89 7.4000001,0 7.4000001,-1.89 6.77,-3.46 5.5100002,-4.7199998 Z"
       id="path73"
       style="fill:#000000;fill-opacity:0.95226425" />
  </g>
  <g
     opacity="1"
     id="g77"
     transform="translate(592.67999,158.959)"
     mask="none"
     clip-path="none"
     style="fill:#000000;fill-opacity:0.95226425">
    <path
       fill="#ffffff"
       fill-opacity="1"
       d="m 5.27,-4.8000002 c -1.31,-1.21 -3.07,-1.8099999 -5.27,-1.8099999 -2.21,0 -3.99,0.5999999 -5.3499999,1.8099999 C -6.6700001,-3.5899999 -7.3200002,-1.99 -7.3200002,0 c 0,1.9400001 0.6500001,3.54 1.9700003,4.8000002 C -3.99,6.0100002 -2.21,6.6100001 0,6.6100001 c 2.2,0 3.96,-0.5999999 5.27,-1.8099999 C 6.6399999,3.54 7.3200002,1.9400001 7.3200002,0 7.3200002,-1.99 6.6399999,-3.5899999 5.27,-4.8000002 Z"
       id="path76"
       style="fill:#000000;fill-opacity:0.95226425" />
  </g>
  <g
     id="g234"
     style="fill:#000000" />
  <g
     opacity="1"
     id="g80"
     transform="translate(592.67999,190.60899)"
     mask="none"
     clip-path="none"
     style="fill:#000000;fill-opacity:0.95226425">
    <path
       fill="#ffffff"
       fill-opacity="1"
       d="m 5.27,-4.8000002 c -1.31,-1.21 -3.07,-1.8099999 -5.27,-1.8099999 -2.21,0 -3.99,0.5999999 -5.3499999,1.8099999 C -6.6700001,-3.5999999 -7.3200002,-2 -7.3200002,0 c 0,1.99 0.6500001,3.5899999 1.9700003,4.8000002 C -3.99,6.0100002 -2.21,6.6100001 0,6.6100001 c 2.2,0 3.96,-0.5999999 5.27,-1.8099999 C 6.6399999,3.5899999 7.3200002,1.99 7.3200002,0 7.3200002,-2 6.6399999,-3.5999999 5.27,-4.8000002 Z"
       id="path79"
       style="fill:#000000;fill-opacity:0.95226425" />
  </g>
</svg>
