<svg width="819" height="669" viewBox="0 0 819 669" fill="none" xmlns="http://www.w3.org/2000/svg">
<g clip-path="url(#clip0_147_655)">
<path d="M202.995 0C203.734 3.93007 208.234 0.716024 217.396 6.66935C225.516 11.946 231.651 9.39385 231.627 18.0559C231.612 25.0058 231.231 31.987 231.737 38.9602C234.913 38.9835 238.144 37.9714 240.106 40.0102C242.854 42.8664 240.175 47.2869 236.999 48.7267C232.577 50.7346 224.94 56.8447 228.241 61.1251C231.269 65.0554 231.137 69.289 231.059 73.9819L230.709 94.2094C230.592 101.175 231.316 108.965 233.776 115.533C237.521 125.533 241.982 134.92 246.917 144.298C249.774 149.722 253.714 154.05 255.785 159.996C257.793 165.778 261.833 170.362 264.768 175.701C269.003 183.39 272.911 191.087 276.049 199.306C280.432 210.777 280.759 233.791 283.5 241.667C285.228 246.632 289.798 251.777 294.064 254.835C303.274 261.442 310.825 268.906 319.856 275.497L330.669 283.389C336.881 287.919 340.992 293.507 345.367 299.966L354.375 313.26C356.796 316.832 359.201 320.217 358.866 325.073C358.664 328.101 359.583 332.07 358.314 334.981C353.713 345.565 344.612 353.153 333.908 356.912C330.56 358.087 330.49 360.298 329.843 363.263C328.582 369.061 328.458 374.626 328.465 380.447C328.481 387.436 330.957 393.101 332.662 399.732C334.523 406.97 325.445 422.287 316.251 421.135C316.204 423.391 318.174 423.563 318.719 425.112C320.182 429.252 322.401 433.338 323.008 437.844C323.826 443.837 319.964 449.697 320.369 455.354L320.883 462.507C320.579 458.275 319.646 481.365 320.79 483.357C323.997 488.898 326.582 494.424 328.325 500.548C330.178 507.039 327.874 512.931 325.951 519.056C323.312 527.453 319.264 534.255 312.25 539.617C309.237 541.921 306.574 544.303 302.806 545.727C278.081 555.105 254.235 550.739 235.894 554.607C231.191 555.596 225.516 559.502 222.169 563.02C213.932 571.682 201.982 590.866 199.825 601.342L192.531 636.768C195.466 637.313 196.136 638.839 197.731 640.294C208.374 650.03 207.245 646.333 214.921 649.571L228.443 655.283C233.06 657.237 235.636 660.28 238.003 664.264C239.012 665.959 240.162 667.413 241.19 669H-1V0H202.995Z" fill="#292929"/>
<path d="M820 669H576.566C578.003 665.754 580.949 663.12 582.775 660.069C585.263 655.913 590.737 655.034 594.725 653.019C610.617 644.995 607.639 651.726 620.904 639.367C622.124 638.231 622.451 637.103 625.257 636.978L618.252 601.933C617.179 596.587 614.287 591.605 611.884 586.586C606.582 575.503 594.732 557.401 582.145 554.529C568.072 551.322 546.861 554.194 522.564 548.108C514.556 546.1 508.406 542.442 502.544 536.777C497.257 531.671 494.27 525.64 491.891 518.542C489.768 512.207 487.779 505.794 490.026 499.147C491.853 493.739 493.843 488.532 497.116 483.816C498.165 482.306 496.689 480.282 497.039 479.06C498.788 472.967 497.785 467.573 497.218 461.534C496.884 458.009 498.166 454.903 496.782 451.051C495.398 447.198 494.364 442.225 494.901 438.022C495.391 434.201 498.952 424.746 501.626 421.524C491.876 420.816 483.876 407.88 485.423 399.989C486.908 392.424 490.142 386.004 489.605 377.871C489.271 372.82 489.325 367.839 488.097 362.796C487.491 360.305 487.755 358.149 484.777 357.091C474.164 353.301 464.997 346.475 460.184 335.992C458.637 332.622 459.05 328.287 459.05 324.738C459.05 319.96 461.289 316.637 463.722 313.041L472.423 300.2C476.909 293.577 481.154 287.779 487.514 283.148L498.252 275.334C506.859 269.069 513.911 261.846 522.689 255.589C527.416 252.219 532.633 246.88 534.499 241.425C537.22 233.494 537.399 210.839 542.11 198.504C545.119 190.628 548.968 183.359 552.949 175.934C555.709 170.782 559.721 166.323 561.673 160.828C563.865 154.657 567.722 150.143 570.77 144.547C575.894 135.123 580.271 125.44 584.135 115.361C586.755 108.528 587.222 100.567 587.136 93.3523L586.911 74.5961C586.864 70.6504 586.235 66.3156 588.591 62.9225C590.705 59.8874 590.836 56.5951 588.022 53.778C585.892 51.6458 583.49 49.778 580.536 48.4006C577.581 47.0231 575.14 42.4857 577.876 39.8006C579.843 37.8709 583.288 38.8738 586.094 38.8505C586.887 31.3404 586.001 23.9543 586.413 16.5064C586.826 9.05894 592.859 11.8446 600.571 6.51361C608.592 0.96844 614.207 3.6776 615.004 0H820V669Z" fill="#292929"/>
</g>
<defs>
<clipPath id="clip0_147_655">
<rect width="819" height="669" fill="white"/>
</clipPath>
</defs>
</svg>
