<svg width="300" height="300" viewBox="0 0 300 300" fill="none" xmlns="http://www.w3.org/2000/svg">
<path d="M149.5 269.059C215.531 269.059 269.059 215.531 269.059 149.5C269.059 83.4693 215.531 29.9409 149.5 29.9409C83.4693 29.9409 29.9409 83.4693 29.9409 149.5C29.9409 215.531 83.4693 269.059 149.5 269.059Z" fill="white" stroke="black" stroke-width="3" stroke-miterlimit="1.5" stroke-linecap="round" stroke-linejoin="round"/>
<path fill-rule="evenodd" clip-rule="evenodd" d="M149.5 28.4409C82.6859 28.4409 28.4409 82.6859 28.4409 149.5C28.4409 216.314 82.6859 270.559 149.5 270.559C216.314 270.559 270.559 216.314 270.559 149.5C270.559 82.6859 216.314 28.4409 149.5 28.4409ZM237.334 192.472C237.8 192.797 238.371 193.133 238.776 192.632C239.133 192.05 239.411 191.423 239.605 190.768L240.434 191.314C240.019 192.499 237.797 192.831 238.866 194.752C238.113 194.189 237.781 194.503 237.383 195.042C236.985 195.581 236.893 196.06 237.383 196.5C237.872 196.939 238.262 196.5 238.635 196.185C239.256 195.638 239.895 195.125 240.525 194.595C240.47 194.81 240.381 195.014 240.259 195.199C239.679 195.853 239.041 196.45 238.502 197.138C238.328 197.361 238.411 197.776 238.369 198.106C238.672 198.122 238.975 198.102 239.273 198.049C239.472 197.991 239.621 197.758 239.812 197.627C240.276 197.287 240.757 196.955 241.23 196.624C241.03 197.56 240.591 198.355 241.951 198.587C242.067 198.587 242.108 199.034 242.2 199.258C242.291 199.482 242.464 200.178 242.623 200.186C243.05 200.151 243.464 200.028 243.841 199.822C244.129 199.661 244.406 199.482 244.67 199.283C243.783 201.196 241.669 201.569 241.006 203.367C240.875 203.29 240.754 203.194 240.65 203.085C239.389 201.428 238.212 199.681 236.869 198.115C235.211 196.11 233.42 194.147 231.555 192.317C230.196 191.009 228.744 189.799 227.211 188.697C224.948 187.041 222.594 185.434 220.298 183.778C217.176 181.665 213.87 179.84 210.417 178.327C208.079 177.218 205.625 176.356 203.187 175.47C200.751 174.583 198.081 173.606 195.47 172.869C192.858 172.132 190.289 171.601 187.686 171.054C186.028 170.715 184.428 170.458 182.779 170.227C181.495 170.091 180.206 170.022 178.915 170.02C178.294 170.015 177.676 170.107 177.083 170.293C176.86 170.359 176.751 170.79 176.594 171.046C176.816 171.206 177.055 171.34 177.307 171.444C177.73 171.585 178.136 171.659 178.6 171.758L178.534 172.082C177.564 171.983 176.602 171.867 175.624 171.808C175.326 171.808 174.796 171.866 174.796 171.999C174.712 172.313 174.796 172.877 174.953 172.993C175.407 173.211 175.9 173.338 176.403 173.365C177.232 173.474 178.12 173.514 178.974 173.589V173.962C178.764 174.068 178.536 174.136 178.302 174.16C177.2 174.045 176.105 173.879 174.986 173.755C174.367 173.652 173.74 173.603 173.113 173.606C172.805 173.606 172.283 173.888 172.283 174.12C172.239 174.227 172.223 174.345 172.237 174.461C172.251 174.576 172.295 174.687 172.364 174.781C172.433 174.875 172.525 174.95 172.632 174.997C172.739 175.046 172.855 175.065 172.972 175.055C173.129 175.055 173.278 175.279 173.576 175.511C173.346 175.544 173.113 175.558 172.881 175.552C171.055 175.107 169.128 175.346 167.467 176.224C167.284 176.331 166.904 176.057 166.638 175.983C166.372 175.908 165.809 175.643 165.47 175.776C164.997 175.991 164.806 175.999 164.524 175.552C164.274 175.255 163.973 175.002 163.638 174.807C163.098 174.377 162.162 173.979 162.096 173.523C161.955 172.571 161.93 171.816 160.984 171.866C161.175 171.394 161.631 170.831 161.507 170.45C161.419 170.219 161.396 169.969 161.439 169.726C161.48 169.482 161.588 169.255 161.747 169.066C162.228 168.346 162.054 167.493 161.465 167.41C160.213 167.302 158.979 167.228 157.694 167.228C156.408 167.228 154.934 167.344 153.549 167.386C153.277 167.333 153.013 167.25 152.761 167.137C153.06 166.972 153.142 166.897 153.225 166.889C155.845 166.673 158.464 166.524 161.075 166.234C162.037 166.127 163.173 166.425 163.936 165.555C164.466 164.95 164.881 164.254 165.362 163.608C166.464 162.142 167.691 160.743 168.677 159.186C169.183 158.357 170.551 157.72 169.813 156.577C170.237 156.312 170.644 156.021 171.031 155.706C171.309 155.414 171.562 155.098 171.786 154.762C171.977 154.505 172.151 154.249 172.333 153.984C172.551 153.576 172.831 153.205 173.163 152.882C173.552 152.584 173.776 152.368 173.345 151.98C172.914 151.59 172.416 151.201 171.943 150.811C172.316 150.777 172.69 150.816 173.046 150.928C173.519 150.977 174.182 151.101 174.439 150.853C174.862 150.455 174.796 149.85 174.116 149.536C174.033 149.536 173.991 149.371 173.85 149.18C175.276 149.776 175.616 149.568 175.799 148.268C175.799 147.945 176.196 147.673 176.387 147.365C176.578 147.059 176.959 146.695 176.91 146.422C176.86 146.148 176.445 145.792 176.139 145.593C175.838 145.402 175.522 145.239 175.193 145.104C173.685 144.334 172.217 143.448 170.659 142.827C169.1 142.205 167.566 141.841 166.042 141.294C164.516 140.748 162.808 139.969 161.159 139.423C159.509 138.876 157.66 138.403 155.895 137.932C154.224 137.419 152.528 136.996 150.813 136.664C148.326 136.266 145.723 136.093 143.178 135.836C141.197 135.604 139.232 135.323 137.251 135.115C137.076 135.107 136.9 135.135 136.736 135.198C136.573 135.261 136.423 135.356 136.298 135.48C136.149 135.645 136.206 136.093 136.298 136.366C136.644 137.401 137.063 138.412 137.55 139.389C138.014 140.217 137.814 141.501 139 141.875C138.71 143.63 140.434 143.307 141.221 144.152L139.564 143.945C139.562 144.107 139.54 144.268 139.497 144.426C139.133 145.361 139.315 145.925 140.434 146.082C140.816 146.132 141.147 146.529 141.67 146.91C140.79 147.035 139.888 146.603 139.647 147.598C139.574 147.839 139.551 148.092 139.577 148.342C139.605 148.593 139.682 148.835 139.804 149.055C139.995 149.271 140.716 149.055 141.122 148.997L143.833 150.712C143.097 150.604 142.397 150.32 141.794 149.884C141.064 149.279 140.401 149.817 139.788 149.958C139.548 150.008 139.506 151.01 139.315 151.855C138.486 152.327 138.486 152.336 139.365 153.396C139.522 153.586 139.439 153.967 139.473 154.224L138.511 154.157C138.229 154.157 137.939 154.157 137.682 154.108C137.67 154.41 137.693 154.713 137.748 155.01C137.806 155.201 138.022 155.35 138.263 155.64L137.144 156.121C137.019 156.17 136.906 156.244 136.812 156.339C136.718 156.434 136.645 156.546 136.595 156.671C136.546 156.795 136.523 156.928 136.528 157.06C136.532 157.194 136.564 157.325 136.621 157.446C136.687 157.628 137.21 157.67 137.533 157.744C137.722 157.774 137.914 157.791 138.105 157.794L137.981 159.136L139.829 158.307L140.029 158.605C139.788 158.887 139.597 159.277 139.29 159.434C138.346 159.881 138.511 160.47 139.067 161.422L140.874 159.649C141.702 159.21 141.702 159.21 142.217 158.225C142.3 158.076 142.49 157.868 142.631 157.868C142.994 157.903 143.356 157.798 143.642 157.573C143.928 157.346 144.115 157.02 144.165 156.659C144.165 156.535 144.38 156.444 144.496 156.336C145.449 155.507 146.47 154.68 147.348 153.76C148.592 152.435 149.735 151.002 150.921 149.618L151.219 149.767C151.201 150.014 151.139 150.255 151.037 150.48C149.901 152.037 148.765 153.594 147.571 155.102C146.378 156.609 145.085 158.265 143.692 159.757C141.811 161.844 139.937 163.964 137.889 165.87C135.787 167.788 133.572 169.581 131.257 171.237C128.895 172.951 126.425 174.55 123.913 176.033C121.45 177.494 118.913 178.826 116.311 180.025C112.796 181.632 109.232 183.148 105.618 184.49C102.848 185.517 99.9719 186.237 97.1369 187.066C95.5699 187.522 94.0109 188.001 92.4119 188.317C89.0959 188.971 85.7799 189.55 82.4059 190.105C80.6399 190.403 78.8499 190.602 77.0759 190.843C74.8369 191.141 72.5989 191.53 70.3529 191.671C68.3049 191.82 66.2079 191.721 64.1929 191.671C63.6099 191.625 63.0299 191.533 62.4609 191.397V191.133C63.3889 191.133 64.3179 191.182 65.2379 191.133C67.1199 191.033 68.9929 190.9 70.8749 190.727C71.4479 190.68 72.0089 190.534 72.5329 190.296C72.8399 190.155 73.0389 189.733 73.2289 189.401C73.2289 189.351 72.9309 188.995 72.7489 188.971C72.1599 188.896 71.5459 188.921 70.9499 188.88C70.6699 188.844 70.3929 188.792 70.1209 188.723V188.367H71.8529C72.2909 188.443 72.7419 188.361 73.1259 188.136C73.5099 187.912 73.8019 187.559 73.9509 187.14C74.0409 186.824 74.1019 186.499 74.1329 186.171C73.7709 186.075 73.3969 186.03 73.0219 186.039C72.6489 186.104 72.3259 186.411 71.9609 186.519C71.7619 186.569 71.5129 186.428 71.2889 186.37C71.3809 186.18 71.4299 185.931 71.5799 185.814C71.9609 185.525 72.4089 185.293 72.7979 185.036C72.9629 185.218 73.1659 185.361 73.3919 185.455C73.6189 185.55 73.8629 185.592 74.1079 185.58C74.3529 185.568 74.5929 185.502 74.8089 185.386C75.0259 185.271 75.2139 185.109 75.3599 184.912C75.7159 184.374 75.5169 183.919 74.8789 183.943C74.1559 184.008 73.4359 184.11 72.7239 184.249L72.1769 183.422C72.4569 183.373 72.7339 183.307 73.0049 183.223C73.3539 183.074 73.6849 182.883 74.0249 182.708L73.4859 181.706C73.2209 181.218 72.9559 180.721 72.6569 180.249C72.1429 179.421 71.6209 178.592 71.0569 177.763C70.9739 177.648 70.7009 177.632 70.5099 177.614C70.3199 177.598 69.9049 177.614 69.5979 177.614H68.6369V177.358L70.1949 177.226C70.3279 176.908 70.3369 176.552 70.2199 176.23C70.1039 175.906 69.8699 175.637 69.5649 175.478C69.3909 175.361 69.1089 175.172 69.1259 175.031C69.1559 174.785 69.1359 174.537 69.0689 174.299C69.0009 174.061 68.8869 173.84 68.7329 173.647C68.5779 173.454 68.3869 173.294 68.1699 173.176C67.9519 173.058 67.7139 172.985 67.4679 172.959C68.1059 171.908 68.0649 171.75 67.0619 171.088C67.0619 170.74 67.1859 170.218 67.0619 170.127C66.1079 169.506 66.4069 168.471 66.1249 167.642C65.1139 164.669 63.9779 161.737 62.9169 158.78C62.6519 158.067 62.2209 157.877 61.7069 158.44C60.2599 159.873 58.9399 161.427 57.7609 163.087C55.7129 166.358 53.2509 169.406 51.8169 173.026C50.9879 175.113 50.0259 177.168 49.2469 179.246C48.6829 180.803 48.2179 182.394 47.8539 184.009C47.5059 185.404 47.2999 186.831 47.2409 188.267C47.2409 190.346 46.7849 192.408 47.3239 194.521C48.2609 198.373 49.7999 202.054 51.8829 205.429C53.8439 208.57 56.1829 211.46 58.8469 214.035C60.8279 215.923 62.9909 217.596 65.1139 219.352C67.8069 221.458 70.7259 223.258 73.8179 224.72C75.8989 225.788 78.1529 226.492 80.3339 227.362C83.0069 228.638 85.8869 229.422 88.8389 229.673C90.9359 230.013 92.9839 230.352 95.1309 230.617C96.3659 230.775 97.6169 230.775 98.8689 230.849C100.909 230.973 102.94 231.197 104.97 231.197C107.002 231.197 108.908 231.006 110.873 230.824C113.965 230.526 117.066 230.27 120.133 229.789C122.736 229.379 125.31 228.806 127.842 228.074C130.52 227.295 133.139 226.327 135.751 225.333C138.294 224.426 140.785 223.378 143.212 222.193C146.818 220.322 150.349 218.284 153.831 216.172C155.965 214.858 158.017 213.415 159.973 211.848C161.631 210.515 163.09 208.883 164.757 207.525C166.236 206.238 167.558 204.782 168.694 203.184C169.217 202.505 169.821 201.876 170.56 201.023C170.574 201.299 170.574 201.574 170.56 201.85C170.395 202.822 169.889 203.703 169.133 204.336C168.246 205.115 168.006 206.406 166.853 207.044C166.364 207.318 165.527 207.873 166.024 208.601C165.353 209.223 164.25 209.794 164.284 210.307C164.334 211.219 164.019 211.335 163.356 211.484C163.13 211.533 162.93 211.663 162.792 211.848C162.087 212.925 161.433 214.027 160.139 214.532C159.965 214.598 159.841 215.037 159.882 215.269C159.923 215.501 160.296 215.518 160.537 215.55C160.941 215.572 161.344 215.572 161.747 215.55V215.882C161.479 215.983 161.201 216.058 160.918 216.105C160.325 216.055 159.729 216.055 159.136 216.105C158.5 216.302 157.886 216.564 157.304 216.884L157.37 217.405L160.521 217.986V218.268H157.105C156.618 218.25 156.136 218.35 155.695 218.557C155.339 218.756 155.14 219.236 154.867 219.584C155.247 219.88 155.676 220.108 156.136 220.255C157.578 220.413 159.037 220.445 160.495 220.529C158.771 221.225 156.815 220.23 155.182 221.356C154.353 220.33 153.656 220.197 152.587 220.81C151.908 221.207 152.065 221.638 152.48 222.376L154.966 221.73L155.049 222.442L152.894 223.154C152.371 222.086 151.368 222.326 150.473 222.442C150.175 222.442 149.926 222.955 149.645 223.229C149.932 223.461 150.246 223.659 150.581 223.817C150.874 223.867 151.174 223.867 151.467 223.817C152.562 223.817 152.562 223.817 153.201 224.744L152.902 224.678C152.627 224.571 152.333 224.518 152.038 224.525C151.742 224.532 151.451 224.597 151.18 224.718C150.911 224.838 150.667 225.011 150.465 225.226C150.262 225.441 150.104 225.694 150.001 225.971C149.942 226.063 149.866 226.142 149.776 226.205C149.686 226.267 149.585 226.312 149.478 226.335C149.025 226.382 148.576 226.465 148.135 226.583C147.845 226.699 147.672 227.072 147.448 227.337C147.704 227.552 147.953 227.942 148.218 227.958C149.238 228.033 150.265 227.958 151.195 227.958C151.459 228.248 151.692 228.721 151.899 228.703C152.86 228.654 153.814 228.472 154.767 228.339C154.974 228.339 155.206 228.206 155.381 228.273C155.451 228.332 155.504 228.408 155.534 228.493C155.564 228.58 155.572 228.672 155.554 228.762C155.421 228.931 155.234 229.047 155.024 229.093C154.398 229.242 153.764 229.358 153.126 229.441C152.927 229.441 152.72 229.308 152.504 229.25C151.665 228.923 150.792 228.692 149.901 228.563C149.504 228.563 149.073 229.192 148.641 229.532C149.031 229.739 149.412 230.103 149.802 230.12C150.764 230.12 151.733 230.004 152.745 229.93L152.961 230.6C152.131 230.757 151.352 230.882 150.573 231.097C150.424 231.139 150.283 231.528 150.291 231.743C150.299 231.958 150.606 232.091 150.788 232.108C152.015 232.183 153.275 232.216 154.543 232.266C154.543 232.952 155.083 233.036 155.936 232.821C156.802 232.651 157.681 232.565 158.564 232.564C158.721 232.564 158.887 232.795 159.128 232.97C156.757 233.284 156.69 233.334 156.251 234.974C155.467 234.997 154.687 235.095 153.922 235.264C153.432 235.413 152.695 235.918 152.703 236.241C152.703 237.202 153.532 236.664 154.062 236.705C154.594 236.746 155.264 237.02 155.721 236.813C156.467 236.456 157.064 235.984 157.694 236.913C157.724 236.951 157.764 236.982 157.808 237.003C157.853 237.025 157.902 237.036 157.95 237.036C159.194 236.796 160.437 236.539 161.747 236.275C162.013 236.374 162.452 236.705 162.825 236.647C163.585 236.496 164.33 236.271 165.047 235.976C165.768 235.72 166.414 234.966 167.26 235.694C167.334 235.761 167.526 235.694 167.649 235.694C169.133 235.339 170.595 234.897 172.026 234.37C174.514 233.326 176.91 232.133 179.305 230.932C179.695 230.741 179.902 230.203 180.192 229.822C182.016 228.91 183.591 227.842 183.633 227.138L182.372 227.047C184.394 225.953 186.218 225.001 188.01 223.991C188.514 223.646 188.985 223.255 189.419 222.823L189.186 222.376L187.089 222.947L192.162 219.145L191.334 218.433C192.162 217.472 193.547 216.975 193.82 215.501L192.842 215.211C193.621 214.548 194.293 214.027 194.89 213.422C195.082 213.114 195.217 212.775 195.288 212.42L194.301 212.329L193.911 212.271C194.65 211.617 195.337 211.086 195.918 210.456C196.116 210.249 196.025 209.778 196.075 209.43C195.764 209.407 195.452 209.444 195.155 209.537C194.002 210.266 192.892 211.061 191.748 211.798C191.408 211.934 191.051 212.023 190.687 212.064C190.793 211.876 190.915 211.699 191.052 211.533C191.172 211.426 191.305 211.334 191.449 211.259C193.779 210.026 195.486 208.071 197.252 206.216C197.435 206.025 197.336 205.57 197.368 205.23L196.539 205.321H196.456C196.945 204.419 197.509 203.474 197.956 202.48C198.097 202.166 197.916 201.718 197.882 201.337L196.523 201.834L198.421 199.589L198.678 199.681C198.745 200.981 198.844 202.29 198.886 203.598C198.927 204.907 198.886 206.083 198.886 207.591C198.678 208.022 197.791 208.585 198.172 209.595H200.61L200.684 209.893L197.825 210.581C197.825 210.913 197.741 211.55 197.932 211.649C198.386 211.834 198.879 211.903 199.366 211.848C199.889 211.848 200.402 211.724 201.074 211.633C200.908 211.964 200.883 212.114 200.825 212.122C200.129 212.295 199.416 212.403 198.728 212.601C198.22 212.719 197.742 212.941 197.326 213.256C197.145 213.414 197.326 213.952 197.286 214.317C197.825 214.317 198.371 214.317 198.943 214.208C199.168 214.208 199.399 213.836 199.573 213.869C201.091 214.208 202.458 213.645 203.867 213.297C204.256 213.248 204.648 213.248 205.037 213.297C204.207 213.779 203.318 214.149 202.392 214.399C201.408 214.591 200.443 214.868 199.507 215.228C199.018 215.476 198.679 215.642 198.198 215.401C197.426 215.012 196.929 215.451 196.539 215.981C196.15 216.511 196.374 217.017 197.054 217.058C197.379 217.046 197.703 217.01 198.023 216.95C198.578 216.95 199.15 216.95 199.681 216.826C200.211 216.702 201.132 216.735 201.488 216.345C202.317 215.518 202.831 215.675 203.453 216.345L201.795 217.174H200.245C199.035 217.232 198.057 218.342 196.688 217.894C196.398 217.795 195.86 218.184 195.536 218.475C195.213 218.765 195.313 219.095 195.204 219.41C195.519 219.546 195.857 219.62 196.2 219.626C197.128 219.451 197.956 218.624 198.993 219.278C199.051 219.278 199.184 219.278 199.275 219.228L202.027 218.176C202.69 219.104 201.132 219.004 201.115 219.626C199.458 219.195 197.974 219.302 196.921 220.827C196.757 220.656 196.577 220.503 196.382 220.371C196.088 220.225 195.754 220.18 195.432 220.243C195.109 220.306 194.817 220.473 194.6 220.719C194.466 220.91 194.399 221.14 194.409 221.374C194.798 221.624 195.241 221.777 195.703 221.821C196.832 221.69 197.956 221.502 199.068 221.257C199.507 221.175 199.897 220.968 200.361 220.877C200.598 220.844 200.837 220.844 201.074 220.877V221.158L199.947 221.986C199.432 221.829 198.993 221.531 198.612 221.597C197.876 221.729 197.165 221.974 196.506 222.326C196.208 222.483 196.1 222.997 195.909 223.353C196.241 223.502 196.614 223.825 196.905 223.768C197.899 223.551 198.868 223.212 199.938 222.889L201.405 223.221C200.541 223.519 199.708 223.902 198.919 224.364C198.755 224.456 198.568 224.503 198.379 224.496C197.556 224.383 196.723 224.35 195.893 224.396C195.512 224.446 195.213 225.043 194.882 225.399C195.245 225.567 195.618 225.711 196.001 225.83C196.486 225.929 196.989 225.889 197.451 225.712C197.914 225.537 198.316 225.232 198.612 224.836C198.645 225.231 198.556 225.628 198.355 225.971C198.131 226.368 197.775 226.741 198.355 227.146C199.126 227.709 200.411 227.023 200.742 226.17C201.191 225.382 201.749 224.662 202.4 224.032L202.972 224.736C202.716 225.664 201.041 225.325 201.53 226.782C202.558 226.707 203.66 226.997 204.447 225.953C204.506 225.863 204.812 225.953 205.003 225.953C205.834 226.059 206.676 226.014 207.49 225.822C207.921 225.631 208.891 224.993 208.319 224.024C208.269 223.941 208.502 223.627 208.659 223.494C209.571 222.716 209.587 222.666 208.784 221.837L210.375 220.429L210.757 220.868C210.374 221.35 210.02 221.853 209.696 222.376C209.646 222.467 209.902 222.815 210.085 222.931C210.757 223.353 211.212 222.79 211.743 222.533C212.108 222.402 212.485 222.313 212.87 222.268L212.936 222.599C212.108 222.889 211.635 223.758 210.449 223.527C209.264 223.295 208.792 223.883 209.132 225.548L211.295 224.438C211.547 224.636 211.858 224.744 212.178 224.744C212.498 224.744 212.81 224.636 213.061 224.438C213.733 224.066 214.304 223.08 215.324 223.734C215.324 223.734 215.448 223.734 215.515 223.684L217.794 222.856C220.51 221.966 223.149 220.858 225.686 219.543C228.082 218.168 230.71 217.149 232.939 215.558C235.863 213.397 238.667 211.077 241.337 208.609C244.115 206.125 246.237 203.069 248.4 200.061C250.452 197.322 251.993 194.236 252.951 190.95C253.117 190.321 253.341 189.707 253.523 189.087C254.004 187.372 254.484 185.665 254.949 183.951C255.051 183.539 255.13 183.121 255.181 182.7C255.435 181.463 255.604 180.209 255.686 178.948C255.686 177.383 255.372 175.809 255.364 174.244C255.313 170.816 254.621 167.428 253.324 164.254C252.812 162.819 252.172 161.433 251.409 160.113C250.24 158.233 248.923 156.469 247.562 154.696C246.775 153.652 245.905 152.675 245.027 151.698C244.612 151.234 244.147 151.077 243.775 151.773C243.186 152.857 242.531 153.917 242.025 155.085C241.627 155.988 240.666 156.742 241.113 157.951C241.196 158.175 241.354 159.309 240.284 158.995C240.185 158.995 239.895 159.301 239.845 159.508C239.671 160.162 239.629 160.866 239.414 161.504C239.049 162.564 239.116 162.789 240.044 163.087C240.264 163.606 240.439 164.144 240.566 164.693C240.566 164.958 240.326 165.265 240.185 165.522L239.969 165.373C239.87 164.867 239.778 164.371 239.663 163.765C238.602 164.536 238.544 165.207 239.331 165.878C239.455 165.954 239.561 166.057 239.641 166.177C239.722 166.299 239.777 166.436 239.801 166.579C239.824 166.723 239.817 166.87 239.778 167.01C239.741 167.151 239.673 167.281 239.579 167.394C239.356 166.831 239.248 166.127 238.444 166.565C238.013 166.823 238.137 168.38 238.56 168.653C239.323 169.15 239.389 169.887 238.726 170.384L238.154 169.175H237.88C237.664 170.052 236.454 170.633 237.209 171.875L237.69 171.701C237.847 171.627 237.988 171.543 238.427 171.303C238.105 172.289 237.88 172.959 237.648 173.673L237.392 173.589L236.985 172.156C236.497 172.367 236.101 172.747 235.873 173.227C235.645 173.707 235.597 174.254 235.741 174.765C236.943 174.765 236.752 175.784 237.092 176.422C236.471 176.472 235.832 176.671 235.85 175.701C235.85 175.52 235.468 175.204 235.236 175.172C235.004 175.138 234.771 175.437 234.622 175.643C234.473 175.85 234.291 176.29 234.084 176.58C233.08 177.971 233.164 178.195 234.821 178.459C234.814 178.864 234.928 179.262 235.148 179.6C235.368 179.94 235.684 180.206 236.057 180.364C236.15 180.422 236.23 180.496 236.294 180.584C236.358 180.673 236.405 180.772 236.43 180.879C236.629 181.831 237.026 182.419 238.145 181.905C238.312 182.659 238.361 183.272 237.541 183.462C237.175 182.875 236.952 182.121 236.471 181.863C236.221 181.749 235.998 181.58 235.818 181.373C235.638 181.164 235.504 180.919 235.427 180.654C235.304 180.511 235.155 180.394 234.987 180.308C234.819 180.223 234.637 180.172 234.449 180.157C233.954 180.682 233.573 181.303 233.329 181.98C233.263 182.203 234.034 182.659 234.489 183.074L234.838 184.498L234.929 184.68C234.49 184.564 234.078 184.367 233.71 184.1C233.297 183.67 233.089 182.966 232.293 183.223C231.924 183.355 231.603 183.594 231.37 183.909C231.139 184.225 231.007 184.603 230.992 184.995C230.458 185.404 229.951 185.847 229.474 186.321C229.391 186.411 229.624 187.007 229.814 187.082C229.99 187.13 230.174 187.138 230.353 187.104C230.531 187.069 230.7 186.994 230.845 186.885C230.99 186.775 231.108 186.633 231.19 186.471C231.271 186.308 231.313 186.129 231.315 185.947L233.438 184.812L232.376 187.132C231.804 186.867 231.381 187.24 231.306 187.96C231.3 188.128 231.334 188.294 231.407 188.446C231.479 188.598 231.586 188.73 231.721 188.83C231.833 188.883 231.956 188.909 232.079 188.908C232.203 188.908 232.325 188.88 232.436 188.825C232.547 188.771 232.645 188.693 232.722 188.597C232.8 188.499 232.854 188.387 232.882 188.267C233.015 187.794 233.18 187.256 233.768 187.554C234.092 187.72 234.225 188.25 234.473 188.664C232.89 189.228 232.749 189.451 233.072 190.636C234.581 190.719 234.888 190.445 234.68 189.136L235.584 189.351L236.04 190.777C235.874 190.727 235.667 190.61 235.609 190.66C235.171 191.034 234.768 191.447 234.407 191.894C234.316 192.01 234.499 192.549 234.556 192.549C234.995 192.56 235.432 192.498 235.85 192.367C236.015 192.3 236.015 191.87 236.181 191.696C236.517 191.394 236.875 191.117 237.251 190.868C237.251 191.62 237.308 192.05 237.334 192.472ZM148.981 235.852C149.063 235.951 149.238 236.299 149.495 236.39C149.961 236.585 150.476 236.634 150.971 236.528C151.466 236.424 151.917 236.17 152.264 235.802C152.405 235.662 152.587 235.364 152.53 235.255C152.465 235.156 152.379 235.07 152.28 235.006C152.18 234.942 152.067 234.9 151.948 234.883C151.244 234.883 150.539 235.024 149.835 235.04C149.517 235.045 149.202 234.977 148.914 234.841C148.542 234.668 148.243 234.27 147.871 234.212C147.152 234.117 146.425 234.117 145.707 234.212C145.557 234.252 145.42 234.33 145.309 234.44C145.199 234.548 145.119 234.684 145.077 234.833C145.096 234.99 145.156 235.14 145.25 235.267C145.345 235.395 145.471 235.497 145.616 235.562C146.669 235.712 147.73 235.744 148.981 235.835V235.852ZM142.141 233.069C141.791 233.189 141.447 233.333 141.114 233.499C141.114 233.499 141.18 234.079 141.33 234.145C141.97 234.435 142.644 234.647 143.335 234.775C143.534 234.775 143.891 234.378 144.015 234.096C144.074 233.955 143.8 233.549 143.585 233.45C143.115 233.281 142.633 233.153 142.141 233.069ZM152.297 233.367C151.368 232.447 149.528 232.274 147.895 233.028C148.094 233.251 148.243 233.582 148.443 233.624C149.271 233.781 150.142 233.855 150.996 233.955C151.294 233.996 151.658 233.905 151.882 234.046C152.424 234.428 153.075 234.623 153.738 234.603C154.401 234.582 155.038 234.345 155.554 233.93C155.186 233.442 154.646 233.112 154.044 233.004C153.441 232.897 152.821 233.02 152.305 233.35L152.297 233.367ZM143.353 232.555C144.22 233.074 145.218 233.334 146.228 233.3C146.569 233.3 146.909 232.821 147.257 232.555C146.909 232.315 146.593 231.95 146.212 231.876C145.259 231.686 144.181 231.105 143.353 232.555ZM137.69 232.455C138.005 232.813 138.105 233.052 138.263 233.093C138.725 233.23 139.206 233.294 139.688 233.284C139.838 233.284 139.954 232.779 140.078 232.505C139.682 232.285 139.258 232.119 138.817 232.008C138.503 231.984 138.163 232.257 137.69 232.455ZM142.423 232.315C142.614 232.141 143.186 231.835 143.145 231.628C142.979 230.683 142.101 230.683 141.388 230.642C141.156 230.642 140.675 231.065 140.691 231.28C140.741 232.157 141.529 232.157 142.423 232.306V232.315ZM142.83 229.814C143.047 230.176 143.365 230.467 143.744 230.653C144.124 230.839 144.55 230.91 144.968 230.857C145.351 230.813 145.737 230.882 146.079 231.056C146.561 231.46 147.147 231.721 147.77 231.809C148.393 231.898 149.028 231.808 149.603 231.553C149.785 231.495 150.059 231.214 150.025 231.131C149.943 230.924 149.727 230.634 149.553 230.626C148.566 230.551 147.712 229.715 146.635 230.178C146.494 230.236 146.204 229.954 145.806 229.723L148.608 229.375C148.434 229.069 148.384 228.812 148.227 228.703C147.87 228.413 147.452 228.206 147.005 228.096C146.558 227.985 146.091 227.975 145.64 228.066C145.127 228.215 144.911 228.157 144.621 227.701C144.423 227.373 144.103 227.135 143.731 227.039C143.359 226.942 142.964 226.996 142.631 227.188C142.482 227.254 142.407 227.868 142.449 227.884C143.087 228.166 143.734 228.397 144.388 228.613C144.637 228.687 144.944 228.613 145.143 228.737C145.342 228.862 145.143 229.16 145.143 229.375C144.888 229.425 144.627 229.425 144.372 229.375C144.244 229.295 144.102 229.242 143.953 229.221C143.805 229.198 143.653 229.207 143.508 229.248C143.363 229.288 143.228 229.357 143.111 229.451C142.995 229.546 142.899 229.664 142.83 229.797V229.814ZM136.62 231.175C136.13 230.914 135.813 230.642 135.585 230.675C135.352 230.708 135.12 231.073 134.889 231.288C135.151 231.518 135.451 231.701 135.775 231.827C135.954 231.827 136.204 231.5 136.62 231.175ZM136.62 231.175L136.646 231.189V231.155L136.62 231.175ZM137.627 229.335C137.664 230.52 138.206 230.984 139.157 230.816C139.407 230.816 139.813 230.617 139.838 230.46C139.85 230.319 139.826 230.177 139.768 230.048C139.71 229.919 139.62 229.807 139.506 229.723C138.967 229.542 138.418 229.389 137.863 229.268L137.625 229.218L137.627 229.335ZM141.446 229.971C141.851 229.574 142.274 229.341 142.274 229.143C142.208 228.124 141.221 228.53 140.667 228.248C140.583 228.248 140.277 228.613 140.078 228.812L141.446 229.971ZM196.427 227.101C196.046 227.328 195.691 227.481 195.355 227.492C195.018 227.502 194.7 227.371 194.392 227.031C195.066 226.208 195.521 226.211 196.427 227.101ZM144.67 225.722C144.67 227.122 145.052 227.379 146.51 227.238C146.776 227.238 147.016 226.89 147.273 226.707C147.058 226.418 146.892 225.945 146.619 225.879C145.976 225.763 145.324 225.707 144.67 225.714V225.722ZM196.427 227.101L196.448 227.089V227.122L196.427 227.101ZM148.425 226.252C148.956 225.697 149.595 225.341 149.586 224.977C149.586 224.206 148.757 224.297 148.235 224.255C147.712 224.215 146.967 224.124 147.082 224.869C147.149 225.307 147.829 225.655 148.425 226.244V226.252ZM193.48 224.396C192.892 224.927 192.105 225.299 192.063 225.747C192.021 226.194 192.759 226.335 193.315 226.103C194.069 225.747 193.845 225.249 193.48 224.364V224.396ZM193.762 224.231C194.459 223.875 195.371 224.231 195.363 223.204C195.363 222.914 195.006 222.624 194.815 222.334L193.157 223.551L193.762 224.231ZM240.201 200.798L240.276 201.371C240.665 201.461 241.066 201.483 241.461 201.436C242.15 201.221 242.291 200.675 241.934 199.78L240.201 200.798ZM240.177 200.152L241.312 198.86C240.989 198.637 240.575 198.181 240.35 198.255C239.923 198.464 239.568 198.796 239.331 199.208C239.289 199.258 239.77 199.689 240.177 200.136V200.152ZM237.306 192.466C237.014 192.37 236.698 192.384 236.416 192.504C236.124 192.629 235.889 192.857 235.758 193.145C235.688 193.306 235.653 193.48 235.653 193.654C235.653 193.83 235.688 194.003 235.758 194.165C235.824 194.313 236.321 194.404 236.587 194.322C237.643 193.958 237.739 193.694 237.306 192.466ZM237.306 192.466L237.334 192.475V192.472L237.3 192.449L237.306 192.466ZM75.7289 189.366C75.2819 188.947 74.9179 188.466 74.7879 188.556C74.3069 188.796 73.8559 189.09 73.4449 189.435C73.7099 189.675 74.0089 190.13 74.2739 190.097C74.7919 189.926 75.2829 189.679 75.7289 189.366ZM79.7779 188.805V188.457C79.5379 188.325 79.2889 188.076 79.0399 188.076C78.4259 188.076 77.8119 188.134 77.2079 188.25C76.8769 188.289 76.5649 188.428 76.3129 188.647C76.1969 188.78 76.3129 189.351 76.4289 189.418C76.7719 189.561 77.1469 189.609 77.5149 189.558C77.9949 189.521 78.4679 189.423 78.9239 189.269C79.2219 189.139 79.5069 188.984 79.7779 188.805ZM75.7289 189.366L75.7489 189.385V189.351L75.7289 189.366ZM75.5689 57.4789C76.8629 60.0039 78.2129 62.5069 79.4129 65.0749C79.8939 66.1269 80.1589 67.2449 81.0709 68.0729C81.3369 68.2889 81.1709 68.8519 81.3369 69.1919C81.7089 69.9289 82.1319 70.6249 82.5389 71.3369C82.6459 71.5269 82.8709 71.7339 82.8709 71.9079C82.7459 72.9019 83.5089 73.4739 83.8149 74.3019C84.3629 75.7099 85.5059 76.8609 85.6639 78.4439C85.6649 78.5419 85.7039 78.6379 85.7719 78.7089C86.6499 79.4209 86.7909 80.5219 87.2719 81.4499C88.5989 84.0179 89.9829 86.4689 91.3669 89.0959C92.7519 91.7209 94.1279 94.3469 95.4709 96.9969C96.7309 99.4909 97.9569 102.034 99.2179 104.518C99.3159 104.757 99.4839 104.962 99.6989 105.106C102.094 106.341 104.515 107.516 106.886 108.767C107.764 109.222 108.544 109.894 109.373 110.423C110.45 111.095 111.62 111.642 112.631 112.395C114.355 113.68 116.013 115.062 117.67 116.454C119.544 118.028 121.401 119.684 123.191 121.341C123.924 122.094 124.602 122.896 125.223 123.743C126.408 125.184 127.651 126.584 128.754 128.083C129.608 129.243 130.304 130.493 131.042 131.728C131.258 132.016 131.37 132.369 131.357 132.73C131.166 133.5 130.993 134.071 132.186 133.864C132.368 133.84 132.75 134.776 132.956 135.297C133.007 135.591 133.007 135.891 132.956 136.184L133.247 136.076C133.546 136.383 134.027 136.664 134.208 137.004C134.402 137.831 134.471 138.682 134.416 139.53C134.349 140.392 133.753 140.624 133.032 140.217C132.652 140.739 132.319 141.294 132.036 141.875C131.83 142.437 131.44 143.009 131.929 143.713C132.093 144.174 132.142 144.669 132.07 145.154V148.832C133.107 148.633 133.512 148.119 133.107 147.532C132.808 147.199 132.604 146.795 132.51 146.359C132.418 145.924 132.44 145.47 132.576 145.046C132.684 144.707 132.211 144.177 132.327 143.837C132.658 142.835 132.476 141.567 133.769 140.98C133.968 140.855 134.19 140.774 134.422 140.743C134.655 140.71 134.891 140.727 135.115 140.793C135.34 140.859 135.548 140.972 135.727 141.124C135.904 141.276 136.048 141.464 136.149 141.676L136.24 141.849C136.894 143.15 136.894 143.15 135.461 143.895C136.903 143.862 137.118 144.748 137.118 145.643C137.121 146.957 137.016 148.271 136.803 149.568C136.638 150.554 134.839 150.679 134.009 149.85C133.893 149.704 133.746 149.586 133.578 149.502C133.737 150.057 133.421 150.836 134.516 150.836C134.764 150.82 135.062 151.25 135.344 151.483C135.179 151.656 135.013 151.988 134.839 151.988C134.434 151.987 134.034 151.904 133.661 151.747C133.387 151.596 133.13 151.413 132.899 151.201C132.791 151.126 132.559 151.077 132.559 151.027C132.666 149.437 130.57 149.387 130.445 147.904L131.274 147.275C130.82 146.968 130.347 146.692 129.857 146.446C128.862 146.049 128.779 145.825 129.094 144.79C129.096 144.625 129.056 144.462 128.977 144.317C128.899 144.173 128.785 144.05 128.647 143.961C127.087 143.39 126.64 142.42 127.378 141.07C126.483 140.457 125.538 139.869 124.709 139.224C124.552 139.115 124.601 138.785 124.552 138.553C124.883 138.511 125.264 138.337 125.521 138.453C126.162 138.799 126.783 139.183 127.378 139.604V138.503L124.659 138.131C124.601 138.122 124.493 138.089 124.493 138.039C124.037 136.871 122.354 136.457 122.238 135.447C122.064 133.931 121.152 133.177 120.324 132.2C120.016 131.844 119.627 131.33 120.141 130.692C120.29 130.51 119.925 129.905 119.776 129.425L119.005 129.723C118.671 129.539 118.403 129.256 118.235 128.914C118.067 128.571 118.009 128.186 118.069 127.809C118.039 127.639 117.973 127.478 117.877 127.335C117.78 127.192 117.653 127.071 117.505 126.982C117.122 126.804 116.787 126.543 116.522 126.215C116.257 125.887 116.072 125.504 115.979 125.093C115.733 124.44 115.357 123.843 114.877 123.337C114.181 122.409 113.41 121.532 112.722 120.595C112.473 120.195 112.269 119.767 112.117 119.319C112.042 119.17 112.001 118.881 111.918 118.881C110.682 118.69 110.533 117.422 109.704 116.81C110.631 119.085 111.851 121.229 113.335 123.188L111.677 123.511L112.349 123.817C112.643 123.902 112.922 124.03 113.178 124.198C113.798 124.693 114.355 125.263 114.835 125.896C115.018 126.203 114.894 126.766 114.835 127.205C114.811 127.42 114.596 127.611 114.388 127.95C115.432 127.95 116.253 128.034 116.154 129.243C116.146 129.35 116.436 129.475 116.559 129.607C116.875 129.913 117.173 130.237 117.479 130.551L116.402 131.488C116.683 131.621 116.981 131.714 117.29 131.76C118.176 131.744 118.616 131.985 118.757 133.019C118.881 133.914 118.989 135.049 120.249 135.373C120.746 135.504 121.31 137.534 121.077 138.105C120.962 138.403 120.87 138.71 120.763 139.016L121.119 139.141L121.55 137.94C121.915 138.602 122.271 139.224 122.603 139.861C122.678 140.002 122.686 140.3 122.76 140.3C124.004 140.507 123.565 141.791 124.079 142.338C124.874 143.175 125.156 144.293 125.828 145.046C126.563 145.696 127.064 146.569 127.254 147.532C127.295 147.896 127.892 148.194 128.389 148.666C128.339 149.041 128.401 149.421 128.567 149.761C128.735 150.1 128.998 150.382 129.326 150.572C130.105 151.159 129.501 152.054 129.069 152.675C128.529 153.381 127.942 154.051 127.312 154.68C126.533 155.533 125.09 155.574 124.634 156.858C124.584 156.982 124.302 157.032 124.186 157.09L125.256 158.042C125.43 157.587 125.579 157.173 125.77 156.758C126.018 156.237 126.242 155.698 127.071 155.93C127.286 155.988 127.751 155.607 127.9 155.317C128.215 154.729 128.356 154.034 129.301 154.382C129.376 154.406 129.591 153.976 129.782 153.801C130.113 153.511 130.503 152.99 130.81 153.04C131.241 153.097 131.871 153.387 131.639 154.157C131.613 154.257 131.672 154.497 131.746 154.497C132.468 154.845 132.517 155.574 132.841 156.154C133.424 157.048 134.055 157.911 134.731 158.738C135.424 159.692 136.067 160.682 136.654 161.703C137.069 162.465 136.463 163.542 135.709 164.014C135.04 164.426 134.424 164.918 133.878 165.481C132.933 166.304 131.854 166.958 130.685 167.41C130.429 167.535 129.823 167.195 129.525 166.905C127.685 165.133 125.845 163.369 124.103 161.496C121.898 159.128 119.768 156.708 117.662 154.224C116.418 152.775 115.383 151.117 114.056 149.751C112.796 148.288 111.657 146.726 110.649 145.08C109.538 143.497 108.485 141.865 107.392 140.267C107.113 139.843 106.749 139.482 106.322 139.207C106.081 140.664 107.01 141.692 107.466 142.868C106.081 143.191 106.081 143.191 106.322 143.911C107.225 143.233 107.068 143.539 107.98 144.359C108.892 145.179 108.809 146.206 109.29 147.076C109.331 147.166 109.357 147.333 109.414 147.333C110.799 147.713 110.674 149.005 111.072 149.991C111.148 150.205 111.273 150.398 111.437 150.554C112.323 151.333 112.323 151.325 112.083 152.31C113.833 153.471 113.948 153.678 113.468 155.334C114.034 155.538 114.558 155.841 115.018 156.229C115.272 156.727 115.343 157.299 115.216 157.844C115.631 158.307 116.577 158.283 116.46 159.367C116.13 160.577 115.385 161.633 114.355 162.349C113.982 162.532 113.724 163.037 113.451 163.31C113.178 163.584 112.804 164.064 112.556 164.014C111.785 163.882 111.528 164.354 111.188 164.843C110.97 165.123 110.732 165.385 110.475 165.63L111.262 166.457C111.338 166.316 111.578 166.069 111.528 165.928C111.32 165.364 111.412 164.909 112.017 164.817C112.456 164.822 112.893 164.895 113.31 165.033L113.368 165.356C113.501 165.141 113.816 164.826 113.758 164.718C113.285 163.857 113.924 163.691 114.471 163.294C115.018 162.896 115.407 162.258 116.237 162.258C116.418 162.25 116.601 161.711 116.784 161.488C116.966 161.264 117.189 161.074 117.389 160.858C117.609 161.075 117.816 161.306 118.011 161.546C118.218 161.844 118.375 162.184 118.566 162.498C118.632 162.606 118.806 162.689 118.806 162.805C119.18 164.329 120.713 165.215 121.136 166.574C121.492 167.742 123.05 168.114 122.794 169.573C122.752 169.804 123.432 170.152 123.755 170.466C124.344 171.005 124.518 171.51 123.755 172.074C123.209 172.48 122.835 173.216 122.247 173.432C120.191 174.202 118.616 175.826 116.502 176.505C115.498 176.803 114.819 176.969 114.073 175.975C112.73 174.194 111.188 172.579 109.788 170.839C107.847 168.429 105.916 166.01 104.084 163.526C102.774 161.745 101.646 159.824 100.444 157.967C99.0929 155.889 97.6759 153.851 96.4489 151.706C95.5449 150.107 94.8989 148.393 94.1199 146.736C94.0249 146.571 93.9139 146.416 93.7879 146.273C92.5859 147.134 93.7469 148.011 93.6969 148.914L92.8679 149.536C95.0479 149.403 93.9369 151.027 94.3679 151.813C94.8649 152.741 94.8989 153.976 95.5289 154.762C96.1569 155.575 96.4529 156.597 96.3579 157.62C96.3409 158.307 96.5739 158.539 97.4019 158.406L96.9299 158.961C97.7579 160.37 98.5879 161.753 99.3169 163.244C99.4749 163.567 99.2919 164.113 99.2339 164.487C99.1759 164.859 99.1759 165.232 99.1759 165.745L100.237 165.381C100.734 166.068 101.58 166.624 100.967 167.634C102.26 168.636 102.268 168.951 101.042 169.978C100.752 170.193 100.444 170.334 100.212 170.557C100.037 170.759 99.8779 170.975 99.7399 171.204C99.9219 171.311 99.9719 171.535 100.287 171.51C100.602 171.486 101.042 171.378 101.116 171.187C101.373 170.541 101.73 170.003 102.459 170.185C102.801 170.247 103.113 170.421 103.347 170.678C103.581 170.936 103.723 171.263 103.752 171.609C103.777 171.925 104.108 172.173 104.275 172.438C104.44 172.703 104.581 172.985 104.73 173.266C104.94 173.55 105.103 173.866 105.211 174.202C105.36 175.337 106.438 175.768 106.919 176.646C107.267 177.284 107.756 177.839 108.096 178.477C108.251 178.881 108.353 179.304 108.403 179.735L107.3 179.95C106.756 180.436 106.16 180.864 105.526 181.226C104.034 181.855 102.5 182.386 100.975 182.941C100.367 183.175 99.7429 183.369 99.1089 183.521C98.0819 183.744 97.6259 182.841 97.1619 182.253C94.9399 179.479 92.7269 176.745 90.7949 173.804C88.6149 170.492 86.6919 166.996 84.7519 163.534C83.4829 161.273 82.3809 158.921 81.2039 156.601C80.9979 157.001 80.8969 157.445 80.9089 157.893C80.9199 158.343 81.0449 158.781 81.2699 159.169C81.3289 159.243 81.4689 159.309 81.4689 159.384C81.5189 160.958 83.0439 162.407 81.9989 163.981C82.4639 164.403 82.8739 164.882 83.2189 165.406C83.3839 165.721 83.1439 166.276 83.1689 166.648C83.1929 167.021 83.2519 167.725 83.3839 167.725C84.8339 167.965 84.5279 169.05 84.3629 169.879C84.2299 170.541 84.2219 170.864 84.8929 171.162C85.1079 171.261 85.1579 171.776 85.2489 172.148C85.3409 172.521 85.2569 173.026 85.4729 173.25C86.4179 174.219 86.4769 174.293 86.4179 175.569L87.4049 176.745L86.0119 177.574C87.1559 177.623 88.7809 177.449 87.6699 179.586C89.2289 179.644 89.5349 180.861 90.0569 181.881C90.4859 182.937 91.0249 183.944 91.6659 184.887C92.3619 185.748 92.1379 185.931 91.0859 186.171C90.2199 186.396 89.3849 186.723 88.5989 187.148C86.1199 188.399 84.1049 188.217 82.1659 186.321C80.3829 184.581 78.5929 182.825 76.9849 180.92C75.7679 179.398 74.6759 177.78 73.7179 176.083C71.7959 172.694 70.1859 169.136 68.9099 165.455C67.9979 162.954 67.0529 160.452 66.2239 157.927C65.5059 155.911 64.8949 153.86 64.3919 151.781C63.6459 148.417 63.0159 145.022 62.4609 141.617C61.9629 138.61 61.6649 135.554 61.2509 132.506C61.0929 131.347 60.8439 130.203 60.6789 129.044C60.5789 128.622 60.5789 128.182 60.6789 127.76C60.7969 127.415 60.7979 127.04 60.6809 126.694C60.5639 126.348 60.3359 126.05 60.0319 125.847C59.0449 124.952 57.9509 124.124 56.9229 123.296C55.6219 122.194 54.3529 121.043 53.0439 119.941C51.2949 118.458 49.4379 117.05 47.7799 115.518C44.9939 113.016 42.2259 110.49 39.5479 107.872C39.4149 107.742 39.2819 107.611 39.1499 107.48C46.6829 87.7279 59.3729 70.5089 75.5689 57.4789ZM76.4709 185.856C75.3929 185.856 74.5889 186.519 74.6629 187.174C74.6629 187.43 75.0119 187.844 75.2189 187.86C76.0479 187.927 77.1829 187.033 77.0429 186.452C76.9679 186.154 76.5699 185.939 76.4709 185.848V185.856ZM229.685 185.011L229.947 184.374C229.665 184.291 229.309 184.059 229.118 184.158C228.68 184.427 228.271 184.74 227.899 185.094C228.098 185.277 228.356 185.657 228.497 185.617C228.915 185.461 229.314 185.258 229.685 185.011ZM229.685 185.011L229.681 185.02L229.723 184.987L229.685 185.011ZM230.005 184.473C230.549 183.987 231.063 183.469 231.547 182.924C231.696 182.726 231.596 182.344 231.614 182.046C231.282 182.046 230.851 181.955 230.66 182.121C230.263 182.512 229.932 182.965 229.681 183.462C229.566 183.62 229.832 183.951 230.005 184.464V184.473ZM229.957 63.1329C243.302 75.5719 253.764 91.0619 260.229 108.488C259.774 108.806 259.352 109.419 258.911 109.828C258.82 109.91 258.804 110.159 258.72 110.159C257.303 110.423 256.673 111.882 255.404 112.346C255.048 112.425 254.683 112.458 254.319 112.445C254.104 112.872 253.824 113.263 253.49 113.604C253.036 113.877 252.545 114.081 252.031 114.209L251.865 113.96C251.779 114.194 251.662 114.414 251.517 114.615C251.21 114.897 250.829 115.294 250.514 115.294C250.292 115.259 250.08 115.175 249.895 115.047C249.71 114.92 249.556 114.752 249.444 114.557C249.405 114.355 249.411 114.147 249.462 113.947C249.514 113.748 249.61 113.563 249.743 113.406C250.141 112.9 250.622 112.262 251.45 112.835C251.575 112.917 252.221 112.437 252.338 112.23C252.454 112.022 252.164 111.608 252.056 111.278C251.765 111.325 251.484 111.423 251.227 111.567C250.157 112.519 249.768 112.461 249.064 111.202C249.023 111.134 248.965 111.078 248.897 111.037C248.422 111.517 247.893 111.943 247.322 112.304C247.04 112.445 246.543 112.147 246.145 112.056C246.181 111.72 246.264 111.39 246.394 111.079C246.75 110.548 247.215 110.077 247.58 109.637L248.633 110.159L248.873 109.993L248.192 108.56C247.78 108.956 247.303 109.28 246.783 109.521C246.175 109.553 245.565 109.488 244.977 109.331C245.988 110.258 245.814 110.556 244.977 111.286C244.139 112.014 243.376 112.453 242.299 112.113C242.059 112.039 241.702 111.799 241.702 111.6C241.687 111.296 241.795 110.998 242.001 110.771C243.128 109.711 244.296 108.693 245.458 107.657C246.038 107.136 246.634 106.631 247.24 106.108L248.657 107.765L248.981 107.707C247.936 106.597 247.322 105.413 248.823 104.112H247.513C247.421 104.747 247.114 105.331 246.643 105.767C246.173 106.203 245.567 106.463 244.926 106.506C245.017 108.387 243.203 108.56 242.116 109.331C241.337 109.869 240.459 110.109 240.459 111.278C240.102 111.145 239.853 111.087 239.629 110.979C238.369 110.366 238.236 109.936 239.198 108.974C239.744 108.379 240.352 107.846 241.014 107.384C241.543 107.161 242.101 107.016 242.672 106.953C242.647 106.299 242.44 105.446 243.269 104.899C243.352 104.85 243.41 104.692 243.467 104.692C244.811 104.841 244.62 103.69 244.918 102.969C244.969 102.729 244.937 102.477 244.827 102.257L243.714 101.995C243.605 101.929 243.489 101.875 243.368 101.835C243.272 101.828 243.175 101.831 243.08 101.845L243.714 101.995C243.821 102.059 243.921 102.134 244.012 102.219C244.197 102.393 244.342 102.603 244.437 102.837C244.628 103.358 243.517 104.477 242.97 104.394C242.814 104.394 242.659 104.361 242.517 104.297C242.374 104.233 242.247 104.139 242.143 104.023C242.038 103.906 241.96 103.769 241.914 103.621C241.866 103.472 241.851 103.315 241.868 103.16L241.876 103.143C241.887 102.959 241.936 102.779 242.017 102.614C242.098 102.449 242.212 102.3 242.35 102.179C242.489 102.058 242.65 101.965 242.824 101.906C242.908 101.877 242.993 101.857 243.08 101.845L241.561 101.487C241.495 101.445 241.37 101.487 241.453 101.487C241.357 102.123 241.155 102.739 240.857 103.309C240.366 103.777 239.807 104.168 239.198 104.468C239.14 104.766 239.14 105.222 239.14 105.669C238.079 105.967 237.954 106.116 237.855 107.086C238.353 106.947 238.816 106.704 239.211 106.373C239.607 106.041 239.927 105.63 240.152 105.164C240.284 104.949 240.442 104.634 240.65 104.585C241.139 104.491 241.635 104.436 242.133 104.418C242.112 104.904 242.048 105.386 241.942 105.86C241.868 106.116 241.561 106.307 241.337 106.498C240.384 107.268 239.43 108.039 238.461 108.792C238.187 109.007 237.839 109.297 237.557 109.297C237.171 109.209 236.831 108.986 236.595 108.668C236.521 108.585 236.752 108.154 236.919 107.947C237.165 107.734 237.375 107.483 237.541 107.202L236.347 107.136C236.04 108.469 235.617 108.685 234.465 107.964C233.944 107.592 233.466 107.165 233.039 106.689C232.566 106.208 232.359 106.249 232.119 106.879C233.138 107.566 234.133 108.254 235.145 108.916C235.576 109.19 236.081 109.372 236.504 109.662C238.286 110.896 240.127 112.064 241.785 113.439C242.616 114.295 243.353 115.24 243.982 116.255C244.33 116.71 244.67 117.175 245.051 117.605C246.485 119.187 246.452 121.126 246.352 123.063C246.269 124.596 246.088 126.129 245.947 127.668C244.802 128.066 245.009 128.058 245.192 129.326C245.268 130.626 245.179 131.932 244.926 133.21C244.91 133.351 244.537 133.525 244.313 133.566C243.509 133.707 243.467 134.287 243.783 134.759C243.937 134.965 244.026 135.211 244.041 135.468C244.054 135.726 243.99 135.98 243.857 136.2C243.775 136.375 243.642 136.631 243.708 136.755C244.379 137.924 243.674 138.768 243.094 139.538L242.456 139.125C242.37 139.425 242.312 139.732 242.282 140.044C242.274 140.3 242.398 140.557 242.398 140.823C242.398 141.716 242.44 142.669 242.398 143.514C242.357 144.359 242.009 144.881 241.022 144.541C240.931 144.508 240.773 144.674 240.491 144.839C240.906 144.839 241.063 144.69 241.321 144.839C241.578 144.989 241.959 145.261 241.959 145.46C241.938 145.634 241.876 145.799 241.778 145.943C241.679 146.087 241.548 146.206 241.395 146.289C241.26 146.313 241.132 146.369 241.023 146.452C240.913 146.534 240.825 146.643 240.765 146.767C240.705 146.89 240.676 147.025 240.678 147.163C240.681 147.3 240.717 147.435 240.781 147.556C241.221 148.914 241.113 149.353 240.06 150.182C240.533 151.474 240.525 151.491 239.232 151.888C238.544 152.103 238.784 152.592 239.041 152.882C239.563 153.437 239.389 153.851 239.041 154.373C238.925 154.62 238.717 154.812 238.461 154.907C238.205 155.001 237.922 154.991 237.673 154.879C237.052 154.704 236.595 155.01 236.48 155.706C237.292 156.444 237.292 156.444 236.148 157.197C236.521 157.545 237.507 157.322 237.217 158.241C236.977 158.995 236.339 158.904 235.973 158.862C235.568 158.241 235.22 157.786 234.962 157.289C234.875 157.022 234.85 156.739 234.888 156.46V155.632H234.573C234.481 156.162 234.39 156.684 234.316 157.065C233.42 156.7 232.542 156.311 231.713 156.03C231.555 155.972 231.24 156.328 230.883 156.559C232.17 156.74 233.378 157.282 234.367 158.122C235.356 158.962 236.086 160.067 236.471 161.306C236.512 161.43 236.603 161.562 236.603 161.671C236.339 162.739 236.031 163.874 235.775 164.876C235.518 165.878 235.31 166.889 235.045 167.883C234.871 168.57 234.639 169.249 234.432 169.929C234.344 170.37 234.217 170.802 234.05 171.221C233.78 171.72 233.478 172.201 233.146 172.661C233.253 172.91 233.305 173.179 233.297 173.449C233.288 173.719 233.223 173.984 233.102 174.226C232.981 174.468 232.809 174.681 232.598 174.85C232.387 175.019 232.141 175.139 231.878 175.204C230.221 175.486 228.563 175.635 226.905 175.842C226.814 176.463 227.369 176.413 227.808 176.356C228.761 176.232 229.25 176.612 229.25 177.574C229.268 177.839 229.458 178.111 229.458 178.401C229.514 178.716 229.47 179.041 229.333 179.33C229.226 179.453 228.737 179.445 228.505 179.33C228.378 179.256 228.271 179.152 228.193 179.028C228.116 178.904 228.069 178.763 228.057 178.617C228.165 177.979 227.933 177.632 227.104 177.234C227.468 178.244 227.775 178.99 227.999 179.769C228.118 180.14 228.118 180.54 227.999 180.911C227.906 181.042 227.782 181.146 227.635 181.213C227.49 181.28 227.329 181.308 227.17 181.292C226.905 181.185 226.706 180.646 226.59 180.464C226.474 180.282 226.365 180.1 226.258 179.918L225.993 180.025C226.125 180.597 226.216 181.185 226.391 181.748C226.606 182.519 226.125 182.899 225.562 183.056C225.413 183.098 225.022 182.436 224.807 182.062C224.667 181.776 224.557 181.477 224.476 181.169L224.053 181.342L224.534 182.394C223.904 183.04 223.572 182.949 222.876 181.781C222.366 181.943 221.812 181.9 221.333 181.663C220.853 181.424 220.485 181.009 220.306 180.505C219.584 178.791 219.743 178.286 221.135 177.284C221.416 177.085 221.442 176.562 221.641 176.215C221.831 175.905 222.048 175.611 222.288 175.337C222.495 175.097 222.934 174.882 222.934 174.675C222.809 173.176 223.68 172.04 224.219 170.774C225.386 168.064 226.315 165.259 226.996 162.391C227.402 160.685 227.925 158.97 228.413 157.313C228.654 156.468 228.853 155.657 228.024 154.978C227.867 154.845 227.899 154.505 227.792 154.265C227.684 154.025 227.577 153.719 227.377 153.611C226.83 153.288 226.606 153.04 227.062 152.459C227.145 152.36 226.888 151.988 226.78 151.731C225.885 152.27 225.272 151.433 224.442 151.325C224.525 151.499 224.559 151.755 224.692 151.822C225.242 152.147 225.722 152.578 226.105 153.09C226.487 153.601 226.765 154.184 226.921 154.804C226.944 154.862 226.977 154.916 227.021 154.961C228.04 156.187 228.04 156.187 226.673 157.281C226.955 158.265 226.457 158.812 225.123 159.16C225.022 159.79 225.114 160.51 224.807 160.817C224.208 161.427 223.473 161.888 222.66 162.159C222.08 162.333 221.998 162.391 222.187 162.93C222.321 163.27 222.321 163.649 222.187 163.99C221.857 164.544 221.052 164.834 221.359 165.721C220.957 166.002 220.488 166.173 219.999 166.217C219.958 166.3 219.875 166.375 219.875 166.466C219.801 167.004 219.933 167.766 219.626 168.048C218.968 168.629 218.202 169.077 217.371 169.365C216.7 169.541 216.01 169.641 215.316 169.663L215.366 170.044L217.488 169.853C217.81 170.334 217.86 170.79 216.898 171.072C216.393 171.325 215.934 171.661 215.539 172.065C215.316 173.772 214.711 173.788 213.052 174.02C210.997 174.31 209.704 173.059 208.51 171.693C208.053 171.179 207.763 171.121 207.374 171.808L208.452 172.289C208.535 172.844 208.625 173.415 208.692 173.854C209.144 173.798 209.6 173.798 210.052 173.854C210.201 173.896 210.317 174.434 210.292 174.625C210.268 174.815 210.002 175.13 209.837 175.13C209.281 175.146 208.734 174.989 208.178 174.989C207.473 174.981 207.292 174.508 207.059 173.979C206.978 173.876 206.875 173.795 206.757 173.741C206.638 173.686 206.509 173.659 206.38 173.663C205.011 174.029 203.901 173.258 202.782 172.761C202.144 172.472 202.558 171.842 202.972 171.543C205.137 169.898 206.994 167.886 208.46 165.596C209.654 163.824 210.814 162.018 211.85 160.146C212.874 158.326 213.784 156.445 214.578 154.513C215.349 152.65 215.896 150.671 216.518 148.715C216.596 148.323 216.635 147.923 216.634 147.523C215.199 149.005 215.026 151.217 213.077 152.153C213.202 152.467 213.318 152.758 213.401 152.982L211.975 154.688C212.097 155.017 212.088 155.379 211.952 155.701C211.818 156.024 211.565 156.283 211.245 156.427C210.585 156.737 209.896 156.983 209.189 157.164C209.629 157.603 210.566 157.976 210.018 158.688C209.696 159.094 208.841 159.094 208.244 159.268C208.377 159.765 208.825 160.518 208.617 160.999C208.41 161.48 207.556 161.687 207.067 161.96C207.067 162.474 207.3 163.244 207.067 163.666C206.835 164.089 206.048 164.18 205.309 164.495L205.542 165.256C205.159 166.114 204.719 166.944 204.224 167.742C204.058 167.982 203.403 168.04 203.038 167.94C201.167 167.343 199.463 166.312 198.065 164.934C197.948 164.826 197.799 164.652 197.708 164.652C196.382 164.992 196.283 163.981 196.001 163.153C195.967 163.071 195.852 163.021 195.52 162.747C195.52 163.21 195.387 163.576 195.52 163.725C196.406 164.768 196.39 164.942 195.188 165.596C195.86 165.779 196.498 166.176 197.111 165.306C197.393 164.909 198.761 165.712 198.653 166.308C198.388 167.865 199.209 167.071 199.98 166.855L200.908 168.512L202.79 168.918C202.682 169.265 202.665 169.746 202.425 169.929C202.009 170.131 201.559 170.257 201.099 170.301C201.016 170.665 200.892 171.279 200.759 171.891H200.294C200.137 171.361 199.988 170.831 199.797 170.169C198.214 171.701 196.556 170.947 194.898 170.649C194.781 170.633 194.583 170.525 194.583 170.442C194.368 169.282 193.638 169.895 193.008 169.895C192.113 169.891 191.219 169.808 190.339 169.647C189.667 169.539 189.021 169.332 188.092 169.1C191.549 164.727 194.84 160.254 196.913 155.235C198.985 150.215 201.413 145.328 202.798 139.994C202.568 139.958 202.331 139.981 202.111 140.058C201.891 140.135 201.694 140.266 201.536 140.438C201.379 140.611 201.266 140.819 201.209 141.045C201.152 141.27 201.151 141.507 201.206 141.734C200.809 142.006 200.469 142.231 200.153 142.47C199.45 142.992 198.761 143.523 198.073 144.052C197.708 144.351 197.402 144.492 197.402 145.179C197.435 145.635 196.754 146.247 196.257 146.595C195.765 146.898 195.413 147.383 195.28 147.945C195.147 148.434 194.583 148.807 194.185 149.212C194.036 149.37 193.688 149.437 193.638 149.602C193.223 151.126 192.113 151.64 190.537 151.64C191.3 152.526 191.284 153.197 190.537 153.421C189.873 153.568 189.195 153.648 188.515 153.66C188.573 153.777 188.573 153.867 188.573 153.867L189.725 154.406C189.504 154.794 189.224 155.146 188.896 155.45C188.56 155.631 188.195 155.754 187.819 155.814C187.639 156.398 187.383 156.955 187.056 157.471C186.442 158.175 185.497 158.647 185.05 159.417C184.279 160.743 182.928 161.256 181.875 162.242C181.958 162.78 182.165 163.476 181.128 163.409C181.068 163.416 181.012 163.438 180.961 163.471C180.911 163.504 180.869 163.548 180.838 163.6C180.799 163.745 180.725 163.878 180.623 163.988C180.522 164.099 180.395 164.183 180.254 164.236C180.113 164.288 179.962 164.305 179.813 164.287C179.663 164.268 179.52 164.215 179.396 164.131C179.23 164.055 178.932 164.246 178.7 164.321C178.791 164.511 178.857 164.619 178.965 164.909C179.073 165.199 179.314 165.622 179.214 165.737C178.924 166.15 178.512 166.463 178.036 166.632C177.432 166.764 177.083 166.855 177.208 167.592C177.215 167.736 177.185 167.878 177.122 168.005C177.058 168.132 176.961 168.242 176.843 168.322C176.14 168.708 175.357 168.929 174.555 168.967C173.519 168.851 174.14 168.09 174.422 167.469C173.759 167.517 173.038 167.7 172.64 167.517C172.242 167.336 172.052 166.664 171.687 166.077C170.779 165.978 169.862 165.997 168.959 166.135C168.157 166.445 167.421 166.91 166.795 167.501C165.775 168.447 164.981 169.61 164.475 170.905C164.3 171.245 163.704 171.378 163.298 171.609L162.933 171.345C163.042 170.568 163.223 169.803 163.471 169.058C164.553 166.96 165.868 164.99 167.393 163.186C168.744 161.438 169.913 159.616 171.231 157.877C172.889 155.756 174.605 153.727 176.205 151.614C176.942 150.629 177.506 149.519 178.186 148.492C179.173 147.026 180.242 145.627 181.195 144.144C182.281 142.446 183.276 140.69 184.329 138.966C186.019 136.2 187.81 133.492 189.419 130.684C191.457 127.114 193.381 123.486 195.313 119.85C196.166 118.243 196.921 116.587 197.692 114.93C197.831 114.611 197.848 114.251 197.741 113.919C196.962 115.153 196.208 116.446 195.379 117.639C194.987 118.306 194.412 118.847 193.72 119.196C192.842 119.502 192.917 120.148 192.784 120.719C192.602 121.457 192.651 122.218 191.515 122.218C191.11 122.21 190.861 122.633 191.11 123.196C191.515 124.115 191.026 124.803 190.015 124.944C189.662 125.025 189.32 125.148 188.996 125.308C189.095 126.054 190.322 126.302 189.493 127.006C189.12 127.354 189.128 128.953 187.835 127.503C187.729 127.931 187.695 128.373 187.736 128.812C187.82 128.982 187.868 129.169 187.877 129.358C187.885 129.549 187.854 129.739 187.785 129.916C187.717 130.094 187.613 130.255 187.478 130.39C187.344 130.525 187.183 130.63 187.006 130.7C186.691 130.915 186.177 131.263 186.177 131.529C186.236 132.697 185.282 133.227 184.768 134.013C184.386 134.593 183.806 135.115 182.928 134.088C182.875 134.517 182.875 134.952 182.928 135.381C183.333 136.689 183.127 137.07 181.784 137.327C181.692 137.343 181.626 137.435 181.784 137.558C181.668 138.222 181.577 138.892 181.41 139.547C181.394 139.588 180.788 139.662 180.706 139.547C180.469 139.14 180.274 138.71 180.126 138.262L179.155 138.909C180.49 139.348 179.894 140.515 180.225 141.344C180.266 141.452 179.769 141.783 179.512 142.006C179.332 141.782 179.167 141.544 179.023 141.294C178.973 141.069 178.955 140.837 178.974 140.607L178.144 141.021C178.376 141.468 178.575 141.849 178.807 142.296C177.522 142.694 177.522 141.336 176.693 141.153L176.072 141.642V141.377C175.318 141.129 174.655 140.88 173.826 140.624C172.996 140.366 172.805 139.795 172.996 138.966C173.717 135.86 174.19 132.705 175.376 129.714C176.495 126.658 178.236 123.866 180.49 121.514C182.521 119.486 184.394 117.282 186.508 115.344C188.88 113.182 191.433 111.219 193.92 109.198C195.578 107.848 197.177 106.556 198.894 105.363C201.356 103.632 203.926 102.05 206.412 100.393C206.776 100.12 207.186 99.9119 207.623 99.7809C208.766 99.5229 209.181 98.5459 209.67 97.7179C212.05 93.6009 214.379 89.4679 216.783 85.3679C218.698 82.1299 220.621 79.0399 222.586 75.7099C224.551 72.3809 226.465 68.9929 228.43 65.6799C228.932 64.8269 229.442 63.9789 229.957 63.1329ZM232.459 181.698C232.957 181.081 233.409 180.428 233.81 179.743C233.885 179.602 233.512 179.031 233.255 178.964C232.658 178.799 231.771 179.793 231.795 180.622C231.803 180.879 232.119 181.143 232.459 181.69V181.698ZM216.451 176.381L216.377 176.878C216.833 177.051 216.94 178.004 217.711 177.383C217.927 177.218 217.885 176.729 217.969 176.381H216.451ZM214.627 176.008C215.009 176.646 215.531 176.836 216.111 176.397C216.166 176.277 216.196 176.148 216.196 176.016C216.196 175.885 216.166 175.755 216.111 175.635C215.614 175.371 215.009 175.055 214.645 175.975L214.627 176.008ZM210.731 175.677L211.162 176.14L212.066 175.437C211.875 175.271 211.585 174.931 211.519 174.964C211.231 175.173 210.968 175.411 210.731 175.677ZM218.358 174.55C218.084 175.52 218.358 175.892 219.03 175.784C219.304 175.784 219.535 175.437 219.783 175.246L218.358 174.55ZM216.692 174.807L217.123 175.113C217.383 174.842 217.619 174.548 217.828 174.236C217.828 174.236 217.471 173.912 217.28 173.738L216.692 174.807ZM167.302 174.898C167.81 174.823 168.305 174.673 168.768 174.451C170.17 173.532 171.546 172.562 172.855 171.51C173.01 171.33 173.127 171.12 173.2 170.894C173.273 170.668 173.299 170.43 173.278 170.193C173.278 168.843 172.084 168.231 171.281 167.394C171.003 167.164 170.654 167.039 170.294 167.038C169.484 166.937 168.663 167.072 167.927 167.426C167.192 167.78 166.575 168.338 166.149 169.034C165.627 169.816 165.214 170.666 164.922 171.56C164.832 171.937 164.822 172.329 164.897 172.709C164.971 173.089 165.126 173.449 165.352 173.764C165.577 174.079 165.868 174.342 166.205 174.535C166.541 174.727 166.915 174.846 167.302 174.882V174.898ZM185.249 167.799C185.63 167.344 186.003 167.087 186.011 166.839C186.019 166.59 185.572 166.01 185.473 166.06C185.091 166.191 184.758 166.43 184.511 166.748C184.444 166.813 184.875 167.253 185.249 167.766V167.799ZM184.291 166.286C183.886 165.558 183.361 165.335 182.745 165.688C182.554 165.803 182.439 166.515 182.554 166.582C183.138 167.026 183.714 166.728 184.291 166.286ZM184.291 166.286L184.304 166.308V166.276L184.291 166.286ZM187.404 165.771L188.233 164.9C187.926 164.669 187.636 164.304 187.305 164.262C186.973 164.222 186.716 164.586 186.417 164.769L187.404 165.771ZM185 165.157L185.978 164.113C185.694 163.92 185.388 163.758 185.066 163.633C184.965 163.587 184.852 163.57 184.741 163.585C184.631 163.599 184.526 163.644 184.44 163.715C184.354 163.786 184.289 163.879 184.252 163.984C184.217 164.09 184.212 164.204 184.237 164.312C184.287 164.52 184.644 164.735 185 165.125V165.157ZM186.758 163.236L187.587 162.316L186.758 161.645C186.55 161.91 186.252 162.142 186.186 162.474C186.186 162.582 186.5 162.838 186.758 163.202V163.236ZM189.783 163.21L189.832 162.524C189.372 162.498 188.909 162.498 188.449 162.524C188.399 162.524 188.382 162.93 188.349 163.145L189.783 163.21ZM191.308 160.387C190.04 160.461 189.111 160.569 188.59 159.327L187.553 160.734L189.261 161.14C189.632 161.462 190.08 161.679 190.563 161.77C190.753 161.753 190.969 161.049 191.308 160.387ZM193.141 157.489C192.716 156.68 192.318 156.202 191.574 156.121C191.334 156.121 191.052 156.551 190.745 156.792C190.977 157.032 191.185 157.422 191.467 157.496C192.023 157.556 192.584 157.554 193.141 157.489ZM193.141 157.489L193.157 157.521V157.487L193.141 157.489ZM168.865 131.452C169.324 131.93 170.129 132.084 170.203 132.937C170.203 133.045 170.692 133.251 170.767 133.186C170.865 133.103 170.945 133.003 171.002 132.889C171.059 132.775 171.092 132.65 171.098 132.522C171.007 131.935 170.816 131.363 170.626 130.643L172.084 130.849L172.242 129.358C173.137 129.002 173.427 128.531 173.071 127.926C172.939 127.686 172.831 127.433 172.748 127.171C173.046 127.081 173.353 127.014 173.635 126.899C173.916 126.783 174.373 126.567 174.356 126.477C174.198 125.722 174.704 125.457 175.185 125.085C175.409 124.822 175.582 124.518 175.69 124.19C175.807 123.975 175.906 123.751 176.03 123.536C176.238 123.163 176.445 122.782 176.677 122.426C176.835 122.18 177.013 121.948 177.208 121.73C177.39 121.514 177.614 121.341 177.788 121.117C178.974 119.676 180.093 118.185 181.352 116.802C182.181 115.899 182.24 115.825 181.137 115.278C180.879 115.125 180.599 115.011 180.308 114.938C177.589 114.458 174.878 113.903 172.143 113.555C169.598 113.232 167.02 113.083 164.458 112.934C162.303 112.809 160.147 112.777 157.992 112.735C154.172 112.616 150.349 112.812 146.56 113.322C145.367 113.505 144.124 113.414 142.93 113.596C140.442 113.978 137.955 114.425 135.469 114.913C133.546 115.286 131.647 115.742 129.741 116.213C128.894 116.503 128.027 116.728 127.146 116.885C126.658 116.893 126.181 117.016 125.748 117.241C125.316 117.467 124.944 117.79 124.659 118.185C125.488 119.17 126.317 120.132 127.079 121.2C128.074 122.649 129.865 123.403 130.503 125.167C130.68 125.582 130.924 125.965 131.224 126.302C132.211 127.511 133.181 128.729 134.225 129.889C134.596 130.257 135.055 130.523 135.56 130.659C136.272 130.858 137.035 130.891 137.765 131.024C138.851 131.222 139.937 131.454 141.023 131.645C141.117 131.656 141.213 131.647 141.305 131.62C141.396 131.593 141.48 131.548 141.553 131.488C142.002 130.974 142.292 131.321 142.689 131.587C143.303 131.993 143.983 132.307 144.67 132.68L145.167 131.321C145.475 131.778 145.598 132.15 145.872 132.332C146.419 132.623 147.157 133.078 147.597 132.904C148.21 132.655 147.861 131.967 147.514 131.496C147.456 131.412 147.514 131.255 147.514 131.024C147.697 131.138 147.872 131.264 148.036 131.404C148.542 131.967 149.006 132.573 149.536 133.102C150.631 134.18 151.111 134.063 151.509 132.705C151.509 132.655 151.608 132.623 151.791 132.49C152.131 133.906 153.45 133.981 154.626 134.295L154.03 133.467C154.958 132.705 153.408 132.2 153.632 131.438L155.224 132.83C155.253 133.29 155.428 133.73 155.721 134.088C156.173 134.553 156.692 134.946 157.262 135.256C157.409 135.333 157.57 135.374 157.735 135.374C157.9 135.374 158.062 135.333 158.208 135.256C158.381 135.041 158.266 134.593 158.274 134.254L157.354 134.32H157.08C157.288 133.898 157.453 133.492 157.652 133.136C157.735 132.97 157.892 132.697 157.992 132.705C158.929 132.78 159.301 132.142 159.7 131.479C159.765 131.414 159.846 131.368 159.934 131.342C160.023 131.318 160.116 131.317 160.205 131.338C160.33 131.43 160.363 131.686 160.38 131.868C160.396 132.064 160.396 132.26 160.38 132.456C161.045 132.847 161.877 133.091 161.747 134.162C161.747 134.353 161.864 134.717 162.005 134.759C162.767 134.975 162.891 135.588 163.115 136.216C163.148 136.347 163.21 136.469 163.297 136.571C163.384 136.674 163.494 136.755 163.617 136.808C163.741 136.861 163.875 136.884 164.01 136.877C164.144 136.869 164.275 136.83 164.391 136.763C164.616 136.648 164.74 136.001 164.649 135.679C164.558 135.355 164.119 135.033 163.72 134.585L163.811 133.699H164.516C164.566 133.699 164.607 133.782 164.657 133.824C164.748 135.323 164.748 135.323 166.141 135.546C165.883 136.2 165.444 136.896 166.646 137.079C166.738 137.079 166.795 137.327 166.887 137.435C167.127 137.708 167.359 138.155 167.633 138.188C167.906 138.221 168.404 137.948 168.777 137.807L166.904 134.759C166.917 134.365 166.847 133.973 166.696 133.608C166.481 133.301 165.975 133.194 165.403 132.904C166.904 131.603 168.371 130.328 169.847 129.068C169.952 128.991 170.074 128.94 170.203 128.919C170.252 128.919 170.319 128.919 170.427 128.969V129.723C168.877 130.112 168.835 130.162 168.909 131.462L168.865 131.452L168.851 131.438V131.448L168.865 131.452ZM160.369 132.455C160.01 132.402 159.645 132.489 159.348 132.697C159.049 132.907 158.842 133.224 158.771 133.583C158.614 134.486 159.31 134.809 159.998 135.057C160.184 135.462 160.494 135.795 160.885 136.01C161.093 136.093 161.465 135.778 161.764 135.645L160.761 133.989C160.665 133.604 160.513 133.025 160.369 132.455ZM168.851 131.448C168.775 131.432 168.698 131.422 168.619 131.421C167.848 131.537 166.904 131.579 166.887 132.572C166.887 133.003 167.542 133.401 167.866 133.881C167.989 134.047 167.973 134.311 168.097 134.461C168.39 134.814 168.722 135.133 169.084 135.413C169.175 135.48 169.606 135.289 169.631 135.165C169.714 134.717 169.904 134.063 169.68 133.832C169.119 133.167 168.823 132.318 168.851 131.448ZM160.367 132.449L160.354 132.398L160.338 132.432L160.367 132.449L160.369 132.455L160.38 132.456L160.367 132.449ZM248.84 115.368C247.712 115.245 247.057 115.617 247.082 116.42C247.122 116.584 247.204 116.733 247.321 116.853C247.438 116.974 247.584 117.062 247.745 117.108C248.492 117.207 248.897 116.52 248.84 115.368ZM244.876 115.129C244.809 115.286 244.778 115.456 244.784 115.627C244.791 115.797 244.836 115.965 244.915 116.117C244.994 116.268 245.107 116.4 245.244 116.502C245.381 116.606 245.538 116.677 245.706 116.71C245.806 116.71 246.203 116.197 246.229 115.883C246.36 114.822 245.573 115.12 244.918 115.096L244.876 115.129ZM244.31 114.761C244.847 114.398 245.276 114.126 245.681 113.837C246.269 113.414 246.145 113.008 245.681 112.569C244.902 111.849 244.429 112.685 243.89 112.942C243.755 113.058 243.65 113.205 243.586 113.371C243.522 113.537 243.501 113.718 243.525 113.895C243.575 114.192 243.971 114.414 244.31 114.761L244.305 114.764H244.313L244.31 114.761ZM248.093 112.544C247.53 113.016 246.974 113.431 246.493 113.919C246.394 114.01 246.493 114.466 246.651 114.599C246.757 114.666 246.877 114.709 247.002 114.723C247.127 114.737 247.253 114.723 247.372 114.682C247.834 114.378 248.265 114.028 248.657 113.638C248.729 113.558 248.781 113.462 248.808 113.359C248.835 113.254 248.837 113.146 248.814 113.041C248.715 112.884 248.433 112.759 248.093 112.536V112.544Z" fill="black"/>
</svg>
