<svg width="300" height="300" viewBox="0 0 300 300" fill="none" xmlns="http://www.w3.org/2000/svg">
<rect x="32" y="32" width="235" height="235" fill="black"/>
<path d="M233.894 191.191C234.354 191.51 234.916 191.84 235.315 191.347C235.666 190.775 235.94 190.159 236.131 189.516L236.946 190.052C236.538 191.217 234.351 191.543 235.403 193.432C234.661 192.878 234.335 193.187 233.943 193.717C233.551 194.246 233.461 194.718 233.943 195.15C234.425 195.581 234.808 195.15 235.176 194.841C235.787 194.303 236.416 193.798 237.036 193.277C236.982 193.488 236.895 193.689 236.775 193.871C236.203 194.514 235.575 195.101 235.045 195.777C234.873 195.996 234.955 196.404 234.914 196.729C235.212 196.744 235.51 196.725 235.804 196.672C236 196.616 236.147 196.387 236.334 196.258C236.792 195.923 237.265 195.597 237.73 195.272C237.534 196.192 237.101 196.974 238.441 197.202C238.554 197.202 238.595 197.642 238.685 197.861C238.775 198.081 238.946 198.765 239.102 198.773C239.522 198.74 239.931 198.618 240.301 198.415C240.585 198.258 240.857 198.081 241.117 197.886C240.244 199.767 238.163 200.134 237.51 201.901C237.381 201.825 237.262 201.731 237.159 201.623C235.918 199.995 234.759 198.277 233.437 196.738C231.804 194.767 230.041 192.837 228.205 191.038C226.866 189.752 225.437 188.562 223.928 187.479C221.7 185.851 219.382 184.271 217.121 182.643C214.048 180.566 210.792 178.772 207.392 177.285C205.09 176.194 202.674 175.347 200.274 174.476C197.876 173.605 195.247 172.643 192.676 171.919C190.104 171.194 187.575 170.673 185.012 170.135C183.379 169.801 181.804 169.549 180.18 169.322C178.917 169.188 177.647 169.12 176.376 169.118C175.765 169.113 175.157 169.204 174.572 169.387C174.353 169.451 174.246 169.875 174.091 170.127C174.31 170.284 174.544 170.416 174.793 170.518C175.21 170.657 175.609 170.73 176.066 170.827L176.001 171.146C175.046 171.048 174.099 170.934 173.136 170.876C172.843 170.876 172.32 170.933 172.32 171.064C172.238 171.373 172.32 171.927 172.475 172.041C172.923 172.255 173.408 172.38 173.903 172.407C174.719 172.514 175.593 172.554 176.434 172.627V172.993C176.227 173.098 176.003 173.165 175.773 173.189C174.687 173.075 173.61 172.913 172.508 172.79C171.898 172.689 171.281 172.64 170.663 172.643C170.361 172.643 169.846 172.921 169.846 173.149C169.804 173.255 169.788 173.37 169.801 173.484C169.814 173.598 169.858 173.706 169.926 173.799C169.994 173.891 170.085 173.965 170.19 174.011C170.295 174.059 170.41 174.078 170.525 174.068C170.679 174.068 170.826 174.289 171.12 174.516C170.893 174.549 170.663 174.563 170.435 174.557C168.637 174.119 166.74 174.354 165.105 175.217C164.925 175.323 164.55 175.054 164.289 174.981C164.027 174.907 163.473 174.647 163.138 174.777C162.673 174.989 162.485 174.997 162.207 174.557C161.961 174.265 161.665 174.016 161.334 173.824C160.803 173.401 159.881 173.01 159.816 172.563C159.677 171.626 159.652 170.884 158.722 170.933C158.909 170.469 159.359 169.916 159.236 169.541C159.15 169.314 159.127 169.068 159.169 168.829C159.21 168.59 159.316 168.366 159.473 168.181C159.946 167.473 159.775 166.634 159.195 166.553C157.963 166.447 156.747 166.374 155.482 166.374C154.216 166.374 152.764 166.488 151.401 166.529C151.133 166.477 150.874 166.395 150.625 166.284C150.92 166.122 151.001 166.048 151.082 166.04C153.662 165.829 156.241 165.682 158.812 165.397C159.758 165.291 160.877 165.584 161.628 164.729C162.15 164.134 162.559 163.45 163.032 162.815C164.117 161.374 165.325 159.998 166.296 158.467C166.794 157.653 168.141 157.026 167.415 155.903C167.832 155.642 168.233 155.356 168.614 155.047C168.888 154.76 169.136 154.449 169.357 154.119C169.545 153.866 169.717 153.614 169.895 153.354C170.11 152.953 170.386 152.588 170.712 152.271C171.096 151.978 171.317 151.765 170.892 151.383C170.468 151.001 169.977 150.618 169.512 150.235C169.878 150.201 170.247 150.24 170.597 150.349C171.063 150.398 171.716 150.52 171.969 150.276C172.385 149.885 172.32 149.29 171.651 148.981C171.569 148.981 171.528 148.819 171.389 148.631C172.794 149.218 173.128 149.013 173.308 147.735C173.308 147.418 173.7 147.149 173.887 146.847C174.075 146.546 174.451 146.188 174.402 145.92C174.353 145.651 173.944 145.301 173.643 145.105C173.347 144.918 173.035 144.757 172.712 144.625C171.227 143.868 169.782 142.996 168.247 142.386C166.712 141.775 165.202 141.417 163.701 140.879C162.199 140.342 160.517 139.576 158.893 139.039C157.27 138.502 155.449 138.037 153.711 137.573C152.066 137.07 150.396 136.654 148.708 136.327C146.259 135.936 143.696 135.766 141.19 135.513C139.24 135.285 137.305 135.009 135.355 134.804C135.182 134.796 135.009 134.824 134.847 134.886C134.686 134.948 134.539 135.042 134.416 135.163C134.269 135.326 134.326 135.766 134.416 136.034C134.756 137.052 135.169 138.045 135.648 139.006C136.106 139.82 135.909 141.083 137.076 141.45C136.791 143.176 138.489 142.858 139.264 143.688L137.632 143.485C137.63 143.644 137.608 143.803 137.566 143.957C137.207 144.877 137.387 145.431 138.489 145.586C138.864 145.635 139.191 146.026 139.705 146.4C138.839 146.522 137.95 146.098 137.714 147.076C137.642 147.313 137.619 147.561 137.645 147.808C137.672 148.054 137.748 148.292 137.868 148.509C138.056 148.721 138.766 148.509 139.166 148.452L141.835 150.137C141.11 150.031 140.421 149.752 139.827 149.323C139.109 148.729 138.456 149.257 137.852 149.396C137.616 149.445 137.575 150.43 137.387 151.261C136.57 151.725 136.57 151.733 137.436 152.775C137.591 152.963 137.509 153.337 137.542 153.59L136.595 153.524C136.317 153.524 136.032 153.524 135.779 153.476C135.767 153.773 135.789 154.071 135.844 154.363C135.901 154.55 136.114 154.697 136.35 154.982L135.249 155.455C135.126 155.503 135.015 155.576 134.922 155.669C134.829 155.762 134.757 155.873 134.708 155.995C134.661 156.117 134.638 156.248 134.643 156.378C134.647 156.51 134.677 156.639 134.734 156.757C134.799 156.937 135.314 156.978 135.632 157.05C135.818 157.079 136.007 157.096 136.196 157.099L136.073 158.419L137.892 157.604L138.089 157.897C137.852 158.174 137.665 158.557 137.362 158.712C136.432 159.151 136.595 159.73 137.142 160.666L138.921 158.923C139.737 158.491 139.737 158.491 140.243 157.523C140.325 157.376 140.513 157.172 140.652 157.172C141.008 157.207 141.365 157.103 141.647 156.882C141.928 156.66 142.113 156.338 142.162 155.983C142.162 155.862 142.374 155.772 142.487 155.666C143.426 154.852 144.431 154.038 145.296 153.133C146.52 151.831 147.646 150.422 148.813 149.062L149.107 149.209C149.089 149.451 149.028 149.688 148.928 149.91C147.81 151.44 146.691 152.971 145.516 154.453C144.341 155.935 143.068 157.563 141.696 159.029C139.844 161.081 137.999 163.165 135.983 165.039C133.912 166.924 131.732 168.686 129.453 170.315C127.127 172 124.695 173.572 122.221 175.03C119.797 176.465 117.299 177.776 114.737 178.954C111.276 180.534 107.767 182.024 104.209 183.343C101.482 184.353 98.6496 185.061 95.8582 185.876C94.3162 186.324 92.7812 186.795 91.2062 187.105C87.9414 187.749 84.6765 188.318 81.3548 188.863C79.616 189.157 77.8533 189.352 76.1065 189.588C73.9033 189.882 71.6992 190.264 69.487 190.403C67.4716 190.55 65.4062 190.452 63.4228 190.403C62.8485 190.357 62.2782 190.267 61.7169 190.134V189.874C62.6308 189.874 63.5456 189.922 64.4514 189.874C66.3041 189.776 68.1487 189.645 70.0013 189.475C70.5656 189.429 71.1179 189.285 71.6342 189.051C71.9359 188.912 72.1316 188.497 72.3194 188.171C72.3194 188.123 72.0257 187.773 71.846 187.749C71.2667 187.675 70.6625 187.7 70.0752 187.659C69.7996 187.624 69.5269 187.572 69.2583 187.504V187.154H70.9641C71.3955 187.229 71.84 187.149 72.2185 186.928C72.596 186.708 72.8836 186.361 73.0294 185.949C73.1193 185.638 73.1793 185.318 73.2092 184.996C72.8527 184.902 72.4841 184.858 72.1156 184.866C71.7481 184.931 71.4295 185.232 71.071 185.338C70.8752 185.387 70.6295 185.249 70.4098 185.192C70.4997 185.004 70.5486 184.76 70.6954 184.645C71.071 184.361 71.5114 184.133 71.8949 183.881C72.0567 184.059 72.2564 184.2 72.4802 184.292C72.7029 184.385 72.9436 184.427 73.1852 184.415C73.4259 184.403 73.6616 184.338 73.8754 184.225C74.0881 184.111 74.2729 183.952 74.4167 183.758C74.7682 183.229 74.5725 182.782 73.9433 182.806C73.2312 182.869 72.5231 182.97 71.822 183.107L71.2827 182.293C71.5593 182.245 71.832 182.18 72.0986 182.098C72.4422 181.951 72.7688 181.764 73.1034 181.592L72.572 180.607C72.3114 180.127 72.0497 179.639 71.7561 179.174C71.2497 178.36 70.7364 177.545 70.1811 176.731C70.0992 176.617 69.8305 176.601 69.6418 176.584C69.455 176.568 69.0466 176.584 68.7449 176.584H67.7981V176.332L69.3322 176.202C69.463 175.89 69.472 175.54 69.3572 175.223C69.2423 174.905 69.0116 174.641 68.712 174.484C68.5402 174.369 68.2626 174.183 68.2795 174.044C68.3085 173.803 68.2895 173.559 68.2236 173.325C68.1567 173.091 68.0438 172.874 67.892 172.684C67.7402 172.495 67.5515 172.337 67.3377 172.221C67.124 172.105 66.8893 172.033 66.6466 172.008C67.2758 170.974 67.2349 170.819 66.2471 170.168C66.2471 169.826 66.369 169.313 66.2471 169.224C65.3083 168.613 65.602 167.596 65.3243 166.781C64.3286 163.858 63.211 160.975 62.1664 158.069C61.9047 157.368 61.4802 157.181 60.9739 157.734C59.5507 159.143 58.2504 160.671 57.0889 162.303C55.0735 165.518 52.6486 168.515 51.2374 172.074C50.4204 174.125 49.4736 176.145 48.7066 178.189C48.1513 179.719 47.6929 181.283 47.3354 182.87C46.9928 184.242 46.7901 185.645 46.7321 187.057C46.7321 189.1 46.2827 191.127 46.813 193.204C47.7358 196.991 49.2509 200.61 51.3023 203.928C53.2328 207.016 55.5359 209.857 58.1585 212.388C60.109 214.245 62.2393 215.889 64.3286 217.615C66.9812 219.685 69.8555 221.455 72.8986 222.892C74.948 223.942 77.1681 224.634 79.3144 225.49C81.946 226.744 84.7824 227.514 87.6887 227.761C89.753 228.096 91.7695 228.429 93.8837 228.69C95.0992 228.844 96.3316 228.844 97.564 228.917C99.5725 229.04 101.572 229.259 103.571 229.259C105.572 229.259 107.448 229.072 109.383 228.893C112.427 228.6 115.48 228.348 118.5 227.875C121.063 227.472 123.598 226.909 126.09 226.19C128.727 225.424 131.306 224.472 133.878 223.495C136.381 222.603 138.834 221.573 141.223 220.408C144.774 218.568 148.25 216.565 151.679 214.489C153.78 213.198 155.8 211.779 157.726 210.238C159.359 208.928 160.795 207.323 162.436 205.988C163.893 204.724 165.194 203.292 166.313 201.721C166.827 201.053 167.423 200.435 168.15 199.596C168.164 199.867 168.164 200.139 168.15 200.41C167.988 201.365 167.489 202.231 166.745 202.853C165.872 203.619 165.635 204.888 164.5 205.515C164.019 205.785 163.195 206.33 163.684 207.046C163.023 207.657 161.938 208.219 161.971 208.723C162.019 209.62 161.71 209.733 161.057 209.88C160.834 209.929 160.637 210.057 160.501 210.238C159.807 211.297 159.163 212.38 157.89 212.877C157.718 212.941 157.596 213.373 157.636 213.601C157.677 213.829 158.045 213.846 158.281 213.878C158.679 213.899 159.076 213.899 159.473 213.878V214.204C159.209 214.304 158.935 214.377 158.657 214.423C158.073 214.374 157.486 214.374 156.902 214.423C156.276 214.617 155.672 214.874 155.098 215.189L155.163 215.702L158.265 216.272V216.549H154.903C154.423 216.532 153.948 216.63 153.514 216.833C153.164 217.029 152.968 217.501 152.698 217.843C153.073 218.135 153.495 218.358 153.948 218.503C155.368 218.658 156.804 218.69 158.24 218.772C156.542 219.456 154.617 218.479 153.009 219.586C152.193 218.576 151.507 218.446 150.454 219.048C149.785 219.439 149.94 219.863 150.348 220.588L152.796 219.953L152.878 220.653L150.756 221.353C150.242 220.303 149.254 220.539 148.373 220.653C148.079 220.653 147.834 221.157 147.557 221.426C147.84 221.655 148.149 221.849 148.479 222.005C148.767 222.054 149.063 222.054 149.352 222.005C150.429 222.005 150.429 222.005 151.059 222.916L150.764 222.851C150.493 222.746 150.204 222.694 149.913 222.701C149.622 222.708 149.336 222.772 149.069 222.89C148.803 223.008 148.564 223.178 148.365 223.39C148.165 223.601 148.009 223.85 147.908 224.122C147.85 224.213 147.775 224.29 147.686 224.352C147.598 224.413 147.498 224.457 147.393 224.48C146.947 224.526 146.504 224.607 146.071 224.724C145.785 224.838 145.614 225.205 145.394 225.465C145.646 225.676 145.891 226.059 146.153 226.075C147.157 226.149 148.168 226.075 149.083 226.075C149.344 226.36 149.572 226.825 149.776 226.808C150.723 226.759 151.662 226.581 152.601 226.45C152.804 226.45 153.033 226.32 153.205 226.385C153.274 226.443 153.326 226.518 153.356 226.602C153.386 226.687 153.393 226.777 153.376 226.866C153.245 227.032 153.06 227.146 152.853 227.191C152.237 227.338 151.613 227.451 150.985 227.533C150.789 227.533 150.585 227.402 150.372 227.346C149.546 227.025 148.687 226.797 147.81 226.671C147.418 226.671 146.994 227.289 146.569 227.623C146.953 227.826 147.328 228.184 147.712 228.201C148.659 228.201 149.613 228.087 150.609 228.014L150.822 228.673C150.005 228.827 149.238 228.95 148.471 229.161C148.324 229.202 148.185 229.585 148.193 229.797C148.201 230.008 148.504 230.139 148.683 230.155C149.891 230.228 151.131 230.261 152.38 230.31C152.38 230.985 152.911 231.067 153.751 230.856C154.604 230.689 155.47 230.604 156.339 230.603C156.494 230.603 156.657 230.831 156.894 231.002C154.56 231.311 154.494 231.36 154.062 232.973C153.29 232.996 152.522 233.091 151.769 233.258C151.286 233.404 150.56 233.901 150.568 234.218C150.568 235.163 151.384 234.634 151.906 234.674C152.43 234.715 153.09 234.984 153.539 234.781C154.274 234.43 154.862 233.966 155.482 234.878C155.512 234.916 155.551 234.946 155.595 234.967C155.639 234.989 155.687 235 155.735 235C156.959 234.764 158.183 234.511 159.473 234.251C159.734 234.349 160.167 234.674 160.534 234.617C161.282 234.468 162.015 234.248 162.722 233.958C163.432 233.706 164.068 232.965 164.901 233.681C164.974 233.747 165.162 233.681 165.284 233.681C166.745 233.332 168.185 232.897 169.594 232.378C172.043 231.352 174.402 230.18 176.761 228.999C177.144 228.811 177.348 228.282 177.633 227.908C179.429 227.012 180.98 225.962 181.021 225.27L179.78 225.18C181.771 224.105 183.567 223.168 185.331 222.175C185.827 221.836 186.291 221.452 186.718 221.028L186.489 220.588L184.424 221.149L189.419 217.412L188.603 216.712C189.419 215.767 190.783 215.279 191.051 213.829L190.089 213.545C190.856 212.893 191.517 212.38 192.105 211.786C192.294 211.482 192.427 211.149 192.496 210.8L191.525 210.711L191.141 210.654C191.868 210.011 192.545 209.489 193.117 208.87C193.312 208.666 193.223 208.203 193.271 207.861C192.966 207.839 192.658 207.875 192.366 207.966C191.231 208.683 190.137 209.464 189.011 210.189C188.676 210.323 188.325 210.411 187.966 210.45C188.071 210.266 188.191 210.091 188.326 209.929C188.445 209.823 188.575 209.732 188.717 209.66C191.011 208.447 192.692 206.526 194.431 204.702C194.611 204.514 194.513 204.066 194.545 203.732L193.729 203.822H193.647C194.128 202.935 194.684 202.006 195.124 201.029C195.263 200.72 195.084 200.28 195.051 199.905L193.713 200.394L195.581 198.187L195.834 198.277C195.9 199.555 195.998 200.842 196.039 202.128C196.08 203.414 196.039 204.571 196.039 206.053C195.834 206.477 194.961 207.03 195.337 208.023H197.737L197.81 208.316L194.994 208.993C194.994 209.319 194.912 209.945 195.1 210.043C195.548 210.224 196.033 210.292 196.512 210.238C197.027 210.238 197.532 210.116 198.193 210.027C198.03 210.353 198.005 210.499 197.948 210.507C197.263 210.678 196.561 210.783 195.884 210.979C195.384 211.095 194.913 211.313 194.504 211.622C194.325 211.778 194.504 212.306 194.464 212.665C194.994 212.665 195.533 212.665 196.096 212.558C196.317 212.558 196.544 212.192 196.716 212.225C198.21 212.558 199.556 212.005 200.944 211.663C201.326 211.614 201.713 211.614 202.095 211.663C201.278 212.137 200.403 212.501 199.491 212.746C198.523 212.934 197.572 213.207 196.651 213.561C196.17 213.805 195.835 213.967 195.362 213.731C194.602 213.348 194.112 213.78 193.729 214.301C193.345 214.822 193.566 215.32 194.235 215.36C194.556 215.349 194.874 215.313 195.19 215.254C195.736 215.254 196.3 215.254 196.822 215.132C197.344 215.01 198.251 215.042 198.602 214.66C199.418 213.846 199.924 214 200.536 214.66L198.903 215.474H197.377C196.186 215.531 195.223 216.622 193.876 216.182C193.59 216.084 193.06 216.467 192.741 216.753C192.423 217.038 192.521 217.363 192.415 217.672C192.724 217.806 193.057 217.878 193.394 217.884C194.308 217.713 195.124 216.899 196.145 217.542C196.202 217.542 196.333 217.542 196.422 217.493L199.132 216.459C199.785 217.371 198.251 217.273 198.234 217.884C196.602 217.461 195.141 217.566 194.104 219.065C193.944 218.898 193.766 218.747 193.574 218.617C193.284 218.474 192.956 218.429 192.638 218.491C192.321 218.553 192.033 218.717 191.819 218.959C191.687 219.147 191.622 219.373 191.632 219.603C192.014 219.849 192.45 219.999 192.905 220.042C194.017 219.914 195.124 219.729 196.219 219.488C196.651 219.407 197.035 219.204 197.492 219.114C197.725 219.082 197.96 219.082 198.193 219.114V219.39L197.084 220.205C196.577 220.05 196.145 219.757 195.769 219.822C195.045 219.952 194.345 220.193 193.696 220.539C193.402 220.693 193.296 221.198 193.109 221.548C193.435 221.695 193.803 222.013 194.088 221.956C195.067 221.743 196.022 221.409 197.076 221.092L198.52 221.418C197.669 221.712 196.849 222.089 196.072 222.542C195.91 222.633 195.726 222.679 195.541 222.672C194.73 222.561 193.91 222.528 193.093 222.574C192.717 222.623 192.423 223.209 192.097 223.559C192.454 223.725 192.822 223.866 193.199 223.983C193.676 224.081 194.171 224.041 194.627 223.867C195.082 223.695 195.479 223.396 195.769 223.006C195.802 223.395 195.714 223.785 195.517 224.122C195.296 224.513 194.945 224.879 195.517 225.277C196.276 225.831 197.541 225.156 197.867 224.317C198.309 223.543 198.858 222.835 199.499 222.216L200.063 222.908C199.81 223.821 198.161 223.487 198.643 224.919C199.654 224.846 200.74 225.131 201.515 224.105C201.573 224.016 201.874 224.105 202.062 224.105C202.88 224.209 203.709 224.165 204.511 223.975C204.936 223.788 205.89 223.16 205.327 222.208C205.278 222.126 205.507 221.817 205.662 221.687C206.559 220.922 206.575 220.873 205.784 220.058L207.351 218.674L207.727 219.106C207.35 219.58 207.002 220.074 206.682 220.588C206.633 220.677 206.886 221.02 207.066 221.133C207.727 221.548 208.175 220.995 208.698 220.742C209.057 220.614 209.429 220.526 209.808 220.482L209.873 220.807C209.057 221.092 208.592 221.947 207.424 221.72C206.258 221.491 205.792 222.07 206.127 223.706L208.257 222.615C208.505 222.809 208.812 222.916 209.126 222.916C209.442 222.916 209.748 222.809 209.996 222.615C210.657 222.249 211.219 221.28 212.224 221.923C212.224 221.923 212.346 221.923 212.412 221.874L214.656 221.059C217.33 220.185 219.928 219.096 222.426 217.803C224.785 216.451 227.373 215.449 229.568 213.886C232.446 211.761 235.207 209.48 237.836 207.054C240.571 204.612 242.66 201.607 244.79 198.651C246.811 195.958 248.328 192.924 249.271 189.694C249.434 189.076 249.655 188.473 249.834 187.862C250.307 186.177 250.781 184.499 251.238 182.814C251.339 182.409 251.416 181.998 251.467 181.584C251.717 180.367 251.883 179.135 251.964 177.895C251.964 176.357 251.655 174.809 251.647 173.271C251.597 169.901 250.916 166.57 249.638 163.45C249.134 162.039 248.504 160.677 247.753 159.379C246.602 157.531 245.305 155.797 243.966 154.054C243.191 153.028 242.334 152.067 241.469 151.106C241.06 150.65 240.603 150.496 240.236 151.18C239.656 152.246 239.012 153.288 238.513 154.437C238.122 155.324 237.175 156.065 237.616 157.254C237.698 157.474 237.852 158.589 236.8 158.28C236.702 158.28 236.416 158.581 236.367 158.785C236.195 159.428 236.154 160.12 235.943 160.747C235.583 161.789 235.649 162.009 236.563 162.303C236.78 162.813 236.951 163.342 237.077 163.882C237.077 164.142 236.841 164.443 236.702 164.697L236.489 164.55C236.391 164.053 236.301 163.565 236.187 162.97C235.143 163.728 235.086 164.387 235.861 165.047C235.983 165.122 236.088 165.222 236.167 165.341C236.246 165.461 236.3 165.595 236.323 165.736C236.346 165.877 236.339 166.022 236.301 166.16C236.264 166.298 236.197 166.426 236.106 166.537C235.886 165.983 235.779 165.291 234.988 165.722C234.564 165.975 234.685 167.506 235.102 167.774C235.853 168.263 235.918 168.988 235.266 169.476L234.702 168.288H234.433C234.22 169.15 233.029 169.721 233.772 170.942L234.245 170.771C234.4 170.698 234.539 170.616 234.971 170.38C234.653 171.349 234.433 172.008 234.204 172.709L233.951 172.627L233.551 171.218C233.07 171.426 232.681 171.8 232.456 172.271C232.232 172.743 232.185 173.281 232.326 173.783C233.51 173.783 233.322 174.785 233.657 175.412C233.046 175.461 232.416 175.657 232.433 174.703C232.433 174.525 232.058 174.215 231.829 174.183C231.6 174.15 231.372 174.443 231.225 174.647C231.078 174.85 230.898 175.282 230.695 175.567C229.707 176.935 229.789 177.155 231.421 177.415C231.414 177.813 231.525 178.204 231.742 178.537C231.959 178.871 232.271 179.132 232.637 179.288C232.729 179.344 232.808 179.417 232.871 179.504C232.934 179.591 232.98 179.688 233.005 179.793C233.2 180.729 233.592 181.308 234.693 180.802C234.857 181.543 234.906 182.146 234.098 182.333C233.739 181.756 233.519 181.015 233.046 180.761C232.799 180.649 232.579 180.483 232.402 180.279C232.225 180.073 232.093 179.833 232.017 179.573C231.896 179.432 231.749 179.316 231.584 179.233C231.419 179.149 231.239 179.098 231.054 179.084C230.567 179.6 230.192 180.21 229.951 180.876C229.887 181.095 230.646 181.543 231.094 181.951L231.438 183.351L231.526 183.531C231.095 183.416 230.689 183.222 230.327 182.96C229.919 182.537 229.715 181.845 228.932 182.098C228.568 182.227 228.252 182.463 228.023 182.773C227.795 183.083 227.665 183.455 227.65 183.84C227.125 184.242 226.626 184.677 226.156 185.143C226.074 185.232 226.303 185.818 226.491 185.892C226.664 185.939 226.845 185.947 227.021 185.913C227.197 185.879 227.363 185.805 227.506 185.697C227.648 185.59 227.764 185.45 227.845 185.291C227.925 185.131 227.967 184.955 227.968 184.776L230.058 183.66L229.013 185.941C228.45 185.68 228.034 186.046 227.96 186.754C227.954 186.92 227.987 187.083 228.059 187.232C228.13 187.382 228.236 187.511 228.368 187.61C228.478 187.662 228.599 187.688 228.721 187.687C228.843 187.687 228.963 187.659 229.073 187.605C229.181 187.552 229.278 187.475 229.354 187.381C229.43 187.285 229.484 187.174 229.511 187.057C229.642 186.592 229.805 186.062 230.384 186.356C230.702 186.519 230.833 187.04 231.078 187.446C229.519 188.001 229.38 188.22 229.699 189.385C231.184 189.467 231.486 189.197 231.282 187.911L232.172 188.123L232.621 189.524C232.457 189.475 232.254 189.36 232.197 189.409C231.765 189.777 231.369 190.183 231.013 190.622C230.923 190.736 231.103 191.266 231.16 191.266C231.591 191.277 232.022 191.216 232.433 191.087C232.596 191.021 232.596 190.599 232.76 190.427C233.09 190.131 233.443 189.859 233.813 189.613C233.813 190.353 233.869 190.775 233.894 191.191ZM146.904 233.835C146.985 233.933 147.157 234.275 147.409 234.365C147.869 234.556 148.376 234.604 148.863 234.5C149.351 234.398 149.794 234.148 150.136 233.786C150.275 233.649 150.454 233.356 150.397 233.249C150.333 233.151 150.25 233.067 150.152 233.004C150.053 232.941 149.942 232.9 149.825 232.883C149.132 232.883 148.438 233.022 147.745 233.038C147.431 233.043 147.122 232.976 146.838 232.842C146.471 232.672 146.177 232.281 145.81 232.224C145.103 232.13 144.387 232.13 143.68 232.224C143.532 232.263 143.397 232.34 143.288 232.447C143.18 232.554 143.101 232.688 143.06 232.834C143.079 232.989 143.138 233.136 143.231 233.261C143.323 233.387 143.447 233.486 143.59 233.551C144.627 233.698 145.671 233.73 146.904 233.819V233.835ZM140.169 231.1C139.824 231.218 139.485 231.359 139.158 231.523C139.158 231.523 139.223 232.093 139.37 232.158C140.001 232.443 140.664 232.652 141.345 232.777C141.541 232.777 141.892 232.386 142.014 232.109C142.072 231.971 141.802 231.572 141.591 231.474C141.128 231.308 140.654 231.183 140.169 231.1ZM150.169 231.393C149.254 230.489 147.442 230.318 145.834 231.059C146.03 231.279 146.177 231.605 146.374 231.645C147.189 231.8 148.046 231.873 148.887 231.971C149.181 232.011 149.539 231.922 149.76 232.06C150.293 232.436 150.935 232.628 151.587 232.608C152.24 232.587 152.867 232.354 153.376 231.947C153.013 231.467 152.482 231.142 151.888 231.036C151.295 230.93 150.684 231.052 150.177 231.376L150.169 231.393ZM141.362 230.594C142.216 231.105 143.199 231.36 144.193 231.327C144.529 231.327 144.863 230.856 145.206 230.594C144.863 230.359 144.553 230 144.177 229.927C143.239 229.74 142.178 229.169 141.362 230.594ZM135.787 230.497C136.097 230.848 136.196 231.083 136.35 231.124C136.806 231.259 137.279 231.321 137.754 231.311C137.901 231.311 138.015 230.815 138.138 230.546C137.748 230.329 137.33 230.166 136.897 230.057C136.587 230.033 136.252 230.301 135.787 230.497ZM140.447 230.359C140.635 230.188 141.198 229.886 141.157 229.683C140.994 228.755 140.13 228.755 139.427 228.714C139.199 228.714 138.725 229.13 138.741 229.341C138.79 230.204 139.566 230.204 140.447 230.35V230.359ZM140.848 227.9C141.061 228.256 141.374 228.542 141.747 228.725C142.121 228.907 142.54 228.977 142.953 228.925C143.329 228.882 143.71 228.95 144.046 229.121C144.521 229.518 145.098 229.775 145.711 229.862C146.325 229.948 146.95 229.861 147.516 229.609C147.695 229.552 147.964 229.276 147.932 229.194C147.851 228.991 147.638 228.706 147.467 228.698C146.495 228.624 145.654 227.802 144.594 228.258C144.455 228.315 144.169 228.038 143.778 227.81L146.536 227.468C146.365 227.167 146.316 226.915 146.161 226.808C145.809 226.523 145.398 226.32 144.958 226.211C144.518 226.102 144.058 226.092 143.614 226.182C143.109 226.328 142.896 226.271 142.61 225.823C142.416 225.5 142.101 225.266 141.734 225.172C141.368 225.077 140.979 225.13 140.652 225.318C140.505 225.383 140.431 225.986 140.472 226.002C141.1 226.28 141.737 226.507 142.382 226.719C142.626 226.792 142.929 226.719 143.125 226.841C143.32 226.964 143.125 227.257 143.125 227.468C142.874 227.517 142.616 227.517 142.366 227.468C142.24 227.39 142.1 227.338 141.953 227.317C141.807 227.295 141.658 227.304 141.515 227.344C141.372 227.383 141.239 227.45 141.124 227.543C141.009 227.637 140.916 227.753 140.848 227.883V227.9ZM134.733 229.238C134.25 228.982 133.938 228.715 133.714 228.747C133.485 228.779 133.256 229.138 133.029 229.349C133.286 229.575 133.582 229.755 133.901 229.878C134.077 229.878 134.324 229.557 134.733 229.238ZM134.733 229.238L134.758 229.251V229.218L134.733 229.238ZM135.722 227.314C135.727 228.563 136.264 229.055 137.231 228.885C137.477 228.885 137.876 228.69 137.901 228.535C137.913 228.397 137.889 228.257 137.832 228.13C137.776 228.003 137.687 227.893 137.575 227.81C136.968 227.607 136.349 227.44 135.722 227.314ZM139.484 228.055C139.884 227.664 140.3 227.435 140.3 227.24C140.235 226.239 139.264 226.638 138.717 226.36C138.635 226.36 138.334 226.719 138.138 226.915L139.484 228.055ZM193.618 225.233C192.726 224.358 192.279 224.355 191.615 225.164C192.221 225.834 192.868 225.679 193.618 225.233ZM142.659 223.877C142.659 225.254 143.035 225.506 144.471 225.367C144.733 225.367 144.969 225.025 145.222 224.846C145.01 224.561 144.846 224.097 144.578 224.032C143.945 223.917 143.302 223.862 142.659 223.869V223.877ZM193.618 225.233L193.639 225.221V225.254L193.618 225.233ZM146.357 224.398C146.879 223.852 147.508 223.503 147.499 223.145C147.499 222.387 146.683 222.476 146.169 222.436C145.654 222.396 144.92 222.306 145.034 223.039C145.1 223.47 145.769 223.812 146.357 224.39V224.398ZM190.717 222.574C190.137 223.096 189.362 223.462 189.322 223.901C189.281 224.341 190.007 224.48 190.554 224.251C191.297 223.901 191.076 223.413 190.717 222.542V222.574ZM190.994 222.412C191.68 222.062 192.578 222.412 192.57 221.401C192.57 221.117 192.219 220.832 192.031 220.547L190.399 221.743L190.994 222.412ZM236.718 199.376L236.792 199.938C237.174 200.027 237.569 200.049 237.958 200.003C238.636 199.792 238.775 199.254 238.424 198.375L236.718 199.376ZM236.694 198.741L237.811 197.47C237.494 197.251 237.085 196.803 236.865 196.876C236.444 197.081 236.095 197.407 235.861 197.812C235.82 197.861 236.293 198.285 236.694 198.725V198.741ZM233.866 191.184C233.58 191.09 233.268 191.104 232.991 191.222C232.703 191.344 232.472 191.569 232.343 191.852C232.274 192.011 232.24 192.181 232.24 192.353C232.24 192.525 232.274 192.696 232.343 192.854C232.408 193 232.898 193.089 233.159 193.009C234.199 192.652 234.293 192.391 233.866 191.184ZM233.894 191.191V191.193L233.866 191.184L233.861 191.168L233.894 191.191ZM74.7802 188.137C74.3408 187.725 73.9822 187.252 73.8534 187.341C73.381 187.576 72.9366 187.865 72.5321 188.204C72.7928 188.441 73.0864 188.888 73.348 188.855C73.8584 188.688 74.3408 188.445 74.7802 188.137ZM78.7671 187.585V187.243C78.5304 187.113 78.2857 186.869 78.041 186.869C77.4358 186.869 76.8316 186.926 76.2373 187.04C75.9108 187.078 75.6032 187.215 75.3555 187.43C75.2416 187.561 75.3555 188.123 75.4703 188.188C75.8079 188.329 76.1764 188.376 76.539 188.326C77.0113 188.289 77.4778 188.193 77.9272 188.042C78.2198 187.914 78.5004 187.762 78.7671 187.585ZM74.7802 188.137L74.8012 188.155V188.123L74.7802 188.137ZM60.4895 32H32V100.423C32.3885 100.847 32.778 101.272 33.1665 101.697C35.133 103.838 37.0845 105.996 39.1578 108.023C41.7935 110.597 44.52 113.08 47.2625 115.539C48.8944 117.046 50.723 118.43 52.4448 119.887C53.7342 120.97 54.9836 122.102 56.2649 123.185C57.2766 124 58.3542 124.814 59.326 125.693C59.6246 125.893 59.8493 126.186 59.9642 126.526C60.08 126.866 60.079 127.235 59.9622 127.574C59.8643 127.989 59.8643 128.421 59.9622 128.836C60.126 129.976 60.3707 131.1 60.5255 132.24C60.9339 135.236 61.2276 138.241 61.7169 141.196C62.2642 144.544 62.8844 147.881 63.6185 151.188C64.1129 153.232 64.7151 155.249 65.4222 157.23C66.2392 159.713 67.169 162.172 68.0668 164.631C69.3232 168.25 70.9082 171.747 72.8007 175.078C73.7435 176.747 74.8192 178.337 76.0166 179.834C77.6006 181.707 79.3633 183.433 81.1181 185.143C83.0276 187.008 85.0111 187.186 87.452 185.957C88.226 185.539 89.0479 185.217 89.9008 184.996C90.9365 184.76 91.1572 184.581 90.4721 183.734C89.8409 182.807 89.3106 181.816 88.8881 180.778C88.3738 179.776 88.0722 178.58 86.5372 178.523C87.6317 176.422 86.0318 176.593 84.9052 176.544L86.2765 175.73L85.3047 174.574C85.3627 173.319 85.3047 173.247 84.3749 172.293C84.1622 172.074 84.2441 171.577 84.1542 171.21C84.0643 170.844 84.0154 170.339 83.8037 170.241C83.1425 169.948 83.1505 169.631 83.2813 168.98C83.4441 168.165 83.7457 167.098 82.3176 166.863C82.1877 166.863 82.1298 166.171 82.1058 165.804C82.0809 165.438 82.3176 164.892 82.1548 164.582C81.8152 164.068 81.4117 163.597 80.9543 163.182C81.983 161.634 80.4809 160.209 80.432 158.663C80.432 158.589 80.2941 158.524 80.2362 158.451C80.0145 158.07 79.8917 157.639 79.8807 157.197C79.8687 156.756 79.9686 156.319 80.1713 155.927C81.3298 158.207 82.4154 160.52 83.6648 162.742C85.5744 166.146 87.468 169.582 89.6142 172.839C91.5168 175.73 93.696 178.417 95.8832 181.144C96.3406 181.723 96.789 182.61 97.8007 182.391C98.4249 182.241 99.0391 182.051 99.6374 181.82C101.139 181.275 102.65 180.753 104.119 180.135C104.743 179.779 105.329 179.358 105.865 178.881L106.951 178.669C106.902 178.245 106.801 177.83 106.648 177.432C106.314 176.805 105.832 176.259 105.49 175.632C105.016 174.769 103.955 174.346 103.808 173.23C103.702 172.9 103.541 172.588 103.335 172.309C103.188 172.033 103.049 171.756 102.886 171.496C102.722 171.235 102.396 170.991 102.372 170.681C102.343 170.341 102.203 170.019 101.973 169.765C101.743 169.512 101.435 169.342 101.099 169.281C100.38 169.101 100.029 169.631 99.7762 170.266C99.7033 170.454 99.2698 170.559 98.9602 170.583C98.6496 170.608 98.6007 170.388 98.4219 170.282C98.5578 170.058 98.7136 169.845 98.8863 169.647C99.115 169.427 99.4176 169.289 99.7033 169.077C100.911 168.067 100.903 167.758 99.6294 166.773C100.234 165.78 99.4007 165.233 98.9113 164.558L97.8666 164.916C97.8666 164.412 97.8666 164.045 97.9236 163.679C97.9805 163.312 98.1603 162.774 98.0055 162.457C97.2874 160.991 96.4704 159.632 95.6545 158.247L96.1199 157.702C95.3039 157.832 95.0752 157.604 95.0912 156.929C95.1851 155.923 94.8934 154.918 94.2752 154.119C93.655 153.346 93.6221 152.132 93.1327 151.22C92.7082 150.447 93.8018 148.851 91.6556 148.981L92.4715 148.37C92.5205 147.482 91.3779 146.62 92.5614 145.773C92.6853 145.914 92.7941 146.066 92.888 146.229C93.655 147.857 94.2912 149.543 95.1811 151.114C96.3895 153.223 97.7847 155.227 99.115 157.27C100.299 159.095 101.409 160.983 102.698 162.734C104.502 165.176 106.404 167.555 108.314 169.924C109.693 171.634 111.212 173.222 112.534 174.973C113.268 175.95 113.937 175.786 114.925 175.493C117.006 174.826 118.557 173.23 120.582 172.473C121.161 172.26 121.528 171.536 122.067 171.138C122.818 170.583 122.646 170.087 122.067 169.557C121.748 169.248 121.079 168.906 121.12 168.679C121.373 167.245 119.838 166.879 119.488 165.731C119.071 164.395 117.561 163.524 117.194 162.025C117.194 161.912 117.022 161.83 116.957 161.724C116.769 161.415 116.615 161.081 116.411 160.788C116.219 160.552 116.015 160.325 115.799 160.112C115.602 160.324 115.382 160.511 115.202 160.731C115.023 160.95 114.843 161.48 114.664 161.488C113.847 161.488 113.464 162.115 112.925 162.506C112.387 162.897 111.758 163.059 112.223 163.906C112.28 164.013 111.971 164.322 111.84 164.533L111.783 164.216C111.371 164.081 110.942 164.009 110.509 164.004C109.913 164.094 109.823 164.541 110.028 165.096C110.077 165.234 109.84 165.478 109.766 165.616L108.991 164.802C109.244 164.562 109.479 164.304 109.693 164.029C110.028 163.548 110.281 163.084 111.04 163.214C111.284 163.263 111.652 162.791 111.922 162.522C112.19 162.254 112.444 161.757 112.811 161.578C113.825 160.874 114.559 159.836 114.884 158.646C114.999 157.58 114.068 157.604 113.659 157.148C113.784 156.613 113.714 156.05 113.464 155.561C113.011 155.18 112.495 154.882 111.938 154.681C112.411 153.053 112.297 152.849 110.574 151.709C110.811 150.74 110.811 150.748 109.938 149.982C109.776 149.829 109.654 149.639 109.579 149.429C109.187 148.46 109.31 147.189 107.947 146.815C107.89 146.815 107.865 146.652 107.824 146.563C107.35 145.707 107.432 144.698 106.535 143.892C105.637 143.086 105.791 142.785 104.902 143.452C104.665 142.744 104.665 142.744 106.028 142.426C105.58 141.27 104.665 140.26 104.902 138.827C105.322 139.097 105.681 139.452 105.955 139.869C107.032 141.441 108.069 143.045 109.162 144.601C110.155 146.219 111.276 147.755 112.517 149.193C113.823 150.536 114.843 152.165 116.067 153.59C118.141 156.032 120.238 158.411 122.409 160.739C124.124 162.58 125.936 164.314 127.747 166.056C128.041 166.341 128.637 166.675 128.89 166.553C130.04 166.108 131.103 165.466 132.033 164.656C132.571 164.102 133.177 163.619 133.837 163.214C134.579 162.75 135.175 161.691 134.766 160.942C134.188 159.938 133.556 158.965 132.873 158.028C132.208 157.215 131.586 156.366 131.012 155.487C130.694 154.917 130.645 154.2 129.935 153.858C129.862 153.858 129.804 153.622 129.829 153.524C130.057 152.768 129.437 152.482 129.013 152.425C128.71 152.377 128.327 152.889 128 153.174C127.812 153.346 127.601 153.769 127.527 153.745C126.597 153.403 126.458 154.087 126.147 154.664C126.001 154.949 125.543 155.324 125.331 155.267C124.516 155.039 124.295 155.569 124.05 156.081C123.862 156.489 123.716 156.896 123.544 157.344L122.491 156.407C122.605 156.35 122.883 156.302 122.932 156.179C123.381 154.917 124.801 154.877 125.568 154.038C126.188 153.42 126.767 152.762 127.299 152.067C127.723 151.456 128.319 150.577 127.552 149.999C127.229 149.813 126.969 149.536 126.805 149.203C126.641 148.869 126.58 148.495 126.629 148.126C126.139 147.662 125.552 147.369 125.511 147.011C125.324 146.064 124.831 145.206 124.107 144.568C123.446 143.827 123.168 142.728 122.385 141.905C121.879 141.368 122.311 140.105 121.087 139.902C121.014 139.902 121.006 139.609 120.932 139.47C120.606 138.844 120.255 138.233 119.895 137.581L119.471 138.762L119.12 138.639C119.226 138.338 119.316 138.037 119.43 137.744C119.659 137.183 119.103 135.187 118.614 135.058C117.374 134.739 117.268 133.624 117.145 132.744C117.006 131.727 116.574 131.491 115.701 131.507C115.397 131.461 115.104 131.37 114.827 131.238L115.888 130.318C115.586 130.009 115.292 129.691 114.982 129.39C114.86 129.26 114.574 129.137 114.582 129.032C114.68 127.843 113.872 127.761 112.843 127.761C113.048 127.427 113.26 127.24 113.284 127.028C113.342 126.597 113.464 126.043 113.284 125.742C112.812 125.12 112.263 124.559 111.652 124.073C111.4 123.907 111.126 123.781 110.836 123.698L110.175 123.397L111.807 123.079C110.346 121.154 109.144 119.046 108.232 116.809C109.048 117.411 109.195 118.658 110.412 118.845C110.493 118.845 110.533 119.13 110.607 119.276C110.757 119.716 110.958 120.137 111.204 120.531C111.881 121.451 112.64 122.314 113.325 123.226C113.798 123.724 114.168 124.31 114.41 124.952C114.501 125.356 114.684 125.733 114.945 126.055C115.205 126.377 115.536 126.634 115.913 126.809C116.058 126.897 116.183 127.015 116.279 127.156C116.374 127.297 116.439 127.455 116.468 127.623C116.409 127.993 116.466 128.371 116.632 128.709C116.796 129.045 117.061 129.323 117.39 129.503L118.149 129.211C118.295 129.683 118.655 130.277 118.508 130.457C118.002 131.084 118.385 131.588 118.688 131.938C119.504 132.9 120.402 133.641 120.573 135.13C120.687 136.124 122.344 136.53 122.793 137.679C122.793 137.728 122.9 137.761 122.957 137.769L125.633 138.135V139.218C125.048 138.804 124.437 138.426 123.805 138.086C123.552 137.972 123.177 138.143 122.851 138.184C122.9 138.412 122.851 138.737 123.005 138.844C123.821 139.478 124.752 140.056 125.633 140.659C124.907 141.986 125.347 142.939 126.882 143.501C127.019 143.588 127.131 143.709 127.208 143.851C127.286 143.993 127.325 144.154 127.323 144.315C127.013 145.334 127.094 145.553 128.074 145.944C128.556 146.185 129.023 146.456 129.469 146.759L128.653 147.377C128.776 148.835 130.84 148.883 130.735 150.447C130.735 150.496 130.963 150.545 131.069 150.618C131.297 150.826 131.549 151.006 131.82 151.155C132.187 151.31 132.581 151.39 132.98 151.391C133.15 151.391 133.314 151.065 133.477 150.895C133.199 150.666 132.906 150.244 132.661 150.26C131.583 150.26 131.894 149.494 131.738 148.948C131.903 149.03 132.048 149.147 132.163 149.29C132.98 150.105 134.75 149.982 134.913 149.013C135.123 147.738 135.227 146.446 135.224 145.154C135.224 144.275 135.012 143.403 133.592 143.436C135.003 142.703 135.003 142.703 134.359 141.425L134.269 141.254C134.17 141.046 134.028 140.861 133.854 140.712C133.678 140.562 133.473 140.451 133.251 140.387C133.031 140.322 132.798 140.305 132.569 140.337C132.34 140.368 132.122 140.447 131.926 140.57C130.653 141.147 130.832 142.394 130.506 143.379C130.392 143.713 130.857 144.234 130.752 144.568C130.618 144.985 130.596 145.43 130.687 145.858C130.778 146.287 130.98 146.684 131.274 147.011C131.673 147.588 131.274 148.094 130.253 148.289V144.673C130.324 144.197 130.276 143.71 130.114 143.256C129.633 142.564 130.016 142.003 130.22 141.45C130.499 140.879 130.826 140.334 131.2 139.82C131.91 140.22 132.497 139.992 132.563 139.145C132.617 138.311 132.549 137.475 132.358 136.661C132.18 136.327 131.706 136.051 131.412 135.75L131.126 135.855C131.176 135.567 131.176 135.272 131.126 134.984C130.922 134.471 130.547 133.551 130.367 133.575C129.193 133.778 129.363 133.217 129.551 132.46C129.564 132.105 129.454 131.758 129.241 131.475C128.514 130.261 127.829 129.032 126.988 127.892C125.903 126.418 124.678 125.042 123.512 123.625C122.901 122.792 122.232 122.004 121.511 121.264C119.749 119.635 117.92 118.007 116.075 116.459C114.443 115.091 112.812 113.732 111.114 112.469C110.118 111.729 108.966 111.191 107.906 110.531C107.09 110.01 106.322 109.35 105.457 108.903C103.123 107.673 100.739 106.517 98.381 105.304C98.1693 105.162 98.0045 104.961 97.9076 104.725C96.6662 102.283 95.4587 99.7833 94.2183 97.3323C92.896 94.7266 91.5407 92.1449 90.1775 89.5642C88.8152 86.9825 87.452 84.5723 86.1457 82.0485C85.6723 81.1361 85.5334 80.0531 84.6685 79.3531C84.6016 79.2833 84.5637 79.1896 84.5627 79.0928C84.4069 77.5372 83.2813 76.4054 82.742 75.0214C82.4404 74.2067 81.6894 73.6452 81.8122 72.668C81.8122 72.4975 81.5915 72.2931 81.4856 72.1066C81.0851 71.4056 80.6687 70.7225 80.3021 69.9976C80.1383 69.6635 80.3021 69.1101 80.0405 68.8977C79.1426 68.084 78.882 66.9841 78.4086 65.95C77.1352 63.2307 75.69 60.5842 74.3278 57.9057C73.0544 55.4627 71.7561 53.0196 70.3928 50.5775C69.3891 48.8025 68.5322 46.9457 67.5694 45.1458C65.2344 40.7652 62.9164 36.3597 60.5005 32.0199L60.4895 32ZM75.5113 184.686C74.4496 184.686 73.6576 185.338 73.7316 185.982C73.7316 186.234 74.0741 186.641 74.2779 186.657C75.0948 186.723 76.2124 185.843 76.0736 185.273C76.0006 184.979 75.6091 184.768 75.5113 184.678V184.686ZM226.364 183.856L226.622 183.229C226.344 183.148 225.994 182.919 225.806 183.017C225.374 183.281 224.972 183.589 224.605 183.937C224.801 184.117 225.055 184.491 225.194 184.451C225.605 184.297 225.998 184.099 226.364 183.856ZM226.364 183.856L226.36 183.865L226.401 183.832L226.364 183.856ZM226.679 183.327C227.214 182.848 227.72 182.34 228.197 181.804C228.344 181.609 228.246 181.234 228.263 180.941C227.936 180.941 227.512 180.851 227.324 181.015C226.932 181.399 226.607 181.844 226.36 182.333C226.246 182.488 226.508 182.814 226.679 183.318V183.327ZM267 101.055V32H245.568L245.182 32.6472C243.304 35.8222 241.518 39.0391 239.664 42.2231C238.032 45.0072 236.399 47.7814 234.767 50.5446C232.869 53.7306 230.964 56.9096 229.054 60.0796C227.748 62.2295 226.409 64.3705 225.128 66.5453C223.193 69.8021 221.309 73.1327 219.374 76.4054C217.439 79.6792 215.546 82.7166 213.66 85.8996C211.293 89.9302 209 93.9937 206.657 98.0403C206.176 98.855 205.767 99.8152 204.642 100.069C204.211 100.197 203.808 100.402 203.449 100.671C201.002 102.299 198.471 103.855 196.047 105.556C194.357 106.729 192.782 107.999 191.15 109.326C188.701 111.313 186.188 113.243 183.853 115.368C181.771 117.274 179.927 119.44 177.927 121.434C175.708 123.746 173.993 126.491 172.892 129.495C171.724 132.435 171.259 135.537 170.549 138.591C170.361 139.405 170.549 139.967 171.366 140.22C172.181 140.472 172.835 140.717 173.577 140.961V141.221L174.189 140.741C175.005 140.92 175.005 142.255 176.27 141.864C176.041 141.425 175.846 141.05 175.617 140.611L176.434 140.203C176.416 140.429 176.433 140.658 176.483 140.879C176.625 141.124 176.787 141.359 176.964 141.579C177.217 141.36 177.706 141.034 177.666 140.928C177.34 140.113 177.927 138.966 176.613 138.534L177.569 137.899C177.714 138.338 177.906 138.761 178.14 139.161C178.221 139.275 178.817 139.202 178.833 139.161C178.997 138.518 179.087 137.859 179.2 137.207C179.046 137.085 179.111 136.995 179.2 136.979C180.523 136.726 180.727 136.352 180.327 135.066C180.275 134.644 180.275 134.217 180.327 133.795C181.192 134.804 181.763 134.292 182.139 133.721C182.645 132.949 183.584 132.427 183.526 131.279C183.526 131.018 184.032 130.676 184.343 130.465C184.517 130.396 184.675 130.292 184.807 130.159C184.94 130.027 185.043 129.868 185.11 129.694C185.178 129.519 185.208 129.333 185.2 129.145C185.191 128.959 185.144 128.775 185.061 128.608C185.021 128.177 185.054 127.742 185.159 127.321C186.432 128.746 186.424 127.175 186.791 126.833C187.608 126.141 186.399 125.896 186.301 125.164C186.621 125.006 186.958 124.885 187.305 124.806C188.301 124.667 188.782 123.991 188.383 123.087C188.138 122.534 188.383 122.118 188.782 122.126C189.901 122.126 189.852 121.377 190.032 120.652C190.162 120.091 190.089 119.456 190.953 119.155C191.635 118.812 192.201 118.28 192.586 117.624C193.402 116.451 194.145 115.181 194.912 113.967C195.017 114.293 195 114.647 194.863 114.961C194.104 116.59 193.361 118.218 192.521 119.798C190.619 123.373 188.725 126.939 186.718 130.449C185.134 133.209 183.371 135.871 181.706 138.591C180.67 140.285 179.69 142.011 178.621 143.68C177.682 145.138 176.63 146.514 175.658 147.955C174.989 148.964 174.434 150.056 173.708 151.024C172.133 153.102 170.443 155.096 168.811 157.181C167.512 158.89 166.362 160.682 165.032 162.4C163.531 164.173 162.235 166.11 161.171 168.173C160.926 168.905 160.748 169.657 160.64 170.421L161 170.681C161.399 170.454 161.987 170.323 162.158 169.989C162.657 168.715 163.439 167.572 164.443 166.642C165.06 166.061 165.784 165.604 166.574 165.299C167.462 165.163 168.365 165.145 169.259 165.242C169.619 165.82 169.806 166.48 170.198 166.658C170.589 166.838 171.3 166.658 171.953 166.61C171.675 167.221 171.063 167.97 172.084 168.083C172.873 168.046 173.644 167.829 174.336 167.449C174.453 167.37 174.547 167.263 174.61 167.138C174.673 167.012 174.702 166.873 174.695 166.732C174.572 166.007 174.916 165.917 175.511 165.788C175.98 165.621 176.385 165.314 176.671 164.908C176.769 164.795 176.532 164.379 176.425 164.094C176.319 163.809 176.254 163.703 176.164 163.516C176.393 163.442 176.687 163.255 176.849 163.329C176.972 163.411 177.112 163.464 177.26 163.482C177.407 163.5 177.556 163.483 177.694 163.432C177.833 163.38 177.958 163.298 178.058 163.189C178.158 163.08 178.231 162.95 178.27 162.807C178.3 162.756 178.342 162.712 178.391 162.68C178.44 162.648 178.496 162.627 178.555 162.62C179.576 162.685 179.372 162.001 179.29 161.472C180.327 160.503 181.657 159.998 182.416 158.695C182.857 157.938 183.788 157.474 184.392 156.782C184.713 156.275 184.966 155.727 185.143 155.153C185.513 155.094 185.873 154.973 186.203 154.795C186.526 154.497 186.802 154.151 187.019 153.769L185.885 153.239C185.885 153.239 185.885 153.15 185.828 153.036C186.498 153.024 187.165 152.945 187.819 152.8C188.554 152.58 188.57 151.921 187.819 151.049C189.37 151.049 190.464 150.545 190.872 149.046C190.921 148.884 191.264 148.818 191.411 148.663C191.802 148.264 192.358 147.898 192.488 147.418C192.62 146.865 192.967 146.388 193.451 146.09C193.941 145.748 194.611 145.146 194.578 144.698C194.578 144.022 194.879 143.884 195.239 143.59C195.916 143.07 196.594 142.548 197.287 142.035C197.598 141.8 197.932 141.579 198.324 141.311C198.269 141.089 198.27 140.855 198.327 140.634C198.383 140.411 198.494 140.207 198.649 140.038C198.804 139.868 198.998 139.739 199.215 139.664C199.432 139.588 199.664 139.566 199.891 139.601C198.528 144.845 196.137 149.648 194.096 154.583C192.056 159.517 188.815 163.915 185.412 168.214C186.326 168.442 186.963 168.646 187.624 168.751C188.491 168.91 189.37 168.992 190.252 168.996C190.872 168.996 191.591 168.393 191.802 169.533C191.802 169.615 191.998 169.721 192.113 169.737C193.745 170.03 195.378 170.771 196.937 169.265C197.125 169.916 197.271 170.437 197.426 170.958H197.884C198.014 170.356 198.136 169.752 198.218 169.394C198.672 169.352 199.114 169.228 199.523 169.029C199.76 168.849 199.777 168.376 199.883 168.035L198.03 167.635L197.117 166.007C196.357 166.219 195.549 167 195.81 165.47C195.916 164.883 194.57 164.093 194.292 164.484C193.688 165.34 193.06 164.949 192.399 164.77C193.582 164.126 193.598 163.955 192.725 162.93C192.594 162.783 192.725 162.424 192.725 161.968C193.052 162.238 193.166 162.287 193.199 162.367C193.476 163.182 193.574 164.175 194.879 163.841C194.969 163.841 195.116 164.013 195.231 164.118C196.607 165.474 198.285 166.487 200.128 167.074C200.487 167.172 201.131 167.115 201.295 166.879C201.783 166.095 202.216 165.278 202.593 164.436L202.364 163.687C203.091 163.378 203.866 163.288 204.095 162.872C204.323 162.457 204.095 161.7 204.095 161.195C204.576 160.926 205.417 160.723 205.621 160.25C205.825 159.778 205.384 159.037 205.253 158.548C205.841 158.378 206.682 158.378 207 157.979C207.539 157.279 206.616 156.912 206.184 156.48C206.88 156.303 207.558 156.06 208.208 155.756C208.523 155.614 208.772 155.359 208.904 155.042C209.038 154.725 209.046 154.369 208.926 154.046L210.331 152.369C210.249 152.148 210.135 151.863 210.012 151.554C211.931 150.634 212.101 148.46 213.514 147.003C213.515 147.396 213.477 147.789 213.4 148.174C212.787 150.097 212.248 152.043 211.489 153.874C210.708 155.773 209.811 157.623 208.804 159.412C207.784 161.252 206.641 163.027 205.466 164.77C204.023 167.02 202.194 168.999 200.063 170.616C199.654 170.909 199.247 171.528 199.875 171.813C200.977 172.301 202.07 173.059 203.417 172.7C203.545 172.696 203.672 172.722 203.789 172.776C203.905 172.83 204.007 172.91 204.087 173.01C204.315 173.531 204.494 173.995 205.188 174.003C205.735 174.003 206.274 174.158 206.821 174.142C206.984 174.142 207.246 173.832 207.27 173.645C207.294 173.458 207.18 172.929 207.033 172.888C206.588 172.833 206.139 172.833 205.695 172.888C205.629 172.456 205.54 171.894 205.458 171.349L204.396 170.876C204.78 170.201 205.065 170.258 205.515 170.763C206.69 172.106 207.964 173.335 209.987 173.051C211.62 172.823 212.216 172.807 212.436 171.129C212.824 170.732 213.277 170.402 213.774 170.152C214.721 169.875 214.672 169.427 214.354 168.955L212.265 169.142L212.216 168.767C212.899 168.746 213.578 168.648 214.24 168.474C215.058 168.191 215.812 167.751 216.46 167.18C216.762 166.903 216.632 166.154 216.704 165.624C216.704 165.535 216.786 165.462 216.827 165.38C217.309 165.337 217.77 165.168 218.166 164.892C217.864 164.021 218.656 163.736 218.982 163.19C219.113 162.855 219.113 162.483 218.982 162.148C218.795 161.618 218.876 161.562 219.447 161.39C220.247 161.124 220.971 160.671 221.561 160.071C221.863 159.77 221.773 159.062 221.872 158.442C223.185 158.1 223.676 157.563 223.398 156.595C224.744 155.52 224.744 155.52 223.74 154.314C223.697 154.27 223.665 154.217 223.643 154.16C223.489 153.55 223.215 152.978 222.839 152.475C222.462 151.972 221.989 151.548 221.447 151.229C221.317 151.163 221.284 150.911 221.202 150.74C222.019 150.846 222.622 151.669 223.504 151.139C223.61 151.391 223.863 151.757 223.781 151.855C223.332 152.425 223.553 152.67 224.091 152.987C224.288 153.094 224.394 153.395 224.499 153.63C224.605 153.866 224.573 154.2 224.728 154.331C225.544 154.998 225.348 155.796 225.112 156.627C224.63 158.256 224.116 159.941 223.716 161.618C223.045 164.438 222.13 167.196 220.982 169.859C220.452 171.105 219.594 172.221 219.717 173.694C219.717 173.898 219.284 174.109 219.08 174.345C218.845 174.615 218.631 174.904 218.443 175.208C218.247 175.55 218.222 176.064 217.946 176.259C216.575 177.244 216.419 177.741 217.129 179.426C217.306 179.922 217.668 180.33 218.141 180.564C218.612 180.797 219.157 180.839 219.66 180.681C220.345 181.828 220.671 181.918 221.292 181.283L220.818 180.249L221.235 180.078C221.315 180.381 221.423 180.676 221.561 180.957C221.773 181.324 222.157 181.975 222.304 181.934C222.859 181.779 223.332 181.406 223.12 180.648C222.948 180.094 222.859 179.516 222.729 178.954L222.989 178.849C223.095 179.027 223.202 179.207 223.316 179.385C223.431 179.565 223.627 180.094 223.887 180.2C224.044 180.215 224.203 180.188 224.346 180.122C224.489 180.056 224.612 179.954 224.703 179.825C224.821 179.46 224.821 179.067 224.703 178.702C224.483 177.936 224.181 177.203 223.822 176.21C224.638 176.601 224.867 176.943 224.761 177.569C224.772 177.713 224.819 177.852 224.895 177.974C224.972 178.096 225.077 178.198 225.202 178.27C225.43 178.384 225.912 178.392 226.017 178.27C226.152 177.986 226.195 177.667 226.14 177.358C226.14 177.073 225.953 176.805 225.936 176.544C225.936 175.599 225.454 175.225 224.515 175.347C224.083 175.404 223.537 175.452 223.627 174.842C225.258 174.639 226.891 174.492 228.523 174.215C228.782 174.151 229.024 174.032 229.231 173.867C229.439 173.7 229.609 173.491 229.728 173.254C229.847 173.015 229.912 172.755 229.92 172.49C229.927 172.223 229.877 171.959 229.772 171.715C230.098 171.262 230.396 170.79 230.662 170.299C230.825 169.887 230.951 169.462 231.037 169.029C231.241 168.36 231.47 167.693 231.641 167.017C231.902 166.04 232.107 165.047 232.359 164.062C232.612 163.076 232.915 161.961 233.175 160.91C233.175 160.804 233.085 160.674 233.046 160.552C232.666 159.334 231.947 158.248 230.973 157.422C229.999 156.596 228.81 156.063 227.544 155.886C227.895 155.658 228.205 155.308 228.361 155.365C229.176 155.641 230.041 156.024 230.923 156.382C230.996 156.008 231.086 155.495 231.176 154.974H231.486V155.788C231.449 156.062 231.474 156.34 231.559 156.603C231.813 157.091 232.156 157.539 232.555 158.149C232.915 158.19 233.543 158.28 233.78 157.539C234.065 156.636 233.094 156.855 232.727 156.513C233.853 155.772 233.853 155.772 233.053 155.047C233.167 154.363 233.617 154.062 234.229 154.233C234.474 154.344 234.752 154.354 235.004 154.261C235.257 154.168 235.461 153.979 235.575 153.737C235.918 153.223 236.09 152.816 235.575 152.271C235.323 151.986 235.086 151.505 235.763 151.294C237.036 150.903 237.044 150.887 236.579 149.616C237.616 148.802 237.722 148.37 237.289 147.035C237.225 146.916 237.19 146.783 237.187 146.649C237.185 146.513 237.214 146.38 237.273 146.259C237.332 146.137 237.419 146.031 237.527 145.95C237.635 145.868 237.76 145.813 237.893 145.789C238.044 145.707 238.173 145.591 238.27 145.449C238.367 145.308 238.428 145.145 238.449 144.975C238.449 144.779 238.073 144.511 237.82 144.364C237.567 144.218 237.412 144.364 237.003 144.364C237.281 144.202 237.436 144.038 237.526 144.071C238.498 144.405 238.84 143.892 238.881 143.061C238.922 142.23 238.881 141.294 238.881 140.415C238.881 140.154 238.758 139.902 238.766 139.65C238.796 139.343 238.853 139.041 238.938 138.746L239.566 139.153C240.137 138.395 240.832 137.565 240.17 136.417C240.105 136.295 240.236 136.043 240.317 135.871C240.448 135.655 240.511 135.405 240.498 135.151C240.484 134.899 240.396 134.657 240.244 134.454C239.934 133.991 239.975 133.42 240.767 133.282C240.986 133.242 241.354 133.07 241.37 132.932C241.619 131.675 241.706 130.392 241.632 129.113C241.452 127.867 241.248 127.875 242.375 127.484C242.513 125.97 242.692 124.464 242.774 122.957C242.872 121.052 242.905 119.147 241.493 117.591C241.117 117.168 240.783 116.711 240.44 116.264C239.821 115.266 239.096 114.337 238.277 113.496C236.645 112.143 234.832 110.996 233.077 109.782C232.661 109.497 232.164 109.318 231.739 109.049C230.743 108.398 229.764 107.722 228.76 107.047C228.997 106.428 229.2 106.387 229.666 106.859C230.086 107.328 230.557 107.748 231.07 108.113C232.205 108.822 232.621 108.609 232.923 107.299L234.098 107.364C233.935 107.64 233.729 107.887 233.486 108.097C233.322 108.3 233.094 108.724 233.167 108.805C233.399 109.118 233.735 109.337 234.114 109.424C234.392 109.424 234.734 109.139 235.004 108.927C235.959 108.187 236.898 107.429 237.836 106.672C238.056 106.484 238.359 106.297 238.432 106.045C238.536 105.579 238.599 105.105 238.619 104.628C238.129 104.645 237.641 104.699 237.159 104.791C236.954 104.84 236.8 105.149 236.669 105.361C236.448 105.818 236.133 106.223 235.743 106.549C235.354 106.874 234.898 107.114 234.408 107.25C234.506 106.297 234.628 106.15 235.673 105.857C235.673 105.417 235.673 104.97 235.73 104.676C236.329 104.381 236.88 103.997 237.363 103.537C237.657 102.976 237.855 102.371 237.95 101.746C237.868 101.746 237.991 101.705 238.056 101.746L239.552 102.098C239.467 102.11 239.382 102.13 239.3 102.158C239.129 102.215 238.97 102.307 238.833 102.426C238.697 102.546 238.585 102.691 238.505 102.854C238.426 103.016 238.378 103.193 238.367 103.374L238.359 103.39C238.342 103.543 238.357 103.697 238.404 103.844C238.45 103.989 238.526 104.124 238.629 104.239C238.732 104.353 238.857 104.445 238.998 104.508C239.138 104.571 239.29 104.604 239.444 104.604C239.983 104.685 241.076 103.586 240.888 103.073C240.795 102.843 240.652 102.636 240.47 102.466C240.38 102.382 240.281 102.308 240.176 102.244L239.552 102.098C239.646 102.085 239.741 102.081 239.836 102.088C239.955 102.128 240.069 102.181 240.176 102.244L241.272 102.503C241.381 102.719 241.412 102.966 241.362 103.203C241.068 103.912 241.256 105.043 239.934 104.897C239.877 104.897 239.82 105.051 239.738 105.1C238.922 105.638 239.126 106.476 239.151 107.12C238.588 107.181 238.039 107.324 237.518 107.543C236.867 107.997 236.267 108.522 235.73 109.106C234.783 110.051 234.914 110.474 236.154 111.077C236.375 111.183 236.62 111.24 236.971 111.371C236.971 110.222 237.836 109.985 238.603 109.457C239.673 108.699 241.46 108.529 241.37 106.68C242.001 106.638 242.597 106.382 243.061 105.953C243.524 105.525 243.827 104.951 243.917 104.326H245.207C243.729 105.605 244.333 106.77 245.362 107.86L245.043 107.917L243.648 106.289C243.052 106.802 242.464 107.299 241.893 107.812C240.75 108.83 239.599 109.831 238.49 110.873C238.287 111.095 238.181 111.389 238.195 111.688C238.195 111.883 238.546 112.119 238.783 112.192C239.844 112.526 240.595 112.095 241.42 111.379C242.244 110.662 242.415 110.368 241.42 109.457C241.999 109.612 242.599 109.675 243.198 109.643C243.71 109.407 244.179 109.088 244.586 108.699L245.256 110.108L245.019 110.271L243.982 109.758C243.623 110.19 243.166 110.654 242.815 111.175C242.687 111.481 242.605 111.805 242.57 112.135C242.962 112.225 243.451 112.518 243.729 112.38C244.291 112.025 244.811 111.606 245.28 111.134C245.347 111.174 245.404 111.23 245.444 111.297C246.137 112.534 246.52 112.591 247.574 111.655C247.827 111.513 248.103 111.417 248.39 111.371C248.496 111.696 248.781 112.103 248.667 112.307C248.553 112.51 247.916 112.982 247.794 112.901C246.978 112.339 246.504 112.966 246.113 113.463C245.982 113.617 245.887 113.8 245.836 113.995C245.785 114.192 245.779 114.396 245.818 114.594C245.928 114.786 246.08 114.951 246.263 115.076C246.444 115.202 246.653 115.285 246.872 115.319C247.181 115.319 247.557 114.929 247.86 114.651C248.002 114.454 248.117 114.237 248.202 114.008L248.365 114.252C248.871 114.127 249.355 113.926 249.802 113.658C250.131 113.322 250.406 112.938 250.618 112.518C250.977 112.531 251.336 112.498 251.687 112.421C252.936 111.965 253.556 110.531 254.951 110.271C255.033 110.271 255.049 110.026 255.139 109.946C255.719 109.408 256.266 108.512 256.903 108.431C258.069 108.292 258.535 107.51 259.221 106.851C259.392 106.688 259.548 106.46 259.759 106.395C260.311 106.254 260.821 105.985 261.246 105.608C261.673 105.231 262.002 104.758 262.208 104.229C262.588 104.206 262.958 104.104 263.297 103.932C263.636 103.759 263.935 103.518 264.177 103.225C264.417 102.931 264.596 102.591 264.699 102.226C264.803 101.86 264.83 101.479 264.779 101.103L265.595 102.258C265.897 102.014 266.207 101.787 266.501 101.533C266.795 101.281 266.811 101.2 266.991 101.062L267 101.055ZM229.095 180.599C229.585 179.993 230.03 179.35 230.425 178.677C230.499 178.539 230.131 177.977 229.879 177.911C229.29 177.749 228.417 178.726 228.441 179.541C228.449 179.793 228.76 180.053 229.095 180.591V180.599ZM213.334 175.372L213.261 175.86C213.709 176.031 213.815 176.967 214.574 176.357C214.787 176.194 214.746 175.714 214.828 175.372H213.334ZM211.538 175.005C211.914 175.632 212.428 175.819 212.999 175.388C213.053 175.27 213.082 175.142 213.082 175.013C213.082 174.884 213.053 174.756 212.999 174.639C212.51 174.378 211.914 174.068 211.555 174.973L211.538 175.005ZM207.702 174.68L208.126 175.135L209.016 174.443C208.829 174.281 208.543 173.947 208.478 173.979C208.194 174.184 207.935 174.418 207.702 174.68ZM215.211 173.572C214.942 174.525 215.211 174.891 215.872 174.785C216.142 174.785 216.37 174.443 216.615 174.256L215.211 173.572ZM213.57 173.824L213.995 174.125C214.252 173.859 214.483 173.57 214.689 173.263C214.689 173.263 214.337 172.944 214.15 172.774L213.57 173.824ZM164.942 173.914C165.442 173.84 165.929 173.692 166.386 173.474C167.766 172.571 169.12 171.617 170.41 170.583C170.563 170.407 170.677 170.2 170.749 169.978C170.821 169.755 170.847 169.521 170.826 169.289C170.826 167.962 169.651 167.359 168.86 166.537C168.586 166.311 168.243 166.188 167.888 166.187C167.091 166.088 166.282 166.22 165.558 166.568C164.834 166.917 164.227 167.465 163.807 168.149C163.293 168.918 162.886 169.753 162.599 170.632C162.51 171.003 162.501 171.388 162.574 171.762C162.647 172.136 162.799 172.49 163.022 172.799C163.244 173.109 163.531 173.367 163.862 173.557C164.193 173.746 164.561 173.863 164.942 173.898V173.914ZM182.612 166.935C182.988 166.488 183.355 166.235 183.363 165.991C183.371 165.747 182.931 165.176 182.833 165.225C182.457 165.354 182.129 165.589 181.886 165.901C181.82 165.966 182.245 166.398 182.612 166.903V166.935ZM181.669 165.448C181.271 164.732 180.753 164.513 180.147 164.859C179.96 164.973 179.846 165.673 179.959 165.739C180.535 166.176 181.102 165.881 181.669 165.448ZM181.669 165.448L181.682 165.47V165.438L181.669 165.448ZM184.734 164.941L185.55 164.086C185.249 163.858 184.963 163.499 184.637 163.458C184.31 163.418 184.057 163.776 183.763 163.956L184.734 164.941ZM182.367 164.338L183.33 163.312C183.051 163.121 182.749 162.963 182.432 162.84C182.332 162.794 182.222 162.777 182.113 162.792C182.004 162.806 181.901 162.85 181.816 162.92C181.731 162.99 181.667 163.081 181.631 163.185C181.596 163.289 181.591 163.4 181.616 163.507C181.665 163.712 182.017 163.923 182.367 164.306V164.338ZM184.098 162.449L184.914 161.545L184.098 160.886C183.893 161.146 183.6 161.374 183.535 161.7C183.535 161.806 183.845 162.058 184.098 162.416V162.449ZM187.076 162.424L187.125 161.749C186.672 161.724 186.216 161.724 185.763 161.749C185.714 161.749 185.697 162.148 185.665 162.359L187.076 162.424ZM188.578 159.648C187.33 159.721 186.415 159.828 185.902 158.606L184.881 159.99L186.563 160.389C186.928 160.705 187.369 160.918 187.844 161.008C188.032 160.991 188.244 160.299 188.578 159.648ZM190.382 156.8C189.965 156.004 189.572 155.535 188.84 155.455C188.603 155.455 188.326 155.878 188.024 156.114C188.252 156.35 188.457 156.733 188.734 156.806C189.282 156.865 189.835 156.864 190.382 156.8ZM190.382 156.8L190.399 156.831V156.798L190.382 156.8ZM158.126 132.191C158.782 132.576 159.601 132.815 159.473 133.868C159.473 134.055 159.588 134.413 159.726 134.454C160.477 134.667 160.599 135.269 160.82 135.887C160.852 136.016 160.913 136.136 160.999 136.236C161.085 136.337 161.193 136.417 161.314 136.469C161.436 136.52 161.568 136.543 161.701 136.536C161.833 136.528 161.962 136.491 162.076 136.425C162.297 136.311 162.42 135.676 162.33 135.359C162.24 135.041 161.808 134.724 161.415 134.284L161.505 133.412H162.199C162.248 133.412 162.289 133.494 162.338 133.535C162.428 135.009 162.428 135.009 163.799 135.228C163.546 135.871 163.113 136.555 164.297 136.735C164.386 136.735 164.443 136.979 164.533 137.085C164.77 137.353 164.999 137.793 165.268 137.826C165.537 137.858 166.027 137.589 166.395 137.451L164.55 134.454C164.563 134.067 164.494 133.681 164.346 133.323C164.134 133.021 163.635 132.916 163.072 132.63C164.55 131.352 165.994 130.099 167.448 128.86C167.551 128.784 167.671 128.734 167.798 128.714C167.847 128.714 167.913 128.714 168.019 128.762V129.503C166.493 129.886 166.452 129.935 166.525 131.213L166.481 131.203L166.468 131.19V131.2L166.481 131.203C166.932 131.673 167.726 131.825 167.798 132.663C167.798 132.769 168.279 132.972 168.353 132.908C168.45 132.827 168.529 132.728 168.585 132.616C168.641 132.504 168.674 132.381 168.68 132.256C168.59 131.678 168.402 131.116 168.215 130.408L169.651 130.611L169.807 129.145C170.687 128.795 170.973 128.332 170.622 127.737C170.493 127.501 170.386 127.253 170.304 126.995C170.597 126.907 170.9 126.841 171.178 126.727C171.454 126.613 171.904 126.401 171.888 126.312C171.732 125.57 172.23 125.31 172.704 124.944C172.924 124.686 173.094 124.387 173.201 124.065C173.316 123.853 173.414 123.633 173.536 123.421C173.74 123.055 173.944 122.681 174.173 122.331C174.329 122.088 174.503 121.86 174.695 121.647C174.875 121.434 175.095 121.264 175.267 121.043C176.434 119.627 177.536 118.161 178.776 116.801C179.592 115.914 179.65 115.841 178.564 115.303C178.31 115.153 178.034 115.041 177.747 114.969C175.071 114.497 172.401 113.951 169.709 113.609C167.203 113.292 164.664 113.146 162.142 112.999C160.02 112.876 157.898 112.844 155.775 112.804C152.014 112.687 148.25 112.879 144.52 113.381C143.345 113.56 142.121 113.471 140.945 113.65C138.497 114.025 136.048 114.465 133.6 114.944C131.706 115.311 129.837 115.759 127.96 116.223C127.126 116.508 126.272 116.728 125.405 116.883C124.925 116.891 124.455 117.012 124.029 117.233C123.604 117.455 123.237 117.772 122.957 118.161C123.772 119.13 124.588 120.075 125.339 121.125C126.319 122.55 128.082 123.291 128.71 125.025C128.885 125.433 129.125 125.81 129.42 126.141C130.392 127.329 131.347 128.527 132.375 129.667C132.74 130.029 133.192 130.29 133.69 130.424C134.391 130.619 135.142 130.652 135.86 130.783C136.93 130.977 137.999 131.205 139.068 131.393C139.161 131.404 139.256 131.395 139.346 131.369C139.435 131.342 139.518 131.298 139.59 131.238C140.032 130.734 140.317 131.075 140.709 131.336C141.313 131.735 141.982 132.044 142.659 132.411L143.149 131.075C143.451 131.524 143.573 131.89 143.843 132.069C144.381 132.354 145.108 132.802 145.541 132.63C146.145 132.386 145.801 131.71 145.459 131.246C145.402 131.165 145.459 131.01 145.459 130.783C145.639 130.894 145.811 131.019 145.973 131.157C146.471 131.71 146.928 132.305 147.45 132.826C148.528 133.885 149.001 133.77 149.393 132.435C149.393 132.386 149.491 132.354 149.67 132.224C150.005 133.616 151.303 133.689 152.462 133.999L151.874 133.184C152.788 132.435 151.262 131.938 151.483 131.19L153.05 132.558C153.079 133.01 153.251 133.443 153.539 133.795C153.985 134.252 154.496 134.639 155.057 134.943C155.201 135.019 155.36 135.059 155.523 135.059C155.685 135.059 155.844 135.019 155.988 134.943C156.159 134.732 156.045 134.292 156.053 133.958L155.147 134.023H154.878C155.082 133.608 155.245 133.209 155.441 132.859C155.523 132.695 155.678 132.427 155.775 132.435C156.698 132.509 157.065 131.882 157.457 131.23C157.521 131.167 157.601 131.121 157.688 131.096C157.775 131.072 157.867 131.071 157.955 131.092C158.078 131.182 158.11 131.434 158.126 131.612C158.142 131.805 158.142 131.998 158.126 132.191ZM158.115 132.19C157.763 132.138 157.403 132.223 157.111 132.427C156.816 132.633 156.612 132.946 156.542 133.299C156.388 134.186 157.074 134.503 157.751 134.747C157.934 135.145 158.239 135.473 158.624 135.684C158.829 135.766 159.195 135.456 159.49 135.326L158.502 133.697C158.407 133.319 158.258 132.75 158.115 132.19ZM166.468 131.2C166.393 131.184 166.316 131.175 166.239 131.173C165.48 131.287 164.55 131.328 164.533 132.304C164.533 132.728 165.178 133.119 165.497 133.592C165.619 133.754 165.603 134.015 165.725 134.161C166.013 134.508 166.34 134.822 166.696 135.097C166.786 135.163 167.211 134.976 167.235 134.853C167.317 134.413 167.504 133.77 167.284 133.543C166.73 132.89 166.44 132.055 166.468 131.2ZM158.114 132.184L158.101 132.134L158.086 132.167L158.114 132.184L158.115 132.19L158.126 132.191L158.114 132.184ZM245.223 115.392C244.112 115.271 243.468 115.637 243.492 116.426C243.532 116.587 243.613 116.733 243.728 116.852C243.843 116.971 243.986 117.057 244.145 117.102C244.88 117.2 245.28 116.524 245.223 115.392ZM241.321 115.157C241.255 115.311 241.224 115.478 241.23 115.646C241.237 115.814 241.281 115.979 241.359 116.128C241.437 116.277 241.548 116.406 241.682 116.507C241.817 116.609 241.972 116.679 242.138 116.711C242.236 116.711 242.627 116.207 242.652 115.898C242.782 114.855 242.007 115.148 241.362 115.124L241.321 115.157ZM240.764 114.795L240.759 114.798H240.767L240.764 114.795C241.292 114.438 241.714 114.171 242.113 113.886C242.692 113.471 242.57 113.072 242.113 112.64C241.346 111.932 240.88 112.755 240.35 113.007C240.216 113.121 240.113 113.265 240.051 113.429C239.988 113.592 239.967 113.77 239.991 113.943C240.04 114.235 240.429 114.455 240.764 114.795ZM244.488 112.616C243.934 113.08 243.386 113.488 242.913 113.967C242.815 114.057 242.913 114.505 243.068 114.635C243.173 114.702 243.29 114.744 243.413 114.758C243.537 114.772 243.661 114.758 243.778 114.717C244.233 114.419 244.658 114.075 245.043 113.691C245.114 113.612 245.165 113.518 245.192 113.417C245.219 113.314 245.221 113.207 245.198 113.105C245.1 112.95 244.822 112.827 244.488 112.608V112.616Z" fill="#FFEEDD"/>
</svg>
