<svg width="300" height="300" viewBox="0 0 300 300" fill="none" xmlns="http://www.w3.org/2000/svg">
<path d="M149.5 269.06C215.531 269.06 269.059 215.531 269.059 149.5C269.059 83.4693 215.531 29.9407 149.5 29.9407C83.469 29.9407 29.9404 83.4693 29.9404 149.5C29.9404 215.531 83.469 269.06 149.5 269.06Z" fill="black"/>
<path d="M236.216 189.581C236.676 189.901 237.239 190.232 237.638 189.738C237.99 189.164 238.264 188.546 238.455 187.901L239.272 188.439C238.863 189.607 236.673 189.934 237.727 191.828C236.984 191.273 236.657 191.583 236.265 192.114C235.872 192.645 235.782 193.118 236.265 193.551C236.747 193.984 237.131 193.551 237.499 193.241C238.111 192.702 238.741 192.196 239.362 191.673C239.308 191.885 239.22 192.086 239.1 192.269C238.528 192.914 237.899 193.502 237.368 194.18C237.196 194.4 237.278 194.809 237.237 195.135C237.535 195.15 237.834 195.131 238.128 195.078C238.324 195.021 238.471 194.792 238.659 194.662C239.117 194.327 239.591 194 240.057 193.674C239.86 194.596 239.427 195.38 240.768 195.609C240.882 195.609 240.923 196.05 241.013 196.27C241.103 196.491 241.274 197.177 241.43 197.185C241.851 197.151 242.26 197.029 242.631 196.826C242.915 196.668 243.188 196.491 243.448 196.295C242.574 198.181 240.49 198.549 239.836 200.321C239.707 200.245 239.588 200.151 239.485 200.043C238.242 198.41 237.082 196.687 235.758 195.144C234.123 193.167 232.358 191.232 230.519 189.428C229.179 188.138 227.748 186.945 226.237 185.859C224.006 184.226 221.685 182.642 219.421 181.009C216.344 178.926 213.084 177.127 209.68 175.636C207.375 174.542 204.956 173.692 202.553 172.819C200.151 171.945 197.519 170.981 194.945 170.255C192.37 169.528 189.837 169.005 187.271 168.466C185.636 168.131 184.059 167.878 182.433 167.65C181.168 167.516 179.897 167.448 178.624 167.446C178.012 167.441 177.403 167.532 176.818 167.715C176.598 167.78 176.491 168.205 176.336 168.458C176.555 168.615 176.79 168.747 177.039 168.85C177.456 168.989 177.856 169.062 178.314 169.16L178.248 169.479C177.292 169.381 176.344 169.267 175.38 169.209C175.086 169.209 174.563 169.266 174.563 169.397C174.481 169.707 174.563 170.263 174.718 170.377C175.166 170.592 175.652 170.717 176.148 170.744C176.965 170.851 177.84 170.891 178.682 170.965V171.332C178.475 171.437 178.25 171.504 178.02 171.528C176.933 171.414 175.854 171.251 174.751 171.128C174.14 171.027 173.522 170.978 172.904 170.981C172.601 170.981 172.086 171.259 172.086 171.488C172.043 171.594 172.027 171.71 172.041 171.824C172.054 171.938 172.098 172.047 172.166 172.14C172.234 172.232 172.325 172.306 172.43 172.353C172.535 172.401 172.65 172.42 172.765 172.41C172.92 172.41 173.067 172.631 173.361 172.859C173.134 172.892 172.904 172.906 172.675 172.9C170.875 172.461 168.976 172.697 167.338 173.562C167.158 173.668 166.783 173.398 166.521 173.325C166.259 173.251 165.704 172.99 165.369 173.121C164.903 173.333 164.715 173.341 164.437 172.9C164.19 172.607 163.894 172.358 163.563 172.165C163.031 171.741 162.108 171.349 162.043 170.9C161.904 169.961 161.879 169.217 160.947 169.266C161.135 168.801 161.585 168.246 161.462 167.87C161.376 167.642 161.353 167.396 161.395 167.156C161.436 166.916 161.542 166.692 161.699 166.506C162.173 165.796 162.002 164.955 161.421 164.873C160.187 164.767 158.97 164.694 157.703 164.694C156.436 164.694 154.982 164.808 153.617 164.849C153.349 164.797 153.089 164.715 152.84 164.604C153.135 164.441 153.216 164.367 153.298 164.359C155.881 164.147 158.463 164 161.037 163.714C161.985 163.608 163.105 163.902 163.857 163.044C164.38 162.448 164.789 161.762 165.263 161.125C166.349 159.68 167.559 158.3 168.531 156.765C169.03 155.948 170.378 155.32 169.651 154.193C170.069 153.932 170.47 153.645 170.852 153.335C171.126 153.047 171.375 152.735 171.596 152.404C171.784 152.151 171.956 151.898 172.135 151.637C172.35 151.235 172.626 150.869 172.953 150.551C173.337 150.257 173.558 150.044 173.133 149.661C172.708 149.277 172.217 148.893 171.751 148.509C172.118 148.475 172.487 148.514 172.838 148.624C173.304 148.673 173.958 148.795 174.211 148.55C174.628 148.158 174.563 147.562 173.893 147.252C173.811 147.252 173.77 147.089 173.631 146.901C175.037 147.489 175.372 147.284 175.552 146.002C175.552 145.684 175.944 145.415 176.132 145.112C176.32 144.81 176.696 144.451 176.647 144.182C176.598 143.912 176.189 143.561 175.887 143.365C175.591 143.177 175.279 143.016 174.955 142.883C173.468 142.124 172.021 141.25 170.485 140.638C168.948 140.025 167.436 139.666 165.933 139.127C164.429 138.588 162.745 137.82 161.119 137.282C159.493 136.743 157.67 136.277 155.93 135.812C154.283 135.307 152.611 134.89 150.92 134.562C148.468 134.17 145.902 133.999 143.393 133.746C141.44 133.517 139.503 133.24 137.55 133.035C137.377 133.027 137.204 133.055 137.042 133.117C136.881 133.179 136.733 133.273 136.61 133.395C136.463 133.558 136.52 133.999 136.61 134.268C136.951 135.289 137.364 136.285 137.844 137.249C138.302 138.065 138.105 139.331 139.274 139.699C138.988 141.43 140.688 141.111 141.464 141.944L139.83 141.74C139.828 141.9 139.806 142.059 139.764 142.214C139.405 143.136 139.585 143.692 140.688 143.847C141.064 143.896 141.391 144.288 141.906 144.663C141.039 144.786 140.149 144.361 139.912 145.341C139.84 145.579 139.817 145.828 139.843 146.075C139.87 146.322 139.946 146.561 140.067 146.778C140.255 146.991 140.966 146.778 141.366 146.721L144.039 148.411C143.313 148.305 142.623 148.025 142.028 147.595C141.309 146.999 140.655 147.529 140.051 147.668C139.814 147.717 139.773 148.705 139.585 149.538C138.767 150.004 138.767 150.012 139.634 151.057C139.789 151.245 139.707 151.62 139.74 151.874L138.792 151.808C138.514 151.808 138.228 151.808 137.975 151.759C137.963 152.057 137.985 152.356 138.04 152.649C138.097 152.837 138.31 152.984 138.547 153.27L137.444 153.744C137.321 153.792 137.21 153.865 137.117 153.959C137.024 154.052 136.952 154.163 136.903 154.286C136.855 154.408 136.832 154.539 136.837 154.67C136.841 154.802 136.872 154.931 136.929 155.05C136.994 155.23 137.509 155.271 137.828 155.344C138.014 155.373 138.203 155.39 138.392 155.393L138.269 156.716L140.091 155.899L140.288 156.193C140.051 156.471 139.863 156.855 139.56 157.01C138.629 157.451 138.792 158.031 139.34 158.97L141.121 157.222C141.938 156.789 141.938 156.789 142.445 155.818C142.527 155.671 142.715 155.466 142.854 155.466C143.211 155.501 143.568 155.397 143.85 155.175C144.132 154.952 144.317 154.63 144.366 154.274C144.366 154.152 144.578 154.062 144.692 153.956C145.632 153.139 146.638 152.323 147.504 151.416C148.73 150.11 149.857 148.697 151.026 147.333L151.32 147.48C151.302 147.723 151.241 147.961 151.141 148.183C150.021 149.718 148.901 151.253 147.724 152.739C146.548 154.225 145.273 155.858 143.9 157.328C142.045 159.386 140.198 161.476 138.179 163.355C136.106 165.246 133.923 167.013 131.641 168.646C129.312 170.336 126.877 171.912 124.4 173.374C121.972 174.814 119.471 176.128 116.906 177.31C113.441 178.894 109.927 180.388 106.364 181.711C103.634 182.724 100.798 183.434 98.0032 184.251C96.4592 184.7 94.9222 185.173 93.3452 185.484C90.0762 186.129 86.8072 186.7 83.4812 187.247C81.7402 187.541 79.9752 187.737 78.2262 187.974C76.0202 188.268 73.8132 188.652 71.5982 188.791C69.5802 188.938 67.5122 188.84 65.5262 188.791C64.9512 188.745 64.3802 188.655 63.8182 188.521V188.26C64.7332 188.26 65.6492 188.309 66.5562 188.26C68.4112 188.162 70.2582 188.031 72.1132 187.86C72.6782 187.814 73.2312 187.67 73.7482 187.435C74.0502 187.296 74.2462 186.88 74.4342 186.553C74.4342 186.504 74.1402 186.153 73.9602 186.129C73.3802 186.055 72.7752 186.08 72.1872 186.039C71.9112 186.004 71.6382 185.952 71.3692 185.884V185.533H73.0772C73.5092 185.608 73.9542 185.528 74.3332 185.306C74.7112 185.085 74.9992 184.737 75.1452 184.324C75.2352 184.012 75.2952 183.692 75.3252 183.369C74.9682 183.274 74.5992 183.23 74.2302 183.238C73.8622 183.303 73.5432 183.605 73.1842 183.712C72.9882 183.761 72.7422 183.622 72.5222 183.565C72.6122 183.377 72.6612 183.132 72.8082 183.017C73.1842 182.732 73.6252 182.503 74.0092 182.25C74.1712 182.429 74.3712 182.57 74.5952 182.663C74.8182 182.756 75.0592 182.798 75.3012 182.786C75.5422 182.774 75.7782 182.709 75.9922 182.595C76.2052 182.481 76.3902 182.322 76.5342 182.127C76.8862 181.597 76.6902 181.148 76.0602 181.172C75.3472 181.236 74.6382 181.337 73.9362 181.474L73.3962 180.658C73.6732 180.61 73.9462 180.545 74.2132 180.462C74.5572 180.315 74.8842 180.127 75.2192 179.955L74.6872 178.967C74.4262 178.486 74.1642 177.996 73.8702 177.53C73.3632 176.714 72.8492 175.897 72.2932 175.08C72.2112 174.966 71.9422 174.95 71.7532 174.933C71.5662 174.917 71.1572 174.933 70.8552 174.933H69.9072V174.68L71.4432 174.55C71.5742 174.237 71.5832 173.886 71.4682 173.568C71.3532 173.249 71.1222 172.984 70.8222 172.827C70.6502 172.712 70.3722 172.525 70.3892 172.386C70.4182 172.144 70.3992 171.899 70.3332 171.665C70.2662 171.43 70.1532 171.212 70.0012 171.022C69.8492 170.832 69.6602 170.674 69.4462 170.557C69.2322 170.441 68.9972 170.369 68.7542 170.344C69.3842 169.307 69.3432 169.152 68.3542 168.499C68.3542 168.156 68.4762 167.641 68.3542 167.552C67.4142 166.939 67.7082 165.919 67.4302 165.102C66.4332 162.171 65.3142 159.28 64.2682 156.365C64.0062 155.662 63.5812 155.475 63.0742 156.03C61.6492 157.443 60.3472 158.975 59.1842 160.611C57.1662 163.836 54.7382 166.841 53.3252 170.41C52.5072 172.467 51.5592 174.493 50.7912 176.542C50.2352 178.077 49.7762 179.645 49.4182 181.237C49.0752 182.612 48.8722 184.019 48.8142 185.435C48.8142 187.484 48.3642 189.517 48.8952 191.6C49.8192 195.398 51.3362 199.027 53.3902 202.354C55.3232 205.451 57.6292 208.3 60.2552 210.838C62.2082 212.7 64.3412 214.349 66.4332 216.08C69.0892 218.156 71.9672 219.931 75.0142 221.372C77.0662 222.425 79.2892 223.119 81.4382 223.977C84.0732 225.235 86.9132 226.007 89.8232 226.255C91.8902 226.59 93.9092 226.924 96.0262 227.186C97.2432 227.341 98.4772 227.341 99.7112 227.414C101.722 227.537 103.724 227.757 105.726 227.757C107.729 227.757 109.608 227.569 111.545 227.39C114.593 227.096 117.65 226.843 120.674 226.369C123.24 225.965 125.778 225.4 128.274 224.679C130.914 223.911 133.496 222.956 136.071 221.976C138.578 221.082 141.034 220.049 143.426 218.881C146.981 217.036 150.462 215.027 153.895 212.945C155.999 211.65 158.022 210.227 159.95 208.682C161.585 207.368 163.023 205.759 164.666 204.42C166.125 203.152 167.428 201.716 168.548 200.141C169.063 199.471 169.659 198.851 170.387 198.01C170.401 198.282 170.401 198.554 170.387 198.826C170.225 199.784 169.726 200.652 168.981 201.276C168.106 202.044 167.869 203.317 166.733 203.946C166.251 204.216 165.426 204.763 165.916 205.481C165.254 206.094 164.167 206.657 164.2 207.163C164.249 208.062 163.939 208.176 163.285 208.323C163.062 208.372 162.865 208.5 162.729 208.682C162.034 209.744 161.389 210.83 160.114 211.328C159.942 211.393 159.82 211.826 159.86 212.055C159.901 212.283 160.269 212.3 160.506 212.332C160.904 212.353 161.302 212.353 161.699 212.332V212.659C161.435 212.759 161.161 212.833 160.882 212.879C160.297 212.83 159.71 212.83 159.125 212.879C158.498 213.073 157.893 213.331 157.319 213.647L157.384 214.161L160.49 214.733V215.011H157.123C156.643 214.994 156.167 215.092 155.733 215.296C155.382 215.492 155.186 215.966 154.916 216.309C155.291 216.601 155.714 216.825 156.167 216.97C157.589 217.126 159.027 217.158 160.465 217.24C158.765 217.926 156.837 216.946 155.227 218.056C154.41 217.044 153.723 216.913 152.669 217.517C151.999 217.909 152.154 218.334 152.563 219.061L155.014 218.424L155.096 219.126L152.971 219.828C152.456 218.775 151.467 219.012 150.585 219.126C150.291 219.126 150.045 219.632 149.768 219.902C150.051 220.131 150.361 220.326 150.691 220.482C150.98 220.531 151.276 220.531 151.565 220.482C152.644 220.482 152.644 220.482 153.274 221.396L152.979 221.331C152.708 221.225 152.418 221.173 152.127 221.18C151.836 221.187 151.549 221.251 151.282 221.37C151.016 221.488 150.776 221.659 150.577 221.871C150.377 222.083 150.221 222.332 150.119 222.605C150.061 222.696 149.986 222.774 149.897 222.836C149.809 222.897 149.709 222.941 149.604 222.964C149.157 223.01 148.714 223.092 148.28 223.209C147.994 223.323 147.823 223.691 147.602 223.952C147.855 224.164 148.1 224.548 148.362 224.564C149.367 224.638 150.38 224.564 151.296 224.564C151.557 224.85 151.786 225.316 151.99 225.299C152.938 225.25 153.878 225.071 154.818 224.94C155.022 224.94 155.251 224.809 155.423 224.875C155.492 224.933 155.544 225.008 155.574 225.092C155.604 225.177 155.611 225.268 155.594 225.357C155.463 225.523 155.278 225.638 155.071 225.683C154.454 225.83 153.829 225.944 153.2 226.026C153.004 226.026 152.8 225.895 152.587 225.838C151.76 225.516 150.899 225.288 150.021 225.161C149.629 225.161 149.204 225.781 148.779 226.116C149.163 226.32 149.539 226.679 149.923 226.696C150.871 226.696 151.827 226.581 152.824 226.508L153.037 227.169C152.219 227.324 151.451 227.447 150.683 227.659C150.536 227.7 150.397 228.084 150.405 228.296C150.413 228.508 150.716 228.639 150.895 228.655C152.105 228.729 153.347 228.762 154.597 228.811C154.597 229.488 155.129 229.57 155.97 229.358C156.824 229.191 157.691 229.106 158.561 229.105C158.716 229.105 158.88 229.333 159.117 229.505C156.78 229.815 156.714 229.864 156.281 231.481C155.508 231.504 154.739 231.6 153.985 231.767C153.502 231.914 152.775 232.412 152.783 232.73C152.783 233.677 153.6 233.147 154.123 233.187C154.647 233.228 155.308 233.498 155.758 233.294C156.494 232.942 157.082 232.477 157.703 233.392C157.733 233.43 157.772 233.46 157.816 233.481C157.86 233.503 157.908 233.514 157.956 233.514C159.182 233.277 160.408 233.024 161.699 232.763C161.961 232.861 162.394 233.187 162.762 233.13C163.511 232.981 164.245 232.76 164.952 232.469C165.663 232.216 166.3 231.473 167.134 232.191C167.207 232.257 167.396 232.191 167.518 232.191C168.981 231.841 170.422 231.405 171.833 230.885C174.285 229.856 176.647 228.68 179.009 227.496C179.393 227.308 179.597 226.777 179.883 226.402C181.681 225.503 183.234 224.45 183.275 223.756L182.032 223.666C184.026 222.588 185.824 221.649 187.59 220.653C188.087 220.313 188.552 219.928 188.979 219.502L188.75 219.061L186.682 219.624L191.684 215.876L190.867 215.174C191.684 214.227 193.049 213.737 193.318 212.283L192.354 211.998C193.122 211.344 193.784 210.83 194.373 210.234C194.562 209.93 194.695 209.596 194.765 209.246L193.792 209.156L193.408 209.099C194.136 208.454 194.814 207.931 195.386 207.31C195.582 207.106 195.492 206.641 195.541 206.298C195.235 206.276 194.927 206.312 194.634 206.404C193.498 207.123 192.403 207.906 191.275 208.633C190.94 208.767 190.588 208.855 190.229 208.895C190.334 208.71 190.454 208.535 190.589 208.372C190.708 208.266 190.839 208.175 190.981 208.102C193.278 206.886 194.961 204.959 196.702 203.13C196.882 202.942 196.784 202.493 196.816 202.158L195.999 202.248H195.917C196.399 201.358 196.955 200.427 197.396 199.447C197.535 199.137 197.356 198.696 197.323 198.32L195.983 198.81L197.854 196.597L198.107 196.687C198.173 197.969 198.271 199.259 198.312 200.549C198.353 201.839 198.312 202.999 198.312 204.485C198.107 204.91 197.233 205.465 197.609 206.461H200.012L200.085 206.755L197.266 207.433C197.266 207.76 197.184 208.388 197.372 208.486C197.82 208.668 198.306 208.736 198.786 208.682C199.301 208.682 199.807 208.56 200.469 208.47C200.306 208.797 200.281 208.944 200.224 208.952C199.538 209.123 198.835 209.229 198.157 209.425C197.656 209.541 197.185 209.76 196.775 210.07C196.596 210.226 196.775 210.756 196.735 211.116C197.266 211.116 197.805 211.116 198.369 211.009C198.59 211.009 198.818 210.642 198.99 210.675C200.486 211.009 201.834 210.454 203.223 210.111C203.606 210.062 203.993 210.062 204.376 210.111C203.558 210.586 202.682 210.951 201.769 211.197C200.799 211.386 199.847 211.659 198.925 212.014C198.443 212.259 198.108 212.422 197.634 212.185C196.873 211.801 196.383 212.234 195.999 212.757C195.615 213.279 195.836 213.778 196.506 213.818C196.827 213.807 197.146 213.771 197.462 213.712C198.009 213.712 198.573 213.712 199.096 213.59C199.619 213.467 200.527 213.5 200.878 213.116C201.695 212.3 202.202 212.455 202.815 213.116L201.18 213.933H199.652C198.459 213.99 197.495 215.084 196.146 214.643C195.86 214.545 195.329 214.929 195.01 215.215C194.691 215.501 194.79 215.827 194.683 216.137C194.993 216.271 195.326 216.344 195.664 216.35C196.579 216.178 197.396 215.362 198.418 216.007C198.475 216.007 198.606 216.007 198.696 215.958L201.409 214.921C202.063 215.835 200.527 215.737 200.51 216.35C198.876 215.925 197.413 216.031 196.375 217.534C196.214 217.366 196.036 217.215 195.844 217.085C195.554 216.941 195.225 216.896 194.907 216.958C194.589 217.02 194.301 217.185 194.087 217.428C193.955 217.616 193.889 217.843 193.899 218.073C194.282 218.32 194.719 218.471 195.174 218.514C196.288 218.385 197.396 218.2 198.492 217.958C198.925 217.877 199.309 217.673 199.767 217.583C200 217.551 200.236 217.551 200.469 217.583V217.86L199.358 218.677C198.851 218.522 198.418 218.228 198.042 218.293C197.317 218.423 196.616 218.665 195.966 219.012C195.672 219.167 195.566 219.673 195.378 220.024C195.705 220.171 196.073 220.49 196.359 220.433C197.339 220.22 198.295 219.885 199.35 219.567L200.796 219.894C199.944 220.188 199.123 220.566 198.345 221.021C198.183 221.112 197.999 221.158 197.813 221.151C197.001 221.04 196.18 221.007 195.362 221.053C194.986 221.102 194.691 221.69 194.365 222.041C194.723 222.207 195.091 222.349 195.468 222.466C195.946 222.564 196.442 222.524 196.898 222.35C197.354 222.177 197.751 221.877 198.042 221.486C198.075 221.876 197.987 222.267 197.789 222.605C197.568 222.997 197.217 223.364 197.789 223.764C198.549 224.319 199.816 223.642 200.142 222.801C200.585 222.025 201.135 221.315 201.777 220.694L202.341 221.388C202.088 222.303 200.437 221.968 200.919 223.405C201.932 223.331 203.019 223.617 203.795 222.588C203.853 222.499 204.155 222.588 204.343 222.588C205.162 222.692 205.992 222.648 206.795 222.458C207.22 222.27 208.176 221.641 207.612 220.686C207.563 220.604 207.792 220.294 207.947 220.163C208.846 219.396 208.862 219.347 208.07 218.53L209.639 217.142L210.015 217.575C209.638 218.05 209.289 218.546 208.969 219.061C208.92 219.151 209.173 219.494 209.353 219.608C210.015 220.024 210.464 219.469 210.987 219.216C211.347 219.087 211.719 218.999 212.099 218.955L212.164 219.281C211.347 219.567 210.881 220.424 209.712 220.196C208.544 219.967 208.078 220.547 208.413 222.188L210.546 221.094C210.794 221.289 211.101 221.396 211.416 221.396C211.732 221.396 212.039 221.289 212.287 221.094C212.949 220.727 213.512 219.755 214.518 220.4C214.518 220.4 214.64 220.4 214.706 220.351L216.953 219.534C219.63 218.657 222.232 217.565 224.733 216.268C227.095 214.913 229.686 213.908 231.884 212.34C234.766 210.209 237.53 207.922 240.163 205.489C242.901 203.04 244.993 200.027 247.126 197.062C249.149 194.362 250.668 191.319 251.612 188.08C251.776 187.46 251.997 186.855 252.176 186.243C252.65 184.553 253.124 182.87 253.582 181.18C253.683 180.774 253.76 180.362 253.811 179.947C254.061 178.727 254.228 177.491 254.309 176.248C254.309 174.705 253.999 173.153 253.991 171.61C253.941 168.231 253.259 164.891 251.98 161.762C251.475 160.347 250.844 158.981 250.092 157.679C248.94 155.826 247.641 154.087 246.3 152.339C245.524 151.31 244.666 150.347 243.8 149.383C243.391 148.926 242.933 148.771 242.566 149.457C241.985 150.526 241.34 151.571 240.841 152.723C240.449 153.613 239.501 154.356 239.942 155.548C240.024 155.769 240.179 156.887 239.125 156.577C239.027 156.577 238.741 156.879 238.692 157.083C238.52 157.728 238.479 158.422 238.267 159.051C237.907 160.096 237.973 160.317 238.888 160.611C239.105 161.123 239.277 161.653 239.403 162.195C239.403 162.456 239.166 162.758 239.027 163.012L238.814 162.865C238.716 162.366 238.626 161.877 238.512 161.28C237.466 162.04 237.409 162.701 238.185 163.363C238.307 163.438 238.412 163.539 238.491 163.658C238.571 163.778 238.625 163.913 238.648 164.054C238.671 164.196 238.664 164.341 238.626 164.479C238.589 164.618 238.522 164.746 238.43 164.857C238.21 164.302 238.103 163.608 237.311 164.04C236.886 164.294 237.008 165.829 237.425 166.098C238.177 166.588 238.242 167.315 237.589 167.805L237.025 166.613H236.755C236.542 167.478 235.349 168.05 236.093 169.275L236.567 169.103C236.722 169.03 236.861 168.948 237.294 168.711C236.976 169.683 236.755 170.344 236.526 171.047L236.273 170.965L235.872 169.552C235.391 169.76 235.001 170.135 234.776 170.608C234.551 171.081 234.504 171.62 234.646 172.124C235.831 172.124 235.643 173.129 235.978 173.758C235.366 173.807 234.736 174.003 234.753 173.047C234.753 172.868 234.377 172.557 234.148 172.525C233.919 172.492 233.69 172.786 233.543 172.99C233.396 173.194 233.216 173.627 233.012 173.913C232.023 175.285 232.105 175.505 233.739 175.766C233.732 176.165 233.844 176.557 234.061 176.891C234.278 177.226 234.59 177.488 234.957 177.644C235.049 177.701 235.128 177.774 235.191 177.861C235.254 177.948 235.3 178.046 235.325 178.151C235.521 179.09 235.913 179.67 237.016 179.163C237.18 179.906 237.229 180.511 236.42 180.698C236.06 180.119 235.84 179.376 235.366 179.122C235.119 179.009 234.899 178.843 234.722 178.638C234.544 178.432 234.412 178.191 234.336 177.93C234.215 177.789 234.068 177.673 233.903 177.589C233.737 177.505 233.557 177.454 233.372 177.44C232.884 177.957 232.509 178.569 232.268 179.237C232.203 179.457 232.963 179.906 233.412 180.315L233.756 181.719L233.845 181.899C233.413 181.784 233.006 181.59 232.644 181.327C232.236 180.903 232.031 180.209 231.247 180.462C230.883 180.592 230.566 180.828 230.337 181.139C230.109 181.45 229.979 181.823 229.964 182.209C229.438 182.612 228.938 183.049 228.468 183.516C228.386 183.605 228.615 184.193 228.803 184.267C228.976 184.314 229.158 184.322 229.334 184.288C229.51 184.254 229.676 184.18 229.819 184.072C229.962 183.964 230.078 183.824 230.159 183.664C230.239 183.504 230.281 183.327 230.282 183.148L232.375 182.029L231.328 184.316C230.765 184.055 230.348 184.422 230.274 185.132C230.268 185.298 230.301 185.462 230.373 185.611C230.444 185.761 230.55 185.891 230.683 185.99C230.793 186.042 230.914 186.068 231.036 186.067C231.158 186.067 231.278 186.039 231.388 185.985C231.497 185.932 231.594 185.855 231.67 185.76C231.746 185.664 231.8 185.553 231.827 185.435C231.958 184.969 232.121 184.438 232.701 184.732C233.02 184.896 233.151 185.418 233.396 185.826C231.835 186.382 231.696 186.602 232.015 187.77C233.502 187.852 233.805 187.582 233.6 186.292L234.491 186.504L234.941 187.909C234.777 187.86 234.573 187.745 234.516 187.794C234.084 188.163 233.687 188.57 233.331 189.011C233.241 189.125 233.421 189.656 233.478 189.656C233.91 189.667 234.341 189.606 234.753 189.477C234.916 189.411 234.916 188.987 235.08 188.815C235.411 188.518 235.764 188.245 236.134 187.999C236.134 188.741 236.191 189.164 236.216 189.581ZM149.114 232.346C149.195 232.444 149.367 232.787 149.62 232.877C150.08 233.069 150.588 233.117 151.076 233.013C151.564 232.91 152.008 232.66 152.35 232.297C152.489 232.159 152.669 231.865 152.612 231.758C152.548 231.66 152.464 231.576 152.366 231.512C152.267 231.449 152.156 231.408 152.039 231.391C151.345 231.391 150.65 231.53 149.956 231.546C149.642 231.551 149.332 231.484 149.048 231.35C148.681 231.179 148.386 230.787 148.019 230.73C147.311 230.636 146.594 230.636 145.886 230.73C145.738 230.769 145.603 230.846 145.494 230.954C145.385 231.061 145.306 231.195 145.265 231.342C145.284 231.497 145.343 231.645 145.436 231.77C145.529 231.896 145.653 231.996 145.796 232.061C146.834 232.208 147.88 232.24 149.114 232.33V232.346ZM142.371 229.603C142.025 229.721 141.686 229.863 141.358 230.027C141.358 230.027 141.423 230.599 141.571 230.664C142.202 230.95 142.866 231.159 143.548 231.285C143.744 231.285 144.096 230.893 144.218 230.615C144.276 230.476 144.006 230.076 143.794 229.978C143.331 229.812 142.856 229.686 142.371 229.603ZM152.383 229.897C151.467 228.99 149.653 228.819 148.043 229.562C148.239 229.782 148.386 230.109 148.583 230.15C149.4 230.305 150.258 230.378 151.1 230.476C151.394 230.517 151.753 230.427 151.974 230.566C152.508 230.943 153.15 231.135 153.803 231.115C154.457 231.094 155.085 230.861 155.594 230.452C155.231 229.971 154.699 229.645 154.105 229.539C153.511 229.433 152.899 229.555 152.391 229.88L152.383 229.897ZM143.565 229.096C144.42 229.608 145.404 229.864 146.4 229.831C146.736 229.831 147.071 229.358 147.414 229.096C147.071 228.86 146.76 228.5 146.384 228.427C145.444 228.239 144.382 227.667 143.565 229.096ZM137.983 228.998C138.293 229.35 138.392 229.586 138.547 229.627C139.003 229.762 139.477 229.825 139.952 229.815C140.1 229.815 140.214 229.317 140.337 229.047C139.946 228.83 139.528 228.666 139.094 228.557C138.784 228.533 138.449 228.802 137.983 228.998ZM142.649 228.86C142.837 228.688 143.401 228.386 143.36 228.182C143.197 227.251 142.331 227.251 141.628 227.21C141.399 227.21 140.925 227.627 140.941 227.839C140.99 228.704 141.767 228.704 142.649 228.851V228.86ZM143.05 226.394C143.264 226.751 143.577 227.038 143.951 227.221C144.325 227.404 144.745 227.474 145.158 227.422C145.535 227.379 145.916 227.447 146.253 227.618C146.728 228.017 147.306 228.274 147.92 228.361C148.534 228.448 149.16 228.36 149.727 228.108C149.906 228.051 150.176 227.774 150.143 227.692C150.062 227.488 149.849 227.202 149.678 227.194C148.705 227.12 147.863 226.296 146.801 226.753C146.662 226.81 146.376 226.532 145.984 226.304L148.746 225.961C148.574 225.659 148.525 225.406 148.37 225.299C148.018 225.013 147.606 224.809 147.166 224.7C146.725 224.591 146.265 224.581 145.82 224.671C145.314 224.818 145.101 224.76 144.815 224.311C144.62 223.987 144.305 223.753 143.938 223.658C143.571 223.563 143.182 223.616 142.854 223.805C142.707 223.87 142.633 224.475 142.674 224.491C143.303 224.769 143.941 224.997 144.586 225.21C144.831 225.283 145.134 225.21 145.33 225.332C145.526 225.455 145.33 225.749 145.33 225.961C145.079 226.01 144.821 226.01 144.57 225.961C144.444 225.882 144.304 225.83 144.157 225.809C144.011 225.787 143.861 225.796 143.718 225.836C143.575 225.875 143.442 225.943 143.327 226.036C143.212 226.13 143.118 226.246 143.05 226.377V226.394ZM136.928 227.736C136.444 227.479 136.132 227.211 135.907 227.243C135.678 227.275 135.449 227.635 135.221 227.847C135.479 228.074 135.775 228.254 136.095 228.378C136.271 228.378 136.518 228.056 136.928 227.736ZM136.928 227.736L136.953 227.749V227.716L136.928 227.736ZM137.918 225.806C137.923 227.059 138.461 227.552 139.429 227.382C139.675 227.382 140.075 227.186 140.1 227.031C140.112 226.892 140.088 226.752 140.031 226.625C139.974 226.497 139.885 226.387 139.773 226.304C139.165 226.1 138.546 225.933 137.918 225.806ZM141.685 226.549C142.085 226.157 142.502 225.928 142.502 225.732C142.437 224.728 141.464 225.128 140.917 224.85C140.835 224.85 140.533 225.21 140.337 225.406L141.685 226.549ZM195.888 223.719C194.995 222.842 194.547 222.839 193.882 223.65C194.489 224.322 195.137 224.167 195.888 223.719ZM144.864 222.36C144.864 223.74 145.24 223.993 146.678 223.854C146.94 223.854 147.177 223.511 147.43 223.331C147.218 223.046 147.054 222.58 146.785 222.515C146.151 222.4 145.508 222.345 144.864 222.352V222.36ZM195.888 223.719L195.909 223.707V223.74L195.888 223.719ZM148.566 222.882C149.089 222.335 149.719 221.984 149.71 221.625C149.71 220.865 148.893 220.955 148.378 220.914C147.863 220.874 147.128 220.784 147.242 221.519C147.308 221.951 147.978 222.294 148.566 222.874V222.882ZM192.983 221.053C192.403 221.576 191.627 221.943 191.586 222.384C191.545 222.825 192.272 222.964 192.82 222.735C193.564 222.384 193.343 221.894 192.983 221.021V221.053ZM193.261 220.89C193.948 220.539 194.847 220.89 194.839 219.877C194.839 219.592 194.487 219.306 194.299 219.02L192.665 220.22L193.261 220.89ZM239.043 197.789L239.117 198.353C239.5 198.442 239.895 198.464 240.285 198.418C240.964 198.206 241.103 197.667 240.751 196.785L239.043 197.789ZM239.019 197.152L240.138 195.878C239.82 195.658 239.411 195.209 239.19 195.282C238.769 195.488 238.419 195.815 238.185 196.221C238.144 196.27 238.618 196.695 239.019 197.136V197.152ZM236.188 189.574C235.901 189.48 235.589 189.494 235.311 189.612C235.023 189.735 234.792 189.96 234.663 190.244C234.594 190.403 234.559 190.574 234.559 190.746C234.559 190.919 234.594 191.09 234.663 191.249C234.728 191.395 235.218 191.485 235.48 191.404C236.521 191.046 236.615 190.785 236.188 189.574ZM236.216 189.581V189.583L236.188 189.574L236.183 189.558L236.216 189.581ZM76.8982 186.518C76.4582 186.105 76.0992 185.631 75.9702 185.72C75.4972 185.956 75.0522 186.246 74.6472 186.586C74.9082 186.823 75.2022 187.272 75.4642 187.239C75.9752 187.071 76.4582 186.827 76.8982 186.518ZM80.8902 185.965V185.622C80.6532 185.492 80.4082 185.247 80.1632 185.247C79.5572 185.247 78.9522 185.304 78.3572 185.418C78.0302 185.457 77.7222 185.594 77.4742 185.81C77.3602 185.941 77.4742 186.504 77.5892 186.57C77.9272 186.711 78.2962 186.758 78.6592 186.708C79.1322 186.671 79.5992 186.575 80.0492 186.423C80.3422 186.295 80.6232 186.142 80.8902 185.965ZM76.8982 186.518L76.9192 186.537V186.504L76.8982 186.518ZM76.0582 55.1785L76.4452 55.9195C77.8092 58.6055 79.2562 61.2595 80.5312 63.9865C81.0052 65.0235 81.2662 66.1265 82.1652 66.9425C82.4272 67.1555 82.2632 67.7105 82.4272 68.0455C82.7942 68.7725 83.2112 69.4575 83.6122 70.1605C83.7182 70.3475 83.9392 70.5525 83.9392 70.7235C83.8162 71.7035 84.5682 72.2665 84.8702 73.0835C85.4102 74.4715 86.5372 75.6065 86.6932 77.1665C86.6942 77.2635 86.7322 77.3575 86.7992 77.4275C87.6652 78.1295 87.8042 79.2155 88.2782 80.1305C89.5862 82.6615 90.9512 85.0785 92.3152 87.6675C93.6802 90.2555 95.0372 92.8445 96.3612 95.4575C97.6032 97.9155 98.8122 100.422 100.055 102.871C100.152 103.107 100.317 103.309 100.529 103.451C102.89 104.668 105.277 105.827 107.614 107.06C108.48 107.509 109.249 108.171 110.066 108.693C111.128 109.355 112.281 109.894 113.278 110.637C114.978 111.903 116.612 113.266 118.246 114.638C120.093 116.19 121.924 117.823 123.689 119.456C124.411 120.198 125.08 120.989 125.692 121.824C126.86 123.245 128.086 124.625 129.173 126.103C130.015 127.246 130.701 128.479 131.429 129.696C131.642 129.98 131.752 130.328 131.739 130.684C131.551 131.443 131.38 132.006 132.556 131.802C132.736 131.778 133.112 132.701 133.316 133.215C133.366 133.504 133.366 133.8 133.316 134.089L133.602 133.983C133.897 134.285 134.371 134.562 134.55 134.897C134.741 135.713 134.809 136.552 134.755 137.388C134.689 138.237 134.101 138.466 133.39 138.065C133.016 138.58 132.688 139.127 132.409 139.699C132.205 140.254 131.821 140.817 132.303 141.511C132.465 141.966 132.513 142.454 132.442 142.932V146.558C133.464 146.362 133.864 145.855 133.464 145.276C133.17 144.948 132.968 144.55 132.876 144.12C132.785 143.691 132.807 143.244 132.941 142.826C133.047 142.491 132.581 141.969 132.695 141.634C133.022 140.646 132.842 139.396 134.117 138.817C134.313 138.694 134.532 138.614 134.761 138.583C134.99 138.551 135.223 138.568 135.444 138.633C135.666 138.698 135.871 138.809 136.047 138.959C136.222 139.109 136.364 139.294 136.463 139.503L136.553 139.674C137.198 140.956 137.198 140.956 135.785 141.691C137.207 141.658 137.419 142.532 137.419 143.414C137.422 144.71 137.318 146.005 137.108 147.284C136.945 148.256 135.172 148.379 134.354 147.562C134.239 147.418 134.094 147.301 133.929 147.219C134.085 147.766 133.774 148.534 134.853 148.534C135.098 148.518 135.392 148.942 135.67 149.171C135.507 149.342 135.343 149.669 135.172 149.669C134.773 149.668 134.378 149.587 134.011 149.432C133.74 149.283 133.487 149.102 133.259 148.893C133.153 148.82 132.924 148.771 132.924 148.722C133.03 147.154 130.963 147.105 130.84 145.643L131.657 145.023C131.21 144.72 130.743 144.448 130.26 144.206C129.279 143.814 129.198 143.594 129.508 142.573C129.51 142.411 129.471 142.25 129.393 142.107C129.316 141.965 129.204 141.844 129.067 141.756C127.53 141.193 127.089 140.237 127.816 138.906C126.934 138.302 126.002 137.722 125.185 137.086C125.03 136.979 125.079 136.653 125.03 136.424C125.357 136.383 125.732 136.212 125.986 136.326C126.618 136.667 127.23 137.046 127.816 137.461V136.375L125.136 136.008C125.079 136 124.972 135.967 124.972 135.918C124.523 134.766 122.864 134.358 122.749 133.362C122.578 131.868 121.679 131.125 120.862 130.161C120.559 129.81 120.175 129.304 120.682 128.675C120.829 128.495 120.469 127.899 120.322 127.426L119.562 127.719C119.233 127.538 118.968 127.259 118.803 126.922C118.637 126.584 118.58 126.204 118.639 125.833C118.61 125.665 118.545 125.506 118.45 125.365C118.354 125.224 118.229 125.105 118.083 125.017C117.706 124.842 117.375 124.584 117.114 124.261C116.853 123.938 116.67 123.56 116.579 123.155C116.336 122.511 115.966 121.923 115.492 121.424C114.806 120.509 114.046 119.644 113.368 118.721C113.122 118.326 112.921 117.904 112.771 117.463C112.697 117.316 112.657 117.031 112.575 117.031C111.357 116.843 111.21 115.593 110.393 114.989C111.306 117.232 112.509 119.346 113.972 121.277L112.338 121.595L113 121.897C113.29 121.981 113.565 122.107 113.817 122.273C114.429 122.761 114.978 123.323 115.451 123.947C115.631 124.249 115.509 124.804 115.451 125.237C115.427 125.449 115.215 125.637 115.01 125.972C116.04 125.972 116.849 126.054 116.751 127.246C116.743 127.352 117.029 127.475 117.151 127.605C117.462 127.907 117.756 128.226 118.058 128.536L116.996 129.459C117.273 129.591 117.567 129.682 117.871 129.728C118.745 129.712 119.178 129.949 119.317 130.969C119.44 131.851 119.546 132.97 120.788 133.289C121.278 133.419 121.834 135.42 121.605 135.983C121.491 136.277 121.401 136.579 121.295 136.881L121.646 137.004L122.071 135.82C122.431 136.473 122.782 137.086 123.109 137.714C123.183 137.853 123.191 138.147 123.264 138.147C124.49 138.351 124.057 139.617 124.564 140.156C125.348 140.981 125.626 142.083 126.288 142.826C127.013 143.466 127.507 144.327 127.694 145.276C127.735 145.635 128.323 145.929 128.813 146.394C128.764 146.764 128.825 147.139 128.989 147.474C129.154 147.808 129.414 148.086 129.737 148.273C130.505 148.852 129.909 149.734 129.484 150.347C128.951 151.043 128.372 151.703 127.751 152.323C126.983 153.164 125.561 153.205 125.111 154.47C125.062 154.593 124.784 154.642 124.67 154.699L125.724 155.638C125.896 155.189 126.043 154.781 126.231 154.372C126.476 153.858 126.697 153.327 127.514 153.556C127.726 153.613 128.184 153.237 128.331 152.951C128.642 152.372 128.781 151.686 129.712 152.029C129.786 152.053 129.998 151.629 130.186 151.457C130.513 151.171 130.897 150.657 131.2 150.706C131.625 150.763 132.246 151.049 132.017 151.808C131.992 151.906 132.05 152.143 132.123 152.143C132.834 152.486 132.883 153.205 133.202 153.776C133.777 154.658 134.399 155.509 135.065 156.324C135.749 157.264 136.382 158.24 136.961 159.247C137.37 159.998 136.773 161.06 136.03 161.525C135.37 161.931 134.763 162.416 134.224 162.971C133.293 163.783 132.229 164.427 131.077 164.873C130.824 164.996 130.227 164.661 129.933 164.375C128.119 162.628 126.305 160.889 124.588 159.043C122.414 156.708 120.314 154.323 118.238 151.874C117.012 150.445 115.991 148.811 114.683 147.464C113.441 146.022 112.318 144.482 111.324 142.859C110.229 141.299 109.191 139.69 108.113 138.114C107.838 137.696 107.479 137.34 107.058 137.069C106.821 138.506 107.737 139.519 108.186 140.678C106.821 140.997 106.821 140.997 107.058 141.707C107.949 141.038 107.794 141.34 108.693 142.148C109.592 142.957 109.51 143.969 109.984 144.827C110.025 144.916 110.05 145.08 110.107 145.08C111.472 145.455 111.349 146.729 111.741 147.701C111.816 147.912 111.939 148.102 112.101 148.256C112.975 149.024 112.975 149.016 112.738 149.987C114.463 151.131 114.577 151.335 114.103 152.968C114.661 153.169 115.178 153.468 115.631 153.85C115.882 154.341 115.952 154.905 115.827 155.442C116.236 155.899 117.168 155.875 117.053 156.944C116.728 158.137 115.993 159.178 114.978 159.884C114.61 160.064 114.356 160.562 114.087 160.831C113.817 161.101 113.449 161.574 113.204 161.525C112.444 161.395 112.191 161.86 111.856 162.342C111.641 162.618 111.406 162.877 111.153 163.118L111.929 163.934C112.003 163.795 112.24 163.551 112.191 163.412C111.986 162.856 112.076 162.407 112.673 162.317C113.106 162.322 113.536 162.394 113.948 162.53L114.005 162.848C114.136 162.636 114.446 162.326 114.389 162.219C113.923 161.37 114.553 161.207 115.092 160.815C115.631 160.423 116.015 159.794 116.833 159.794C117.012 159.786 117.192 159.255 117.372 159.035C117.552 158.814 117.772 158.627 117.969 158.414C118.186 158.628 118.39 158.855 118.582 159.092C118.786 159.386 118.941 159.721 119.129 160.031C119.194 160.137 119.366 160.219 119.366 160.333C119.734 161.836 121.246 162.709 121.663 164.049C122.014 165.2 123.55 165.567 123.297 167.005C123.256 167.233 123.926 167.576 124.245 167.886C124.825 168.417 124.997 168.915 124.245 169.471C123.706 169.871 123.338 170.597 122.758 170.81C120.731 171.569 119.178 173.17 117.094 173.839C116.105 174.133 115.435 174.297 114.7 173.317C113.376 171.561 111.856 169.969 110.475 168.254C108.562 165.878 106.658 163.493 104.852 161.044C103.561 159.288 102.449 157.394 101.264 155.564C99.9322 153.515 98.5352 151.506 97.3252 149.391C96.4342 147.815 95.7972 146.125 95.0292 144.492C94.9352 144.329 94.8262 144.176 94.7022 144.035C93.5172 144.884 94.6612 145.749 94.6122 146.639L93.7952 147.252C95.9442 147.121 94.8492 148.722 95.2742 149.497C95.7642 150.412 95.7972 151.629 96.4182 152.404C97.0372 153.206 97.3292 154.213 97.2352 155.222C97.2192 155.899 97.4482 156.128 98.2652 155.997L97.7992 156.544C98.6162 157.933 99.4342 159.296 100.153 160.766C100.308 161.084 100.128 161.623 100.071 161.991C100.014 162.358 100.014 162.726 100.014 163.232L101.06 162.873C101.55 163.55 102.384 164.098 101.779 165.094C103.054 166.082 103.062 166.392 101.853 167.405C101.567 167.617 101.264 167.756 101.035 167.976C100.862 168.175 100.706 168.388 100.57 168.613C100.749 168.719 100.798 168.94 101.109 168.915C101.419 168.891 101.853 168.785 101.926 168.597C102.179 167.96 102.531 167.429 103.25 167.609C103.587 167.67 103.895 167.841 104.126 168.095C104.356 168.349 104.496 168.672 104.525 169.013C104.549 169.324 104.876 169.569 105.04 169.83C105.203 170.091 105.342 170.369 105.489 170.646C105.696 170.926 105.857 171.238 105.963 171.569C106.11 172.688 107.173 173.113 107.647 173.978C107.99 174.607 108.472 175.154 108.807 175.783C108.96 176.182 109.061 176.599 109.11 177.024L108.023 177.236C107.486 177.715 106.899 178.137 106.274 178.494C104.803 179.114 103.291 179.637 101.787 180.184C101.188 180.415 100.573 180.606 99.9482 180.756C98.9352 180.976 98.4862 180.086 98.0282 179.506C95.8382 176.771 93.6562 174.076 91.7512 171.177C89.6022 167.911 87.7062 164.465 85.7942 161.052C84.5432 158.823 83.4562 156.504 82.2962 154.217C82.0932 154.611 81.9932 155.049 82.0052 155.491C82.0162 155.934 82.1392 156.366 82.3612 156.749C82.4192 156.822 82.5572 156.887 82.5572 156.961C82.6062 158.512 84.1102 159.941 83.0802 161.493C83.5382 161.909 83.9422 162.381 84.2822 162.897C84.4452 163.208 84.2082 163.755 84.2332 164.122C84.2572 164.49 84.3152 165.184 84.4452 165.184C85.8752 165.42 85.5732 166.49 85.4102 167.307C85.2792 167.96 85.2712 168.278 85.9332 168.572C86.1452 168.67 86.1942 169.177 86.2842 169.544C86.3742 169.912 86.2922 170.41 86.5052 170.63C87.4362 171.586 87.4942 171.659 87.4362 172.917L88.4092 174.076L87.0362 174.893C88.1642 174.942 89.7662 174.77 88.6702 176.877C90.2072 176.934 90.5092 178.134 91.0242 179.139C91.4472 180.18 91.9782 181.173 92.6102 182.103C93.2962 182.952 93.0752 183.132 92.0382 183.369C91.1842 183.59 90.3612 183.913 89.5862 184.332C87.1422 185.565 85.1562 185.386 83.2442 183.516C81.4872 181.801 79.7222 180.07 78.1362 178.192C76.9372 176.691 75.8602 175.096 74.9162 173.423C73.0212 170.082 71.4342 166.575 70.1762 162.946C69.2772 160.48 68.3462 158.014 67.5282 155.524C66.8202 153.537 66.2172 151.515 65.7222 149.465C64.9872 146.149 64.3662 142.802 63.8182 139.445C63.3282 136.481 63.0342 133.468 62.6252 130.463C62.4702 129.32 62.2252 128.193 62.0612 127.05C61.9632 126.634 61.9632 126.2 62.0612 125.784C62.1782 125.444 62.1792 125.074 62.0632 124.733C61.9482 124.392 61.7232 124.098 61.4242 123.898C60.4512 123.016 59.3722 122.2 58.3592 121.383C57.0762 120.297 55.8252 119.162 54.5342 118.076C52.8102 116.614 50.9792 115.226 49.3452 113.715C46.5992 111.249 43.8692 108.759 41.2302 106.178C40.4612 105.426 39.7102 104.656 38.9692 103.875C46.9472 84.5885 59.8292 67.8365 76.0582 55.1785ZM77.6302 183.058C76.5672 183.058 75.7742 183.712 75.8482 184.357C75.8482 184.61 76.1912 185.018 76.3952 185.034C77.2132 185.1 78.3322 184.218 78.1932 183.646C78.1202 183.352 77.7282 183.14 77.6302 183.05V183.058ZM228.676 182.225L228.934 181.597C228.656 181.515 228.305 181.286 228.117 181.384C227.685 181.649 227.282 181.958 226.915 182.307C227.111 182.487 227.365 182.862 227.504 182.822C227.916 182.668 228.309 182.469 228.676 182.225ZM228.676 182.225L228.672 182.234L228.713 182.201L228.676 182.225ZM228.991 181.695C229.527 181.215 230.034 180.705 230.511 180.168C230.658 179.972 230.56 179.596 230.577 179.302C230.25 179.302 229.825 179.212 229.637 179.376C229.245 179.761 228.919 180.208 228.672 180.698C228.558 180.854 228.82 181.18 228.991 181.686V181.695ZM229.689 60.8505C243.255 73.1305 253.994 88.4785 260.807 105.796C260.41 106.183 259.96 106.503 259.254 106.587C258.616 106.668 258.069 107.567 257.488 108.106C257.398 108.187 257.382 108.432 257.3 108.432C255.903 108.693 255.282 110.131 254.031 110.588C253.68 110.666 253.32 110.699 252.961 110.686C252.749 111.107 252.473 111.492 252.144 111.829C251.696 112.098 251.212 112.299 250.705 112.425L250.542 112.18C250.457 112.41 250.342 112.627 250.199 112.825C249.896 113.103 249.52 113.495 249.21 113.495C248.991 113.46 248.782 113.377 248.6 113.251C248.417 113.126 248.265 112.96 248.155 112.768C248.116 112.569 248.122 112.364 248.173 112.167C248.224 111.971 248.319 111.788 248.45 111.633C248.842 111.135 249.316 110.506 250.133 111.07C250.256 111.151 250.893 110.678 251.008 110.474C251.122 110.269 250.836 109.861 250.73 109.535C250.443 109.582 250.166 109.678 249.913 109.82C248.858 110.759 248.474 110.702 247.78 109.461C247.74 109.394 247.683 109.338 247.616 109.298C247.147 109.771 246.626 110.191 246.063 110.547C245.785 110.686 245.295 110.392 244.903 110.302C244.938 109.971 245.02 109.646 245.148 109.339C245.499 108.816 245.957 108.351 246.317 107.918L247.355 108.432L247.592 108.269L246.921 106.856C246.514 107.246 246.044 107.566 245.532 107.803C244.932 107.835 244.331 107.771 243.751 107.616C244.748 108.53 244.576 108.824 243.751 109.543C242.925 110.261 242.173 110.694 241.111 110.359C240.874 110.286 240.522 110.049 240.522 109.853C240.508 109.553 240.614 109.259 240.817 109.036C241.928 107.991 243.08 106.987 244.225 105.966C244.797 105.452 245.385 104.954 245.982 104.439L247.379 106.072L247.698 106.015C246.668 104.921 246.063 103.753 247.543 102.471H246.251C246.161 103.097 245.858 103.673 245.394 104.102C244.93 104.532 244.333 104.789 243.701 104.831C243.791 106.685 242.002 106.856 240.931 107.616C240.163 108.146 239.297 108.383 239.297 109.535C238.945 109.404 238.7 109.347 238.479 109.241C237.237 108.636 237.106 108.212 238.054 107.264C238.592 106.678 239.192 106.152 239.844 105.697C240.366 105.477 240.916 105.334 241.479 105.272C241.454 104.627 241.25 103.786 242.067 103.247C242.149 103.198 242.206 103.043 242.263 103.043C243.587 103.19 243.399 102.055 243.693 101.344C243.743 101.107 243.712 100.859 243.603 100.642L242.506 100.383C242.399 100.319 242.284 100.266 242.165 100.226C242.07 100.219 241.975 100.223 241.881 100.236L242.506 100.383C242.611 100.447 242.71 100.521 242.8 100.605C242.982 100.776 243.125 100.983 243.219 101.214C243.407 101.728 242.312 102.831 241.773 102.749C241.619 102.749 241.466 102.716 241.326 102.653C241.185 102.59 241.06 102.498 240.957 102.383C240.854 102.268 240.777 102.133 240.731 101.987C240.684 101.84 240.669 101.685 240.686 101.532L240.694 101.516C240.705 101.334 240.753 101.157 240.833 100.994C240.913 100.831 241.025 100.685 241.161 100.565C241.298 100.446 241.457 100.354 241.629 100.296C241.711 100.268 241.796 100.248 241.881 100.236L240.383 99.8835C240.318 99.8425 240.195 99.8835 240.277 99.8835C240.182 100.51 239.983 101.117 239.689 101.679C239.205 102.141 238.654 102.526 238.054 102.822C237.997 103.116 237.997 103.565 237.997 104.006C236.951 104.3 236.828 104.447 236.73 105.403C237.221 105.266 237.677 105.026 238.067 104.7C238.457 104.373 238.773 103.967 238.994 103.508C239.125 103.296 239.28 102.986 239.485 102.937C239.967 102.845 240.456 102.79 240.947 102.773C240.927 103.252 240.864 103.727 240.759 104.194C240.686 104.447 240.383 104.635 240.163 104.823C239.223 105.582 238.283 106.342 237.327 107.085C237.057 107.297 236.714 107.583 236.436 107.583C236.056 107.496 235.72 107.276 235.488 106.962C235.415 106.881 235.643 106.456 235.807 106.252C236.05 106.042 236.257 105.794 236.42 105.517L235.243 105.452C234.941 106.766 234.524 106.979 233.388 106.268C232.874 105.902 232.403 105.481 231.982 105.011C231.516 104.537 231.312 104.578 231.075 105.199C232.08 105.876 233.061 106.554 234.058 107.207C234.483 107.477 234.981 107.656 235.398 107.942C237.155 109.159 238.97 110.31 240.604 111.666C241.424 112.51 242.15 113.441 242.77 114.442C243.113 114.891 243.448 115.349 243.824 115.773C245.238 117.333 245.205 119.244 245.107 121.154C245.025 122.665 244.846 124.176 244.707 125.694C243.579 126.086 243.783 126.078 243.963 127.328C244.038 128.61 243.95 129.897 243.701 131.157C243.685 131.296 243.317 131.468 243.097 131.508C242.304 131.647 242.263 132.219 242.574 132.684C242.726 132.887 242.814 133.13 242.828 133.383C242.841 133.637 242.778 133.888 242.647 134.105C242.566 134.277 242.435 134.53 242.5 134.652C243.162 135.804 242.467 136.636 241.895 137.396L241.266 136.988C241.181 137.284 241.124 137.587 241.094 137.894C241.086 138.147 241.209 138.4 241.209 138.662C241.209 139.543 241.25 140.482 241.209 141.315C241.168 142.148 240.825 142.663 239.852 142.328C239.762 142.295 239.607 142.459 239.329 142.622C239.738 142.622 239.893 142.475 240.147 142.622C240.4 142.769 240.776 143.038 240.776 143.234C240.755 143.405 240.694 143.568 240.597 143.71C240.5 143.852 240.371 143.969 240.22 144.051C240.087 144.075 239.961 144.13 239.853 144.212C239.745 144.293 239.658 144.4 239.599 144.522C239.54 144.643 239.511 144.777 239.513 144.913C239.516 145.048 239.551 145.181 239.615 145.3C240.048 146.639 239.942 147.072 238.904 147.889C239.37 149.163 239.362 149.179 238.087 149.571C237.409 149.783 237.646 150.265 237.899 150.551C238.414 151.098 238.242 151.506 237.899 152.021C237.785 152.264 237.58 152.453 237.327 152.547C237.075 152.64 236.796 152.63 236.551 152.519C235.938 152.347 235.488 152.649 235.374 153.335C236.175 154.062 236.175 154.062 235.047 154.805C235.415 155.148 236.387 154.928 236.101 155.834C235.864 156.577 235.235 156.487 234.875 156.446C234.475 155.834 234.132 155.385 233.878 154.895C233.792 154.632 233.767 154.353 233.805 154.078V153.262H233.494C233.404 153.784 233.314 154.299 233.241 154.674C232.358 154.315 231.492 153.931 230.675 153.654C230.519 153.597 230.209 153.948 229.857 154.176C231.125 154.354 232.316 154.888 233.291 155.717C234.266 156.545 234.986 157.634 235.366 158.855C235.406 158.978 235.496 159.108 235.496 159.215C235.235 160.268 234.932 161.387 234.679 162.375C234.426 163.363 234.221 164.359 233.96 165.339C233.788 166.017 233.559 166.686 233.355 167.356C233.269 167.791 233.143 168.217 232.979 168.63C232.713 169.122 232.415 169.596 232.088 170.05C232.193 170.295 232.244 170.56 232.236 170.827C232.228 171.093 232.163 171.354 232.044 171.593C231.925 171.831 231.755 172.041 231.547 172.208C231.339 172.374 231.097 172.493 230.838 172.557C229.204 172.835 227.569 172.982 225.935 173.186C225.845 173.798 226.392 173.749 226.825 173.692C227.765 173.57 228.247 173.945 228.247 174.893C228.264 175.154 228.452 175.423 228.452 175.709C228.507 176.019 228.464 176.339 228.329 176.624C228.223 176.746 227.741 176.738 227.512 176.624C227.387 176.551 227.282 176.449 227.205 176.327C227.129 176.204 227.082 176.065 227.071 175.921C227.177 175.293 226.948 174.95 226.131 174.558C226.49 175.554 226.793 176.289 227.013 177.057C227.131 177.423 227.131 177.817 227.013 178.183C226.922 178.312 226.799 178.415 226.655 178.481C226.512 178.547 226.353 178.574 226.196 178.559C225.935 178.453 225.739 177.922 225.624 177.742C225.51 177.563 225.403 177.383 225.297 177.204L225.036 177.31C225.166 177.873 225.256 178.453 225.428 179.008C225.64 179.768 225.166 180.143 224.611 180.298C224.464 180.339 224.079 179.686 223.867 179.318C223.729 179.036 223.62 178.741 223.54 178.437L223.123 178.608L223.597 179.645C222.976 180.282 222.649 180.192 221.963 179.041C221.46 179.2 220.914 179.158 220.442 178.924C219.969 178.689 219.606 178.28 219.429 177.783C218.718 176.093 218.874 175.595 220.247 174.607C220.524 174.411 220.549 173.896 220.745 173.553C220.933 173.248 221.147 172.958 221.383 172.688C221.587 172.451 222.02 172.239 222.02 172.035C221.897 170.557 222.756 169.438 223.287 168.189C224.437 165.518 225.353 162.753 226.025 159.925C226.425 158.243 226.94 156.553 227.422 154.919C227.659 154.086 227.855 153.286 227.038 152.617C226.883 152.486 226.915 152.151 226.809 151.914C226.703 151.678 226.597 151.376 226.4 151.269C225.861 150.951 225.64 150.706 226.09 150.134C226.172 150.036 225.918 149.669 225.812 149.416C224.929 149.947 224.325 149.122 223.507 149.016C223.589 149.187 223.622 149.44 223.753 149.506C224.295 149.826 224.769 150.251 225.146 150.756C225.523 151.26 225.797 151.834 225.951 152.445C225.973 152.503 226.006 152.556 226.049 152.6C227.054 153.809 227.054 153.809 225.706 154.887C225.984 155.858 225.493 156.397 224.178 156.74C224.079 157.361 224.169 158.071 223.867 158.373C223.276 158.975 222.551 159.429 221.75 159.696C221.178 159.868 221.097 159.925 221.284 160.456C221.416 160.792 221.416 161.165 221.284 161.501C220.958 162.048 220.165 162.334 220.467 163.208C220.071 163.485 219.609 163.654 219.127 163.697C219.086 163.779 219.004 163.853 219.004 163.942C218.931 164.473 219.062 165.224 218.759 165.502C218.11 166.075 217.355 166.516 216.536 166.8C215.874 166.974 215.194 167.073 214.51 167.094L214.559 167.47L216.651 167.282C216.969 167.756 217.018 168.205 216.07 168.483C215.572 168.733 215.119 169.064 214.73 169.462C214.51 171.145 213.913 171.161 212.278 171.39C210.252 171.675 208.977 170.442 207.8 169.095C207.35 168.589 207.064 168.532 206.68 169.209L207.743 169.683C207.825 170.23 207.914 170.793 207.98 171.226C208.425 171.171 208.875 171.171 209.32 171.226C209.467 171.267 209.582 171.798 209.557 171.986C209.533 172.173 209.271 172.484 209.108 172.484C208.56 172.5 208.021 172.345 207.473 172.345C206.778 172.337 206.599 171.871 206.37 171.349C206.29 171.248 206.188 171.168 206.072 171.114C205.955 171.06 205.828 171.034 205.7 171.038C204.351 171.398 203.256 170.638 202.153 170.148C201.524 169.863 201.932 169.242 202.341 168.948C204.475 167.326 206.306 165.342 207.751 163.085C208.928 161.338 210.072 159.557 211.093 157.712C212.102 155.918 213 154.063 213.782 152.159C214.542 150.322 215.082 148.371 215.695 146.443C215.772 146.056 215.81 145.662 215.809 145.268C214.395 146.729 214.224 148.909 212.303 149.832C212.426 150.142 212.54 150.428 212.622 150.649L211.216 152.331C211.336 152.655 211.328 153.012 211.194 153.33C211.061 153.648 210.812 153.904 210.497 154.046C209.846 154.351 209.167 154.594 208.47 154.772C208.903 155.205 209.827 155.573 209.287 156.275C208.969 156.675 208.127 156.675 207.538 156.846C207.669 157.336 208.111 158.079 207.906 158.553C207.702 159.027 206.86 159.231 206.378 159.5C206.378 160.007 206.607 160.766 206.378 161.182C206.149 161.599 205.373 161.689 204.645 161.999L204.874 162.75C204.497 163.595 204.063 164.414 203.575 165.2C203.411 165.437 202.766 165.494 202.406 165.396C200.561 164.807 198.881 163.791 197.503 162.432C197.388 162.326 197.241 162.154 197.151 162.154C195.844 162.489 195.746 161.493 195.468 160.676C195.435 160.595 195.321 160.546 194.994 160.276C194.994 160.733 194.863 161.093 194.994 161.24C195.868 162.268 195.852 162.44 194.667 163.085C195.329 163.265 195.958 163.657 196.563 162.799C196.841 162.407 198.189 163.199 198.083 163.787C197.821 165.322 198.631 164.539 199.391 164.326L200.306 165.959L202.161 166.36C202.055 166.702 202.038 167.176 201.801 167.356C201.391 167.556 200.948 167.68 200.494 167.723C200.412 168.082 200.29 168.687 200.159 169.291H199.701C199.546 168.768 199.399 168.246 199.211 167.593C197.65 169.103 196.015 168.36 194.381 168.066C194.266 168.05 194.07 167.944 194.07 167.862C193.858 166.719 193.139 167.323 192.518 167.323C191.635 167.319 190.754 167.237 189.886 167.078C189.224 166.972 188.587 166.768 187.671 166.539C191.079 162.228 194.324 157.818 196.367 152.87C198.41 147.921 200.804 143.104 202.169 137.845C201.942 137.81 201.709 137.832 201.492 137.908C201.275 137.984 201.081 138.113 200.925 138.283C200.77 138.453 200.659 138.658 200.603 138.881C200.546 139.103 200.545 139.337 200.6 139.56C200.208 139.829 199.873 140.05 199.562 140.286C198.868 140.801 198.189 141.324 197.511 141.846C197.151 142.14 196.849 142.279 196.849 142.957C196.882 143.406 196.211 144.01 195.721 144.353C195.236 144.651 194.889 145.13 194.757 145.684C194.626 146.166 194.07 146.533 193.678 146.933C193.531 147.088 193.188 147.154 193.139 147.317C192.73 148.82 191.635 149.326 190.082 149.326C190.834 150.2 190.818 150.861 190.082 151.082C189.427 151.227 188.759 151.306 188.088 151.318C188.145 151.433 188.145 151.522 188.145 151.522L189.281 152.053C189.063 152.436 188.787 152.783 188.464 153.082C188.133 153.261 187.773 153.382 187.402 153.441C187.225 154.017 186.972 154.566 186.65 155.075C186.045 155.769 185.113 156.234 184.672 156.993C183.912 158.3 182.58 158.806 181.542 159.778C181.624 160.309 181.828 160.995 180.806 160.929C180.747 160.936 180.691 160.957 180.641 160.99C180.592 161.022 180.55 161.066 180.52 161.117C180.481 161.26 180.408 161.391 180.308 161.5C180.208 161.609 180.083 161.692 179.944 161.744C179.805 161.795 179.656 161.812 179.509 161.794C179.361 161.776 179.221 161.723 179.098 161.64C178.935 161.566 178.641 161.754 178.412 161.828C178.502 162.015 178.567 162.122 178.673 162.407C178.78 162.693 179.017 163.11 178.919 163.224C178.633 163.631 178.227 163.939 177.758 164.106C177.162 164.236 176.818 164.326 176.941 165.053C176.948 165.194 176.919 165.334 176.856 165.46C176.793 165.585 176.698 165.693 176.581 165.772C175.888 166.153 175.116 166.371 174.326 166.408C173.304 166.294 173.917 165.543 174.195 164.931C173.541 164.979 172.83 165.159 172.438 164.979C172.046 164.8 171.858 164.138 171.498 163.559C170.603 163.461 169.699 163.48 168.809 163.616C168.018 163.922 167.293 164.38 166.676 164.963C165.67 165.895 164.887 167.042 164.388 168.319C164.216 168.654 163.628 168.785 163.228 169.013L162.868 168.752C162.976 167.986 163.154 167.232 163.399 166.498C164.465 164.429 165.762 162.487 167.265 160.709C168.597 158.986 169.749 157.189 171.049 155.475C172.683 153.384 174.375 151.384 175.952 149.301C176.679 148.33 177.235 147.235 177.905 146.223C178.878 144.778 179.932 143.398 180.872 141.936C181.942 140.262 182.923 138.531 183.961 136.832C185.628 134.105 187.393 131.435 188.979 128.667C190.989 125.147 192.885 121.571 194.79 117.986C195.631 116.402 196.375 114.769 197.135 113.136C197.272 112.821 197.289 112.466 197.184 112.139C196.416 113.356 195.672 114.63 194.855 115.806C194.469 116.464 193.902 116.997 193.22 117.341C192.354 117.643 192.428 118.28 192.297 118.843C192.117 119.57 192.166 120.321 191.046 120.321C190.646 120.313 190.401 120.73 190.646 121.285C191.046 122.191 190.564 122.869 189.567 123.008C189.219 123.088 188.882 123.209 188.562 123.367C188.66 124.102 189.87 124.347 189.052 125.041C188.685 125.384 188.693 126.96 187.418 125.531C187.313 125.953 187.28 126.389 187.32 126.821C187.403 126.989 187.45 127.173 187.459 127.36C187.467 127.548 187.437 127.735 187.369 127.91C187.302 128.085 187.199 128.244 187.066 128.377C186.934 128.51 186.775 128.614 186.601 128.683C186.29 128.895 185.783 129.238 185.783 129.5C185.841 130.651 184.901 131.174 184.394 131.949C184.018 132.521 183.446 133.035 182.58 132.023C182.528 132.446 182.528 132.874 182.58 133.297C182.98 134.587 182.776 134.962 181.452 135.216C181.362 135.232 181.297 135.322 181.452 135.444C181.338 136.098 181.248 136.759 181.084 137.404C181.068 137.445 180.471 137.518 180.39 137.404C180.156 137.003 179.964 136.579 179.818 136.138L178.861 136.775C180.177 137.208 179.589 138.359 179.916 139.176C179.956 139.282 179.466 139.609 179.213 139.829C179.035 139.608 178.873 139.373 178.731 139.127C178.681 138.905 178.664 138.676 178.682 138.449L177.864 138.858C178.093 139.298 178.289 139.674 178.518 140.115C177.251 140.507 177.251 139.168 176.434 138.988L175.821 139.47V139.209C175.078 138.964 174.424 138.719 173.607 138.466C172.789 138.212 172.601 137.649 172.789 136.832C173.5 133.77 173.966 130.659 175.135 127.711C176.238 124.698 177.955 121.945 180.177 119.627C182.179 117.627 184.026 115.455 186.11 113.544C188.448 111.413 190.965 109.477 193.417 107.485C195.051 106.154 196.628 104.88 198.32 103.704C200.747 101.998 203.281 100.438 205.732 98.8055C206.091 98.5355 206.495 98.3305 206.926 98.2015C208.053 97.9475 208.462 96.9845 208.944 96.1675C211.29 92.1095 213.586 88.0345 215.956 83.9925C217.844 80.8005 219.74 77.7545 221.677 74.4715C223.614 71.1895 225.501 67.8495 227.438 64.5835C228.175 63.3305 228.931 62.0895 229.689 60.8505ZM231.41 178.959C231.901 178.351 232.347 177.707 232.742 177.032C232.816 176.893 232.448 176.33 232.195 176.264C231.606 176.101 230.732 177.081 230.756 177.898C230.764 178.151 231.075 178.412 231.41 178.951V178.959ZM215.629 173.717L215.556 174.207C216.005 174.378 216.111 175.317 216.871 174.705C217.084 174.542 217.043 174.06 217.125 173.717H215.629ZM213.831 173.349C214.207 173.978 214.722 174.166 215.294 173.733C215.348 173.615 215.377 173.487 215.377 173.357C215.377 173.228 215.348 173.1 215.294 172.982C214.804 172.721 214.207 172.41 213.848 173.317L213.831 173.349ZM209.99 173.023L210.415 173.48L211.306 172.786C211.118 172.623 210.832 172.288 210.767 172.32C210.483 172.526 210.223 172.761 209.99 173.023ZM217.509 171.912C217.239 172.868 217.509 173.235 218.171 173.129C218.441 173.129 218.669 172.786 218.914 172.598L217.509 171.912ZM215.866 172.165L216.291 172.467C216.548 172.2 216.78 171.91 216.986 171.602C216.986 171.602 216.634 171.283 216.446 171.112L215.866 172.165ZM167.175 172.255C167.676 172.181 168.164 172.033 168.621 171.814C170.003 170.908 171.359 169.952 172.65 168.915C172.803 168.738 172.918 168.531 172.99 168.308C173.062 168.085 173.088 167.85 173.067 167.617C173.067 166.286 171.89 165.682 171.098 164.857C170.824 164.631 170.48 164.507 170.125 164.506C169.327 164.407 168.517 164.54 167.792 164.889C167.067 165.238 166.459 165.788 166.039 166.474C165.524 167.245 165.117 168.083 164.829 168.964C164.74 169.336 164.731 169.722 164.804 170.097C164.877 170.472 165.03 170.827 165.253 171.137C165.475 171.448 165.762 171.707 166.094 171.897C166.425 172.087 166.794 172.204 167.175 172.239V172.255ZM184.868 165.257C185.244 164.808 185.612 164.555 185.62 164.31C185.628 164.065 185.187 163.493 185.089 163.542C184.713 163.671 184.384 163.907 184.141 164.22C184.075 164.285 184.5 164.718 184.868 165.224V165.257ZM183.924 163.765C183.525 163.047 183.007 162.828 182.4 163.175C182.212 163.289 182.098 163.991 182.212 164.057C182.788 164.495 183.356 164.2 183.924 163.765ZM183.924 163.765L183.937 163.787V163.755L183.924 163.765ZM186.993 163.257L187.81 162.399C187.508 162.171 187.222 161.811 186.895 161.77C186.568 161.73 186.315 162.089 186.02 162.269L186.993 163.257ZM184.623 162.652L185.587 161.623C185.307 161.432 185.005 161.273 184.688 161.15C184.588 161.104 184.477 161.087 184.368 161.102C184.259 161.116 184.156 161.16 184.071 161.23C183.986 161.3 183.922 161.392 183.886 161.496C183.851 161.6 183.846 161.712 183.871 161.819C183.92 162.024 184.272 162.236 184.623 162.62V162.652ZM186.356 160.758L187.173 159.851L186.356 159.19C186.151 159.451 185.857 159.68 185.792 160.007C185.792 160.113 186.102 160.366 186.356 160.725V160.758ZM189.338 160.733L189.387 160.056C188.933 160.031 188.477 160.031 188.023 160.056C187.974 160.056 187.957 160.456 187.925 160.668L189.338 160.733ZM190.842 157.949C189.592 158.022 188.676 158.129 188.162 156.904L187.14 158.292L188.824 158.692C189.189 159.009 189.631 159.223 190.107 159.313C190.295 159.296 190.507 158.602 190.842 157.949ZM192.648 155.093C192.23 154.295 191.837 153.824 191.104 153.744C190.867 153.744 190.589 154.168 190.287 154.405C190.515 154.642 190.72 155.026 190.998 155.099C191.546 155.158 192.1 155.157 192.648 155.093ZM192.648 155.093L192.665 155.124V155.091L192.648 155.093ZM160.351 130.414C161.007 130.8 161.827 131.04 161.699 132.096C161.699 132.284 161.814 132.643 161.953 132.684C162.705 132.897 162.827 133.501 163.048 134.121C163.08 134.25 163.141 134.37 163.227 134.471C163.313 134.572 163.421 134.652 163.543 134.704C163.665 134.756 163.797 134.779 163.93 134.772C164.062 134.764 164.191 134.726 164.306 134.66C164.527 134.546 164.65 133.909 164.56 133.591C164.47 133.272 164.037 132.954 163.644 132.513L163.734 131.639H164.429C164.478 131.639 164.519 131.721 164.568 131.762C164.658 133.24 164.658 133.24 166.031 133.46C165.777 134.105 165.344 134.791 166.529 134.971C166.619 134.971 166.676 135.216 166.766 135.322C167.003 135.591 167.232 136.032 167.502 136.065C167.771 136.097 168.262 135.828 168.63 135.689L166.783 132.684C166.796 132.296 166.727 131.909 166.578 131.549C166.366 131.247 165.867 131.141 165.303 130.855C166.783 129.573 168.229 128.316 169.684 127.074C169.788 126.998 169.908 126.948 170.035 126.927C170.084 126.927 170.15 126.927 170.256 126.976V127.719C168.728 128.103 168.687 128.152 168.76 129.434L168.716 129.424L168.703 129.41V129.42L168.716 129.424C169.168 129.895 169.963 130.047 170.035 130.888C170.035 130.994 170.517 131.198 170.591 131.133C170.688 131.052 170.767 130.953 170.823 130.841C170.879 130.728 170.912 130.605 170.918 130.479C170.828 129.9 170.64 129.336 170.452 128.626L171.89 128.83L172.046 127.36C172.928 127.009 173.214 126.544 172.863 125.948C172.733 125.711 172.626 125.462 172.544 125.204C172.838 125.115 173.141 125.049 173.419 124.935C173.696 124.821 174.146 124.608 174.13 124.519C173.974 123.775 174.473 123.514 174.947 123.147C175.168 122.888 175.338 122.588 175.445 122.265C175.56 122.053 175.658 121.832 175.78 121.62C175.985 121.252 176.189 120.877 176.418 120.526C176.574 120.283 176.749 120.054 176.941 119.84C177.121 119.627 177.341 119.456 177.513 119.235C178.682 117.815 179.785 116.345 181.027 114.981C181.844 114.091 181.902 114.018 180.815 113.479C180.56 113.328 180.284 113.216 179.997 113.144C177.317 112.67 174.644 112.123 171.948 111.78C169.439 111.462 166.897 111.315 164.372 111.168C162.247 111.045 160.122 111.013 157.997 110.972C154.231 110.855 150.462 111.048 146.727 111.551C145.551 111.731 144.325 111.641 143.148 111.821C140.696 112.197 138.244 112.638 135.793 113.119C133.897 113.487 132.025 113.936 130.146 114.401C129.311 114.687 128.456 114.908 127.588 115.063C127.107 115.071 126.636 115.192 126.21 115.414C125.784 115.637 125.417 115.955 125.136 116.345C125.953 117.316 126.77 118.264 127.522 119.317C128.503 120.746 130.268 121.489 130.897 123.228C131.072 123.637 131.312 124.015 131.608 124.347C132.581 125.539 133.537 126.74 134.567 127.883C134.932 128.246 135.385 128.508 135.883 128.642C136.585 128.838 137.337 128.871 138.056 129.002C139.127 129.197 140.198 129.426 141.268 129.614C141.361 129.625 141.456 129.616 141.546 129.59C141.636 129.563 141.719 129.519 141.791 129.459C142.233 128.953 142.519 129.295 142.911 129.557C143.516 129.957 144.186 130.267 144.864 130.635L145.354 129.295C145.657 129.745 145.779 130.112 146.049 130.292C146.588 130.578 147.316 131.027 147.749 130.855C148.354 130.61 148.01 129.932 147.667 129.467C147.61 129.385 147.667 129.23 147.667 129.002C147.848 129.114 148.02 129.239 148.182 129.377C148.681 129.932 149.138 130.529 149.661 131.051C150.74 132.113 151.214 131.998 151.606 130.659C151.606 130.61 151.704 130.578 151.884 130.447C152.219 131.843 153.519 131.917 154.679 132.227L154.091 131.41C155.006 130.659 153.478 130.161 153.699 129.41L155.268 130.782C155.297 131.236 155.469 131.67 155.758 132.023C156.204 132.481 156.716 132.869 157.278 133.174C157.422 133.25 157.581 133.29 157.744 133.29C157.906 133.29 158.066 133.25 158.21 133.174C158.381 132.962 158.267 132.521 158.275 132.186L157.368 132.251H157.098C157.303 131.835 157.466 131.435 157.662 131.084C157.744 130.92 157.899 130.651 157.997 130.659C158.921 130.733 159.288 130.104 159.681 129.451C159.745 129.387 159.825 129.341 159.912 129.316C159.999 129.292 160.091 129.291 160.179 129.312C160.302 129.402 160.335 129.655 160.351 129.834C160.367 130.027 160.367 130.221 160.351 130.414ZM160.34 130.413C159.987 130.361 159.627 130.446 159.334 130.651C159.039 130.858 158.835 131.171 158.765 131.525C158.61 132.415 159.297 132.733 159.975 132.978C160.158 133.377 160.464 133.706 160.849 133.917C161.054 133.999 161.421 133.689 161.716 133.558L160.727 131.925C160.632 131.546 160.483 130.975 160.34 130.413ZM168.703 129.42C168.628 129.404 168.551 129.395 168.474 129.393C167.714 129.508 166.783 129.549 166.766 130.528C166.766 130.953 167.412 131.345 167.731 131.819C167.853 131.982 167.837 132.243 167.959 132.39C168.248 132.738 168.575 133.053 168.932 133.329C169.022 133.395 169.447 133.207 169.471 133.084C169.553 132.643 169.741 131.998 169.52 131.77C168.966 131.115 168.675 130.278 168.703 129.42ZM160.339 130.407L160.326 130.357L160.31 130.39L160.339 130.407L160.34 130.413L160.351 130.414L160.339 130.407ZM247.559 113.568C246.447 113.446 245.802 113.813 245.826 114.605C245.866 114.766 245.947 114.913 246.062 115.032C246.177 115.151 246.321 115.238 246.48 115.283C247.216 115.381 247.616 114.703 247.559 113.568ZM243.652 113.332C243.586 113.487 243.555 113.654 243.561 113.823C243.568 113.991 243.612 114.156 243.69 114.306C243.768 114.455 243.879 114.585 244.014 114.686C244.149 114.788 244.304 114.858 244.47 114.891C244.568 114.891 244.96 114.385 244.985 114.075C245.115 113.029 244.339 113.323 243.693 113.299L243.652 113.332ZM243.094 112.969L243.089 112.972H243.097L243.094 112.969C243.623 112.611 244.046 112.343 244.445 112.058C245.025 111.641 244.903 111.241 244.445 110.808C243.677 110.098 243.211 110.923 242.68 111.176C242.546 111.29 242.443 111.435 242.38 111.599C242.317 111.763 242.296 111.941 242.32 112.115C242.369 112.408 242.759 112.628 243.094 112.969ZM246.823 110.784C246.268 111.249 245.72 111.658 245.246 112.139C245.148 112.229 245.246 112.678 245.401 112.809C245.506 112.876 245.624 112.918 245.747 112.932C245.871 112.946 245.995 112.932 246.112 112.891C246.568 112.592 246.993 112.247 247.379 111.862C247.45 111.783 247.501 111.689 247.528 111.587C247.555 111.484 247.557 111.377 247.534 111.274C247.436 111.119 247.158 110.996 246.823 110.776V110.784Z" fill="#FFEEDD"/>
</svg>
