<?xml version="1.0" encoding="UTF-8" standalone="no"?>
<!-- Created with Inkscape (http://www.inkscape.org/) -->

<svg
   width="480"
   height="480"
   viewBox="0 0 127 127"
   version="1.1"
   id="svg1"
   xmlns:xlink="http://www.w3.org/1999/xlink"
   xmlns="http://www.w3.org/2000/svg"
   xmlns:svg="http://www.w3.org/2000/svg">
  <defs
     id="defs1">
    <linearGradient
       id="linearGradient11">
      <stop
         style="stop-color:#12e0ff;stop-opacity:1;"
         offset="0.33307755"
         id="stop11" />
      <stop
         style="stop-color:#ffffff;stop-opacity:1;"
         offset="0.37952051"
         id="stop13" />
      <stop
         style="stop-color:#12e0ff;stop-opacity:1;"
         offset="0.63266456"
         id="stop12" />
    </linearGradient>
    <radialGradient
       xlink:href="#linearGradient11"
       id="radialGradient2"
       cx="-12.613644"
       cy="167.4698"
       fx="-12.613644"
       fy="167.4698"
       r="122.84262"
       gradientTransform="matrix(0.88914112,0.07934439,-0.04669911,0.52331473,109.23229,-61.168351)"
       gradientUnits="userSpaceOnUse" />
  </defs>
  <g
     id="layer1"
     transform="translate(13.589122,62.627315)">
    <path
       id="text11"
       style="font-weight:800;font-size:307.7px;font-family:Poppins;-inkscape-font-specification:'Poppins Ultra-Bold';text-align:center;text-anchor:middle;fill:#12e0ff;fill-opacity:1;stroke:none;stroke-width:2.44617;stroke-linecap:round;stroke-linejoin:round;stroke-dasharray:none;stroke-opacity:1;paint-order:markers stroke fill"
       d="m 54.019043,-49.07154 c -9.659127,0 -18.203687,2.136142 -25.633783,6.408451 -7.430095,4.179429 -13.188414,10.077219 -17.274958,17.693066 -3.9936827,7.522973 -5.9905795,16.1138754 -5.9905795,25.77299774 0,9.75200526 1.9968968,18.43604626 5.9905795,26.05189326 4.086544,7.522973 9.844863,13.420526 17.274958,17.692836 7.430096,4.179431 15.974656,6.269237 25.633783,6.269237 12.259659,0 22.568976,-3.250787 30.927835,-9.75212 3.902476,-3.078615 7.148281,-6.670194 9.755159,-10.761001 l -0.01683,0.0074 -22.973308,-15.994914 c -1.764646,3.715049 -4.225842,6.547875 -7.383635,8.498276 -3.064915,1.950396 -6.640516,2.925565 -10.727071,2.925565 -6.315578,0 -11.377446,-2.229053 -15.185372,-6.687104 -3.71505,-4.550942 -5.572472,-10.6343085 -5.572472,-18.2501594 0,-7.5229724 1.857422,-13.5134336 5.572472,-17.9714916 3.807926,-4.550932 8.869794,-6.826319 15.185372,-6.826319 4.086555,0 7.662156,0.975169 10.727071,2.925569 3.157793,1.9504 5.618989,4.782984 7.383635,8.498033 L 94.676083,-28.55964 c -2.602458,-4.050683 -5.839724,-7.595479 -9.729187,-10.620613 -8.358859,-6.594212 -18.668176,-9.891331 -30.927836,-9.891331 z" />
    <g
       id="g1"
       transform="translate(-29.258354,-8.2129538)">
      <path
         id="path3"
         style="display:inline;fill:url(#radialGradient2);stroke:none;stroke-width:0.978468;stroke-linecap:round;stroke-linejoin:round;stroke-dasharray:none;stroke-opacity:1"
         d="m 138.78008,-40.858617 -0.004,0.0029 0.004,-0.0024 z m -0.004,0.0029 c -0.0102,0.0081 -12.48054,9.799058 -23.60004,15.072092 -6.14009,2.911727 -12.47705,5.746589 -19.677107,7.178044 -0.251936,0.05009 -0.425203,0.154197 -0.806708,0.04163 -12.468872,-2.074382 -26.471088,0.04511 -26.471088,0.04511 0,0 -0.0072,0.02544 -0.01106,0.03586 L 67.45601,-20.02151 c -1.564091,-3.190805 -3.347409,-5.722048 -5.625655,-8.074311 l 0.0049,-0.04491 c 0,0 -2.437204,-2.635162 -5.653816,-4.46614 -0.03023,-0.01727 -0.06005,-0.03327 -0.09025,-0.05018 -0.05426,-0.03239 -0.115552,-0.06582 -0.189705,-0.10543 -3.077542,-1.671547 -5.386204,-1.613587 -5.386204,-1.613587 v 2.2e-4 l 0.04271,0.01321 c -0.101971,0.02842 0.07615,0.148762 0.652819,0.432508 2.0577,1.01246 3.653185,2.912763 4.183549,4.982943 0.211345,0.825049 0.141962,1.272973 -0.262371,1.695025 -0.273531,0.285488 -0.373026,0.313947 -1.096809,0.313868 -0.65235,-7.3e-5 -0.926434,-0.06175 -1.518945,-0.342043 -0.970817,-0.459273 -2.732456,-1.528964 -4.886501,-2.967005 -0.298066,-0.198961 -0.352243,-0.22039 -0.571425,-0.361852 v -0.02069 c 0,0 -1.333708,-1.048629 -1.787453,-1.162806 -0.0081,-0.0029 -0.01663,-0.0044 -0.02427,-0.0064 -0.430146,-0.09391 -0.491266,-0.31629 -1.782849,-0.31629 -0.455374,0 -0.693005,0.01463 -0.813288,0.03371 -0.17567,0.02304 -0.232299,0.06437 -0.156051,0.165743 0.301314,0.40059 0.706635,0.808224 0.803821,0.808224 0.156726,0 0.524435,0.483985 0.528691,0.695965 0.002,0.103972 0.152304,0.306828 0.333898,0.450776 0.403544,0.31989 1.144256,1.528906 1.398325,2.282263 0.238008,0.705837 0.240092,1.666004 0.0044,2.162527 -0.362889,0.764776 -1.115416,1.067602 -2.651822,1.067284 -1.328818,-2.64e-4 -2.734951,-0.273834 -5.448239,-1.059798 -3.61682,-1.047695 -7.066161,-1.673416 -10.411603,-1.888718 -2.007093,-0.129173 -3.542701,-0.07832 -5.714568,0.189069 -1.989863,0.244979 -2.215375,0.327038 -1.147626,0.417977 2.15174,0.183267 4.878335,1.032837 7.525811,2.344993 2.063443,1.022695 4.530749,2.626468 5.569085,3.619839 0.672144,0.643039 0.741693,0.751527 0.739986,1.158188 -9.78e-4,0.246765 -0.0477,0.521348 -0.103884,0.610129 -0.07237,0.114359 0.002,0.284005 0.255317,0.581954 0.196584,0.23132 0.763146,1.064074 1.259,1.850641 0.631812,1.002191 1.096398,1.599468 1.553054,1.996124 1.189426,1.03317 1.455369,1.824335 1.216515,3.619179 -0.305101,2.2927222 -0.762574,3.026324 -2.279401,3.654393 -0.940239,0.3893228 -3.199307,0.9228865 -4.209052,0.994212 -0.371892,0.026272 -0.929722,0.098634 -1.239632,0.1608944 -0.309905,0.06226 -1.324146,0.2365888 -2.253868,0.3871653 -0.929726,0.1505765 -2.451082,0.4413284 -3.380803,0.6462245 l -1.690402,0.3726399 1.295976,0.071976 c 2.276338,0.126648 2.892719,0.3033888 4.013159,1.1500428 1.117347,0.8443154 2.107376,2.1171267 2.830107,3.63898748 0.329563,0.69396402 0.417806,1.02746522 0.458696,1.73376282 0.04633,0.7999571 0.0229,0.9253967 -0.273149,1.4724926 -0.556005,1.0273674 -1.722584,2.0781397 -3.447276,3.1047976 l -0.756938,0.4505554 1.038673,0.00729 c 1.65415,0.011644 3.704144,0.6732596 5.433939,1.7535718 0.430707,0.2689908 0.680295,0.3279288 1.237645,0.3541469 l -0.0024,-0.00773 c 0,0 3.061192,-1.1478755 3.794598,-1.1797589 0.701518,0.589899 0.175366,4.2249874 0.988493,9.9806364 0.01223,0.08659 0.01888,0.159055 0.02069,0.219221 0.182871,0.780162 0.370605,1.522585 0.542116,2.381969 0.247557,1.240448 0.634272,2.863233 0.859286,3.606189 1.279225,4.223828 3.536899,7.786637 7.432909,11.730471 1.48598,1.50419 2.618053,2.387018 4.474291,3.488871 2.481029,1.472722 5.327379,2.776052 8.986655,4.114856 l 2.076486,0.759575 0.191711,0.940073 c 0.310414,1.522013 0.822124,2.695867 1.534532,3.520128 1.219558,1.410966 3.028007,2.755891 4.186827,3.113815 0.793078,0.244954 2.017881,0.288868 2.831017,0.101472 0.490286,-0.113004 0.517292,-0.104007 1.295972,0.434263 1.03313,0.714189 1.424518,0.859296 3.722823,1.378736 1.054984,0.238433 2.245663,0.536303 2.645866,0.662076 0.400247,0.125767 0.750828,0.205546 0.779194,0.177181 0.02852,-0.02838 -0.384656,-0.495321 -0.917833,-1.037793 -1.644037,-1.672663 -3.011907,-3.493754 -3.011907,-4.009641 0,-0.37493 1.624023,-0.377953 4.507726,-0.0086 5.611687,0.718778 9.333189,2.915469 11.375218,6.714289 0.434954,0.809174 0.901263,2.232978 0.915402,2.795108 0.0068,0.272562 0.01106,0.274279 0.104994,0.04183 0.384695,-0.953522 0.412977,-3.688224 0.05239,-5.054479 -0.278257,-1.054348 -1.408417,-3.285677 -2.183648,-4.311185 -1.662481,-2.199255 -4.805322,-4.463749 -7.857947,-5.661746 -1.654815,-0.649429 -3.616596,-0.878249 -8.215642,-0.958557 -3.047043,-0.0532 -4.231254,-0.19811 -5.679534,-0.695089 -1.658054,-0.56895 -3.415305,-1.578098 -5.1335,-2.947861 -1.170874,-0.933395 -3.489502,-3.23581 -4.134699,-4.105604 -2.719037,-3.665715 -3.559776,-7.366287 -2.561572,-11.275953 0.353139,-1.383036 1.07747,-2.859354 1.295757,-2.641028 0.02769,0.02769 -0.08749,0.349636 -0.256193,0.715559 -0.270595,0.587012 -0.30718,0.804623 -0.311441,1.848654 -0.0044,0.650804 0.03278,1.441538 0.07837,1.757095 0.121903,0.842828 0.606313,2.443597 1.077856,3.561507 l 0.41332,0.979687 0.129867,-0.754297 c 0.280004,-1.625417 1.322503,-3.476332 3.090703,-5.487647 0.381461,-0.433872 0.899389,-1.093125 1.151153,-1.465012 0.548045,-0.809516 1.42192,-1.945478 2.049398,-2.664364 0.251168,-0.287763 0.71028,-0.892437 1.020185,-1.34374 0.309905,-0.451304 0.79593,-1.103336 1.080068,-1.448946 0.643915,-0.783303 1.837622,-2.763415 2.524345,-4.187042 l 0.520785,-1.079613 1.881663,-0.630603 c 2.378168,-0.797056 2.614174,-0.848141 2.614174,-0.565887 0,0.631596 1.271951,1.919456 2.563367,2.59525 0.471969,0.246985 0.59144,0.366348 0.592717,0.5912 0,0.355165 0.428741,1.264152 0.884824,1.883655 0.361613,0.491201 0.946923,0.876991 1.189236,0.784012 0.09175,-0.03523 0.184128,0.167612 0.273359,0.599562 0.06547,0.316925 0.165474,0.592286 0.241462,0.702574 l -0.01702,-0.002 c 0,0 0.412424,1.326652 0.914554,1.27286 0.502082,-0.0538 0.950328,-0.537551 1.075851,-0.985846 0.01747,-0.06257 0.03195,-0.130302 0.04447,-0.200077 l 0.257944,-1.025684 c 0.399646,-1.58827 0.876091,-5.896217 0.961874,-8.6976448 0,0 1.599443,-3.0947291 2.343241,-3.513313 1.781698,-1.0027148 5.184522,-3.275761 6.868344,-4.58807299 2.287194,-1.78256391 4.945452,-4.48730981 5.539792,-5.63665301 0.18311,-0.3540294 0.0955,-0.3566077 -0.31054,-0.00905 -0.10222,0.087485 -0.761478,0.302831 -1.465026,0.4785052 -0.703548,0.1756743 -2.012508,0.5318221 -2.908873,0.7912776 -0.997358,1.8956455 -14.866551,1.4303398 -8.793202,1.0725677 1.084074,-0.061981 1.961614,-0.1380325 1.950112,-0.1690402 -0.161981,-0.4367393 -0.118879,-0.4260251 -1.63778,-0.4100516 -2.843919,-0.1148918 -0.51533,-0.2474155 0.794144,-0.3931046 1.016223,-0.1184631 1.120405,-0.1546616 1.540711,-0.5368366 0.247929,-0.2254147 0.936786,-0.774037 1.530829,-1.2191619 2.949294,-2.2099197 4.794456,-3.7946129 6.924479,-5.9465578 1.529766,-1.545452 2.242726,-2.533813 2.308026,-3.26239 0.3872,-0.221007 11.34493,-6.475558 16.44644,-9.461408 8.50463,-4.977659 21.69111,-16.006212 21.70163,-16.015018 z" />
      <path
         id="path3-6"
         style="display:inline;fill:#020202;fill-opacity:1;stroke-width:0.425928"
         d="m 138.78008,-40.858617 -0.004,0.0029 0.004,-0.0024 z m -0.004,0.0029 c -0.0102,0.0081 -12.48054,9.799058 -23.60004,15.072092 -6.14009,2.911727 -12.47705,5.746589 -19.677107,7.178044 -0.251936,0.05009 -0.425203,0.154197 -0.806708,0.04163 -12.468872,-2.074382 -26.471088,0.04511 -26.471088,0.04511 0,0 -0.0072,0.02544 -0.01106,0.03586 L 67.45601,-20.02151 c -1.564091,-3.190805 -3.347409,-5.722048 -5.625655,-8.074311 l 0.0049,-0.04491 c 0,0 -2.437204,-2.635162 -5.653816,-4.46614 -0.03023,-0.01727 -0.06005,-0.03327 -0.09025,-0.05018 -0.05426,-0.03239 -0.115552,-0.06582 -0.189705,-0.10543 -3.077542,-1.671547 -5.386204,-1.613587 -5.386204,-1.613587 v 2.2e-4 l 0.04271,0.01321 c -0.101971,0.02842 0.07615,0.148762 0.652819,0.432508 2.0577,1.01246 3.653185,2.912763 4.183549,4.982943 0.211345,0.825049 0.141962,1.272973 -0.262371,1.695025 -0.273531,0.285488 -0.373026,0.313947 -1.096809,0.313868 -0.65235,-7.3e-5 -0.926434,-0.06175 -1.518945,-0.342043 -0.970817,-0.459273 -2.732456,-1.528964 -4.886501,-2.967005 -0.298066,-0.198961 -0.352243,-0.22039 -0.571425,-0.361852 0,-0.0082 0,-0.02069 0,-0.02069 0,0 -1.333708,-1.048629 -1.787453,-1.162806 -0.0081,-0.0029 -0.01663,-0.0044 -0.02427,-0.0064 -0.430146,-0.09391 -0.491266,-0.31629 -1.782849,-0.31629 -0.455374,0 -0.693005,0.01463 -0.813288,0.03371 -0.17567,0.02304 -0.232299,0.06437 -0.156051,0.165743 0.301314,0.40059 0.706635,0.808224 0.803821,0.808224 0.156726,0 0.524435,0.483985 0.528691,0.695965 0.002,0.103972 0.152304,0.306828 0.333898,0.450776 0.403544,0.31989 1.144256,1.528906 1.398325,2.282263 0.238008,0.705837 0.240092,1.666004 0.0044,2.162527 -0.362889,0.764776 -1.115416,1.067602 -2.651822,1.067284 -1.328818,-2.64e-4 -2.734951,-0.273834 -5.448239,-1.059798 -3.61682,-1.047695 -7.066161,-1.673416 -10.411603,-1.888718 -2.007093,-0.129173 -3.542701,-0.07832 -5.714568,0.189069 -1.989863,0.244979 -2.215375,0.327038 -1.147626,0.417977 2.15174,0.183267 4.878335,1.032837 7.525811,2.344993 2.063443,1.022695 4.530749,2.626468 5.569085,3.619839 0.672144,0.643039 0.741693,0.751527 0.739986,1.158188 -9.78e-4,0.246765 -0.0477,0.521348 -0.103884,0.610129 -0.07237,0.114359 0.002,0.284005 0.255317,0.581954 0.196584,0.23132 0.763146,1.064074 1.259,1.850641 0.631812,1.002191 1.096398,1.599468 1.553054,1.996124 1.189426,1.03317 1.455369,1.824335 1.216515,3.619179 -0.305101,2.2927222 -0.762574,3.026324 -2.279401,3.654393 -0.940239,0.3893228 -3.199307,0.9228865 -4.209052,0.994212 -0.371892,0.026272 -0.929722,0.098634 -1.239632,0.1608944 -0.309905,0.06226 -1.324146,0.2365888 -2.253868,0.3871653 -0.929726,0.1505765 -2.451082,0.4413284 -3.380803,0.6462245 l -1.690402,0.3726399 1.295976,0.071976 c 2.276338,0.126648 2.892719,0.3033888 4.013159,1.1500428 1.117347,0.8443154 2.107376,2.1171267 2.830107,3.63898748 0.329563,0.69396402 0.417806,1.02746522 0.458696,1.73376282 0.04633,0.7999571 0.0229,0.9253967 -0.273149,1.4724926 -0.556005,1.0273674 -1.722584,2.0781397 -3.447276,3.1047976 l -0.756938,0.4505554 1.038673,0.00729 c 1.65415,0.011644 3.704144,0.6732596 5.433939,1.7535718 0.430707,0.2689908 0.680295,0.3279288 1.237645,0.3541469 l -0.0024,-0.00773 c 0,0 3.061192,-1.1478755 3.794598,-1.1797589 0.701518,0.589899 0.175366,4.2249874 0.988493,9.9806364 0.01223,0.08659 0.01888,0.159055 0.02069,0.219221 0.182871,0.780162 0.370605,1.522585 0.542116,2.381969 0.247557,1.240448 0.634272,2.863233 0.859286,3.606189 1.279225,4.223828 3.536899,7.786637 7.432909,11.730471 1.48598,1.50419 2.618053,2.387018 4.474291,3.488871 2.481029,1.472722 5.327379,2.776052 8.986655,4.114856 l 2.076486,0.759575 0.191711,0.940073 c 0.310414,1.522013 0.822124,2.695867 1.534532,3.520128 1.219558,1.410966 3.028007,2.755891 4.186827,3.113815 0.793078,0.244954 2.017881,0.288868 2.831017,0.101472 0.490286,-0.113004 0.517292,-0.104007 1.295972,0.434263 1.03313,0.714189 1.424518,0.859296 3.722823,1.378736 1.054984,0.238433 2.245663,0.536303 2.645866,0.662076 0.400247,0.125767 0.750828,0.205546 0.779194,0.177181 0.02852,-0.02838 -0.384656,-0.495321 -0.917833,-1.037793 -1.644037,-1.672663 -3.011907,-3.493754 -3.011907,-4.009641 0,-0.37493 1.624023,-0.377953 4.507726,-0.0086 5.611687,0.718778 9.333189,2.915469 11.375218,6.714289 0.434954,0.809174 0.901263,2.232978 0.915402,2.795108 0.0068,0.272562 0.01106,0.274279 0.104994,0.04183 0.384695,-0.953522 0.412977,-3.688224 0.05239,-5.054479 -0.278257,-1.054348 -1.408417,-3.285677 -2.183648,-4.311185 -1.662481,-2.199255 -4.805322,-4.463749 -7.857947,-5.661746 -1.654815,-0.649429 -3.616596,-0.878249 -8.215642,-0.958557 -3.047043,-0.0532 -4.231254,-0.19811 -5.679534,-0.695089 -1.658054,-0.56895 -3.415305,-1.578098 -5.1335,-2.947861 -1.170874,-0.933395 -3.489502,-3.23581 -4.134699,-4.105604 -2.719037,-3.665715 -3.559776,-7.366287 -2.561572,-11.275953 0.353139,-1.383036 1.07747,-2.859354 1.295757,-2.641028 0.02769,0.02769 -0.08749,0.349636 -0.256193,0.715559 -0.270595,0.587012 -0.30718,0.804623 -0.311441,1.848654 -0.0044,0.650804 0.03278,1.441538 0.07837,1.757095 0.121903,0.842828 0.606313,2.443597 1.077856,3.561507 l 0.41332,0.979687 0.129867,-0.754297 c 0.280004,-1.625417 1.322503,-3.476332 3.090703,-5.487647 0.381461,-0.433872 0.899389,-1.093125 1.151153,-1.465012 0.548045,-0.809516 1.42192,-1.945478 2.049398,-2.664364 0.251168,-0.287763 0.71028,-0.892437 1.020185,-1.34374 0.309905,-0.451304 0.79593,-1.103336 1.080068,-1.448946 0.643915,-0.783303 1.837622,-2.763415 2.524345,-4.187042 l 0.520785,-1.079613 1.881663,-0.630603 c 2.378168,-0.797056 2.614174,-0.848141 2.614174,-0.565887 0,0.631596 1.271951,1.919456 2.563367,2.59525 0.471969,0.246985 0.59144,0.366348 0.592717,0.5912 0,0.355165 0.428741,1.264152 0.884824,1.883655 0.361613,0.491201 0.946923,0.876991 1.189236,0.784012 0.09175,-0.03523 0.184128,0.167612 0.273359,0.599562 0.06547,0.316925 0.165474,0.592286 0.241462,0.702574 l -0.01702,-0.002 c 0,0 0.412424,1.326652 0.914554,1.27286 0.502082,-0.0538 0.950328,-0.537551 1.075851,-0.985846 0.01747,-0.06257 0.03195,-0.130302 0.04447,-0.200077 l 0.257944,-1.025684 c 0.399646,-1.58827 0.876091,-5.896217 0.961874,-8.6976448 L 86.013177,5.7316357 86.4745,5.4712554 c 0.253722,-0.1432233 1.069887,-0.6031474 1.813685,-1.0217313 1.781698,-1.0027148 5.184522,-3.275761 6.868344,-4.58807299 2.287194,-1.78256391 4.945451,-4.48730981 5.539791,-5.63665301 0.18311,-0.3540294 0.0955,-0.3566077 -0.31054,-0.00905 -0.10222,0.087485 -0.761477,0.302831 -1.465025,0.4785052 -0.703548,0.1756743 -2.012508,0.5318221 -2.908873,0.7912776 -3.896051,1.1276653 -6.568239,1.5796883 -9.337285,1.5796883 -1.369826,0 -1.498881,-0.017368 -1.464596,-0.1972103 0.03322,-0.1736047 0.273658,-0.2107083 2.008679,-0.3099103 1.084074,-0.061981 1.961614,-0.1380325 1.950112,-0.1690402 -0.161981,-0.4367393 -0.118879,-0.4260251 -1.63778,-0.4100516 -1.090631,0.011448 -1.487767,-0.021086 -1.523544,-0.1252391 -0.03493,-0.1018096 0.128629,-0.1408701 0.589869,-0.1408701 0.351006,0 1.128409,-0.057128 1.727819,-0.1269954 1.016223,-0.1184631 1.120405,-0.1546616 1.540711,-0.5368366 0.247929,-0.2254147 0.936786,-0.774037 1.530829,-1.2191619 2.949294,-2.2099197 4.794456,-3.7946129 6.924479,-5.9465577 1.529766,-1.545452 2.242725,-2.533813 2.308025,-3.26239 0.3872,-0.221007 11.34493,-6.475558 16.44644,-9.461408 8.50463,-4.977659 21.69111,-16.006212 21.70163,-16.015018 z m -86.361047,7.016925 c 0.286525,0.05076 0.724673,0.143678 1.255468,0.31035 0.332478,0.131756 0.676116,0.262161 0.961829,0.395532 0.206961,0.09659 0.306584,0.114378 0.474782,0.175644 0.114236,0.05598 0.229109,0.114785 0.34445,0.177402 0.847892,0.460271 1.945337,1.299004 2.847285,2.036403 0.637144,0.538064 1.282424,1.079177 1.805298,1.560764 l 1.218492,1.185258 c 1.486152,1.518745 2.55642,2.953478 3.695142,4.857484 1.258276,2.103922 3.070385,6.013985 2.87676,6.207609 -0.08365,0.08363 -0.03493,0.165987 -1.007876,-1.694585 -0.478148,-0.914227 -0.887759,-1.662227 -0.910122,-1.662227 -0.06726,0 0.666919,1.6312 0.751424,1.669487 0.04296,0.01952 0.05026,0.108253 0.01619,0.197216 -0.03449,0.08971 0.0044,0.16178 0.08519,0.16178 0.11338,0 0.116702,0.03048 0.01404,0.133159 -0.07335,0.07336 -0.152014,0.111399 -0.174759,0.08452 -0.006,-0.0068 -0.07194,-0.156408 -0.0854,-0.180048 -0.342405,-0.795304 -1.442492,-3.325975 -2.073589,-4.459976 0.0064,-0.02862 -0.0044,-0.04545 -0.02896,-0.05217 -0.544718,-0.965787 -1.141061,-1.727398 -1.348618,-1.98336 -0.520399,-0.688651 -1.170576,-1.51534 -1.730461,-2.168687 -1.629472,-1.901566 -4.14713,-4.100473 -5.86443,-5.122052 -0.260498,-0.154951 -0.655975,-0.405145 -0.878689,-0.555761 -0.222675,-0.15062 -0.911874,-0.542546 -1.53168,-0.870954 -0.295551,-0.156599 -0.538334,-0.295639 -0.711601,-0.402796 z m 75.248197,1.091281 c 0,0 -6.25539,5.411282 -21.28388,13.460266 0.023,0.0229 -0.0354,0.08065 -0.3982,0.209979 -0.0937,0.04996 -0.19307,0.101501 -0.28741,0.151653 -1.16347,0.694908 -3.62606,2.139387 -4.57072,2.490261 -1.255211,0.466225 -0.82669,0.128619 -2.362798,0.240796 -1.536151,0.112176 -3.282497,0.703646 -4.307922,1.157968 -1.025377,0.454323 -1.747794,0.742271 -2.582227,1.192303 -0.814761,0.439406 -2.357772,1.467218 -2.357772,1.467218 -1.937842,1.455966 -3.888467,3.3865429 -4.983613,5.019044 -1.237533,1.8447309 -1.932735,3.8451654 -1.932735,5.5609342 0,1.03880074 0.08489,1.41055513 0.39288,1.71857697 0.429846,0.42983138 0.779917,0.1041971 1.471621,-1.36904847 l 0.49216,-1.0485757 0.427464,0.085836 c 0.235111,0.047211 1.365824,0.085136 2.512462,0.08386 2.591473,-0.00245 3.426508,-0.1545344 7.646647,-1.3923801 1.67662,-0.4917733 3.240927,-0.9282582 3.476337,-0.9699997 l 0.428099,-0.075934 -0.507106,0.5319932 c -0.926139,0.9716044 -3.926461,3.37871494 -6.479902,5.19864166 -1.199201,0.85472144 -3.874324,2.53128354 -5.860047,3.67266684 -1.468172,0.8439094 -6.136004,3.1779479 -6.592553,3.296504 -0.242357,0.06293 -0.220209,0.021233 0.158488,-0.2989025 1.669893,-1.4117782 3.117449,-2.3725999 4.949239,-3.2848455 2.031462,-1.0116581 4.297233,-2.3138258 4.19829,-2.4127832 -0.03195,-0.031996 -0.180596,0.022211 -0.330184,0.1201804 -0.478104,0.3132787 -2.563744,1.1606616 -4.017307,1.6322932 -2.396871,0.7776622 -3.005733,0.8689728 -5.747392,0.8623682 -2.249537,-0.00543 -2.51161,-0.02774 -3.662553,-0.3132077 -2.079295,-0.5157507 -3.148032,-0.9901954 -4.832152,-2.145358 -1.239876,-0.8504583 -2.298862,-1.99468902 -2.876761,-3.1087487 -0.692261,-1.3344792 -0.847255,-1.992372 -0.851815,-3.6112528 -0.0044,-1.544845 0.156995,-2.4891061 0.558862,-3.2681137 0.143879,-0.2789124 0.347811,-0.6972908 0.453187,-0.9297211 0.283115,-0.6245026 0.59668,-0.571812 0.826723,0.2834965 0.01747,0.065474 0.03919,0.1424406 0.0495,0.1875235 0,0 0.583392,2.0540253 2.764315,2.9923226 2.180879,0.9382974 4.590054,-0.1774061 4.590054,-0.1774061 0,0 -1.80048,0.075963 -3.905332,-0.7608961 -0.04589,-0.018248 -0.08962,-0.038013 -0.13357,-0.057671 -0.332181,-0.2031496 -0.648011,-0.4192493 -0.827834,-0.601988 C 71.19146,-7.1364129 71.05286,-7.2496119 70.956432,-7.312865 70.747857,-7.5764692 70.592858,-7.8531312 70.477947,-8.1171268 70.32261,-8.5761802 70.175453,-9.1314952 70.15241,-9.4421589 c -0.05316,-0.7160771 0.223228,-1.4792091 0.762198,-2.1052971 l 0.283707,-0.329719 -0.01194,0.05173 -0.01106,-0.02201 c 0,0 -0.02769,0.133003 -0.06137,0.33808 l -0.02979,0.130958 c -0.04452,0.19428 -0.06364,0.435874 -0.07002,0.690031 -0.04418,0.545193 -0.0431,1.1580223 0.124158,1.5501924 0.35876,0.8412626 0.59349,1.3673998 1.608303,1.9796225 1.232978,0.7438072 2.439591,1.2034623 5.220858,0.8163656 1.99134,-0.2771512 3.937958,-2.0014865 4.639163,-3.6742025 0.37354,-0.891096 0.222763,-1.756791 1.113507,-2.734139 0.558094,-0.61235 1.44189,-1.283076 2.827226,-1.908527 0.107245,-0.04653 0.160742,-0.06299 0.274254,-0.114452 0.24793,-0.112382 0.88184,-0.329651 1.408672,-0.482688 0.809179,-0.235057 1.184035,-0.365512 1.306745,-0.434929 0.02045,-0.0054 0.03919,-0.01096 0.05967,-0.01629 -0.01531,0.0029 -0.03195,0.0074 -0.04711,0.01057 0.152827,-0.09398 -0.31399,-0.03806 -1.571968,0.211075 -2.250864,0.445771 -4.090277,0.307464 -5.244243,-0.371534 -0.449269,-0.290772 -0.912167,-0.617839 -1.555232,-0.920259 -0.30011,-0.147769 -0.547829,-0.256266 -0.679698,-0.28041 -0.999353,-0.355869 -2.233862,-0.409655 -2.718953,-0.416436 -3.687984,-0.217103 -8.503736,0.214382 -8.503736,0.214382 l -0.3229,-0.466406 0.03493,-0.0029 c -0.02001,-0.02911 -0.03748,-0.03209 -0.05963,-0.06933 -0.01321,-0.0226 -0.0115,-0.02627 -0.02427,-0.04843 12.801482,-1.77231 22.19064,-0.506421 22.315737,-0.491054 1.211251,0.209544 2.416289,0.519699 3.644922,0.608367 0.417023,0.0089 1.048762,-0.01336 1.554806,-0.160454 3.057014,-0.936311 7.838484,-2.335442 14.398794,-5.298352 12.70748,-5.739221 16.84482,-9.558697 16.84482,-9.558697 z m -83.906236,0.750558 c 0.0524,-0.0015 0.170297,0.01331 0.382096,0.05393 0.113464,0.02177 0.220841,0.04633 0.322455,0.07263 0.05741,0.01316 0.115224,0.03116 0.176525,0.04887 0.0015,3.37e-4 0.002,9.78e-4 0.0034,0.0015 0.07422,0.02216 0.144798,0.04501 0.211285,0.06823 0,4.26e-4 0,9.78e-4 0.0044,0.0015 0.04565,0.01619 0.08804,0.02515 0.134042,0.04335 0,0.0015 -0.0044,0.0034 -0.0055,0.0044 0.43215,0.165855 0.666283,0.330375 0.666283,0.330375 l -0.0049,0.01057 c 0.439386,0.298962 0.931546,0.760603 1.170962,0.873822 0.0051,0.0044 0.01448,0.01272 0.01957,0.01693 0.519548,0.43989 2.61486,1.847079 3.585041,2.407717 1.181226,0.682599 1.941932,1.069857 2.578097,1.307205 0.350752,0.06958 0.856796,0.197151 1.543353,0.432942 0.866082,0.29743 1.277146,1.006086 1.294651,1.312264 0.01791,0.309768 -0.157338,0.656131 -0.157338,0.656131 l -0.0478,-0.03586 c 0.0044,0.06015 -0.209475,-0.0727 -0.92861,-0.575129 -0.371877,-0.259827 -1.259343,-0.79298 -1.972133,-1.184607 -3.116216,-1.712158 -3.820107,-2.124886 -4.800464,-2.815792 -0.571679,-0.40288 -1.395767,-1.036785 -1.831278,-1.408672 l -0.791928,-0.676161 0.0068,-0.007 c -0.147714,-0.120136 -0.378398,-0.303785 -0.579988,-0.446812 l -0.0051,0.0051 c -0.223814,-0.18951 -0.607036,-0.306109 -0.682109,-0.327733 4.25e-4,-4.31e-4 9.78e-4,-0.0015 0.0015,-0.0015 -0.211706,-0.07938 -0.405614,-0.163331 -0.292077,-0.167284 z m 11.99987,1.501113 c 0.271701,0.241471 2.58117,2.346744 4.304346,5.659544 0.02001,0.03987 0.04046,0.07713 0.06057,0.117313 0.04344,0.08497 0.08663,0.170616 0.129183,0.257083 1.081559,2.24854 1.960038,4.892621 1.787705,5.693879 -0.02681,0.123962 -0.0523,0.390208 -0.05703,0.591645 -0.0055,0.22952 -0.06116,0.355713 -0.149461,0.338081 -0.09213,-0.01844 -0.13519,0.09858 -0.124329,0.33808 0.01874,0.411299 -0.01404,0.457102 -0.123262,0.172338 -0.05626,-0.146584 -0.09613,-0.159099 -0.162876,-0.05106 -0.0552,0.08928 -0.206149,-0.229432 -0.401691,-0.848284 -0.997225,-3.155453 -2.563577,-5.895986 -4.434462,-7.758461 -0.338913,-0.33741 -0.559802,-0.584068 -0.695545,-0.753421 0.04129,-0.0044 0.100225,-0.0077 0.179828,-0.0066 0.05665,0.01937 0.124202,0.0317 0.190645,0.03126 0.04775,-3.32e-4 0.05273,-0.0076 0.07965,-0.01101 0.410042,0.05053 1.052984,0.217278 1.895127,0.712701 0.0044,0.0015 -0.03664,-0.08158 -0.09115,-0.195233 0.01067,-0.0081 0.01918,-9.79e-4 0.02979,-0.01145 0.08127,-0.08124 -0.516391,-1.213917 -1.148511,-2.283799 -0.0085,-0.01746 -0.0768,-0.156931 -0.0768,-0.156931 l -0.0115,0.0072 c -0.352753,-0.589776 -0.705168,-1.151207 -0.954164,-1.468979 -0.146432,-0.186892 -0.219651,-0.318609 -0.225825,-0.373956 z m -32.396288,3.594301 c 1.322766,0.01111 3.567074,0.14563 4.774504,0.309029 1.437987,0.194603 5.598953,0.992563 7.293822,1.398765 6.890858,1.651503 12.478748,3.719819 15.902531,5.88647 1.304528,0.825534 2.913898,1.977842 3.034137,2.172435 0.100053,0.161858 0.06781,0.146281 -0.597575,-0.289661 -2.519791,-1.650901 -4.935908,-2.917519 -7.459321,-3.910375 -3.995264,-1.571954 -11.543208,-3.534297 -17.016506,-4.424096 -0.588984,-0.09575 -1.5046,-0.244789 -2.034646,-0.331256 -0.530047,-0.08647 -1.975332,-0.273712 -3.211759,-0.416 -2.139974,-0.246276 -2.218139,-0.263771 -1.628118,-0.361853 0.163615,-0.0272 0.502003,-0.03713 0.942931,-0.03341 z m 0.922896,0.547399 c 0.999598,0.0547 4.585739,0.833078 6.360798,1.412189 0.80843,0.263756 2.319845,0.648059 3.446615,0.876458 4.319116,0.87549 13.071861,3.708478 13.626462,4.410451 0.06197,0.07845 0.670496,0.409416 1.352322,0.735593 2.025968,0.969251 4.333773,2.481577 5.289086,3.465765 0.566871,0.584013 0.471588,0.688269 -0.17676,0.193252 -1.567159,-1.196633 -4.489536,-2.862054 -6.341175,-3.61368 -0.664703,-0.269802 -0.592761,-0.148952 0.13336,0.22429 0.354588,0.182254 0.670026,0.362004 0.701034,0.399269 0.03111,0.03728 0.639532,0.390345 1.352322,0.784673 1.365653,0.7555 1.46941,0.82251 2.827269,1.826208 0.873068,0.645383 1.041736,0.960186 0.658314,1.228619 -0.116149,0.08131 -0.07079,0.09301 0.16245,0.04183 0.292141,-0.06414 0.306456,-0.05423 0.148776,0.103454 -0.09605,0.09603 -0.192944,0.174539 -0.215478,0.174539 -0.02255,0 -0.495311,-0.261799 -1.050552,-0.581954 -1.550379,-0.893977 -4.021525,-2.045307 -5.489614,-2.557398 -3.07143,-1.071345 -9.331705,-2.269934 -11.855948,-2.269934 h -0.624214 v -0.3722 c 0,-1.039691 -1.593881,-2.443235 -4.741927,-4.175819 -1.346798,-0.741234 -5.153343,-2.213589 -5.723159,-2.213589 -0.09115,0 -0.13498,-0.03077 -0.09728,-0.06845 0.02441,-0.02441 0.1145,-0.03136 0.257303,-0.02353 z m 22.34567,0.477409 c 1.774757,0.416656 3.490692,1.247312 4.453378,1.763919 1.631899,0.888097 3.897538,2.58209 5.199728,3.894745 0.714453,0.720192 1.633861,1.880313 1.633861,2.061501 0,0.06669 0.03792,0.121545 0.08451,0.121936 0.111037,9.79e-4 0.501872,0.689967 0.431422,0.760461 -0.02979,0.02994 -0.754194,-0.657868 -1.609414,-1.528407 -1.845416,-1.878424 -3.728273,-3.397672 -5.527265,-4.459536 -0.316168,-0.186608 -0.113596,0.04144 0.2254,0.253781 0.201422,0.126178 0.493011,0.346436 0.647961,0.489293 0.154955,0.142861 0.832094,0.736542 1.50485,1.319308 1.958801,1.696737 3.679036,3.778081 3.679036,4.45161 v 0.332577 l -0.338056,-0.323996 c -0.185963,-0.178145 -0.338105,-0.281911 -0.338105,-0.230664 0,0.05125 0.08864,0.158033 0.196995,0.237274 0.108395,0.07924 0.162832,0.17836 0.121091,0.220101 -0.04173,0.04173 -0.599493,-0.423745 -1.239411,-1.03427 -1.655368,-1.579282 -2.127724,-1.953512 -4.340462,-3.440011 -0.96383,-0.647472 -3.629418,-1.962901 -4.968879,-2.451964 -0.851214,-0.3108 -1.019843,-0.335384 -1.915784,-0.279974 -0.773425,0.04785 -1.162122,0.01248 -1.827524,-0.166178 l -0.845196,-0.226926 0.901546,0.07703 c 1.313579,0.112245 2.077973,0.04997 2.623206,-0.213722 0.555492,-0.268663 1.034535,-0.840402 1.14498,-1.366627 0.02896,-0.13746 0.05967,-0.210547 0.102137,-0.261266 z m -10.501413,8.934698 c 0,0 4.881124,0.358286 8.581667,1.591797 2.076061,0.692017 3.909341,1.730333 5.119403,2.508749 0.07006,0.03244 0.117724,0.05414 0.193458,0.08958 0.746312,0.50806 1.209078,0.890714 1.289367,0.958116 -0.05124,-0.0206 -2.092626,-0.840641 -3.153658,-1.08952 -1.048507,-0.245948 -1.992618,-0.497027 -2.038831,-0.509322 0,4.26e-4 -0.0044,4.26e-4 -0.0044,9.79e-4 0.08446,0.02652 3.571749,1.122973 3.951761,1.489889 0.384656,0.371378 0.651332,0.569018 0.424352,1.233682 -0.795588,-0.310292 -2.150336,-0.705006 -3.51595,-1.018204 -1.82097,-0.372248 -3.915148,-0.622981 -6.133184,-0.698171 -1.826967,-0.06193 -2.134177,-0.09744 -2.093419,-0.241672 0.187333,-0.662805 -0.06775,-1.156139 -1.195165,-2.311979 -0.48463,-0.496847 -0.976585,-1.073923 -1.093262,-1.282327 l -0.212176,-0.378799 0.0094,9.78e-4 -0.02446,-0.01189 z m 40.986321,0.12656 v 2.2e-4 c 0.128033,0.01125 0.286266,0.01825 0.477845,0.02025 0.616914,0.02309 1.233658,0.06515 1.877705,0.128101 0.88048,0.132039 1.441255,0.327924 1.67982,0.423701 l -0.244099,0.02578 c -0.216926,0.02285 -0.673352,0.0078 -1.014221,-0.03346 -0.747804,-0.09049 -1.729653,-0.09842 -1.908542,-0.03831 0.24495,0.01071 3.992523,0.203766 5.154836,2.077352 -0.0819,-0.05132 -0.159383,-0.09875 -0.235067,-0.144613 0.0077,0.01849 0.05984,0.05682 0.04975,0.06691 -0.06708,0.06713 -0.194818,0.05955 -0.344235,-0.0205 -0.130586,-0.06992 -0.237494,-0.104598 -0.237494,-0.07704 0,0.02754 -0.251085,-0.0161 -0.557967,-0.09706 -0.307522,-0.08114 -0.573045,-0.101858 -0.591616,-0.04623 -0.0183,0.05551 -0.290781,0.0034 -0.60507,-0.116213 -1.264964,-0.480673 -3.797578,-0.564356 -5.584515,-0.184451 -0.410722,0.08732 -1.292352,0.42533 -1.959144,0.750999 -0.981124,0.479219 -1.366245,0.744135 -2.019235,1.389298 -0.443736,0.438437 -1.057666,1.150502 -1.364421,1.58233 -0.363956,0.512345 -0.570276,0.720519 -0.593617,0.599341 0,-0.01194 0.01365,-0.04501 0.01492,-0.06162 l -0.03068,0.03503 c 0,0 0.139578,-0.621958 0.500721,-1.246671 4.26e-4,-3.53e-4 2.55e-4,-0.0015 0,-0.0015 0.173355,-0.299524 0.397307,-0.599669 0.681909,-0.831997 0.01023,-0.0084 0.01957,-0.01556 0.0298,-0.02353 -0.01492,-0.0081 -0.01194,-0.0183 -0.03322,-0.02642 -0.0081,-0.0029 -0.03068,0.01067 -0.04129,0.01057 -0.404161,0.237484 -0.930865,0.593118 -1.488573,1.089295 -0.21995,0.201545 -0.431979,0.409332 -0.633015,0.615853 -0.372391,0.398134 -0.741371,0.859912 -1.079642,1.3937006 -1.605965,2.5344288 -1.337542,4.7667457 -1.233448,5.8453163 0.198869,0.8641833 0.63212,2.0147594 1.218282,3.12019869 1.549996,2.92318211 4.859074,5.07908311 8.785237,5.72337511 1.361054,0.223355 1.337243,0.2809966 -0.233962,0.5654471 C 74.111548,5.9587235 72.366307,5.9168304 71.099979,5.5912939 68.993811,5.0498389 67.291887,4.0721141 65.876269,2.5903901 64.943446,1.6140201 64.486384,0.96125446 63.848897,-0.30618009 63.207746,-1.5808798 62.972551,-2.5599597 62.90487,-4.2352639 c -0.05086,-1.2581587 -0.02471,-1.6064298 0.180679,-2.4187298 0.436148,-1.724756 1.222499,-3.0898906 2.647227,-4.5953373 0.920303,-0.97249 2.044583,-1.820866 3.335442,-2.547051 1.273139,-0.667174 2.427194,-1.120283 3.399077,-1.429141 0.135787,-0.03547 0.202998,-0.04432 0.380096,-0.09508 0.668069,-0.191511 1.292014,-0.348203 1.386441,-0.348203 0.06508,0 0.09404,-0.01727 0.101286,-0.03919 0.783665,-0.152397 1.233868,-0.171237 1.233868,-0.171237 0,0 -1.911991,0.04726 -4.18372,0.442629 -0.100988,0.01355 -0.182724,0.02882 -0.258409,0.04555 -0.841463,0.154696 -1.722496,0.356887 -2.569282,0.623554 -3.204601,1.009182 -5.664715,3.476772 -5.726691,3.539281 -0.353986,0.300463 -0.667854,0.521362 -0.698818,0.490389 -0.08182,-0.08183 1.380472,-1.550192 1.543818,-1.550192 0.07509,0 0.104564,-0.0319 0.06559,-0.07088 -0.165729,-0.165733 -3.292297,1.529591 -5.319503,2.884251 -0.925582,0.6185095 -2.061402,1.3608734 -2.331103,1.5235585 -0.473074,0.2853703 -1.610559,1.0907867 -2.852778,2.0201213 -1.691234,1.2652281 -4.583116,4.1439261 -6.066749,6.03922428 C 46.638038,0.78956751 45.868937,1.9550682 45.541698,2.5776015 45.327027,2.9859996 45.097581,3.3877 45.031691,3.4703463 c -0.102862,0.1290453 -0.200871,0.582174 -0.12586,0.582174 0.01404,0 0.257474,-0.3676595 0.540545,-0.817026 0.232215,-0.368633 0.566229,-0.7992374 0.839501,-1.1324328 0,0.00294 -0.0044,0.00616 -0.0049,0.00925 0.519845,-0.6875629 1.064139,-1.34029422 1.623936,-1.96376938 0.0183,-0.0190312 0.01791,-0.0147749 0.0362,-0.0340996 0.695755,-0.73459492 1.259514,-1.31706742 1.783704,-1.84073392 4.308216,-4.1041758 9.108342,-6.608546 11.660716,-8.1181075 0.02554,0.091301 -0.135019,0.4580308 -0.530237,1.1982471 -0.303986,0.5693022 -0.585569,1.212425 -0.625775,1.4293613 -0.05907,0.3189366 0.006,0.2434478 0.339421,-0.3944255 0.41311,-0.7899029 0.722037,-1.2247881 0.808411,-1.1383844 0.02515,0.025342 -0.05337,0.2665005 -0.17497,0.5359561 -0.634889,1.4068663 -0.804154,2.3608436 -0.766415,4.3213126 0.02598,1.356573 0.0595,1.5567725 0.449269,2.7046432 1.259171,3.7085375 4.57366,6.991069 7.994625,7.9173752 l 0.76663,0.2075576 -1.724541,1.1401407 c -1.176965,0.7780683 -1.79388,1.2593671 -1.942871,1.5158579 -0.267822,0.4610791 -0.400159,0.5683101 -1.210571,0.9814481 -0.561714,0.286344 -1.480398,0.834262 -2.797069,1.668171 -1.077857,0.682629 -1.79388,1.236476 -1.794736,1.388638 0,0.124999 0.0431,0.110312 0.169055,-0.05635 0.09366,-0.123962 0.180845,-0.202162 0.193668,-0.173879 0.01277,0.02828 0.834731,-0.431651 1.826424,-1.022162 3.009607,-1.79207 3.030262,-1.800959 2.702681,-1.144323 -0.224206,0.449405 -0.346026,0.551053 -1.30743,1.088414 -0.961785,0.53756 -3.412491,2.203662 -4.381605,2.978893 -1.1529,0.92224 -3.3794,3.091466 -4.150287,4.043535 -0.943899,1.165684 -2.038917,3.102591 -2.474854,4.377438 -0.47444,1.387336 -0.622238,2.470534 -0.552047,4.047282 0.08953,2.009647 0.464606,3.355159 1.508597,5.411268 1.198091,2.359572 2.440398,3.834314 4.59798,5.458586 2.124142,1.599082 3.306988,2.188643 5.769406,2.87567 0.569934,0.159021 1.102431,0.288526 1.183272,0.287675 0.08084,-9.79e-4 -0.436152,-0.261574 -1.148942,-0.579312 -4.672984,-2.083081 -7.954635,-5.47026 -9.338815,-9.639034 -0.460384,-1.386549 -0.59621,-2.248423 -0.55579,-3.528939 0.01531,-0.486607 0.04261,-0.747301 0.106095,-0.90727 l -0.02255,-0.0099 c 0,0 0.05375,-0.555907 0.430315,-0.645569 0.376564,-0.08966 0.502082,0.01796 0.537948,0.143512 0.0044,0.01492 0.009,0.03439 0.01365,0.05679 0.02172,0.06349 0.03576,0.150268 0.04315,0.257082 0.0055,0.03664 0.009,0.06506 0.01365,0.09706 0.01575,0.153189 0.07637,-0.07401 0.159765,-0.625755 0.404249,-2.673493 1.258662,-5.058652 2.454835,-6.853608 0.695544,-1.043732 0.769698,-1.137518 1.900621,-2.404204 0.780255,-0.873944 1.071379,-1.121511 1.184803,-1.008077 0.02769,0.02789 -0.327709,0.675661 -0.790182,1.439483 -1.027167,1.696498 -1.436993,2.501993 -2.05357,4.036495 -0.804536,2.002333 -1.003527,3.027553 -1.006081,5.184337 -0.0044,2.066496 0.128287,3.014959 0.637399,4.620435 1.102558,3.476807 3.524727,6.556418 6.848329,8.707111 1.654855,1.070846 3.872793,2.085493 5.691037,2.603612 l 0.563461,0.160679 -1.239622,-0.01101 C 65.504289,42.860445 63.383552,42.54964 60.900987,41.60894 57.90271,40.472836 55.927892,39.26136 53.552366,37.100764 51.140544,34.9072 49.045962,31.60526 48.241255,28.727991 c -0.582541,-2.082724 -0.745799,-3.249029 -0.740902,-5.292188 0.0044,-1.022695 0.06764,-2.265145 0.144858,-2.760993 0.192562,-1.236755 0.731405,-3.246901 1.083986,-4.044196 0.530707,-1.199999 0.218546,-0.771214 -0.42103,0.578431 -1.476055,3.114612 -1.922046,5.289517 -1.756445,8.563164 0.163771,3.237889 1.463237,6.532299 3.556886,9.017457 0.684849,0.812897 0.479126,0.746978 -0.284818,-0.09134 -1.215512,-1.333809 -1.893463,-2.316348 -2.877656,-4.169875 -1.832345,-3.450955 -2.611241,-6.796642 -2.683066,-11.526211 -0.01228,-0.807006 -0.05825,-1.266563 -0.116433,-1.162591 -0.195312,0.349005 -0.262151,1.316431 -0.25444,3.680367 0.0067,2.050209 0.04589,2.600681 0.255541,3.578019 0.282083,1.31488 0.764337,2.8145 1.265822,3.937009 0.476485,1.066531 0.141961,0.663862 -0.615209,-0.740651 C 44.39842,27.552518 44.01919,26.720643 43.67473,25.874552 43.509432,25.67651 43.262291,25.1689 42.903927,24.228176 40.357321,17.543344 39.985997,10.115888 41.31235,5.3940592 42.638708,0.67223447 46.644363,-4.8454172 46.644363,-4.8454172 l 0.135362,-0.1483505 c 0.0072,-0.00988 0.0044,-0.00827 0.0115,-0.018297 2.636455,-3.4528387 7.247893,-6.8445093 11.968411,-8.8024193 4.249058,-1.762349 9.099316,-2.672579 15.817137,-2.968331 0.939981,-0.04139 1.748347,-0.04937 2.536058,-0.03239 z m 21.691279,1.057162 c 0.939599,-0.01135 1.301971,0.334979 1.02589,1.014021 -0.192347,0.473089 -2.324288,2.669399 -4.219156,4.346405 -1.590373,1.407493 -3.07171,2.5697813 -3.161152,2.4803542 -0.03068,-0.030871 0.235963,-0.3042499 0.592976,-0.607487 0.357009,-0.3032274 1.171344,-1.0548966 1.809682,-1.6703732 0.638339,-0.615476 1.261173,-1.18945 1.38401,-1.275506 0.122881,-0.08606 0.205126,-0.191056 0.182934,-0.233311 -0.03963,-0.07507 0.296065,-0.443535 0.454724,-0.499415 0.04398,-0.01551 0.281368,-0.246623 0.527595,-0.513721 0.246187,-0.267102 0.692051,-0.737741 0.99067,-1.045939 0.599492,-0.61868 0.66027,-0.820616 0.304621,-1.010943 -0.548255,-0.293418 -2.978643,0.438667 -4.832836,1.455775 -1.188042,0.651723 -3.059783,1.965146 -4.02127,2.821736 -2.216784,1.9748381 -3.503044,3.758811 -5.275931,7.316933 -0.619811,1.243966 -1.16108,2.26432746 -1.20265,2.26773742 -0.145029,0.0116438 -0.225273,-0.68375862 -0.146135,-1.26626532 0.42265,-3.111593 3.424121,-7.3174317 7.115765,-9.9705051 2.737486,-1.967367 4.964406,-3.022386 7.340445,-3.477872 0.439259,-0.0842 0.816635,-0.127842 1.129818,-0.131624 z m -21.47491,2.786301 c 0.398457,1.5e-5 0.721478,0.323037 0.721478,0.721503 0,0.398467 -0.323021,0.721493 -0.721478,0.721503 -0.398496,-10e-6 -0.721523,-0.323031 -0.721523,-0.721503 0,-0.398466 0.323027,-0.721488 0.721523,-0.721503 z m -2.961731,0.02994 c 0.104094,-0.0058 0.09145,0.104197 0,0.435365 -0.06466,0.234147 -0.06751,0.522928 -0.0068,0.726346 0.0995,0.333702 0.100899,0.334162 0.110483,0.04134 0.0055,-0.162862 0.07599,-0.351271 0.157167,-0.418638 0.117984,-0.09793 0.14929,-0.01429 0.155806,0.416881 0.0115,0.768905 0.275361,1.202714 0.934995,1.536983 1.019931,0.5168322 1.993346,0.2839029 2.751541,-0.658328 0.317019,-0.39398 0.348878,-0.506871 0.348878,-1.239626 v -0.806244 l 0.529767,-0.01277 0.530027,-0.01277 0.174334,0.511744 c 0.222459,0.652922 0.22084,1.196809 -0.0055,1.861204 -0.21105,0.6193163 -0.945048,1.4200899 -1.615118,1.7619374 -0.858288,0.4378646 -2.299885,0.3902181 -3.096882,-0.1023478 -0.191496,-0.1183408 -0.386231,-0.2188932 -0.432742,-0.2234039 -0.04648,-0.0044 -0.08565,-0.032338 -0.08736,-0.061849 0,-0.029501 -0.127098,-0.1875234 -0.278643,-0.3510695 -0.780471,-0.8421332 -0.991776,-3.1043332 -0.314333,-3.3642972 0.0621,-0.02387 0.109676,-0.03855 0.144387,-0.04051 z m -35.566908,2.884026 0.0832,0.01257 c 5.428924,0.861943 7.681336,1.7867717 7.920454,1.8893739 -0.05661,0.033317 -0.692643,0.041389 -1.539175,0.012329 -1.47357,-0.050557 -1.768265,0.024021 -0.748148,0.1892945 0.177895,0.028816 0.370347,0.1260757 0.508903,0.2302238 -2.771523,0.046282 -8.342311,0.9490703 -9.25871,1.1000822 l 0.435365,-0.184226 c 1.404121,-0.5940037 2.030498,-1.2674932 2.409043,-2.5897465 z m -4.680083,5.1517682 c 0.126722,-1.419e-4 0.246814,9.785e-4 0.35855,0.00342 1.787838,0.038013 3.486895,0.076154 3.486895,0.076154 l -0.0339,0.00925 c 1.188076,-0.051785 2.32238,-0.068972 3.158941,-0.054584 0.841918,0.014481 1.384895,0.060455 1.384895,0.1336001 0,0.1059583 -0.06214,0.1186686 -1.634052,0.3413827 -2.318506,0.3284914 -6.437153,1.4154572 -8.751133,2.3091169 -0.56075,0.2165595 -1.052568,0.3910204 -1.092817,0.388041 -0.04026,-0.00294 -0.240136,-0.2689957 -0.444171,-0.5914157 -0.20404,-0.3224298 -0.749012,-0.9793832 -1.211236,-1.4597329 -0.462224,-0.4803595 -0.827867,-0.8752106 -0.812403,-0.8773388 0.0091,-0.00147 0.325287,-0.016634 0.547175,-0.027935 0.646386,-0.048777 3.364502,-0.2473128 5.043251,-0.2491572 z m 8.166978,3.2731675 v 2.251e-4 2.152e-4 l -0.281736,0.441754 c -0.0024,0.012378 -0.01428,0.027104 -0.0273,0.042906 l -0.02265,0.03542 -0.04908,0.02226 c -0.176619,0.14567926 -0.581069,0.34918111 -0.922016,0.41269349 -0.326495,0.0608216 -1.075386,0.2223178 -1.664213,0.35899027 -1.148898,0.26667666 -1.11654,0.41404868 0.04643,0.2115204 0.05167,-0.009002 0.09029,-0.005871 0.141746,-0.0138942 0.01727,-0.004892 0.03444,-0.009687 0.05327,-0.0142856 0.806928,-0.19724944 2.187615,-0.30484672 2.187615,-0.30484672 0,0 0.018,0.25105542 -0.08958,0.60969344 -0.107592,0.35863312 -0.7532,0.50205701 -0.7532,0.50205701 l -0.0086,-0.001468 c -0.268296,0.09316 -0.71437,0.19955374 -1.239631,0.27909343 -0.278917,0.0422698 -1.522854,0.32620668 -2.764291,0.63103878 -1.241441,0.3048251 -2.771771,0.7276311 -3.400613,0.9393986 -0.628842,0.2117699 -1.16833,0.3598611 -1.198912,0.329279 -0.03058,-0.030577 -0.0052,-0.2005811 0.05657,-0.3777034 0.116736,-0.3348637 0.01859,-1.1666577 -0.250038,-2.11805678 -0.04736,-0.16778286 -0.05795,-0.25663758 -0.06383,-0.34468505 l -0.02485,-9.7847e-4 c 0,0 -0.08057,-0.26002797 -0.116438,-0.34071737 -0.03586,-0.0806943 1.551029,-0.5020668 2.895914,-0.67242303 1.344881,-0.1703513 6.464398,-0.6007258 6.858897,-0.6096885 0.394499,-0.009 0.636538,-0.018053 0.636538,-0.018053 z m 18.05386,3.2837399 c -0.0478,-0.040166 -0.0432,0.082167 -2.55e-4,0.4388851 l 0.06891,0.5724897 -1.313134,0.4210594 c -3.333828,1.0686978 -5.915717,2.9984332 -7.765737,5.804157 -1.081428,1.6400942 -3.107865,5.6603272 -3.107865,6.1657842 0,0.0024 0.09323,-0.06673 0.103453,-0.07175 0,-0.0029 4.83974,-6.527754 8.777953,-8.5156201 2.822411,-1.4246402 4.663317,-2.0906152 5.490724,-2.3579816 -0.895685,-0.8727156 -1.984652,-2.0255935 -2.188247,-2.3654576 -0.02813,-0.04682 -0.04988,-0.07818 -0.06581,-0.091565 z M 38.71642,2.5207379 h 2.2e-4 c 0.153937,-0.00147 0.301774,2.641e-4 0.441969,0.0066 2.244303,0.1014378 0.304407,0.3044015 0.304407,0.3044015 l -0.213943,0.040068 C 39.05315,2.9317729 38.819267,2.9978537 38.419719,3.083773 36.79074,3.4340647 34.171713,4.13865 33.066782,4.5239219 32.455245,4.7371546 31.783947,4.9954703 30.146436,5.6479913 29.841844,5.7693703 29.48686,5.946659 29.35758,6.0417563 c -0.230967,0.1699013 -0.23018,0.1713347 0.04667,0.092451 0.117901,-0.03361 0.325125,-0.1117117 0.509097,-0.1818092 0.316187,-0.1269367 1.959344,-0.7715321 3.323798,-0.9779253 1.508887,-0.2282327 2.789501,-0.1394513 3.550285,-0.1901703 0.760784,-0.050719 2.599507,-0.4438234 2.738978,-0.3931094 0.135982,0.049447 0.21037,0.088028 0.131848,0.2661091 5e-6,4.257e-4 0.0015,9.785e-4 0.0015,0.00147 0,0.00391 -0.0058,0.00773 -0.0062,0.011693 -0.0085,0.090323 -0.143047,0.1801165 -0.366035,0.2733694 -0.110415,0.049902 -0.208188,0.081658 -0.230008,0.081658 -9.79e-4,0 -0.04266,0.00665 -0.04599,0.00705 -0.151198,0.050122 -0.255977,0.09679 -0.474548,0.1527536 -0.702212,0.1797886 -2.392683,0.7990515 -2.335971,0.8557635 0.02578,0.025783 0.614405,-0.1116334 1.308085,-0.3052821 0.724928,-0.2023717 1.375663,-0.3233545 1.530168,-0.2845973 0.264358,0.06635 0.275801,0.1153956 0.182465,0.7776328 -0.0071,0.050132 -0.05931,0.062505 -0.115997,0.027495 -0.05669,-0.035029 -0.120083,-0.020499 -0.140865,0.032583 -0.02079,0.053052 -0.620824,0.287293 -1.333614,0.5205452 -0.712777,0.2332442 -1.699361,0.6212216 -2.192235,0.862145 C 34.946136,7.9124998 34.48973,8.1037072 34.424769,8.0963785 34.359809,8.08904 33.951817,7.9046329 33.517944,7.686547 32.438058,7.1437417 31.455705,6.8124176 30.154748,6.5523505 29.549839,6.4314265 29.029867,6.3074447 28.999196,6.2767746 c -0.09311,-0.093106 0.762095,-0.7156909 1.63032,-1.1867989 0.450721,-0.2445682 0.817833,-0.4891315 0.815705,-0.5436615 -0.0039,-0.097182 0.23221,-0.3704775 0.631919,-0.7316253 0.211237,-0.1908551 0.457948,-0.3276255 0.650407,-0.3805655 l -0.0099,-0.00641 c 0,0 3.688591,-0.8803182 5.998946,-0.9068298 z m 46.389854,4.2363522 c 0.31834,0 -0.420135,7.5439079 -1.021932,10.4404339 -0.103879,0.500002 -0.393256,0.628216 -0.589654,0.261266 -0.0716,-0.133757 -0.227401,-0.52626 -0.346447,-0.872276 -0.254025,-0.738303 -0.494674,-1.039334 -0.8309,-1.039334 -0.689366,0 -1.442918,-1.631718 -1.821566,-3.944269 -0.172548,-1.053732 -0.143326,-2.5351385 0.05392,-2.7323781 0.04894,-0.048948 0.271785,0.5838863 0.495228,1.4062501 0.376265,1.384865 1.181143,3.536346 1.284303,3.433191 0.02471,-0.02461 -0.06453,-0.496079 -0.198101,-1.0477 C 81.831697,11.42573 81.791277,9.1916515 82.05697,8.5601872 l 0.165939,-0.3944255 0.140004,0.8452009 c 0.07705,0.4648557 0.308413,1.5298104 0.513926,2.3665624 l 0.37354,1.521362 -0.01747,-0.957896 c -0.01531,-0.835054 0.0064,-0.95387 0.169265,-0.927079 0.138982,0.0229 0.209813,-0.09262 0.276897,-0.450776 l 0.09021,-0.481587 0.0733,0.450775 c 0.05529,0.340419 0.07705,0.374905 0.08915,0.140866 0.01918,-0.370287 0.238223,-0.419979 0.248487,-0.05635 0.0068,0.248217 0.0093,0.24856 0.101922,0.01937 0.05213,-0.12881 0.203722,-0.9094959 0.336995,-1.7348585 0.327752,-2.030273 0.353775,-2.1442596 0.487091,-2.1442596 z M 70.929813,8.0893824 c 0.0077,0.011595 0.0051,0.036595 -0.0094,0.076379 -0.149667,0.4126641 -0.86229,1.6836652 -1.232166,2.1975226 -0.200738,0.278918 -0.383418,0.590662 -0.405869,0.692668 -0.04359,0.198042 -0.740857,1.074612 -1.252395,1.574409 -0.516269,0.504459 -0.347386,0.490081 0.264798,-0.02246 0.31604,-0.264622 0.860803,-0.839927 1.210786,-1.278364 0.349984,-0.438442 0.667218,-0.822559 0.704571,-0.853567 0.03748,-0.03102 0.287288,-0.411328 0.55575,-0.8452009 0.58987,-0.9532679 0.546891,-0.8961253 0.621132,-0.8218694 0.102309,0.102294 -0.474401,1.5081483 -0.959447,2.3386133 -0.855646,1.465114 -2.14787,2.959113 -4.679628,5.410822 -1.3608,1.317777 -2.197278,2.080616 -2.197278,2.003175 0,-0.12135 0.579733,-1.590295 0.791459,-2.005371 0.12701,-0.248947 0.222763,-0.661014 0.222763,-0.959217 0,-0.68778 0.256916,-1.202357 0.782046,-1.566264 0.235067,-0.162925 0.548255,-0.426671 0.695965,-0.585917 0.246867,-0.266138 0.226251,-0.261031 -0.254877,0.0614 -0.287924,0.192944 -0.554385,0.350629 -0.59187,0.350629 -0.128503,0 -0.06815,-0.858131 0.07284,-1.036251 0.07748,-0.09789 0.45804,-0.390987 0.845421,-0.651289 0.80637,-0.541822 0.905098,-0.673279 0.257988,-0.343144 -0.641063,0.327039 -0.906502,0.302778 -0.903523,-0.08232 0.0044,-0.412845 0.284138,-0.739698 0.89909,-1.04704 0.714453,-0.357048 2.727222,-1.6751964 2.895288,-1.8959731 0.187113,-0.2458793 0.1961,0.023826 0.01194,0.358545 -0.07453,0.1353858 -0.145538,0.3055953 -0.157847,0.3783591 -0.01238,0.072764 -0.318853,0.4250124 -0.681444,0.782697 -0.362547,0.357684 -0.559156,0.612301 -0.436872,0.565887 0.431035,-0.163629 1.142083,-0.793596 1.696341,-1.503094 0.621431,-0.7955241 1.181227,-1.3742441 1.234553,-1.2937749 z m -1.502888,6.2745166 -0.193668,0.39443 c -0.264505,0.538329 -1.045274,1.557546 -2.072098,2.704644 -0.471588,0.526841 -1.111843,1.262165 -1.422727,1.634051 -0.548173,0.655692 -1.712105,2.064305 -2.014173,2.437659 -0.291887,0.360732 -1.618313,2.419116 -1.951261,3.027978 -0.186389,0.340898 -0.465712,1.025508 -0.620662,1.521362 -0.154995,0.495863 -0.327371,1.079103 -0.382997,1.295971 -0.176291,0.687614 -0.239754,0.210263 -0.134721,-1.014016 0.127651,-1.487076 0.681058,-4.248299 1.11883,-5.582069 0.296148,-0.902358 0.84206,-1.946643 0.957441,-1.831272 0.02343,0.02319 -0.03195,0.318775 -0.122367,0.656792 -0.23971,0.895382 -0.644684,3.046471 -0.584841,3.106334 0.02813,0.02818 0.169985,-0.265831 0.314974,-0.65349 0.315737,-0.844306 1.129094,-2.231109 1.290052,-2.199504 0.06308,0.01238 0.519503,-0.385287 1.014217,-0.883939 0.494758,-0.498656 1.377453,-1.33535 1.96157,-1.859222 0.584116,-0.523876 1.129304,-1.019505 1.211466,-1.101403 0.08216,-0.0819 0.149461,-0.111756 0.149461,-0.06625 0,0.09461 0.697795,-0.623372 1.166315,-1.200008 z m 6.012615,31.051454 1.577677,0.06537 c 0.867745,0.03601 2.034148,0.08201 2.591943,0.102348 1.257939,0.04584 1.824037,0.112318 3.324498,0.389587 0.650775,0.120258 1.41148,0.245096 1.690378,0.277552 0.646733,0.07525 0.967925,0.177323 2.122914,0.673734 2.231094,0.958904 4.038095,2.373481 5.213187,4.081397 0.384318,0.558622 1.201926,2.18423 1.509449,3.001124 0.111335,0.295791 0.174289,0.565716 0.139999,0.600007 -0.03405,0.0343 -0.09515,-0.0411 -0.135356,-0.16772 -0.111423,-0.351001 -0.968518,-1.471851 -1.579938,-2.066124 -2.34942,-2.28352 -6.544471,-3.828981 -11.55262,-4.255716 -1.493343,-0.12725 -4.507725,-0.0385 -4.507725,0.13272 0,0.05522 0.108698,0.313966 0.241671,0.574913 0.536416,1.052475 1.325277,2.105899 2.325614,3.105894 0.579728,0.579508 1.033385,1.074114 1.008297,1.099202 -0.02515,0.0251 -0.421411,-0.231795 -0.880817,-0.570731 -0.724164,-0.534215 -1.350409,-1.068209 -1.884564,-1.569346 0,-9.79e-4 -0.0044,-9.79e-4 -0.0044,-0.0015 -0.202871,-0.114114 -1.699028,-1.483539 -2.028698,-2.168247 -0.329666,-0.684702 -0.136849,-1.133193 0.07615,-1.356724 0.513544,-0.538882 1.331285,-0.83686 2.764061,-1.001693 1.348447,-0.155131 5.877126,0.838313 6.422656,0.959438 0.03703,-0.0044 0.186643,0.01443 0.186643,0.0044 0,-0.0408 -1.077386,-0.335703 -2.394527,-0.655256 -3.166006,-0.768132 -3.795489,-0.902711 -5.113906,-1.093478 z" />
    </g>
  </g>
</svg>
