<?xml version="1.0" encoding="UTF-8" standalone="no"?>
<!-- Created with Inkscape (http://www.inkscape.org/) -->

<svg
   width="338.66666mm"
   height="169.33333mm"
   viewBox="0 0 338.66665 169.33333"
   version="1.1"
   id="svg1"
   inkscape:version="1.4 (e7c3feb100, 2024-10-09)"
   sodipodi:docname="sailfish logo-vecto.svg"
   xmlns:inkscape="http://www.inkscape.org/namespaces/inkscape"
   xmlns:sodipodi="http://sodipodi.sourceforge.net/DTD/sodipodi-0.dtd"
   xmlns:xlink="http://www.w3.org/1999/xlink"
   xmlns="http://www.w3.org/2000/svg"
   xmlns:svg="http://www.w3.org/2000/svg">
  <sodipodi:namedview
     id="namedview1"
     pagecolor="#ffffff"
     bordercolor="#000000"
     borderopacity="0.25"
     inkscape:showpageshadow="2"
     inkscape:pageopacity="0.0"
     inkscape:pagecheckerboard="0"
     inkscape:deskcolor="#d1d1d1"
     inkscape:document-units="mm"
     inkscape:zoom="0.75098906"
     inkscape:cx="517.98358"
     inkscape:cy="456.06523"
     inkscape:window-width="2492"
     inkscape:window-height="1052"
     inkscape:window-x="68"
     inkscape:window-y="0"
     inkscape:window-maximized="1"
     inkscape:current-layer="g5"
     showguides="true">
    <sodipodi:guide
       position="-276.93378,562.44142"
       orientation="0,-1"
       id="guide5"
       inkscape:locked="false" />
    <sodipodi:guide
       position="52.315834,84.666659"
       orientation="0,1"
       id="guide6"
       inkscape:locked="false"
       inkscape:label=""
       inkscape:color="rgb(0,134,229)" />
  </sodipodi:namedview>
  <defs
     id="defs1">
    <linearGradient
       id="linearGradient11"
       inkscape:collect="always">
      <stop
         style="stop-color:#12e0ff;stop-opacity:1;"
         offset="0.33307755"
         id="stop11" />
      <stop
         style="stop-color:#ffffff;stop-opacity:1;"
         offset="0.37952051"
         id="stop13" />
      <stop
         style="stop-color:#12e0ff;stop-opacity:1;"
         offset="0.63266456"
         id="stop12" />
    </linearGradient>
    <radialGradient
       inkscape:collect="always"
       xlink:href="#linearGradient11"
       id="radialGradient2"
       cx="-12.613644"
       cy="167.4698"
       fx="-12.613644"
       fy="167.4698"
       r="122.84262"
       gradientTransform="matrix(1.8174141,0.1621808,-0.09545348,1.069661,31.533489,-29.81028)"
       gradientUnits="userSpaceOnUse" />
  </defs>
  <g
     inkscape:label="Layer 1"
     inkscape:groupmode="layer"
     id="layer1"
     transform="translate(47.581017,103.57334)">
    <rect
       style="fill:#12e0ff;fill-opacity:1;stroke-width:6.58238;stroke-linecap:round;stroke-linejoin:round;paint-order:stroke markers fill"
       id="rect4"
       width="338.66666"
       height="169.33333"
       x="-47.581017"
       y="-103.57334" />
    <g
       id="g5"
       transform="matrix(0.48923419,0,0,0.48923419,60.657924,-74.576461)">
      <g
         id="g4"
         transform="translate(0,12.721147)">
        <path
           id="text11"
           style="font-weight:800;font-size:307.7px;font-family:Poppins;-inkscape-font-specification:'Poppins Ultra-Bold';text-align:center;text-anchor:middle;fill:#f9f9f9;fill-opacity:1;stroke:none;stroke-width:5;stroke-linecap:round;stroke-linejoin:round;stroke-dasharray:none;stroke-opacity:1;paint-order:markers stroke fill"
           d="m -53.503767,11.703069 c -16.519798,0 -31.133378,3.653396 -43.840912,10.960234 -12.707531,7.147988 -22.555861,17.234852 -29.544991,30.260073 -6.83031,12.86638 -10.24556,27.559217 -10.24556,44.079008 0,16.678646 3.41525,31.530776 10.24556,44.555996 6.98913,12.86638 16.83746,22.95284 29.544991,30.25968 12.707534,7.14799 27.321114,10.72214 43.840912,10.72214 20.967434,0 38.599239,-5.55975 52.89521652,-16.67884 C 6.0657706,160.59607 11.617003,154.45347 16.075487,147.45705 l -0.0288,0.0127 -39.290761,-27.35576 c -3.018037,6.35377 -7.227367,11.19869 -12.628074,14.53442 -5.241859,3.33572 -11.357133,5.00353 -18.34628,5.00353 -10.801399,0 -19.458604,-3.8123 -25.971216,-11.43681 -6.353772,-7.78338 -9.530481,-18.18763 -9.530481,-31.212857 0,-12.866379 3.176709,-23.111737 9.530481,-30.736258 6.512612,-7.783362 15.169817,-11.674909 25.971216,-11.674909 6.989147,0 13.104421,1.667811 18.34628,5.003539 5.400707,3.335727 9.610037,8.180237 12.628074,14.534003 L 16.031078,46.784175 C 11.580153,39.856379 6.0435236,33.793792 -0.60854274,28.619968 -14.90452,17.342027 -32.536325,11.703038 -53.503759,11.703038 Z" />
        <path
           id="path3"
           style="display:inline;fill:url(#radialGradient2);stroke:none;stroke-width:2;stroke-linecap:round;stroke-linejoin:round;stroke-dasharray:none;stroke-opacity:1"
           d="m 91.929496,11.703038 -0.009,0.006 0.009,-0.005 z m -0.009,0.006 c -0.0209,0.0165 -25.51037,20.029381 -48.23873,30.807521 -12.55042,5.9516 -25.50323,11.74609 -40.2202296,14.672 -0.51496,0.10238 -0.86912,0.31518 -1.64892,0.0851 -25.4865104,-4.24006 -54.1071904,0.0922 -54.1071904,0.0922 0,0 -0.0148,0.052 -0.0226,0.0733 l -1.54132,-3.14477 c -3.19702,-6.52204 -6.84214,-11.69593 -11.4989,-16.50398 l 0.01,-0.0918 c 0,0 -4.98167,-5.3863 -11.55646,-9.12884 -0.0618,-0.0353 -0.12275,-0.068 -0.18448,-0.10257 -0.11091,-0.0662 -0.23619,-0.13454 -0.38776,-0.2155 -6.29053,-3.41666 -11.00946,-3.29819 -11.00946,-3.29819 v 4.5e-4 l 0.0873,0.027 c -0.20843,0.0581 0.15566,0.30407 1.33437,0.88405 4.20596,2.06948 7.46715,5.95372 8.55122,10.18519 0.43199,1.68641 0.29017,2.60197 -0.53629,3.46465 -0.5591,0.58354 -0.76247,0.64171 -2.24189,0.64155 -1.33341,-1.5e-4 -1.89364,-0.12622 -3.10474,-0.69914 -1.98436,-0.93876 -5.58517,-3.12522 -9.98806,-6.06459 -0.60925,-0.40668 -0.71999,-0.45048 -1.168,-0.73963 v -0.0423 c 0,0 -2.726113,-2.14341 -3.653573,-2.37679 -0.0165,-0.006 -0.034,-0.009 -0.0496,-0.0131 -0.879223,-0.19196 -1.004153,-0.6465 -3.644163,-0.6465 -0.93079,0 -1.41651,0.0299 -1.66237,0.0689 -0.35907,0.0471 -0.47482,0.13158 -0.31897,0.33878 0.61589,0.81881 1.44437,1.65202 1.64302,1.65202 0.32035,0 1.07195,0.98927 1.08065,1.42256 0.004,0.21252 0.31131,0.62716 0.68249,0.92139 0.82485,0.65386 2.338873,3.1251 2.858193,4.66497 0.48649,1.44274 0.49075,3.40533 0.009,4.42023 -0.74175,1.56321 -2.279923,2.18219 -5.420353,2.18154 -2.71612,-5.4e-4 -5.59027,-0.55972 -11.13626,-2.16624 -7.39282,-2.1415 -14.44331,-3.42048 -21.28143,-3.86056 -4.10252,-0.26403 -7.24132,-0.16009 -11.68064,0.38646 -4.0673,0.50074 -4.52825,0.66847 -2.34576,0.85435 4.39818,0.3746 9.97137,2.11113 15.38284,4.79319 4.2177,2.0904 9.2609,5.36853 11.38327,7.39899 1.37387,1.31438 1.51603,1.53613 1.51254,2.36735 -0.002,0.50439 -0.0975,1.06564 -0.21234,1.24711 -0.14792,0.23375 0.004,0.58051 0.52187,1.18952 0.40182,0.47282 1.55988,2.17498 2.57341,3.78273 1.29143,2.04849 2.24105,3.26933 3.17446,4.0801 2.4312,2.11181 2.97479,3.72896 2.48657,7.39764 -0.62363,4.68635 -1.55871,6.18584 -4.65912,7.46962 -1.92186,0.79578 -6.53942,1.88639 -8.60335,2.03218 -0.76015,0.0537 -1.90036,0.20161 -2.53382,0.32887 -0.63345,0.12726 -2.70657,0.48359 -4.60693,0.79137 -1.90037,0.30778 -5.01004,0.90208 -6.9104,1.32089 l -3.4552,0.76168 2.64899,0.14712 c 4.65286,0.25887 5.91275,0.62013 8.20294,2.3507 2.28387,1.72579 4.3075,4.32743 5.78477,7.43813 0.67363,1.41847 0.854,2.10015 0.93758,3.54383 0.0947,1.635121 0.0468,1.891521 -0.55832,3.009791 -1.13648,2.09995 -3.52098,4.24774 -7.04627,6.34624 l -1.54719,0.92094 2.12306,0.0149 c 3.3811,0.0238 7.57131,1.37615 11.10703,3.58432 0.88037,0.54982 1.39053,0.67029 2.52976,0.72388 l -0.005,-0.0158 c 0,0 6.25711,-2.34627 7.7562,-2.41144 1.43391,1.20576 0.35845,8.63592 2.02049,20.40053 0.025,0.17698 0.0386,0.32511 0.0423,0.44809 0.37379,1.59466 0.75752,3.11218 1.10809,4.86877 0.50601,2.53549 1.29646,5.85248 1.75639,7.37109 2.61475,8.63355 7.22946,15.91597 15.192946,23.97721 3.03736,3.07458 5.35133,4.87909 9.1455,7.13129 5.07125,3.01026 10.88922,5.67428 18.36882,8.41081 l 4.24436,1.55258 0.39186,1.92152 c 0.63449,3.11101 1.68043,5.51038 3.1366,7.19518 2.49279,2.88403 6.18928,5.63307 8.55792,6.36467 1.62106,0.50069 4.12457,0.59045 5.78663,0.20741 1.00215,-0.23098 1.05735,-0.21259 2.64898,0.88764 2.11173,1.45981 2.91173,1.75641 7.60949,2.81815 2.1564,0.48736 4.59016,1.09621 5.40818,1.35329 0.81811,0.25707 1.5347,0.42014 1.59268,0.36216 0.0583,-0.058 -0.78624,-1.01244 -1.87606,-2.12126 -3.36043,-3.41894 -6.15637,-7.14127 -6.15637,-8.19575 0,-0.76636 3.31952,-0.77254 9.21384,-0.0176 11.47035,1.46919 19.0771404,5.95925 23.2510704,13.72408 0.88905,1.65396 1.84219,4.56423 1.87109,5.71323 0.0139,0.55712 0.0226,0.56063 0.21461,0.0855 0.78632,-1.94901 0.84413,-7.53877 0.10708,-10.33141 -0.56876,-2.1551 -2.87882,-6.71596 -4.4634,-8.81211 -3.39813,-4.4953 -9.8221304,-9.12395 -16.0617304,-11.57267 -3.38246,-1.32744 -7.39236,-1.79515 -16.79286,-1.9593 -6.22819,-0.10875 -8.64873,-0.40494 -11.60903,-1.42077 -3.38908,-1.16294 -6.98092,-3.22565 -10.49293,-6.02546 -2.39328,-1.90787 -7.13258,-6.61403 -8.45137,-8.3919 -5.55774,-7.49276 -7.27622,-15.05677 -5.23588,-23.04817 0.72182,-2.82694 2.20236,-5.84455 2.64854,-5.39829 0.0566,0.0566 -0.17882,0.71466 -0.52366,1.46261 -0.5531,1.19986 -0.62788,1.64466 -0.63659,3.77867 -0.009,1.33025 0.067,2.94652 0.16019,3.59152 0.24917,1.72275 1.23931,4.99474 2.20315,7.27976 l 0.84483,2.00249 0.26545,-1.54179 c 0.57233,-3.32237 2.70321,-7.10566 6.31743,-11.21681 0.77971,-0.88684 1.83836,-2.23436 2.35297,-2.9945 1.12021,-1.65466 2.90642,-3.97658 4.18899,-5.44599 0.51339,-0.58819 1.45182,-1.82415 2.08527,-2.74662 0.63345,-0.92247 1.62689,-2.25523 2.20767,-2.96166 1.31617,-1.60108 3.75612,-5.64845 5.15979,-8.55836 l 1.06449,-2.20674 3.84614,-1.28896 c 4.861,-1.62919 5.3434,-1.73361 5.3434,-1.15668 0,1.29099 2.59988,3.92339 5.23955,5.30472 0.96471,0.50484 1.20891,0.74882 1.21152,1.20842 0,0.72596 0.87635,2.58394 1.80859,3.85021 0.73914,1.00402 1.93552,1.79258 2.43081,1.60253 0.18753,-0.072 0.37636,0.3426 0.55875,1.22551 0.13381,0.6478 0.33823,1.21064 0.49355,1.43607 l -0.0348,-0.004 c 0,0 0.843,2.71169 1.86936,2.60174 1.02626,-0.10997 1.94248,-1.09876 2.19905,-2.01508 0.0357,-0.12789 0.0653,-0.26634 0.0909,-0.40896 l 0.52724,-2.09651 c 0.81688,-3.24644 1.79074,-12.05193 1.96608,-17.77808 0,0 3.26928,-6.32566 4.78961,-7.18125 3.6418104,-2.04956 10.5972204,-6.695691 14.0389704,-9.378071 4.67505,-3.64358 10.1085596,-9.17211 11.3233996,-11.52138 0.37427,-0.72364 0.19527,-0.72891 -0.63476,-0.0185 -0.20894,0.17882 -1.55646,0.61899 -2.99452,0.97807 -1.4380596,0.35908 -4.1135896,1.08705 -5.9457696,1.61738 -2.03861,3.87472 -30.3873904,2.92363 -17.9734004,2.19234 2.21586,-0.12669 4.0095604,-0.28214 3.9860504,-0.34552 -0.33109,-0.8927 -0.24299,-0.8708 -3.3476404,-0.83815 -5.813,-0.23484 -1.05334,-0.50572 1.62324,-0.80351 2.0771704,-0.24214 2.2901204,-0.31613 3.1492304,-1.0973 0.50677,-0.46075 1.9148,-1.58214 3.12903,-2.49198 6.02839,-4.5171 9.79992,-7.75623 14.15371,-12.15483 3.1268596,-3.15892 4.5841596,-5.17914 4.7176196,-6.66836 0.79146,-0.45174 23.18917,-13.23611 33.61671,-19.33922 17.38356,-10.17439 44.33687,-32.716871 44.35837,-32.734871 z"
           sodipodi:nodetypes="cccccssccccccscccccssssssccccscsscsscssssssscsscsssssscccsssccccscccscscsscccssssssssssssssssssssssscscccssssssccsscsssccsscccssssssssssssscscc" />
        <path
           id="path3-6"
           style="display:inline;fill:#020202;fill-opacity:1;stroke-width:0.870602"
           d="m 91.929496,11.703038 -0.009,0.006 0.009,-0.005 z m -0.009,0.006 c -0.0209,0.0165 -25.51037,20.029381 -48.23873,30.807521 -12.55042,5.9516 -25.50323,11.74609 -40.2202296,14.672 -0.51496,0.10238 -0.86912,0.31518 -1.64892,0.0851 -25.4865104,-4.24006 -54.1071904,0.0922 -54.1071904,0.0922 0,0 -0.0148,0.052 -0.0226,0.0733 l -1.54132,-3.14477 c -3.19702,-6.52204 -6.84214,-11.69593 -11.4989,-16.50398 l 0.01,-0.0918 c 0,0 -4.98167,-5.3863 -11.55646,-9.12884 -0.0618,-0.0353 -0.12275,-0.068 -0.18448,-0.10257 -0.11091,-0.0662 -0.23619,-0.13454 -0.38776,-0.2155 -6.29053,-3.41666 -11.00946,-3.29819 -11.00946,-3.29819 v 4.5e-4 l 0.0873,0.027 c -0.20843,0.0581 0.15566,0.30407 1.33437,0.88405 4.20596,2.06948 7.46715,5.95372 8.55122,10.18519 0.43199,1.68641 0.29017,2.60197 -0.53629,3.46465 -0.5591,0.58354 -0.76247,0.64171 -2.24189,0.64155 -1.33341,-1.5e-4 -1.89364,-0.12622 -3.10474,-0.69914 -1.98436,-0.93876 -5.58517,-3.12522 -9.98806,-6.06459 -0.60925,-0.40668 -0.71999,-0.45048 -1.168,-0.73963 0,-0.0167 0,-0.0423 0,-0.0423 0,0 -2.726113,-2.14341 -3.653573,-2.37679 -0.0165,-0.006 -0.034,-0.009 -0.0496,-0.0131 -0.879223,-0.19196 -1.004153,-0.6465 -3.644163,-0.6465 -0.93079,0 -1.41651,0.0299 -1.66237,0.0689 -0.35907,0.0471 -0.47482,0.13158 -0.31897,0.33878 0.61589,0.81881 1.44437,1.65202 1.64302,1.65202 0.32035,0 1.07195,0.98927 1.08065,1.42256 0.004,0.21252 0.31131,0.62716 0.68249,0.92139 0.82485,0.65386 2.338873,3.1251 2.858193,4.66497 0.48649,1.44274 0.49075,3.40533 0.009,4.42023 -0.74175,1.56321 -2.279923,2.18219 -5.420353,2.18154 -2.71612,-5.4e-4 -5.59027,-0.55972 -11.13626,-2.16624 -7.39282,-2.1415 -14.44331,-3.42048 -21.28143,-3.86056 -4.10252,-0.26403 -7.24132,-0.16009 -11.68064,0.38646 -4.0673,0.50074 -4.52825,0.66847 -2.34576,0.85435 4.39818,0.3746 9.97137,2.11113 15.38284,4.79319 4.2177,2.0904 9.2609,5.36853 11.38327,7.39899 1.37387,1.31438 1.51603,1.53613 1.51254,2.36735 -0.002,0.50439 -0.0975,1.06564 -0.21234,1.24711 -0.14792,0.23375 0.004,0.58051 0.52187,1.18952 0.40182,0.47282 1.55988,2.17498 2.57341,3.78273 1.29143,2.04849 2.24105,3.26933 3.17446,4.0801 2.4312,2.11181 2.97479,3.72896 2.48657,7.39764 -0.62363,4.68635 -1.55871,6.18584 -4.65912,7.46962 -1.92186,0.79578 -6.53942,1.88639 -8.60335,2.03218 -0.76015,0.0537 -1.90036,0.20161 -2.53382,0.32887 -0.63345,0.12726 -2.70657,0.48359 -4.60693,0.79137 -1.90037,0.30778 -5.01004,0.90208 -6.9104,1.32089 l -3.4552,0.76168 2.64899,0.14712 c 4.65286,0.25887 5.91275,0.62013 8.20294,2.3507 2.28387,1.72579 4.3075,4.32743 5.78477,7.43813 0.67363,1.41847 0.854,2.10015 0.93758,3.54383 0.0947,1.635121 0.0468,1.891521 -0.55832,3.009791 -1.13648,2.09995 -3.52098,4.24774 -7.04627,6.34624 l -1.54719,0.92094 2.12306,0.0149 c 3.3811,0.0238 7.57131,1.37615 11.10703,3.58432 0.88037,0.54982 1.39053,0.67029 2.52976,0.72388 l -0.005,-0.0158 c 0,0 6.25711,-2.34627 7.7562,-2.41144 1.43391,1.20576 0.35845,8.63592 2.02049,20.40053 0.025,0.17698 0.0386,0.32511 0.0423,0.44809 0.37379,1.59466 0.75752,3.11218 1.10809,4.86877 0.50601,2.53549 1.29646,5.85248 1.75639,7.37109 2.61475,8.63355 7.22946,15.91597 15.192946,23.97721 3.03736,3.07458 5.35133,4.87909 9.1455,7.13129 5.07125,3.01026 10.88922,5.67428 18.36882,8.41081 l 4.24436,1.55258 0.39186,1.92152 c 0.63449,3.11101 1.68043,5.51038 3.1366,7.19518 2.49279,2.88403 6.18928,5.63307 8.55792,6.36467 1.62106,0.50069 4.12457,0.59045 5.78663,0.20741 1.00215,-0.23098 1.05735,-0.21259 2.64898,0.88764 2.11173,1.45981 2.91173,1.75641 7.60949,2.81815 2.1564,0.48736 4.59016,1.09621 5.40818,1.35329 0.81811,0.25707 1.5347,0.42014 1.59268,0.36216 0.0583,-0.058 -0.78624,-1.01244 -1.87606,-2.12126 -3.36043,-3.41894 -6.15637,-7.14127 -6.15637,-8.19575 0,-0.76636 3.31952,-0.77254 9.21384,-0.0176 11.47035,1.46919 19.0771404,5.95925 23.2510704,13.72408 0.88905,1.65396 1.84219,4.56423 1.87109,5.71323 0.0139,0.55712 0.0226,0.56063 0.21461,0.0855 0.78632,-1.94901 0.84413,-7.53877 0.10708,-10.33141 -0.56876,-2.1551 -2.87882,-6.71596 -4.4634,-8.81211 -3.39813,-4.4953 -9.8221304,-9.12395 -16.0617304,-11.57267 -3.38246,-1.32744 -7.39236,-1.79515 -16.79286,-1.9593 -6.22819,-0.10875 -8.64873,-0.40494 -11.60903,-1.42077 -3.38908,-1.16294 -6.98092,-3.22565 -10.49293,-6.02546 -2.39328,-1.90787 -7.13258,-6.61403 -8.45137,-8.3919 -5.55774,-7.49276 -7.27622,-15.05677 -5.23588,-23.04817 0.72182,-2.82694 2.20236,-5.84455 2.64854,-5.39829 0.0566,0.0566 -0.17882,0.71466 -0.52366,1.46261 -0.5531,1.19986 -0.62788,1.64466 -0.63659,3.77867 -0.009,1.33025 0.067,2.94652 0.16019,3.59152 0.24917,1.72275 1.23931,4.99474 2.20315,7.27976 l 0.84483,2.00249 0.26545,-1.54179 c 0.57233,-3.32237 2.70321,-7.10566 6.31743,-11.21681 0.77971,-0.88684 1.83836,-2.23436 2.35297,-2.9945 1.12021,-1.65466 2.90642,-3.97658 4.18899,-5.44599 0.51339,-0.58819 1.45182,-1.82415 2.08527,-2.74662 0.63345,-0.92247 1.62689,-2.25523 2.20767,-2.96166 1.31617,-1.60108 3.75612,-5.64845 5.15979,-8.55836 l 1.06449,-2.20674 3.84614,-1.28896 c 4.861,-1.62919 5.3434,-1.73361 5.3434,-1.15668 0,1.29099 2.59988,3.92339 5.23955,5.30472 0.96471,0.50484 1.20891,0.74882 1.21152,1.20842 0,0.72596 0.87635,2.58394 1.80859,3.85021 0.73914,1.00402 1.93552,1.79258 2.43081,1.60253 0.18753,-0.072 0.37636,0.3426 0.55875,1.22551 0.13381,0.6478 0.33823,1.21064 0.49355,1.43607 l -0.0348,-0.004 c 0,0 0.843,2.71169 1.86936,2.60174 1.02626,-0.10997 1.94248,-1.09876 2.19905,-2.01508 0.0357,-0.12789 0.0653,-0.26634 0.0909,-0.40896 l 0.52724,-2.09651 c 0.81688,-3.24644 1.79074,-12.05193 1.96608,-17.77808 l 0.13947,-4.5606 0.94295,-0.53222 c 0.51861,-0.29275 2.18686,-1.23284 3.70719,-2.08843 3.6418104,-2.04956 10.5972204,-6.695691 14.0389704,-9.378071 4.67505,-3.64358 10.1085596,-9.17211 11.3233996,-11.52138 0.37427,-0.72364 0.19527,-0.72891 -0.63476,-0.0185 -0.20894,0.17882 -1.55646,0.61899 -2.99452,0.97807 -1.4380596,0.35908 -4.1135896,1.08705 -5.9457696,1.61738 -7.96357,2.30496 -13.42555,3.2289 -19.0855104,3.2289 -2.79994,0 -3.06373,-0.0355 -2.99365,-0.4031 0.0679,-0.35485 0.55936,-0.43069 4.10576,-0.63346 2.21586,-0.12669 4.0095604,-0.28214 3.9860504,-0.34552 -0.33109,-0.8927 -0.24299,-0.8708 -3.3476404,-0.83815 -2.22926,0.0234 -3.04101,-0.0431 -3.11414,-0.25599 -0.0714,-0.2081 0.26292,-0.28794 1.2057,-0.28794 0.71746,0 2.30648,-0.11677 3.53168,-0.25958 2.0771704,-0.24214 2.2901204,-0.31613 3.1492304,-1.0973 0.50677,-0.46075 1.9148,-1.58214 3.12903,-2.49198 6.02839,-4.5171 9.79992,-7.75623 14.15371,-12.15483 3.1268596,-3.15892 4.5841596,-5.17914 4.7176196,-6.66836 0.79146,-0.45174 23.18917,-13.23611 33.61671,-19.33922 17.38356,-10.17439 44.33687,-32.716871 44.35837,-32.734871 z m -176.52292,14.342671 c 0.58566,0.10375 1.48124,0.29368 2.56619,0.63436 0.67959,0.26931 1.38199,0.53586 1.96599,0.80847 0.42303,0.19743 0.62666,0.23379 0.97046,0.35902 0.2335,0.11443 0.4683,0.23462 0.70406,0.36261 1.7331,0.9408 3.97629,2.65518 5.81988,4.16243 1.30233,1.09981 2.62129,2.20585 3.69005,3.19022 l 2.49061,2.42268 c 3.03771,3.10433 5.22535,6.03694 7.55291,9.92875 2.57193,4.30044 6.2759,12.29265 5.88013,12.68842 -0.17099,0.17093 -0.0714,0.33928 -2.06011,-3.46375 -0.97734,-1.86869 -1.81459,-3.39761 -1.8603,-3.39761 -0.13747,0 1.36319,3.33419 1.53592,3.41245 0.0878,0.0399 0.10273,0.22127 0.0331,0.40311 -0.0705,0.18336 0.009,0.33068 0.17412,0.33068 0.23175,0 0.23854,0.0623 0.0287,0.27218 -0.14992,0.14995 -0.31072,0.2277 -0.35721,0.17277 -0.0122,-0.0138 -0.14704,-0.3197 -0.17455,-0.36802 -0.69988,-1.62561 -2.94847,-6.79833 -4.23844,-9.11624 0.0131,-0.0585 -0.009,-0.0929 -0.0592,-0.10663 -1.11341,-1.97408 -2.33234,-3.53082 -2.75659,-4.05401 -1.0637,-1.40761 -2.39267,-3.09737 -3.53708,-4.43282 -3.33066,-3.88682 -8.47678,-8.38141 -11.98696,-10.46953 -0.53246,-0.31672 -1.34082,-0.82812 -1.79605,-1.13598 -0.45515,-0.30787 -1.86388,-1.10897 -3.13077,-1.78024 -0.60411,-0.32009 -1.10036,-0.60429 -1.45452,-0.82332 z m 153.80814,2.23059 c 0,0 -12.78609,11.06072 -43.50448,27.51293 0.047,0.0468 -0.0723,0.16484 -0.81393,0.4292 -0.19145,0.10211 -0.39464,0.20747 -0.58748,0.30998 -2.37814,1.4204 -7.41169,4.37293 -9.3426,5.09012 -2.56566,0.95297 -1.68975,0.2629 -4.82958,0.49219 -3.1399096,0.22929 -6.7094596,1.43826 -8.8054396,2.3669 -2.09588,0.92864 -3.57251,1.51721 -5.2781,2.43708 -1.66538,0.89815 -4.81931,2.99901 -4.81931,2.99901 -3.9609704,2.97601 -7.9480704,6.92213 -10.1865604,10.25898 -2.52953,3.77065 -3.95053,7.85956 -3.95053,11.36661 0,2.12332 0.17352,2.88319 0.80305,3.51279 0.87861,0.87858 1.59416,0.21298 3.00801,-2.79835 l 1.00598,-2.1433 0.87374,0.17545 c 0.48057,0.0965 2.79176,0.17402 5.1355,0.17141 5.2970004,-0.005 7.0038204,-0.31587 15.6298304,-2.84604 3.42703,-1.00519 6.6244896,-1.89737 7.1056696,-1.98269 l 0.87504,-0.15521 -1.03653,1.0874 c -1.8930396,1.98597 -8.0257296,6.90613 -13.2449896,10.62608 -2.45118,1.74706 -7.9191604,5.173971 -11.9780004,7.506971 -3.00096,1.72496 -12.54206,6.49576 -13.47525,6.73809 -0.49538,0.12863 -0.45011,0.0434 0.32395,-0.61096 3.41328,-2.88569 6.3721,-4.84962 10.1163,-6.71426 4.15233,-2.06784 8.7835904,-4.729485 8.5813504,-4.931755 -0.0653,-0.0654 -0.36914,0.0454 -0.6749,0.24565 -0.9772504,0.640345 -5.2403204,2.372405 -8.2114204,3.336425 -4.89923,1.58955 -6.14375,1.77619 -11.74773,1.76269 -4.59808,-0.0111 -5.13376,-0.0567 -7.4863,-0.6402 -4.2501,-1.0542 -6.43461,-2.02397 -9.87697,-4.385135 -2.53432,-1.738346 -4.6989,-4.077166 -5.88013,-6.354316 -1.41499,-2.72769 -1.7318,-4.07243 -1.74112,-7.38144 -0.009,-3.15768 0.3209,-5.08776 1.14232,-6.68006 0.29409,-0.5701 0.71093,-1.42527 0.92632,-1.90036 0.57869,-1.27649 1.21962,-1.16879 1.68983,0.57947 0.0357,0.13383 0.0801,0.29115 0.10117,0.3833 0,0 1.19246,4.19845 5.65029,6.11634 4.45774,1.91789 9.38212,-0.36262 9.38212,-0.36262 0,0 -3.6802,0.15527 -7.98254,-1.55528 -0.0938,-0.0373 -0.18318,-0.0777 -0.27302,-0.11788 -0.67898,-0.41524 -1.32454,-0.85695 -1.6921,-1.23047 -0.35956,-0.36545 -0.64286,-0.59683 -0.83996,-0.72612 -0.42633,-0.53881 -0.74315,-1.10431 -0.97803,-1.64392 -0.31751,-0.93831 -0.6183,-2.07338 -0.6654,-2.70838 -0.10866,-1.46367 0.45628,-3.02352 1.55794,-4.30325 l 0.5799,-0.67395 -0.0244,0.10573 -0.0226,-0.045 c 0,0 -0.0566,0.27186 -0.12545,0.69104 l -0.0609,0.26768 c -0.091,0.39711 -0.13007,0.89093 -0.14313,1.41043 -0.0903,1.11438 -0.0881,2.36701 0.25378,3.16861 0.73331,1.71955 1.2131,2.79498 3.28739,4.04637 2.52022,1.52035 4.98655,2.45989 10.67149,1.66866 4.07032,-0.5665 8.04923,-4.09106 9.4825,-7.51011 0.76352,-1.82141 0.45533,-3.5909 2.27602,-5.58861 1.14075,-1.25165 2.94724,-2.62262 5.77888,-3.90105 0.21921,-0.0951 0.32856,-0.12876 0.56058,-0.23394 0.50677,-0.22971 1.80249,-0.67381 2.87934,-0.98662 1.6539704,-0.48046 2.4201804,-0.74711 2.6710004,-0.889 0.0418,-0.011 0.0801,-0.0224 0.12197,-0.0333 -0.0313,0.006 -0.0653,0.0151 -0.0963,0.0216 0.31238,-0.19209 -0.6418,-0.0778 -3.2131204,0.43144 -4.60079,0.91116 -8.36057,0.62846 -10.71929,-0.75942 -0.91831,-0.59434 -1.86448,-1.26287 -3.17891,-1.88102 -0.61343,-0.30204 -1.11977,-0.52381 -1.38931,-0.57316 -2.04269,-0.7274 -4.56604,-0.83734 -5.55757,-0.8512 -7.53828,-0.44376 -17.38173,0.4382 -17.38173,0.4382 l -0.66001,-0.95334 0.0714,-0.006 c -0.0409,-0.0595 -0.0766,-0.0656 -0.12188,-0.14172 -0.027,-0.0462 -0.0235,-0.0537 -0.0496,-0.099 26.16637,-3.62262 45.3579104,-1.03513 45.6136104,-1.00372 2.47581,0.42831 4.93892,1.06227 7.45026,1.24351 0.8524,0.0182 2.14368,-0.0273 3.17804,-0.32797 6.2485696,-1.91383 16.0219396,-4.77367 29.4312996,-10.82989 25.97422,-11.73103 34.43098,-19.53808 34.43098,-19.53808 z m -171.505266,1.53415 c 0.1071,-0.003 0.34809,0.0272 0.78101,0.11023 0.23192,0.0445 0.4514,0.0947 0.6591,0.14846 0.11735,0.0269 0.23552,0.0637 0.36082,0.0999 0.003,6.9e-4 0.004,0.002 0.007,0.003 0.15171,0.0453 0.29597,0.092 0.43187,0.13947 0,8.7e-4 0,0.002 0.009,0.003 0.0933,0.0331 0.179963,0.0514 0.273983,0.0886 0,0.003 -0.009,0.007 -0.0113,0.009 0.88332,0.33901 1.36189,0.67529 1.36189,0.67529 l -0.01,0.0216 c 0.89811,0.61108 1.90409,1.55468 2.39346,1.7861 0.0104,0.009 0.0296,0.026 0.04,0.0346 1.061963,0.89914 5.344803,3.77545 7.327863,4.9214 2.41444,1.39524 3.96933,2.1868 5.26966,2.67194 0.71694,0.14223 1.7513,0.40298 3.15463,0.88494 1.77028,0.60795 2.6105,2.05645 2.64628,2.68228 0.0366,0.63317 -0.3216,1.34114 -0.3216,1.34114 l -0.0977,-0.0733 c 0.009,0.12295 -0.42817,-0.14859 -1.89809,-1.17557 -0.76012,-0.53109 -2.57411,-1.62086 -4.03106,-2.42135 -6.36958,-3.49967 -7.80834,-4.34329 -9.8122,-5.75551 -1.16852,-0.82349 -2.852963,-2.1192 -3.743153,-2.87934 l -1.61871,-1.38208 0.0139,-0.0144 c -0.30193,-0.24556 -0.77345,-0.62094 -1.185503,-0.91329 l -0.0104,0.0104 c -0.45748,-0.38736 -1.24079,-0.62569 -1.39424,-0.66989 8.7e-4,-8.8e-4 0.002,-0.003 0.003,-0.003 -0.43273,-0.16225 -0.82908,-0.33385 -0.59701,-0.34193 z m 24.527866,3.06829 c 0.55536,0.49357 5.27594,4.79677 8.79813,11.56817 0.0409,0.0815 0.0827,0.15765 0.1238,0.23979 0.0888,0.17367 0.17708,0.34874 0.26405,0.52548 2.21072,4.59604 4.00634,10.00057 3.65409,11.63835 -0.0548,0.25338 -0.10691,0.79759 -0.11657,1.20933 -0.0113,0.46914 -0.12502,0.72708 -0.3055,0.69104 -0.18831,-0.0377 -0.27633,0.20149 -0.25413,0.69104 0.0383,0.8407 -0.0287,0.93432 -0.25195,0.35226 -0.115,-0.29962 -0.19649,-0.3252 -0.33292,-0.10437 -0.11283,0.18249 -0.42137,-0.46896 -0.82106,-1.7339 -2.03834,-6.44978 -5.23998,-12.05146 -9.06409,-15.85838 -0.69274,-0.68967 -1.14424,-1.19384 -1.4217,-1.54 0.0844,-0.009 0.20486,-0.0158 0.36757,-0.0135 0.11579,0.0396 0.25387,0.0648 0.38968,0.0639 0.0976,-6.8e-4 0.10778,-0.0156 0.1628,-0.0225 0.83813,0.10329 2.15231,0.44412 3.87366,1.45677 0.009,0.003 -0.0749,-0.16674 -0.18631,-0.39906 0.0218,-0.0165 0.0392,-0.002 0.0609,-0.0234 0.16611,-0.16606 -1.05551,-2.48126 -2.34757,-4.66811 -0.0174,-0.0357 -0.15697,-0.32077 -0.15697,-0.32077 l -0.0235,0.0148 c -0.72103,-1.20551 -1.44137,-2.35308 -1.95032,-3.00261 -0.29931,-0.38201 -0.44897,-0.65124 -0.46159,-0.76437 z m -66.218366,7.34679 c 2.70375,0.0227 7.29114,0.29767 9.75914,0.63166 2.93926,0.39777 11.44432,2.02881 14.90865,2.85909 14.08499,3.37569 25.506696,7.60335 32.504946,12.03201 2.66647,1.6874 5.95604,4.04273 6.20181,4.44048 0.20451,0.33084 0.1386,0.299 -1.22145,-0.59207 -5.15048,-3.37446 -10.08905,-5.96344 -15.246933,-7.99285 -8.166363,-3.21309 -23.594443,-7.22414 -34.781923,-9.0429 -1.20389,-0.19572 -3.07542,-0.50035 -4.15884,-0.67709 -1.08342,-0.17675 -4.0376,-0.55947 -6.56487,-0.85031 -4.37413,-0.50339 -4.5339,-0.53915 -3.32789,-0.73963 0.33443,-0.0556 1.0261,-0.0759 1.92736,-0.0683 z m 1.88641,1.11889 c 2.04319,0.11181 9.3733,1.70282 13.00154,2.88653 1.65244,0.53912 4.74179,1.32464 7.04492,1.79149 8.82832,1.78951 26.719026,7.58017 27.852636,9.01501 0.12667,0.16036 1.3705,0.83685 2.76416,1.50356 4.1411,1.98116 8.85828,5.07237 10.81095,7.08406 1.15869,1.19373 0.96393,1.40683 -0.3613,0.39501 -3.20329,-2.44593 -9.17666,-5.85007 -12.96143,-7.3864 -1.35866,-0.55148 -1.21161,-0.30446 0.27259,0.45845 0.72478,0.37253 1.36954,0.73994 1.43292,0.81611 0.0636,0.0762 1.30721,0.79787 2.76416,1.60388 2.79141,1.54425 3.00349,1.68122 5.77897,3.73279 1.78456,1.31917 2.12932,1.96263 1.3456,2.51131 -0.23741,0.1662 -0.14469,0.19011 0.33205,0.0855 0.59714,-0.1311 0.6264,-0.11084 0.3041,0.21146 -0.19632,0.19629 -0.39438,0.35676 -0.44044,0.35676 -0.0461,0 -1.01242,-0.53512 -2.14734,-1.18952 -3.16899,-1.8273 -8.22004,-4.18063 -11.22083,-5.22735 -6.278036,-2.18984 -19.074106,-4.63977 -24.233686,-4.63977 h -1.2759 v -0.76078 c 0,-2.12514 -3.25791,-4.994 -9.69255,-8.53542 -2.75287,-1.51509 -10.53349,-4.5246 -11.6982,-4.5246 -0.18631,0 -0.2759,-0.0629 -0.19885,-0.13992 0.0499,-0.0499 0.23404,-0.0641 0.52593,-0.0481 z m 45.674793,0.97583 c 3.627623,0.85165 7.135013,2.54952 9.102753,3.60547 3.33562,1.81528 7.96661,5.27782 10.6283,7.9609 1.46035,1.47208 3.33963,3.84338 3.33963,4.21373 0,0.13631 0.0775,0.24844 0.17273,0.24924 0.22696,0.002 1.02583,1.4103 0.88183,1.55439 -0.0609,0.0612 -1.54158,-1.34469 -3.28966,-3.12408 -3.77205,-3.83952 -7.62063,-6.94488 -11.29779,-9.11534 -0.64625,-0.38143 -0.23219,0.0847 0.46072,0.51873 0.41171,0.25791 1.00772,0.70812 1.32444,1.00012 0.31673,0.29201 1.70081,1.5055 3.07593,2.69668 4.00381,3.46815 7.51999,7.72244 7.51999,9.09914 v 0.67979 l -0.69099,-0.66225 c -0.38011,-0.36413 -0.69109,-0.57623 -0.69109,-0.47148 0,0.10475 0.18117,0.32302 0.40266,0.48499 0.22156,0.16196 0.33283,0.36457 0.24751,0.44989 -0.0853,0.0853 -1.22537,-0.86614 -2.53337,-2.11406 -3.38359,-3.22807 -4.34909,-3.993 -8.87195,-7.03142 -1.97008,-1.32344 -7.41857,-4.01219 -10.156443,-5.01184 -1.73989,-0.63528 -2.08457,-0.68553 -3.915883,-0.57227 -1.58089,0.0978 -2.37539,0.0255 -3.73548,-0.33967 l -1.72759,-0.46384 1.84277,0.15746 c 2.68497,0.22943 4.2474,0.10214 5.361863,-0.43685 1.13543,-0.54915 2.1146,-1.71779 2.34035,-2.7934 0.0592,-0.28097 0.12197,-0.43036 0.20877,-0.53403 z m -21.465003,18.26262 c 0,0 9.97707,0.73234 17.54102,3.25365 4.243493,1.41449 7.990736,3.53682 10.464116,5.12791 0.14321,0.0663 0.24063,0.11067 0.39543,0.18311 1.52547,1.03848 2.47137,1.82063 2.63548,1.9584 -0.10473,-0.0421 -4.27735,-1.71828 -6.44611,-2.22699 -2.14316,-0.50272 -4.072933,-1.01593 -4.167393,-1.04106 0,8.7e-4 -0.009,8.7e-4 -0.009,0.002 0.17264,0.0542 7.300693,2.29537 8.077443,3.04535 0.78624,0.7591 1.33133,1.16308 0.86738,2.52166 -1.62619,-0.63424 -4.39531,-1.44104 -7.18664,-2.08122 -3.722083,-0.76088 -8.002606,-1.27338 -12.536296,-1.42707 -3.73434,-0.12658 -4.36228,-0.19916 -4.27897,-0.49398 0.38291,-1.35478 -0.13848,-2.36316 -2.44293,-4.72571 -0.99059,-1.01556 -1.99615,-2.19511 -2.23464,-2.62109 l -0.43369,-0.77427 0.0193,0.002 -0.05,-0.0243 z m 83.776486,0.25869 v 4.5e-4 c 0.2617,0.023 0.58513,0.0373 0.97672,0.0414 1.26098,0.0472 2.52161,0.13316 3.83805,0.26184 1.79971,0.26989 2.94594,0.67028 3.43357,0.86605 l -0.49894,0.0527 c -0.4434,0.0467 -1.37634,0.0159 -2.07308,-0.0684 -1.52852,-0.18496 -3.53543,-0.20118 -3.90108,-0.0783 0.50068,0.0219 8.16076,0.4165 10.53654,4.24613 -0.16741,-0.10489 -0.32578,-0.20184 -0.48048,-0.29559 0.0157,0.0378 0.12232,0.11615 0.10168,0.13677 -0.13712,0.13721 -0.39821,0.12173 -0.70362,-0.0419 -0.26692,-0.14291 -0.48544,-0.2138 -0.48544,-0.15747 0,0.0563 -0.51322,-0.0329 -1.14049,-0.1984 -0.62858,-0.16585 -1.17131,-0.2082 -1.20927,-0.0945 -0.0374,0.11347 -0.59436,0.007 -1.23677,-0.23754 -2.5856,-0.9825 -7.76229,-1.15355 -11.41481,-0.37702 -0.83952,0.17849 -2.64158,0.86938 -4.00451,1.53505 -2.00543,0.97953 -2.79262,1.52102 -4.12734,2.83974 -0.907,0.89617 -2.16188,2.35164 -2.78889,3.2343 -0.74393,1.04724 -1.16565,1.47275 -1.21336,1.22506 0,-0.0244 0.0279,-0.092 0.0305,-0.12596 l -0.0627,0.0716 c 0,0 0.2853,-1.27129 1.02348,-2.54821 8.7e-4,-7.2e-4 5.2e-4,-0.003 0,-0.003 0.35434,-0.61223 0.8121,-1.22573 1.39383,-1.70061 0.0209,-0.0172 0.04,-0.0318 0.0609,-0.0481 -0.0305,-0.0165 -0.0244,-0.0374 -0.0679,-0.054 -0.0165,-0.006 -0.0627,0.0218 -0.0844,0.0216 -0.82611,0.48542 -1.9027,1.21234 -3.04266,2.22653 -0.44958,0.41196 -0.88297,0.83668 -1.29389,1.25881 -0.76117,0.81379 -1.51537,1.75767 -2.2068,2.84874 -3.28261,5.1804 -2.73395,9.74328 -2.52118,11.94789 0.40649,1.7664 1.29206,4.11819 2.49018,6.37772 3.16821,5.975016 9.932,10.381701 17.95712,11.698641 2.78201,0.45654 2.73334,0.57436 -0.47822,1.15578 -2.94307,0.53283 -6.51036,0.4472 -9.09875,-0.2182 -4.30503,-1.10674 -7.78378,-3.10522 -10.67732,-6.13388 -1.9067,-1.995711 -2.84094,-3.329971 -4.14397,-5.920621 -1.31052,-2.6055 -1.79126,-4.60675 -1.9296,-8.03109 -0.10395,-2.57169 -0.0505,-3.28356 0.36931,-4.94391 0.89149,-3.52542 2.4988,-6.31577 5.41096,-9.39292 1.88111,-1.98778 4.17915,-3.72187 6.81768,-5.2062 2.60231,-1.36371 4.96121,-2.28987 6.94775,-2.92118 0.27755,-0.0725 0.41493,-0.0906 0.77692,-0.19435 1.36554,-0.39145 2.64089,-0.71173 2.8339,-0.71173 0.13303,0 0.19223,-0.0353 0.20703,-0.0801 1.60182,-0.3115 2.52204,-0.35001 2.52204,-0.35001 0,0 -3.90813,0.0966 -8.55157,0.90474 -0.20642,0.0277 -0.37349,0.0589 -0.52819,0.0931 -1.71996,0.3162 -3.5208,0.72948 -5.25164,1.27455 -6.55024,2.06278 -11.57874,7.10656 -11.70542,7.23433 -0.72355,0.61415 -1.3651,1.06567 -1.42839,1.00236 -0.16725,-0.16726 2.8217,-3.16861 3.15558,-3.16861 0.15349,0 0.21373,-0.0652 0.13407,-0.14487 -0.33875,-0.33876 -6.72949,3.1265 -10.87312,5.89544 -1.8919,1.26424 -4.21353,2.78164 -4.7648,3.11417 -0.96697,0.5833 -3.292,2.22958 -5.83111,4.12915 -3.4569,2.58614 -9.36794,8.47023 -12.4005,12.34424 -1.090083,1.39261 -2.662133,3.774906 -3.331013,5.047371 -0.43879,0.83477 -0.90778,1.65585 -1.04246,1.82478 -0.21025,0.26377 -0.410583,1.18997 -0.25726,1.18997 0.0287,0 0.52628,-0.7515 1.10488,-1.67001 0.47465,-0.75349 1.15738,-1.63365 1.71595,-2.314705 0,0.006 -0.009,0.0126 -0.01,0.0189 1.06257,-1.405386 2.175113,-2.739576 3.319343,-4.013966 0.0374,-0.0389 0.0366,-0.0302 0.074,-0.0697 1.42213,-1.50152 2.57446,-2.6921 3.64591,-3.76248 8.80604,-8.38898 18.61755,-13.50794 23.83463,-16.5935 0.0522,0.18662 -0.27598,0.93622 -1.08381,2.44923 -0.62135,1.16366 -1.19691,2.47821 -1.27909,2.92163 -0.12075,0.65191 0.0122,0.49761 0.69378,-0.80621 0.8444,-1.61457 1.47585,-2.50348 1.6524,-2.32687 0.0514,0.0518 -0.10908,0.54473 -0.35764,1.0955 -1.29772,2.87565 -1.6437,4.82559 -1.56656,8.83281 0.0531,2.77285 0.12162,3.18206 0.91831,5.52832 2.57376,7.580291 9.34861,14.289821 16.3411,16.183201 l 1.567,0.42425 -3.52498,2.33046 c -2.40573,1.59038 -3.66671,2.57416 -3.97125,3.09843 -0.54743,0.94245 -0.81793,1.16163 -2.47442,2.00609 -1.14815,0.58529 -3.02595,1.70524 -5.71724,3.40976 -2.20315,1.3953 -3.66671,2.52737 -3.66846,2.83839 0,0.2555 0.0881,0.22548 0.34555,-0.11518 0.19144,-0.25338 0.36965,-0.41322 0.39586,-0.35541 0.0261,0.0578 1.7062,-0.8823 3.73323,-2.08931 6.15167,-3.66301 6.19389,-3.68118 5.52431,-2.33901 -0.45828,0.91859 -0.70728,1.12636 -2.6724,2.22473 -1.9659,1.09878 -6.97517,4.50431 -8.95605,6.08889 -2.35654,1.88507 -6.90753,6.31899 -8.48323,8.26503 -1.92934,2.38267 -4.16757,6.34173 -5.05863,8.94753 -0.96976,2.83573 -1.27186,5.0498 -1.12839,8.27269 0.183,4.10774 0.94966,6.85798 3.08359,11.06069 2.44891,4.82299 4.9882,7.83738 9.39832,11.15741 4.34177,3.26854 6.75952,4.47361 11.79273,5.8779 1.16495,0.32504 2.25338,0.58975 2.41862,0.58801 0.16524,-0.002 -0.8915,-0.53466 -2.34845,-1.18412 -9.55163,-4.25784 -16.25936,-11.18127 -19.08864,-19.70229 -0.94103,-2.83412 -1.21866,-4.5958 -1.13604,-7.21319 0.0313,-0.99463 0.0871,-1.52749 0.21686,-1.85447 l -0.0461,-0.0203 c 0,0 0.10987,-1.13628 0.87957,-1.31955 0.7697,-0.18326 1.02626,0.0367 1.09957,0.29334 0.009,0.0305 0.0183,0.0703 0.0279,0.11607 0.0444,0.12978 0.0731,0.30715 0.0882,0.52548 0.0113,0.0749 0.0183,0.13298 0.0279,0.1984 0.0322,0.31312 0.1561,-0.15127 0.32656,-1.27905 0.82629,-5.46465 2.57272,-10.33994 5.01771,-14.00885 1.4217,-2.1334 1.57327,-2.3251 3.88489,-4.91422 1.59485,-1.78635 2.18991,-2.29238 2.42175,-2.06052 0.0566,0.057 -0.66984,1.38106 -1.61514,2.94232 -2.09954,3.46766 -2.93723,5.1141 -4.19752,8.25064 -1.64448,4.09279 -2.05122,6.18835 -2.05644,10.59684 -0.009,4.22394 0.26222,6.16261 1.30285,9.44422 2.25364,7.10663 7.20458,13.40139 13.99806,17.79743 3.38254,2.18882 7.91603,4.26277 11.63254,5.32181 l 1.15172,0.32843 -2.5338,-0.0225 c -8.55784,-0.0756 -12.89265,-0.71089 -17.96704,-2.63369 -6.12851,-2.32221 -10.16506,-4.79848 -15.02066,-9.21476 -4.92979,-4.48367 -9.21114,-11.23287 -10.85597,-17.11404 -1.19072,-4.25711 -1.52442,-6.64105 -1.51441,-10.81729 0.009,-2.0904 0.13825,-4.62998 0.29609,-5.6435 0.3936,-2.52794 1.495,-6.6367 2.21568,-8.26638 1.08477,-2.45281 0.44671,-1.57637 -0.86059,1.18232 -3.017073,6.3663 -3.928683,10.81183 -3.590193,17.5032 0.33475,6.61828 2.990873,13.35209 7.270313,18.43178 1.39984,1.66157 0.97934,1.52683 -0.58217,-0.18671 -2.48452,-2.72632 -3.87026,-4.73464 -5.88196,-8.52327 -3.745333,-7.05379 -5.337406,-13.89241 -5.484216,-23.5597 -0.0251,-1.64953 -0.11906,-2.58887 -0.23799,-2.37635 -0.39922,0.71337 -0.53584,2.6908 -0.52008,7.52271 0.0137,4.19065 0.0938,5.31582 0.52233,7.31351 0.57658,2.68763 1.562313,5.75287 2.587353,8.04729 0.97394,2.18 0.29017,1.35694 -1.257493,-1.5139 -0.81746,-1.51639 -1.59261,-3.21675 -2.29669,-4.94617 -0.33787,-0.4048 -0.84303,-1.44236 -1.57553,-3.36521 -5.20529,-13.66387 -5.96428,-28.84567 -3.2532,-38.49714 2.71109,-9.651461 10.898693,-20.929601 10.898693,-20.929601 l 0.27668,-0.30323 c 0.0148,-0.0202 0.009,-0.0169 0.0235,-0.0374 5.388943,-7.05764 14.814773,-13.99025 24.463563,-17.99224 8.68512,-3.60226 18.5991,-5.46278 32.3304,-6.0673 1.92133,-0.0846 3.57364,-0.10092 5.18373,-0.0662 z m 44.33721,2.16085 c 1.92055,-0.0232 2.66125,0.6847 2.09693,2.07267 -0.39316,0.967 -4.7508696,5.45628 -8.6239996,8.8841 -3.25074,2.87693 -6.27861,5.25266 -6.46143,5.06987 -0.0627,-0.0631 0.48231,-0.62189 1.21205,-1.24171 0.72973,-0.6198 2.39424,-2.15622 3.69901,-3.41426 1.30477,-1.25804 2.57785,-2.43125 2.82893,-2.60715 0.25117,-0.1759 0.41928,-0.39052 0.37392,-0.47689 -0.081,-0.15345 0.60516,-0.90659 0.92946,-1.02081 0.0899,-0.0317 0.57512,-0.5041 1.07841,-1.05005 0.50321,-0.54596 1.41456,-1.50795 2.02494,-2.13791 1.2253696,-1.26459 1.3495996,-1.67735 0.6226496,-2.06638 -1.1206396,-0.59975 -6.0883796,0.89664 -9.8783696,2.97562 -2.42837,1.33213 -6.25423,4.01678 -8.21952,5.76766 -4.5311304,4.03659 -7.1602604,7.68305 -10.7840604,14.95589 -1.2669,2.54268 -2.37326,4.62831 -2.45823,4.63528 -0.29644,0.0238 -0.46046,-1.39761 -0.2987,-2.58826 0.8639,-6.36013 6.99894,-14.95691 14.5447004,-20.37982 5.59545,-4.02132 10.1473,-6.17779 15.00395,-7.10881 0.89785,-0.17211 1.66921,-0.26131 2.3093596,-0.26904 z m -43.89495,5.69523 c 0.81445,3e-5 1.47471,0.66029 1.47471,1.47476 0,0.81447 -0.66026,1.47474 -1.47471,1.47476 -0.81453,-2e-5 -1.4748,-0.66028 -1.4748,-1.47476 0,-0.81447 0.66027,-1.47473 1.4748,-1.47476 z m -6.05381,0.0612 c 0.21277,-0.0119 0.18692,0.21298 0,0.88989 -0.13216,0.4786 -0.13799,1.06887 -0.0139,1.48466 0.20337,0.68209 0.20624,0.68303 0.22583,0.0845 0.0113,-0.33289 0.15532,-0.718 0.32125,-0.8557 0.24116,-0.20016 0.30515,-0.0292 0.31847,0.85211 0.0235,1.57165 0.56284,2.45836 1.91114,3.14161 2.08475,1.05641 4.07442,0.5803 5.62418,-1.34563 0.64799,-0.8053 0.71311,-1.03605 0.71311,-2.53381 v -1.64797 l 1.08285,-0.0261 1.08338,-0.0261 0.35634,1.04601 c 0.45471,1.33458 0.4514,2.44629 -0.0113,3.80432 -0.43139,1.26589 -1.93169,2.90268 -3.30132,3.60142 -1.75435,0.895 -4.70099,0.79761 -6.33006,-0.2092 -0.39142,-0.24189 -0.78946,-0.44742 -0.88453,-0.45664 -0.095,-0.009 -0.17508,-0.0661 -0.17856,-0.12642 0,-0.0603 -0.25979,-0.3833 -0.56955,-0.71759 -1.59529,-1.72133 -2.0272,-6.34529 -0.6425,-6.87666 0.12693,-0.0488 0.22418,-0.0788 0.29513,-0.0828 z m -72.699146,5.89498 0.17006,0.0257 c 11.09678,1.76182 15.700733,3.65218 16.189493,3.8619 -0.1157,0.0681 -1.41577,0.0846 -3.14609,0.0252 -3.011993,-0.10334 -3.614353,0.0491 -1.529223,0.38692 0.36362,0.0589 0.756993,0.2577 1.040203,0.47058 -5.665023,0.0946 -17.051773,1.93991 -18.924903,2.24858 l 0.88989,-0.37656 c 2.87004,-1.21415 4.15036,-2.59077 4.92411,-5.29347 z m -9.56614,10.53027 c 0.25902,-2.9e-4 0.50449,0.002 0.73288,0.007 3.65436,0.0777 7.12725,0.15566 7.12725,0.15566 l -0.0693,0.0189 c 2.42844,-0.10585 4.74697,-0.14098 6.45691,-0.11157 1.72089,0.0296 2.83074,0.12357 2.83074,0.27308 0,0.21658 -0.12702,0.24256 -3.34002,0.69779 -4.73905,0.67144 -13.15761,2.89321 -17.88741,4.71986 -1.14618,0.44265 -2.15146,0.79925 -2.23373,0.79316 -0.0823,-0.006 -0.49084,-0.54983 -0.90789,-1.20886 -0.41706,-0.65905 -1.53099,-2.00187 -2.47578,-2.98371 -0.94479,-0.98186 -1.69217,-1.78894 -1.66056,-1.79329 0.0186,-0.003 0.66489,-0.034 1.11843,-0.0571 1.32122,-0.0997 6.87708,-0.50551 10.30846,-0.50928 z m 16.69339,6.69039 v 4.6e-4 4.4e-4 l -0.57587,0.90295 c -0.005,0.0253 -0.0292,0.0554 -0.0558,0.0877 l -0.0463,0.0724 -0.10033,0.0455 c -0.36101,0.29777 -1.18771,0.71373 -1.88461,0.84355 -0.66736,0.12432 -2.1981,0.45442 -3.40167,0.73378 -2.34836,0.54509 -2.28222,0.84632 0.0949,0.43235 0.10562,-0.0184 0.18455,-0.012 0.28973,-0.0284 0.0353,-0.01 0.0704,-0.0198 0.10888,-0.0292 1.64937,-0.40318 4.47151,-0.62311 4.47151,-0.62311 0,0 0.0368,0.51316 -0.1831,1.24622 -0.21992,0.73305 -1.53955,1.02621 -1.53955,1.02621 l -0.0176,-0.003 c -0.5484,0.19042 -1.46018,0.40789 -2.53382,0.57047 -0.57011,0.0864 -3.11273,0.66677 -5.65024,1.28985 -2.53752,0.623066 -5.66553,1.487286 -6.95089,1.920141 -1.28536,0.43286 -2.38808,0.73556 -2.45059,0.67305 -0.0625,-0.0625 -0.0106,-0.40999 0.11563,-0.77203 0.23861,-0.684465 0.038,-2.384661 -0.51108,-4.329331 -0.0968,-0.34295 -0.11846,-0.52457 -0.13047,-0.70454 l -0.0508,-0.002 c 0,0 -0.16469,-0.5315 -0.238,-0.69643 -0.0733,-0.16494 3.17032,-1.02623 5.91928,-1.37444 2.74895,-0.3482 13.2133,-1.22789 14.01966,-1.24621 0.80636,-0.0184 1.30109,-0.0369 1.30109,-0.0369 z m 36.902286,6.712 c -0.0977,-0.0821 -0.0883,0.16795 -5.2e-4,0.897086 l 0.14086,1.170175 -2.68406,0.86065 c -6.81438,2.18443 -12.09179,6.12883 -15.87325,11.86376 -2.21045,3.35237 -6.35251,11.56977 -6.35251,12.60293 0,0.005 0.19057,-0.13639 0.21146,-0.14666 0,-0.006 9.89248,-13.3428 17.94223,-17.40602 5.76904,-2.91198 9.53187,-4.27324 11.2231,-4.81974 -1.83079,-1.78384 -4.05665,-4.140335 -4.4728,-4.835021 -0.0575,-0.0957 -0.10195,-0.1598 -0.13451,-0.18716 z m -44.203196,1.778431 h 4.5e-4 c 0.31465,-0.003 0.61683,5.4e-4 0.90339,0.0135 4.58738,0.20734 0.62221,0.6222 0.62221,0.6222 l -0.4373,0.0819 c -0.40047,0.12256 -0.87853,0.25763 -1.69521,0.43325 -3.32965,0.716 -8.68297,2.15618 -10.94146,2.94368 -1.24999,0.43585 -2.62213,0.96385 -5.96922,2.29761 -0.62259,0.2481 -1.34818,0.61048 -1.61243,0.80486 -0.4721,0.34728 -0.47049,0.35021 0.0954,0.18897 0.24099,-0.0687 0.66456,-0.22834 1.0406,-0.37162 0.64629,-0.25946 4.00492,-1.57702 6.79388,-1.99889 3.08418,-0.46651 5.70177,-0.28504 7.25682,-0.38871 1.55505,-0.10367 5.31342,-0.90718 5.5985,-0.80352 0.27795,0.10107 0.43,0.17993 0.2695,0.54393 1e-5,8.7e-4 0.003,0.002 0.003,0.003 0,0.008 -0.0118,0.0158 -0.0126,0.0239 -0.0173,0.18462 -0.29239,0.36816 -0.74818,0.55877 -0.22569,0.102 -0.42554,0.16691 -0.47014,0.16691 -0.002,0 -0.0872,0.0136 -0.094,0.0144 -0.30905,0.10245 -0.52322,0.19784 -0.96998,0.31223 -1.43533,0.36749 -4.89067,1.63327 -4.77475,1.74919 0.0527,0.0527 1.25585,-0.22818 2.67374,-0.624 1.48176,-0.41365 2.81187,-0.66094 3.12768,-0.58172 0.54035,0.13562 0.56374,0.23587 0.37296,1.58949 -0.0145,0.10247 -0.12123,0.12776 -0.2371,0.0562 -0.11588,-0.0716 -0.24545,-0.0419 -0.28793,0.0666 -0.0425,0.10844 -1.26897,0.58723 -2.72592,1.064 -1.45694,0.47677 -3.47353,1.2698 -4.48097,1.76225 -1.00744,0.49244 -1.94034,0.88327 -2.07312,0.86829 -0.13278,-0.015 -0.96672,-0.39193 -1.85356,-0.8377 -2.2073,-1.1095 -4.21524,-1.78673 -6.87441,-2.31831 -1.23644,-0.24717 -2.29927,-0.50059 -2.36196,-0.56328 -0.19031,-0.19031 1.55773,-1.46288 3.33239,-2.42583 0.92128,-0.4999 1.67166,-0.99979 1.66731,-1.11125 -0.008,-0.19864 0.47464,-0.75726 1.29165,-1.49545 0.43177,-0.39011 0.93605,-0.66967 1.32944,-0.77788 l -0.0203,-0.0131 c 0,0 7.53952,-1.79938 12.26191,-1.85357 z m 94.821366,8.65915 c 0.65069,0 -0.85876,15.41983 -2.08884,21.34036 -0.21233,1.02201 -0.80382,1.28408 -1.20526,0.53403 -0.14634,-0.2734 -0.46481,-1.07568 -0.70814,-1.78294 -0.51923,-1.5091 -1.01112,-2.12441 -1.69837,-2.12441 -1.40907,0 -2.94934,-3.33525 -3.7233,-8.06213 -0.35269,-2.15384 -0.29296,-5.18185 0.11021,-5.58501 0.10004,-0.10005 0.55553,1.19347 1.01225,2.87439 0.76909,2.83068 2.41427,7.22833 2.62513,7.01748 0.0505,-0.0503 -0.1319,-1.01399 -0.40492,-2.14151 -0.61203,-2.52751 -0.69465,-7.09399 -0.15157,-8.38471 l 0.33918,-0.80621 0.28617,1.7276 c 0.15749,0.95017 0.6304,3.12695 1.05047,4.83728 l 0.76352,3.10968 -0.0357,-1.95795 c -0.0313,-1.70686 0.0131,-1.94972 0.34598,-1.89496 0.28408,0.0468 0.42886,-0.18931 0.56598,-0.92139 l 0.18439,-0.98437 0.14983,0.92139 c 0.11301,0.69582 0.15749,0.76631 0.18222,0.28793 0.0392,-0.75687 0.48693,-0.85844 0.50791,-0.11517 0.0139,0.50736 0.0191,0.50806 0.20833,0.0396 0.10656,-0.26329 0.41641,-1.85902 0.68882,-3.54607 0.66993,-4.1499 0.72312,-4.38289 0.99562,-4.38289 z m -28.97684,2.72322 c 0.0157,0.0237 0.0104,0.0748 -0.0192,0.15612 -0.30592,0.84349 -1.76253,3.44143 -2.51856,4.49176 -0.41031,0.57011 -0.78371,1.20732 -0.8296,1.41582 -0.0891,0.4048 -1.51432,2.19652 -2.55991,3.21811 -1.05526,1.03112 -0.71006,1.00173 0.54125,-0.0459 0.64599,-0.54089 1.75949,-1.71682 2.47486,-2.61299 0.71537,-0.89618 1.3638,-1.68132 1.44015,-1.7447 0.0766,-0.0634 0.58722,-0.84076 1.13596,-1.7276 1.2057,-1.94849 1.11785,-1.83169 1.2696,-1.67991 0.20912,0.20909 -0.96968,3.08267 -1.96112,4.78015 -1.74895,2.99471 -4.39027,6.04846 -9.56521,11.05978 -2.78149,2.69355 -4.49126,4.2528 -4.49126,4.09451 0,-0.24804 1.18498,-3.25058 1.61775,-4.099 0.25961,-0.50885 0.45533,-1.35112 0.45533,-1.96065 0,-1.40583 0.52514,-2.45763 1.59851,-3.20146 0.48048,-0.33302 1.12064,-0.87212 1.42256,-1.19762 0.5046,-0.54399 0.46246,-0.53355 -0.52097,0.12551 -0.58852,0.39438 -1.13317,0.71669 -1.20979,0.71669 -0.26266,0 -0.13929,-1.75403 0.14888,-2.11811 0.15836,-0.20008 0.93624,-0.79918 1.72805,-1.33124 1.64823,-1.10749 1.85003,-1.37619 0.52733,-0.70139 -1.31034,0.66847 -1.8529,0.61888 -1.84681,-0.16826 0.009,-0.84386 0.58078,-1.51195 1.83775,-2.14016 1.46035,-0.72981 5.57447,-3.42412 5.918,-3.87539 0.38246,-0.50258 0.40083,0.0487 0.0244,0.73287 -0.15235,0.27673 -0.29748,0.62464 -0.32264,0.77337 -0.0253,0.14873 -0.65174,0.86873 -1.39288,1.59984 -0.74105,0.73111 -1.14292,1.25155 -0.89297,1.15668 0.88104,-0.33446 2.33443,-1.62212 3.46734,-3.07234 1.27021,-1.62606 2.41444,-2.80897 2.52344,-2.64449 z m -3.07192,12.82518 -0.39586,0.80622 c -0.54065,1.10035 -2.13655,3.18364 -4.23539,5.52832 -0.96393,1.07687 -2.27262,2.57988 -2.90807,3.34002 -1.12047,1.34024 -3.49956,4.21946 -4.11699,4.9826 -0.59662,0.73734 -3.30785,4.9447 -3.9884,6.18922 -0.38098,0.6968 -0.95192,2.09615 -1.26864,3.10968 -0.31681,1.01355 -0.66915,2.2057 -0.78285,2.64898 -0.36034,1.40549 -0.49006,0.42978 -0.27537,-2.07266 0.26092,-3.0396 1.39209,-8.68357 2.2869,-11.40981 0.60533,-1.84443 1.72118,-3.97896 1.95702,-3.74314 0.0479,0.0474 -0.0653,0.65158 -0.25012,1.34249 -0.48997,1.83017 -1.31774,6.22702 -1.19542,6.34938 0.0575,0.0576 0.34745,-0.54336 0.64381,-1.33574 0.64537,-1.72577 2.30788,-4.56041 2.63688,-4.49581 0.12893,0.0253 1.06187,-0.78753 2.07307,-1.80678 1.01129,-1.01926 2.81553,-2.72947 4.00947,-3.80027 1.19394,-1.07081 2.30831,-2.08388 2.47625,-2.25128 0.16794,-0.1674 0.3055,-0.22843 0.3055,-0.13542 0,0.19339 1.4263,-1.27418 2.38396,-2.45283 z m 12.28985,63.46951 3.22479,0.13362 c 1.77368,0.0736 4.15782,0.16763 5.29796,0.2092 2.57124,0.0937 3.72835,0.22958 6.79531,0.79632 1.33019,0.24581 2.88508,0.50098 3.45515,0.56732 1.32193,0.15382 1.97845,0.36245 4.33926,1.37712 4.5603804,1.96001 8.2539104,4.85142 10.6558104,8.34242 0.78555,1.14183 2.45675,4.46459 3.08533,6.13433 0.22757,0.6046 0.35625,1.15633 0.28616,1.22642 -0.0696,0.0701 -0.19449,-0.084 -0.27667,-0.34282 -0.22775,-0.71745 -1.97966,-3.00848 -3.22941,-4.22318 -4.80224,-4.66754 -13.3769704,-7.82648 -23.6136804,-8.69873 -3.05241,-0.2601 -9.21384,-0.0787 -9.21384,0.27128 0,0.11288 0.22218,0.64175 0.49398,1.17513 1.09644,2.15127 2.70888,4.30448 4.75358,6.34848 1.18497,1.18452 2.11225,2.1955 2.06097,2.24678 -0.0514,0.0513 -0.86137,-0.47379 -1.8004,-1.16658 -1.4802,-1.09194 -2.76025,-2.18343 -3.85207,-3.20776 0,-0.002 -0.009,-0.002 -0.009,-0.003 -0.41467,-0.23325 -3.47283,-3.03237 -4.14668,-4.43192 -0.67384,-1.39954 -0.27972,-2.31626 0.15566,-2.77316 1.04969,-1.10148 2.72116,-1.71055 5.64977,-2.04747 2.75624,-0.31709 12.01291,1.71352 13.12798,1.9611 0.0757,-0.009 0.3815,0.0295 0.3815,0.009 0,-0.0834 -2.20219,-0.68618 -4.89444,-1.33935 -6.47135,-1.57007 -7.75802,-1.84515 -10.45288,-2.23508 z"
           sodipodi:nodetypes="cccccssccccccscccccssssssccccscsscsscssssssscsscsssssscccsssccccscccscscsscccssssssssssssssssssssssscscccssssssccsscsssccsscccccssssssssssssssssscscccscscccssssccsssccccsssscccccsssscsssccccsscsssscsssssssssssscscscsccscccccccssssscsscccscccccccsccccsccscccscccccccscssccssscccccccccccccsscsssssccscccccccscsssssssssssscsssssssssssssssssscsssscccsscsssssssccsssssssscsssccscccsccsccssscccccccccccccccscssscsssscccccscccccscsssssssssccssccccscssssssssssscccsccssssssssccssscssssssssssssssscccsscccsssssscsscccssscssssssssssssscsscccsscssssssssssssssscssssssssscscsscssscccccsssssscccccscccccccccssssssscccccccccccssscccsccsssscsccssscscccsscscsssssccssssscssscsccscssscscsssssssscsccsssssssssssscccccscccsssssccsssssssssssssssssssscssssssscccssssssssscsssssssccccssssssscsssssssccssscsscc" />
      </g>
      <g
         id="text8"
         style="font-size:66.4832px;line-height:47.5px;letter-spacing:-0.283104px;fill:#f9f9f9;fill-opacity:1;stroke-width:15;stroke-linecap:round;stroke-linejoin:round;paint-order:stroke markers fill"
         aria-label="Sailfish&#10;Pool"
         transform="translate(25.806422,-27.563274)">
        <path
           style="font-weight:900;font-stretch:ultra-expanded;font-family:Syne;-inkscape-font-specification:'Syne Heavy Ultra-Expanded';fill:#f9f9f9;fill-opacity:1;stroke:none;stroke-width:5;stroke-dasharray:none;stroke-opacity:1;paint-order:markers stroke fill"
           d="m 20.078997,121.7547 q 0.664832,1.92801 5.318656,3.05823 4.720307,1.06373 12.365875,1.06373 5.052723,0 7.845017,-0.26594 2.858778,-0.33241 4.055476,-0.99724 1.26318,-0.73132 1.26318,-1.9945 0,-1.26318 -1.994496,-1.92801 -1.928012,-0.73132 -6.714803,-0.99725 -4.720307,-0.26593 -13.894989,-0.26593 -13.562572,0 -19.6790269,-2.59285 -6.0499712,-2.65933 -6.0499712,-8.50985 0,-7.5126 7.8450171,-11.169176 7.845018,-3.723059 24.000436,-3.723059 15.490585,0 23.601536,4.454374 8.177433,4.387891 8.177433,12.698291 H 48.999189 q -0.332416,-2.12746 -4.321408,-3.25768 -3.922509,-1.13021 -10.903245,-1.13021 -7.446119,0 -10.903245,0.7978 -3.390643,0.7978 -3.390643,2.59284 0,1.32967 1.728563,1.9945 1.795046,0.66483 6.249421,0.93076 4.520857,0.26594 13.629056,0.26594 9.640064,0 15.291136,1.06373 5.651072,1.06373 8.177433,3.39064 2.592845,2.32691 2.592845,6.3159 0,5.45163 -3.257677,8.77579 -3.191193,3.25767 -10.038963,4.85327 -6.847769,1.52911 -18.08343,1.52911 -10.437863,0 -18.083431,-1.99449 -7.645568,-2.06098 -11.7010429,-5.85052 -4.0554752,-3.85603 -4.0554752,-9.1082 z M 137.20528,104.80148 v 32.57677 h -15.02521 q -0.73131,-4.18844 -0.93076,-10.23841 -2.3934,5.18569 -8.84227,8.17743 -6.44887,2.99174 -15.756517,2.99174 -7.180185,0 -12.831257,-2.06097 -5.651072,-2.06098 -8.842266,-5.91701 -3.12471,-3.92251 -3.12471,-9.24116 0,-5.58459 3.12471,-9.44062 3.191194,-3.92251 8.775783,-5.85052 5.584588,-1.9945 12.89774,-1.9945 9.307647,0 15.690037,2.99175 6.44887,2.99174 8.90875,8.17743 v -10.17193 z m -34.57127,23.40209 q 18.6153,0 18.6153,-7.1137 0,-3.92251 -5.05273,-5.51811 -4.98624,-1.5956 -13.56257,-1.5956 -6.914251,0 -10.570827,1.79505 -3.656576,1.79505 -3.656576,5.31866 0,3.52361 3.656576,5.31865 3.723059,1.79505 10.570827,1.79505 z M 160.4572,97.68778 H 143.57047 V 87.7153 h 16.88673 z m -0.46538,7.1137 v 32.57677 H 144.03585 V 104.80148 Z M 183.77566,91.504842 V 137.37825 H 167.81969 V 91.504842 Z m 37.14695,10.637308 q -2.79229,-0.0665 -4.18844,0.26594 -1.32967,0.33241 -1.92801,1.32966 -0.53187,0.99725 -0.53187,3.05823 h 38.62674 v 30.58227 h -15.95597 v -20.60979 h -7.31315 v 0 h -15.35762 v 20.60979 h -15.95597 v -20.60979 h -10.83676 v -9.97248 h 10.83676 v -3.32416 q 0,-6.18294 3.59009,-9.041717 3.65658,-2.925261 12.36588,-2.925261 h 38.62674 v 10.637308 z m 52.42091,23.53506 q 0.86428,1.66208 3.32416,2.19394 2.45988,0.46538 7.77853,0.46538 5.18569,0 6.84777,-0.59834 1.72857,-0.59835 1.72857,-1.86153 0,-1.5956 -3.12471,-2.19395 -3.12471,-0.59835 -10.96973,-0.59835 -6.98074,0 -11.43511,-0.66483 -4.38789,-0.66483 -6.78129,-2.45988 -2.39339,-1.86153 -2.39339,-5.18569 0,-10.96973 26.12789,-10.96973 8.04447,0 13.42961,1.66208 5.45162,1.66208 8.04447,4.52086 2.59284,2.85878 2.52636,6.51536 h -14.29389 q -0.73131,-1.66208 -2.72581,-2.19395 -1.9945,-0.53187 -6.98074,-0.53187 -5.25217,0 -7.37963,0.59835 -2.12746,0.53187 -2.12746,1.9945 0,1.06373 1.06373,1.66208 1.13021,0.59835 4.12196,0.93076 3.05822,0.26594 8.90874,0.26594 6.64832,0 10.83677,0.46538 4.18844,0.46538 6.98073,2.32691 2.7923,1.86153 2.7923,5.71756 0,10.63731 -25.19714,10.63731 -9.77303,0 -15.55707,-1.86153 -5.71755,-1.86153 -7.97798,-4.52086 -2.26043,-2.72581 -2.26043,-5.5181 v -0.7978 z m 81.89018,-21.87298 q 8.84227,0 14.6263,3.52361 5.85053,3.45713 5.85053,11.30215 v 18.74826 h -15.95597 v -12.09994 q 0,-3.12471 -1.26318,-5.11921 -1.1967,-1.99449 -4.25493,-2.99174 -3.05822,-1.06373 -8.44336,-1.06373 -4.58734,0 -8.3104,1.06373 -3.72306,0.99725 -6.18294,2.12746 v 18.08343 H 315.34378 V 91.504842 h 15.95597 v 23.269118 q 1.46263,-2.32691 4.52086,-4.78679 3.05822,-2.52636 7.97798,-4.32141 4.91976,-1.86153 11.43511,-1.86153 z"
           id="path2" />
        <path
           style="font-weight:900;font-stretch:ultra-expanded;font-family:Syne;-inkscape-font-specification:'Syne Heavy Ultra-Expanded';fill:#f9f9f9;fill-opacity:1;stroke:none;stroke-width:5;stroke-dasharray:none;stroke-opacity:1;paint-order:markers stroke fill"
           d="m 49.929953,143.33455 q 11.302144,0 17.618048,3.59009 6.315904,3.59009 6.315904,13.03071 0,6.44887 -3.058227,9.70655 -3.058227,3.25767 -8.044467,4.25492 -4.98624,0.99725 -12.831258,0.99725 H 20.411413 V 185.8838 H 3.7906125 v -42.54925 z m 2.592845,19.94496 q 2.260429,0 3.457127,-0.66483 1.26318,-0.73132 1.26318,-2.65933 0,-1.92801 -1.26318,-2.59285 -1.196698,-0.73131 -3.457127,-0.73131 H 20.411413 v 6.64832 z m 57.956172,23.60153 q -16.155421,0 -23.867472,-4.05547 -7.712051,-4.05548 -7.712051,-13.16367 0,-9.1082 7.712051,-13.23016 7.778535,-4.12196 23.867472,-4.12196 15.95597,0 23.60153,4.12196 7.71205,4.12196 7.71205,13.23016 0,9.10819 -7.64556,13.16367 -7.64557,4.05547 -23.66802,4.05547 z m 0,-9.97248 q 7.37963,0 11.16917,-1.79504 3.85603,-1.86153 3.85603,-5.45162 0,-3.5901 -3.85603,-5.45163 -3.78954,-1.92801 -11.16917,-1.92801 -7.44612,0 -11.36863,1.92801 -3.922509,1.86153 -3.922509,5.45163 0,3.59009 3.856026,5.45162 3.922513,1.79504 11.435113,1.79504 z m 67.26387,9.97248 q -16.15542,0 -23.86747,-4.05547 -7.71205,-4.05548 -7.71205,-13.16367 0,-9.1082 7.71205,-13.23016 7.77853,-4.12196 23.86747,-4.12196 15.95597,0 23.60153,4.12196 7.71205,4.12196 7.71205,13.23016 0,9.10819 -7.64556,13.16367 -7.64557,4.05547 -23.66802,4.05547 z m 0,-9.97248 q 7.37963,0 11.16917,-1.79504 3.85603,-1.86153 3.85603,-5.45162 0,-3.5901 -3.85603,-5.45163 -3.78954,-1.92801 -11.16917,-1.92801 -7.44612,0 -11.36863,1.92801 -3.92251,1.86153 -3.92251,5.45163 0,3.59009 3.85603,5.45162 3.92251,1.79504 11.43511,1.79504 z m 53.30241,-36.89817 v 45.87341 h -15.95597 v -45.87341 z"
           id="path4" />
      </g>
    </g>
  </g>
</svg>
