<svg width="1228" height="498" viewBox="0 0 1228 498" fill="none" xmlns="http://www.w3.org/2000/svg">
<path d="M1078.9 171.55H1111.54V207.686H1078.9V291.7C1078.9 296.142 1079.58 299.605 1080.93 302.089C1082.29 304.498 1084.17 306.192 1086.58 307.171C1089.07 308.15 1091.93 308.639 1095.16 308.639C1097.42 308.639 1099.68 308.451 1101.94 308.074C1104.2 307.623 1105.93 307.283 1107.13 307.058L1114.7 342.854C1112.29 343.607 1108.9 344.473 1104.54 345.452C1100.17 346.506 1094.86 347.146 1088.61 347.372C1077.02 347.824 1066.86 346.28 1058.12 342.742C1049.47 339.204 1042.73 333.708 1037.91 326.255C1033.24 319.035 1030.87 309.978 1030.8 299.084V207.686H1007.08V171.55H1030.8V129.993H1078.9V171.55Z" fill="#292929"/>
<path d="M993.463 345H945.357V113.732H993.463V345Z" fill="#292929"/>
<path d="M847.13 169.291C856.766 169.291 865.988 170.42 874.796 172.679C883.679 174.937 891.547 178.438 898.397 183.181C905.323 187.923 910.782 194.022 914.771 201.475C918.761 208.852 920.756 217.698 920.756 228.012V345H875.135V320.947H873.78C870.995 326.368 867.268 331.149 862.601 335.289C857.933 339.354 852.325 342.554 845.775 344.888C839.226 347.146 831.659 348.275 823.077 348.275C812.011 348.275 802.149 346.355 793.491 342.516C784.834 338.601 777.983 332.842 772.939 325.238C767.971 317.559 765.486 307.999 765.486 296.556C765.486 286.92 767.256 278.827 770.794 272.277C774.332 265.728 779.15 260.458 785.248 256.468C791.346 252.478 798.272 249.467 806.026 247.435C813.856 245.402 822.061 243.971 830.644 243.143C840.731 242.089 848.862 241.11 855.035 240.207C861.208 239.228 865.687 237.798 868.473 235.916C871.258 234.034 872.65 231.248 872.65 227.56V226.882C872.65 219.73 870.392 214.197 865.875 210.282C861.433 206.368 855.11 204.41 846.904 204.41C838.247 204.41 831.358 206.33 826.239 210.169C821.12 213.933 817.732 218.676 816.076 224.397L771.584 220.784C773.842 210.245 778.284 201.136 784.909 193.457C791.534 185.703 800.079 179.755 810.543 175.614C821.082 171.399 833.278 169.291 847.13 169.291ZM872.989 264.599C871.484 265.577 869.414 266.481 866.779 267.309C864.22 268.061 861.321 268.777 858.084 269.454C854.847 270.056 851.609 270.621 848.372 271.148C845.135 271.6 842.199 272.014 839.564 272.391C833.918 273.219 828.987 274.536 824.771 276.343C820.556 278.15 817.281 280.596 814.947 283.683C812.614 286.694 811.446 290.458 811.446 294.975C811.446 301.524 813.818 306.531 818.561 309.994C823.379 313.382 829.477 315.075 836.854 315.075C843.931 315.075 850.179 313.683 855.6 310.897C861.02 308.037 865.273 304.197 868.359 299.379C871.446 294.561 872.989 289.103 872.989 283.005V264.599Z" fill="#292929"/>
<path d="M695.34 288.063C695.34 292.475 696.013 295.914 697.358 298.382C698.704 300.774 700.573 302.457 702.966 303.429C705.433 304.401 708.274 304.887 711.489 304.887C713.732 304.887 715.976 304.7 718.219 304.326C720.462 303.878 722.182 303.541 723.378 303.316L730.893 338.869C729.632 339.263 728.1 339.687 726.3 340.144L723.378 326.316C722.182 326.541 720.462 326.878 718.219 327.326C715.976 327.7 713.732 327.887 711.489 327.887C708.274 327.887 705.433 327.401 702.966 326.429C700.573 325.457 698.704 323.774 697.358 321.382C696.013 318.914 695.34 315.475 695.34 311.063V288.063ZM647.562 191.732H624.01V168.732H647.562V191.732ZM695.34 168.732H727.752V191.732H695.34V150.459H647.562V127.459H695.34V168.732Z" fill="#292929"/>
<path d="M510.778 288.624C510.937 289.4 511.123 290.155 511.332 290.891C511.784 292.48 512.352 293.973 513.038 295.371C513.489 296.289 513.991 297.165 514.543 298C516.246 300.576 518.43 302.76 521.097 304.55C526.555 308.139 533.546 309.934 542.069 309.934C550.443 309.934 557.173 308.325 562.257 305.11C562.765 304.786 563.248 304.453 563.707 304.11C564.021 304.33 564.323 304.554 564.612 304.783C568.201 307.55 570.033 311.101 570.107 315.438C570.033 320.597 567.416 324.821 562.257 328.11C557.173 331.325 550.443 332.934 542.069 332.934C533.546 332.934 526.555 331.139 521.097 327.55C515.639 323.886 512.199 318.578 510.778 311.624L471.741 313.674C467.626 307.05 464.974 299.523 463.786 291.092L501 289.137L502.135 289.077L505.055 288.924L510.778 288.624ZM522.157 228.911C525.552 231.258 530.731 233.181 537.695 234.678L564 239.977L568.874 240.959C569.352 241.057 569.826 241.157 570.297 241.259C570.342 241.268 570.387 241.277 570.432 241.287V241.288C573.017 241.848 575.497 242.46 577.872 243.123H577.879C577.949 243.143 578.02 243.163 578.09 243.183C578.128 243.193 578.167 243.205 578.205 243.216C578.58 243.322 578.953 243.429 579.323 243.537C579.352 243.546 579.381 243.554 579.409 243.562C580.187 243.791 580.953 244.026 581.707 244.267C581.759 244.283 581.811 244.3 581.863 244.316C582.195 244.423 582.525 244.53 582.853 244.639C582.921 244.661 582.99 244.684 583.059 244.707C583.772 244.945 584.474 245.19 585.166 245.438C585.211 245.455 585.256 245.47 585.301 245.486C594.058 248.653 601.068 252.676 606.333 257.558C614.558 265.184 618.67 275.204 618.67 287.615C618.67 291.687 618.235 295.579 617.369 299.291C615.567 291.955 611.889 285.71 606.333 280.558C598.108 272.931 585.622 267.398 568.874 263.959L537.695 257.678C529.695 255.958 524.05 253.678 520.76 250.837C517.47 247.996 515.825 244.518 515.825 240.406C515.825 235.706 517.936 231.874 522.157 228.911ZM541.396 166.488C563.154 166.488 580.276 171.087 592.763 180.283C605.324 189.48 612.652 202.004 614.745 217.855L606.931 218.336C603.348 212.594 598.626 207.576 592.763 203.283C580.276 194.087 563.154 189.488 541.396 189.488C526.667 189.488 513.806 191.658 502.815 195.994C491.899 200.331 483.413 206.499 477.356 214.499C473.568 219.566 470.981 225.249 469.592 231.546C468.787 227.955 468.385 224.14 468.385 220.099C468.385 209.033 471.375 199.499 477.356 191.499C483.413 183.499 491.899 177.331 502.815 172.994C513.806 168.658 526.667 166.488 541.396 166.488Z" fill="#292929"/>
<path d="M428.195 290.091L451.858 291.652C450.11 299.927 446.93 307.383 442.321 314.022L407.669 311.736C406.024 316.073 403.631 319.737 400.491 322.728C397.351 325.718 393.575 327.962 389.164 329.457C384.753 330.952 379.893 331.699 374.584 331.699C366.584 331.699 359.668 330.017 353.836 326.652C348.004 323.288 343.48 318.503 340.265 312.297C337.124 306.091 335.555 298.727 335.555 290.203V290.091H340.688C343.873 295.912 348.255 300.433 353.836 303.652C359.668 307.017 366.584 308.699 374.584 308.699C379.893 308.699 384.753 307.952 389.164 306.457C393.575 304.962 397.351 302.718 400.491 299.728C401.071 299.175 401.624 298.598 402.153 298H402.151C402.985 297.058 403.753 296.058 404.46 295.002C405.476 293.482 406.364 291.846 407.119 290.091H407.121C407.312 289.647 407.495 289.195 407.669 288.736L428.195 290.091ZM371.893 166.488C383.257 166.488 393.837 168.321 403.632 171.984C413.501 175.573 422.1 180.993 429.428 188.246C436.83 195.499 442.587 204.621 446.699 215.612C450.811 226.529 452.867 239.314 452.867 253.969V267.091H452.535C451.804 256.494 449.859 247.001 446.699 238.612C442.587 227.621 436.83 218.499 429.428 211.246C422.1 203.993 413.501 198.573 403.632 194.984C393.837 191.321 383.257 189.488 371.893 189.488C354.995 189.488 340.265 193.227 327.704 200.704C315.218 208.181 305.535 218.611 298.656 231.995C293.29 242.437 290.017 254.198 288.837 267.279C288.505 263.521 288.338 259.645 288.338 255.651C288.338 237.931 291.777 222.379 298.656 208.995C305.535 195.611 315.218 185.181 327.704 177.704C340.265 170.227 354.995 166.488 371.893 166.488ZM400.197 237.482C401.385 238.938 402.455 240.511 403.407 242.201C406.398 247.51 407.894 253.604 407.894 260.482H335.601C335.889 254.296 337.48 248.651 340.377 243.547C341.609 241.347 343.027 239.326 344.627 237.482H400.197Z" fill="#292929"/>
<path d="M222.688 365.01C222.687 376.823 219.285 385.235 212.481 390.244C205.752 395.328 197.191 397.87 186.799 397.87C179.845 397.87 173.938 396.936 169.078 395.066C164.293 393.272 160.442 390.879 157.526 387.889C154.61 384.898 152.48 381.683 151.134 378.243L117.23 382.804C112.293 376.563 108.942 369.699 107.177 362.21C107.166 362.164 107.154 362.118 107.144 362.071C107.075 361.778 107.009 361.483 106.945 361.188L143.78 356.231H143.781L151.134 355.243C151.689 356.663 152.381 358.043 153.204 359.387C154.375 361.298 155.814 363.133 157.526 364.889C160.442 367.879 164.293 370.272 169.078 372.066C173.938 373.936 179.845 374.87 186.799 374.87C197.191 374.87 205.752 372.328 212.481 367.244C219.285 362.235 222.687 353.823 222.688 342.01V365.01ZM222.214 265.714C222.679 269.357 222.912 273.221 222.912 277.305C222.912 287.399 221.454 296.073 218.538 303.325C215.697 310.503 211.584 316.036 206.201 319.924C200.893 323.737 194.388 325.644 186.687 325.644C178.836 325.644 172.218 323.7 166.835 319.812C161.526 315.849 157.452 310.278 154.61 303.101C151.844 295.848 150.461 287.249 150.461 277.305C150.461 273.292 150.693 269.473 151.157 265.85C151.826 271.069 152.977 275.819 154.61 280.101C157.452 287.278 161.526 292.849 166.835 296.812C172.218 300.7 178.836 302.644 186.687 302.644C194.388 302.644 200.893 300.737 206.201 296.924C211.584 293.036 215.697 287.503 218.538 280.325C220.29 275.968 221.515 271.097 222.214 265.714ZM171.434 166.488C181.079 166.488 189.153 168.134 195.658 171.424C202.163 174.639 207.398 178.676 211.36 183.536C215.398 188.321 218.501 193.032 220.669 197.668H222.463V220.668H220.669C218.501 216.032 215.398 211.321 211.36 206.536C207.398 201.676 202.163 197.639 195.658 194.424C189.153 191.134 181.079 189.488 171.434 189.488C158.798 189.488 147.171 192.741 136.554 199.246C126.011 205.751 117.562 215.546 111.207 228.631C106.152 239.038 103.11 251.479 102.075 265.953C101.809 262.286 101.674 258.478 101.674 254.529C101.674 235.015 104.852 218.715 111.207 205.631C117.562 192.546 126.011 182.751 136.554 176.246C147.171 169.741 158.798 166.488 171.434 166.488ZM269.904 191.731H222.463V168.731H269.904V191.731Z" fill="#292929"/>
</svg>
