<svg width="800" height="420" viewBox="0 0 800 420" fill="none" xmlns="http://www.w3.org/2000/svg">
<g clip-path="url(#clip0_8_46)">
<g clip-path="url(#clip1_8_46)">
<g clip-path="url(#clip2_8_46)">
<path d="M95.7034 76V185.954H84.3497C83.7187 178.729 83.4037 173.545 83.4037 170.404V161.921C82.0428 168.7 78.9769 175.024 74.494 180.299C70.2361 185.117 64.3752 187.524 56.9104 187.524C50.7726 187.581 44.7687 185.743 39.7219 182.263C34.422 178.59 30.2031 173.573 27.5002 167.733C24.4253 161.201 22.8883 154.056 23.0063 146.841C22.8993 139.621 24.3793 132.463 27.3432 125.872C29.9561 119.98 34.125 114.903 39.4069 111.186C44.5428 107.637 50.6606 105.769 56.9104 105.844C64.6902 105.844 70.6561 107.808 74.809 111.736C78.9618 115.662 81.8268 121.186 83.4037 128.306V76H95.7034ZM77.4109 167.497C81.4058 162.115 83.4037 155.23 83.4037 146.841C83.4037 137.952 81.4058 130.883 77.4109 125.637C73.416 120.39 67.5811 117.772 59.9073 117.783C52.2326 117.783 46.2137 120.479 41.8508 125.872C37.4879 131.265 35.307 138.255 35.307 146.841C35.215 151.964 36.293 157.04 38.4609 161.686C40.3759 165.828 43.4048 169.362 47.2127 171.896C50.9536 174.352 55.3475 175.638 59.8283 175.587C67.6081 175.587 73.49 172.891 77.4739 167.497H77.4109Z" fill="black"/>
<path d="M184.012 107.416L140.331 217.37H127.4L141.592 184.855L111.473 107.416H124.562L147.742 169.618L170.924 107.416H184.012Z" fill="black"/>
<path d="M255.905 113.228C260.688 118.159 263.08 124.861 263.08 133.333V185.954H250.78V136.474C250.78 124.338 245.155 118.264 233.907 118.254C228.212 118.226 222.708 120.296 218.453 124.065C213.871 128.034 210.716 133.384 209.464 139.302V185.954H197.164V107.415H209.464V129.878C210.896 123.164 214.364 117.05 219.399 112.363C223.98 108.121 230.018 105.788 236.272 105.844C244.535 105.844 251.079 108.305 255.905 113.228Z" fill="black"/>
<path d="M350.128 160.822C348.913 168.299 345.054 175.096 339.247 179.985C333.119 185.098 325.316 187.783 317.328 187.525C310.446 187.605 303.678 185.784 297.773 182.263C291.899 178.777 287.099 173.75 283.896 167.733C280.464 161.309 278.728 154.119 278.85 146.842C278.738 139.559 280.417 132.361 283.739 125.872C286.812 119.849 291.472 114.771 297.221 111.186C303.018 107.609 309.72 105.756 316.539 105.845C327.262 105.845 335.62 109.248 341.612 116.055C347.605 122.861 350.601 132.601 350.601 145.271C350.601 147.376 350.601 148.947 350.443 149.984H291.15C291.623 156.951 294.621 163.509 299.586 168.44C301.907 170.761 304.675 172.591 307.724 173.818C310.773 175.047 314.039 175.648 317.328 175.588C322.121 175.701 326.823 174.268 330.731 171.504C334.429 168.9 337.149 165.141 338.458 160.822H350.128ZM300.706 123.359C296.323 127.29 293.266 132.475 291.954 138.203H338.001C337.465 131.71 335.152 126.683 331.062 123.123C326.808 119.511 321.354 117.607 315.766 117.783C310.221 117.692 304.845 119.682 300.706 123.359Z" fill="black"/>
<path d="M370.091 170.718H354.007V185.954H370.091V170.718Z" fill="black"/>
<path d="M178.54 273.007C172.64 269.642 167.784 264.724 164.505 258.791C160.877 252.205 159.055 244.783 159.223 237.271C159.071 229.787 160.892 222.394 164.505 215.831C167.783 209.837 172.634 204.842 178.54 201.38C184.264 197.995 190.807 196.23 197.464 196.274C204.068 196.242 210.557 198.007 216.229 201.38C222.084 204.855 226.881 209.85 230.106 215.831C233.665 222.412 235.458 229.797 235.31 237.271C235.473 244.773 233.68 252.187 230.106 258.791C226.882 264.711 222.08 269.63 216.229 273.007C210.524 276.282 204.048 277.99 197.464 277.954C190.828 278 184.298 276.293 178.54 273.007ZM209.763 262.561C213.79 260.156 217.087 256.709 219.304 252.587C221.808 247.874 223.056 242.602 222.931 237.271C223.052 231.917 221.804 226.619 219.304 221.878C217.096 217.708 213.8 214.207 209.763 211.747C206.044 209.451 201.759 208.227 197.385 208.212C192.942 208.195 188.579 209.39 184.769 211.668C180.688 214.1 177.36 217.606 175.149 221.8C172.602 226.554 171.326 231.883 171.444 237.271C171.313 242.612 172.591 247.892 175.149 252.587C177.404 256.707 180.726 260.151 184.769 262.561C188.582 264.831 192.943 266.026 197.385 266.016C201.748 265.996 206.025 264.803 209.763 262.561Z" fill="black"/>
<path d="M271.501 203.264C275.486 198.594 281.11 196.264 288.374 196.274V208.84C281.016 208.84 275.365 211.197 271.422 215.909C267.653 220.292 264.883 225.436 263.301 230.988V267.745H251.001V197.846H263.301V219.207C264.721 213.319 267.533 207.853 271.501 203.264Z" fill="black"/>
<path d="M351.755 302.79C351.728 298.193 350.063 294.65 347.463 292.296C344.572 289.678 340.235 288.368 334.453 288.368H319.157C312.313 288.368 307.219 287.206 303.86 284.913C302.234 283.837 300.914 282.36 300.03 280.626C299.146 278.892 298.727 276.96 298.814 275.017C298.664 272.967 299.095 270.917 300.057 269.098C301.018 267.28 302.473 265.765 304.254 264.729C308.207 262.499 312.735 261.488 317.264 261.822C311.219 259.559 306.018 255.502 302.362 250.199C298.405 244.367 296.391 237.443 296.606 230.408C296.483 224.182 298.006 218.034 301.021 212.579C303.783 207.569 307.875 203.412 312.849 200.562C317.736 197.748 323.289 196.283 328.933 196.321C332.258 196.296 335.563 196.827 338.71 197.893L370.091 197.735V211.354C363.563 211.354 356.415 209.312 348.645 205.228C356.73 210.977 360.778 219.354 360.788 230.36C360.929 236.578 359.435 242.725 356.452 248.188C353.724 253.09 349.684 257.142 344.782 259.89C339.944 262.598 334.482 264.005 328.933 263.974C324.325 264.033 319.743 264.667 315.293 265.859C312.502 266.802 311.114 268.53 311.114 271.043C311.08 271.795 311.227 272.543 311.542 273.226C311.858 273.909 312.333 274.507 312.928 274.97C314.534 276.028 316.448 276.526 318.368 276.384H334.295C343.221 276.384 350.422 278.321 355.9 282.195C361.376 286.071 364.17 292.401 364.16 301.198C364.16 301.198 364.169 304.884 364.178 305.615C364.219 309.125 363.485 312.608 362.112 315.842C360.636 319.443 358.454 322.717 355.695 325.47C352.938 328.23 349.65 330.404 346.028 331.863C342.523 333.283 338.773 334.009 334.989 334C331.205 334.008 327.456 333.282 323.95 331.863C320.331 330.408 317.047 328.233 314.3 325.47L314.11 325.282L284.149 292.767C280.927 289.617 276.588 287.86 272.073 287.878C267.559 287.896 263.233 289.686 260.037 292.861C256.834 296.06 255.035 300.392 255.035 304.909C255.035 309.426 256.834 313.759 260.037 316.957C263.236 320.13 267.562 321.918 272.077 321.933C276.591 321.947 280.929 320.188 284.149 317.035L291.465 309.056L299.728 317.947L292.884 325.376L292.79 325.47C290.033 328.23 286.745 330.404 283.124 331.863C279.618 333.282 275.869 334.008 272.085 334C268.301 334.008 264.552 333.282 261.046 331.863C257.426 330.408 254.142 328.233 251.395 325.47C248.625 322.726 246.443 319.45 244.977 315.842C243.551 312.351 242.823 308.616 242.833 304.846C242.823 301.077 243.551 297.342 244.977 293.851C246.443 290.243 248.625 286.967 251.395 284.222C254.142 281.46 257.426 279.285 261.046 277.829C264.553 276.415 268.302 275.695 272.085 275.709C275.868 275.695 279.617 276.415 283.124 277.829C286.745 279.289 290.033 281.463 292.79 284.222L292.963 284.41L322.926 316.925C326.142 320.077 330.477 321.836 334.989 321.821C339.501 321.807 343.825 320.019 347.021 316.848C348.562 315.391 349.779 313.63 350.594 311.676C351.409 309.723 351.804 307.621 351.752 305.506C351.752 304.842 351.742 303.309 351.755 302.79ZM342.732 246.304C346.569 242.377 348.488 237.062 348.488 230.36C348.587 226.289 347.637 222.26 345.728 218.657C344.056 215.518 341.581 212.873 338.553 210.992C335.661 209.222 332.327 208.298 328.933 208.323C325.502 208.312 322.129 209.206 319.157 210.914C316.023 212.717 313.456 215.356 311.745 218.533C309.784 222.146 308.805 226.207 308.906 230.313C308.906 237.005 310.878 242.319 314.82 246.256C316.644 248.147 318.837 249.645 321.264 250.658C323.691 251.671 326.301 252.178 328.933 252.147C331.509 252.176 334.063 251.671 336.433 250.666C338.803 249.659 340.937 248.174 342.7 246.304H342.732Z" fill="black"/>
</g>
</g>
<circle cx="612.29" cy="204.29" r="168.19" stroke="black" stroke-width="3"/>
<path fill-rule="evenodd" clip-rule="evenodd" d="M506.31 71.691C535.363 48.4314 572.215 34.5154 612.29 34.5154C656.825 34.5154 697.379 51.7016 727.671 79.7935C726.559 81.6097 725.45 83.4287 724.37 85.2648C721.58 89.9706 718.862 94.7802 716.072 99.5088C713.282 104.237 710.551 108.625 707.832 113.222C704.418 119.044 701.111 124.914 697.731 130.759C697.037 131.936 696.448 133.323 694.825 133.688C694.204 133.874 693.622 134.17 693.105 134.559C689.575 136.912 685.924 139.158 682.429 141.615C679.991 143.309 677.721 145.145 675.366 147.062C671.835 149.93 668.209 152.719 664.841 155.789C661.839 158.541 659.18 161.669 656.296 164.55C653.095 167.889 650.623 171.855 649.034 176.194C647.35 180.44 646.678 184.922 645.654 189.332C645.383 190.509 645.654 191.32 646.833 191.685C648.01 192.05 648.951 192.404 650.022 192.756V193.132L650.904 192.438C652.081 192.698 652.081 194.626 653.906 194.061C653.576 193.426 653.294 192.884 652.964 192.25L654.143 191.661C654.116 191.988 654.142 192.319 654.213 192.638C654.417 192.992 654.651 193.331 654.907 193.649C655.272 193.332 655.978 192.861 655.919 192.709C655.449 191.532 656.296 189.873 654.4 189.25L655.779 188.333C655.989 188.967 656.266 189.578 656.602 190.156C656.719 190.321 657.579 190.216 657.602 190.156C657.839 189.227 657.968 188.274 658.133 187.333C657.909 187.157 658.003 187.028 658.133 187.005C660.04 186.639 660.333 186.099 659.758 184.24C659.682 183.631 659.682 183.015 659.758 182.406C661.004 183.864 661.828 183.123 662.37 182.299C663.1 181.183 664.455 180.429 664.371 178.772C664.371 178.394 665.101 177.9 665.548 177.595C665.8 177.495 666.028 177.346 666.219 177.154C666.41 176.963 666.558 176.733 666.655 176.481C666.753 176.229 666.797 175.96 666.785 175.689C666.772 175.419 666.704 175.155 666.585 174.912C666.527 174.29 666.575 173.663 666.726 173.055C668.562 175.112 668.55 172.843 669.08 172.349C670.257 171.349 668.515 170.996 668.374 169.938C668.834 169.709 669.32 169.536 669.821 169.421C671.257 169.221 671.951 168.244 671.375 166.939C671.023 166.139 671.375 165.539 671.951 165.55C673.564 165.55 673.495 164.468 673.753 163.422C673.942 162.611 673.836 161.693 675.082 161.257C676.065 160.762 676.881 159.995 677.438 159.047C678.615 157.352 679.686 155.518 680.792 153.766C680.944 154.236 680.92 154.747 680.723 155.201C679.628 157.553 678.556 159.906 677.344 162.186C674.601 167.351 671.869 172.501 668.975 177.572C666.69 181.559 664.147 185.405 661.747 189.332C660.252 191.779 658.839 194.272 657.297 196.684C655.944 198.789 654.426 200.777 653.024 202.859C652.058 204.316 651.258 205.894 650.211 207.292C647.939 210.293 645.502 213.174 643.148 216.186C641.276 218.654 639.616 221.243 637.698 223.725C635.532 226.285 633.665 229.082 632.129 232.063C631.777 233.119 631.52 234.206 631.365 235.309L631.883 235.685C632.46 235.357 633.306 235.168 633.554 234.686C634.273 232.847 635.4 231.194 636.849 229.852C637.738 229.011 638.783 228.352 639.922 227.912C641.204 227.716 642.506 227.688 643.795 227.83C644.314 228.663 644.584 229.618 645.149 229.875C645.714 230.135 646.738 229.875 647.679 229.805C647.279 230.687 646.397 231.769 647.868 231.934C649.007 231.88 650.119 231.566 651.117 231.016C651.285 230.903 651.422 230.748 651.513 230.568C651.603 230.386 651.645 230.184 651.635 229.981C651.458 228.935 651.953 228.804 652.811 228.618C653.487 228.377 654.072 227.934 654.484 227.347C654.626 227.182 654.284 226.582 654.13 226.17C653.977 225.76 653.883 225.606 653.754 225.336C654.083 225.23 654.506 224.959 654.742 225.065C654.918 225.184 655.12 225.261 655.334 225.287C655.546 225.314 655.76 225.288 655.961 225.216C656.161 225.14 656.341 225.021 656.485 224.864C656.629 224.707 656.734 224.518 656.79 224.313C656.834 224.239 656.894 224.175 656.965 224.129C657.037 224.081 657.116 224.051 657.202 224.041C658.674 224.137 658.38 223.148 658.262 222.383C659.758 220.983 661.676 220.254 662.771 218.371C663.406 217.279 664.748 216.609 665.619 215.609C666.084 214.877 666.447 214.086 666.703 213.255C667.237 213.171 667.755 212.997 668.232 212.738C668.698 212.308 669.096 211.808 669.409 211.257L667.774 210.492C667.774 210.492 667.774 210.364 667.691 210.198C668.657 210.181 669.62 210.067 670.562 209.858C671.623 209.539 671.646 208.587 670.562 207.328C672.8 207.328 674.377 206.599 674.966 204.435C675.037 204.2 675.531 204.105 675.743 203.882C676.308 203.305 677.109 202.777 677.297 202.082C677.486 201.284 677.986 200.594 678.685 200.165C679.391 199.671 680.358 198.801 680.311 198.155C680.311 197.178 680.745 196.978 681.264 196.554C682.241 195.803 683.219 195.049 684.217 194.308C684.666 193.967 685.149 193.649 685.712 193.261C685.634 192.941 685.636 192.604 685.717 192.283C685.798 191.962 685.958 191.667 686.181 191.423C686.405 191.177 686.685 190.992 686.997 190.882C687.31 190.772 687.646 190.741 687.973 190.792C686.006 198.366 682.559 205.304 679.616 212.433C676.673 219.56 671.999 225.913 667.091 232.121C668.41 232.452 669.327 232.746 670.281 232.898C671.531 233.128 672.8 233.246 674.071 233.251C674.966 233.251 676.002 232.381 676.308 234.027C676.308 234.146 676.589 234.298 676.755 234.321C679.109 234.745 681.464 235.815 683.712 233.641C683.983 234.581 684.194 235.332 684.417 236.086H685.078C685.267 235.215 685.443 234.345 685.56 233.827C686.214 233.766 686.853 233.587 687.443 233.298C687.784 233.04 687.808 232.357 687.962 231.864L685.289 231.286L683.971 228.935C682.877 229.241 681.709 230.369 682.087 228.158C682.241 227.312 680.298 226.17 679.898 226.735C679.027 227.971 678.121 227.405 677.167 227.147C678.874 226.218 678.896 225.97 677.638 224.489C677.449 224.277 677.638 223.759 677.638 223.101C678.11 223.489 678.273 223.56 678.321 223.676C678.722 224.854 678.862 226.288 680.745 225.806C680.874 225.806 681.086 226.053 681.252 226.207C683.237 228.164 685.657 229.628 688.314 230.475C688.832 230.616 689.762 230.535 689.998 230.193C690.701 229.061 691.326 227.881 691.87 226.664L691.539 225.582C692.588 225.136 693.706 225.007 694.035 224.406C694.366 223.807 694.035 222.714 694.035 221.982C694.729 221.596 695.942 221.302 696.236 220.619C696.531 219.936 695.895 218.865 695.706 218.16C696.554 217.914 697.768 217.914 698.225 217.338C699.004 216.326 697.673 215.797 697.048 215.173C698.052 214.916 699.031 214.567 699.968 214.127C700.422 213.922 700.781 213.553 700.972 213.096C701.165 212.637 701.178 212.123 701.004 211.658L703.029 209.234C702.911 208.916 702.747 208.504 702.569 208.058C705.337 206.727 705.582 203.588 707.62 201.483C707.622 202.051 707.566 202.618 707.455 203.176C706.572 205.953 705.795 208.764 704.701 211.409C703.573 214.151 702.281 216.824 700.827 219.408C699.356 222.065 697.709 224.631 696.013 227.147C693.931 230.397 691.294 233.256 688.22 235.592C687.632 236.015 687.044 236.909 687.95 237.32C689.539 238.026 691.116 239.12 693.059 238.602C693.243 238.596 693.426 238.633 693.595 238.711C693.762 238.789 693.909 238.904 694.024 239.051C694.355 239.802 694.612 240.474 695.613 240.485C696.402 240.485 697.179 240.708 697.968 240.685C698.203 240.685 698.58 240.236 698.615 239.968C698.65 239.697 698.485 238.931 698.274 238.873C697.632 238.794 696.984 238.794 696.343 238.873C696.247 238.25 696.12 237.438 696.002 236.651L694.471 235.968C695.023 234.992 695.435 235.075 696.084 235.803C697.78 237.744 699.616 239.519 702.534 239.109C704.89 238.78 705.749 238.757 706.065 236.331C706.626 235.759 707.278 235.282 707.995 234.921C709.361 234.521 709.29 233.875 708.833 233.192L705.82 233.463L705.749 232.921C706.734 232.891 707.714 232.749 708.667 232.497C709.847 232.089 710.934 231.454 711.869 230.629C712.305 230.228 712.117 229.146 712.222 228.381C712.222 228.253 712.34 228.147 712.398 228.029C713.093 227.966 713.759 227.723 714.33 227.324C713.894 226.065 715.037 225.653 715.505 224.865C715.696 224.381 715.696 223.844 715.505 223.36C715.237 222.596 715.353 222.513 716.177 222.265C717.332 221.88 718.375 221.227 719.226 220.359C719.662 219.925 719.531 218.902 719.675 218.008C721.569 217.514 722.276 216.737 721.876 215.338C723.817 213.786 723.817 213.786 722.37 212.044C722.307 211.981 722.26 211.905 722.228 211.821C722.006 210.94 721.611 210.114 721.069 209.388C720.525 208.661 719.844 208.049 719.063 207.588C718.874 207.493 718.825 207.128 718.708 206.882C719.886 207.034 720.757 208.223 722.027 207.459C722.181 207.822 722.546 208.352 722.428 208.492C721.78 209.316 722.098 209.67 722.875 210.127C723.159 210.282 723.311 210.716 723.465 211.057C723.616 211.398 723.571 211.88 723.794 212.069C724.971 213.032 724.689 214.185 724.346 215.385C723.653 217.738 722.911 220.172 722.334 222.596C721.367 226.668 720.048 230.651 718.391 234.498C717.625 236.297 716.389 237.909 716.566 240.038C716.566 240.332 715.943 240.637 715.649 240.979C715.308 241.368 715 241.786 714.73 242.224C714.448 242.719 714.411 243.46 714.012 243.742C712.035 245.165 711.809 245.884 712.834 248.318C713.089 249.033 713.611 249.623 714.293 249.961C714.973 250.299 715.76 250.358 716.484 250.13C717.472 251.787 717.944 251.917 718.838 251L718.155 249.506L718.756 249.259C718.871 249.698 719.027 250.123 719.226 250.529C719.531 251.058 720.086 252 720.298 251.94C721.097 251.717 721.78 251.176 721.475 250.081C721.227 249.283 721.097 248.447 720.91 247.636L721.286 247.484C721.438 247.741 721.593 248.001 721.758 248.258C721.922 248.518 722.205 249.283 722.581 249.435C722.807 249.457 723.036 249.418 723.242 249.323C723.449 249.228 723.626 249.079 723.758 248.894C723.927 248.366 723.927 247.799 723.758 247.271C723.44 246.165 723.004 245.107 722.488 243.673C723.665 244.237 723.994 244.731 723.841 245.635C723.858 245.843 723.925 246.043 724.034 246.22C724.145 246.396 724.297 246.543 724.477 246.648C724.806 246.812 725.501 246.824 725.653 246.648C725.847 246.237 725.91 245.777 725.83 245.33C725.83 244.918 725.56 244.531 725.535 244.154C725.535 242.79 724.841 242.249 723.487 242.425C722.864 242.507 722.076 242.578 722.205 241.696C724.559 241.402 726.914 241.191 729.267 240.79C729.64 240.698 729.989 240.526 730.289 240.288C730.589 240.046 730.833 239.744 731.005 239.402C731.175 239.058 731.269 238.682 731.282 238.298C731.293 237.913 731.219 237.531 731.067 237.179C731.539 236.525 731.967 235.843 732.351 235.133C732.588 234.539 732.768 233.925 732.893 233.298C733.187 232.334 733.517 231.37 733.764 230.393C734.14 228.982 734.435 227.547 734.8 226.124C735.164 224.702 735.601 223.089 735.976 221.572C735.976 221.419 735.847 221.231 735.789 221.054C735.242 219.296 734.205 217.727 732.801 216.534C731.397 215.34 729.681 214.571 727.854 214.314C728.361 213.986 728.808 213.481 729.032 213.563C730.21 213.961 731.456 214.515 732.729 215.031C732.834 214.492 732.963 213.749 733.094 212.998H733.541V214.174C733.487 214.57 733.522 214.972 733.646 215.35C734.012 216.055 734.506 216.703 735.082 217.585C735.601 217.643 736.507 217.772 736.848 216.703C737.26 215.398 735.86 215.714 735.33 215.22C736.955 214.15 736.955 214.15 735.801 213.103C735.965 212.115 736.614 211.68 737.496 211.927C737.849 212.088 738.251 212.102 738.615 211.969C738.978 211.832 739.273 211.561 739.438 211.21C739.932 210.469 740.179 209.881 739.438 209.093C739.073 208.681 738.732 207.987 739.709 207.682C741.545 207.116 741.557 207.094 740.885 205.259C742.38 204.082 742.534 203.458 741.909 201.53C741.818 201.358 741.767 201.167 741.763 200.972C741.76 200.776 741.801 200.583 741.886 200.408C741.971 200.234 742.096 200.079 742.253 199.962C742.407 199.845 742.589 199.765 742.781 199.731C742.998 199.612 743.184 199.444 743.325 199.24C743.464 199.035 743.552 198.799 743.582 198.554C743.582 198.271 743.041 197.884 742.676 197.672C742.309 197.46 742.086 197.672 741.497 197.672C741.898 197.438 742.122 197.201 742.251 197.249C743.653 197.732 744.147 196.989 744.205 195.789C744.265 194.589 744.205 193.237 744.205 191.968C744.205 191.592 744.029 191.227 744.04 190.862C744.083 190.42 744.165 189.984 744.287 189.557L745.193 190.145C746.017 189.05 747.018 187.851 746.065 186.193C745.972 186.017 746.16 185.652 746.277 185.405C746.466 185.092 746.557 184.73 746.538 184.365C746.517 184 746.39 183.649 746.172 183.357C745.723 182.688 745.783 181.865 746.924 181.664C747.242 181.606 747.772 181.359 747.795 181.159C748.154 179.343 748.28 177.49 748.173 175.643C747.913 173.843 747.619 173.854 749.245 173.289C749.445 171.102 749.702 168.927 749.82 166.75C749.962 163.999 750.009 161.246 747.972 159C747.43 158.389 746.949 157.729 746.454 157.083C745.561 155.64 744.515 154.299 743.335 153.084C740.98 151.13 738.366 149.473 735.836 147.719C735.235 147.307 734.518 147.05 733.906 146.661C732.469 145.72 731.056 144.744 729.609 143.769C729.95 142.874 730.244 142.815 730.915 143.498C731.522 144.175 732.2 144.781 732.94 145.308C734.576 146.332 735.177 146.025 735.613 144.134L737.308 144.226C737.072 144.625 736.774 144.983 736.425 145.285C736.188 145.579 735.86 146.191 735.965 146.308C736.3 146.761 736.783 147.077 737.331 147.202C737.731 147.202 738.225 146.791 738.615 146.485C739.99 145.415 741.345 144.32 742.698 143.228C743.015 142.957 743.452 142.685 743.558 142.32C743.708 141.649 743.799 140.964 743.829 140.274C743.122 140.298 742.417 140.378 741.723 140.51C741.428 140.581 741.203 141.028 741.016 141.333C740.696 141.994 740.242 142.579 739.679 143.05C739.119 143.519 738.461 143.865 737.754 144.063C737.895 142.685 738.072 142.474 739.579 142.051C739.579 141.414 739.579 140.768 739.661 140.345C740.526 139.919 741.32 139.364 742.017 138.698C742.44 137.889 742.727 137.015 742.863 136.112C742.745 136.112 742.923 136.052 743.015 136.112L745.173 136.62C745.05 136.638 744.929 136.666 744.81 136.707C744.563 136.789 744.334 136.923 744.137 137.093C743.941 137.267 743.779 137.477 743.664 137.712C743.549 137.947 743.479 138.201 743.464 138.464L743.452 138.486C743.428 138.706 743.45 138.931 743.516 139.142C743.583 139.353 743.694 139.547 743.843 139.712C743.991 139.878 744.171 140.01 744.374 140.101C744.576 140.192 744.796 140.24 745.017 140.24C745.794 140.358 747.372 138.769 747.1 138.029C746.966 137.695 746.76 137.397 746.497 137.152C746.368 137.031 746.226 136.923 746.074 136.832L745.173 136.62C745.308 136.601 745.446 136.596 745.582 136.606C745.754 136.663 745.919 136.74 746.074 136.832L747.654 137.204C747.81 137.518 747.856 137.874 747.783 138.217C747.36 139.24 747.63 140.875 745.723 140.663C745.642 140.663 745.56 140.886 745.442 140.957C744.265 141.734 744.559 142.945 744.594 143.874C743.783 143.963 742.991 144.169 742.24 144.486C741.3 145.142 740.436 145.899 739.661 146.744C738.295 148.108 738.484 148.719 740.273 149.591C740.591 149.743 740.945 149.825 741.452 150.014C741.452 148.355 742.698 148.013 743.805 147.251C745.348 146.156 747.924 145.909 747.795 143.239C748.705 143.178 749.566 142.807 750.233 142.188C750.902 141.571 751.338 140.741 751.468 139.84H753.329C751.197 141.686 752.069 143.368 753.553 144.945L753.093 145.025L751.081 142.674C750.22 143.415 749.374 144.134 748.55 144.874C746.9 146.345 745.242 147.79 743.641 149.295C743.349 149.616 743.195 150.039 743.215 150.473C743.215 150.755 743.724 151.096 744.064 151.201C745.594 151.684 746.677 151.06 747.867 150.025C749.056 148.99 749.303 148.567 747.867 147.251C748.702 147.474 749.568 147.566 750.432 147.519C751.17 147.178 751.848 146.717 752.433 146.156L753.4 148.191L753.059 148.425L751.564 147.685C751.045 148.308 750.385 148.979 749.879 149.731C749.695 150.174 749.577 150.642 749.526 151.119C750.091 151.248 750.797 151.672 751.197 151.472C752.008 150.96 752.759 150.355 753.434 149.673C753.53 149.73 753.613 149.811 753.671 149.907C754.67 151.695 755.223 151.778 756.742 150.424C757.107 150.22 757.506 150.082 757.919 150.014C758.073 150.484 758.485 151.072 758.32 151.367C758.154 151.661 757.236 152.341 757.059 152.225C755.883 151.413 755.2 152.319 754.635 153.036C754.446 153.26 754.31 153.523 754.236 153.805C754.164 154.089 754.155 154.385 754.21 154.672C754.369 154.947 754.588 155.187 754.851 155.367C755.113 155.548 755.415 155.668 755.73 155.718C756.177 155.718 756.718 155.153 757.154 154.752C757.36 154.468 757.526 154.155 757.648 153.824L757.884 154.177C758.614 153.996 759.311 153.706 759.956 153.318C760.43 152.833 760.828 152.279 761.133 151.672C761.65 151.691 762.168 151.643 762.674 151.53C764.476 150.873 765.37 148.801 767.382 148.425C767.502 148.425 767.524 148.073 767.654 147.956C768.49 147.18 769.278 145.885 770.197 145.768C770.729 145.704 771.16 145.548 771.53 145.335C778.342 163.7 782.064 183.563 782.064 204.291C782.064 297.991 705.991 374.064 612.29 374.064C518.588 374.064 442.516 297.991 442.516 204.291C442.516 182.664 446.567 161.977 453.951 142.957C454.677 143.706 455.413 144.449 456.158 145.179C459.961 148.896 463.891 152.483 467.847 156.035C470.202 158.212 472.839 160.211 475.322 162.317C477.181 163.88 478.983 165.516 480.831 167.079C482.29 168.257 483.844 169.432 485.245 170.702C485.677 170.99 486.001 171.413 486.167 171.905C486.333 172.396 486.332 172.93 486.164 173.418C486.022 174.018 486.022 174.644 486.164 175.243C486.398 176.889 486.752 178.512 486.976 180.159C487.564 184.487 487.987 188.827 488.695 193.097C489.483 197.932 490.377 202.753 491.437 207.528C492.151 210.482 493.018 213.394 494.038 216.255C495.215 219.842 496.557 223.395 497.852 226.947C499.664 232.174 501.95 237.225 504.679 242.037C506.04 244.447 507.59 246.744 509.319 248.907C511.602 251.612 514.144 254.106 516.676 256.575C519.429 259.269 522.29 259.527 525.81 257.751C526.927 257.147 528.112 256.681 529.342 256.363C530.836 256.023 531.154 255.763 530.166 254.54C529.255 253.201 528.49 251.77 527.881 250.27C527.14 248.823 526.705 247.095 524.491 247.013C526.069 243.978 523.761 244.225 522.137 244.154L524.115 242.978L522.713 241.309C522.797 239.497 522.713 239.392 521.372 238.014C521.065 237.698 521.184 236.98 521.053 236.451C520.924 235.921 520.853 235.191 520.548 235.051C519.595 234.626 519.606 234.169 519.795 233.229C520.03 232.052 520.464 230.509 518.405 230.17C518.218 230.17 518.134 229.17 518.1 228.641C518.064 228.113 518.405 227.324 518.171 226.876C517.681 226.133 517.099 225.453 516.438 224.854C517.922 222.619 515.757 220.56 515.686 218.326C515.686 218.219 515.487 218.126 515.403 218.021C515.084 217.468 514.906 216.846 514.891 216.209C514.874 215.572 515.017 214.941 515.31 214.374C516.981 217.667 518.546 221.008 520.348 224.219C523.103 229.135 525.833 234.098 528.929 238.802C531.672 242.979 534.815 246.859 537.97 250.8C538.629 251.635 539.276 252.917 540.735 252.6C541.635 252.383 542.521 252.109 543.384 251.775C545.55 250.989 547.728 250.235 549.847 249.342C550.747 248.827 551.593 248.22 552.366 247.53L553.932 247.224C553.861 246.612 553.716 246.012 553.496 245.437C553.013 244.531 552.319 243.742 551.825 242.836C551.142 241.591 549.611 240.979 549.4 239.367C549.246 238.89 549.015 238.44 548.716 238.037C548.505 237.638 548.305 237.237 548.07 236.863C547.833 236.486 547.363 236.133 547.328 235.685C547.287 235.194 547.085 234.728 546.753 234.363C546.42 233.997 545.977 233.751 545.492 233.663C544.456 233.403 543.948 234.169 543.585 235.086C543.48 235.357 542.855 235.509 542.407 235.545C541.96 235.58 541.889 235.262 541.631 235.109C541.827 234.785 542.052 234.478 542.301 234.192C542.63 233.875 543.068 233.675 543.48 233.369C545.22 231.91 545.209 231.464 543.373 230.041C544.243 228.605 543.042 227.817 542.336 226.842L540.83 227.358C540.83 226.63 540.83 226.099 540.912 225.571C540.995 225.041 541.254 224.264 541.03 223.807C539.995 221.69 538.816 219.726 537.64 217.725L538.311 216.937C537.135 217.126 536.804 216.797 536.828 215.821C536.963 214.368 536.543 212.917 535.651 211.763C534.756 210.645 534.708 208.893 534.002 207.575C533.39 206.459 534.968 204.153 531.872 204.342L533.05 203.458C533.121 202.176 531.472 200.931 533.179 199.707C533.358 199.91 533.515 200.131 533.65 200.366C534.756 202.717 535.674 205.152 536.957 207.422C538.7 210.469 540.712 213.363 542.63 216.314C544.337 218.949 545.939 221.677 547.799 224.208C550.401 227.735 553.143 231.17 555.899 234.592C557.887 237.063 560.076 239.356 561.984 241.885C563.043 243.297 564.007 243.059 565.433 242.636C568.435 241.674 570.671 239.367 573.591 238.274C574.426 237.967 574.957 236.921 575.732 236.346C576.815 235.545 576.568 234.826 575.732 234.062C575.273 233.615 574.308 233.121 574.367 232.793C574.731 230.722 572.519 230.193 572.013 228.536C571.412 226.606 569.235 225.348 568.704 223.182C568.704 223.019 568.457 222.901 568.364 222.748C568.092 222.302 567.869 221.819 567.576 221.396C567.299 221.054 567.005 220.727 566.692 220.419C566.408 220.726 566.092 220.995 565.833 221.314C565.573 221.63 565.313 222.396 565.056 222.407C563.878 222.407 563.325 223.313 562.549 223.877C561.772 224.442 560.865 224.676 561.536 225.899C561.619 226.054 561.171 226.499 560.982 226.805L560.9 226.347C560.308 226.151 559.687 226.048 559.064 226.041C558.205 226.17 558.074 226.817 558.37 227.618C558.441 227.819 558.1 228.169 557.992 228.37L556.874 227.194C557.239 226.847 557.577 226.474 557.887 226.076C558.37 225.382 558.735 224.713 559.829 224.9C560.182 224.97 560.713 224.288 561.1 223.901C561.488 223.513 561.854 222.796 562.384 222.536C563.847 221.519 564.904 220.02 565.373 218.302C565.539 216.761 564.196 216.797 563.607 216.138C563.787 215.364 563.686 214.551 563.325 213.844C562.672 213.295 561.928 212.865 561.124 212.575C561.806 210.222 561.643 209.928 559.158 208.281C559.499 206.882 559.499 206.893 558.24 205.787C558.008 205.566 557.83 205.292 557.722 204.988C557.157 203.588 557.334 201.753 555.368 201.212C555.285 201.212 555.25 200.976 555.192 200.848C554.509 199.612 554.627 198.155 553.331 196.989C552.036 195.826 552.259 195.39 550.977 196.354C550.635 195.332 550.635 195.332 552.602 194.872C551.954 193.203 550.635 191.743 550.977 189.673C551.583 190.064 552.1 190.576 552.497 191.178C554.049 193.449 555.544 195.766 557.121 198.014C558.553 200.351 560.17 202.57 561.959 204.647C563.844 206.587 565.313 208.94 567.08 210.999C570.07 214.526 573.095 217.961 576.226 221.325C578.7 223.983 581.313 226.488 583.925 229.004C584.349 229.417 585.209 229.899 585.573 229.723C587.233 229.08 588.765 228.152 590.107 226.982C590.882 226.183 591.757 225.484 592.707 224.9C593.777 224.23 594.638 222.701 594.049 221.619C593.215 220.168 592.302 218.762 591.318 217.409C590.358 216.234 589.462 215.009 588.634 213.738C588.174 212.916 588.104 211.88 587.079 211.386C586.974 211.386 586.89 211.044 586.927 210.904C587.257 209.81 586.362 209.398 585.75 209.316C585.314 209.245 584.76 209.986 584.29 210.398C584.019 210.645 583.714 211.257 583.607 211.222C582.265 210.727 582.065 211.716 581.618 212.549C581.406 212.963 580.746 213.504 580.441 213.421C579.264 213.092 578.945 213.856 578.593 214.597C578.322 215.186 578.11 215.774 577.863 216.42L576.344 215.068C576.509 214.986 576.909 214.915 576.98 214.738C577.628 212.916 579.677 212.856 580.783 211.645C581.678 210.753 582.511 209.802 583.278 208.799C583.891 207.916 584.749 206.646 583.643 205.811C583.177 205.543 582.804 205.143 582.565 204.661C582.329 204.178 582.241 203.639 582.312 203.105C581.607 202.436 580.759 202.011 580.701 201.495C580.431 200.129 579.719 198.887 578.676 197.966C577.721 196.895 577.321 195.309 576.192 194.121C575.462 193.344 576.086 191.521 574.319 191.227C574.214 191.227 574.203 190.803 574.096 190.603C573.625 189.699 573.119 188.815 572.601 187.874L571.989 189.579L571.483 189.403C571.635 188.967 571.766 188.533 571.929 188.11C572.26 187.299 571.459 184.416 570.753 184.229C568.964 183.77 568.811 182.158 568.635 180.888C568.435 179.418 567.81 179.077 566.552 179.1C566.113 179.033 565.69 178.902 565.291 178.712L566.82 177.383C566.386 176.936 565.962 176.477 565.514 176.043C565.339 175.855 564.927 175.678 564.939 175.524C565.079 173.807 563.913 173.69 562.431 173.69C562.726 173.207 563.032 172.937 563.066 172.632C563.149 172.007 563.325 171.207 563.066 170.773C562.384 169.874 561.593 169.065 560.713 168.362C560.349 168.123 559.953 167.941 559.535 167.821L558.581 167.385L560.936 166.928C558.828 164.146 557.096 161.101 555.78 157.869C556.957 158.74 557.168 160.54 558.923 160.812C559.041 160.812 559.098 161.222 559.206 161.434C559.422 162.068 559.712 162.676 560.065 163.245C561.042 164.575 562.137 165.821 563.125 167.139C563.807 167.858 564.341 168.704 564.69 169.633C564.822 170.215 565.085 170.76 565.461 171.226C565.837 171.69 566.313 172.062 566.857 172.314C567.067 172.441 567.247 172.612 567.385 172.815C567.522 173.018 567.615 173.248 567.658 173.489C567.573 174.023 567.655 174.571 567.894 175.058C568.132 175.544 568.513 175.946 568.987 176.206L570.082 175.784C570.293 176.466 570.812 177.323 570.6 177.583C569.87 178.489 570.423 179.218 570.86 179.723C572.036 181.112 573.331 182.183 573.578 184.334C573.743 185.77 576.132 186.356 576.78 188.016C576.78 188.087 576.933 188.134 577.016 188.145L580.877 188.673V190.238C580.032 189.64 579.15 189.095 578.24 188.604C577.875 188.439 577.334 188.686 576.864 188.744C576.933 189.074 576.864 189.544 577.087 189.699C578.262 190.615 579.606 191.45 580.877 192.32C579.829 194.237 580.463 195.614 582.677 196.425C582.875 196.552 583.036 196.726 583.147 196.931C583.259 197.137 583.316 197.368 583.313 197.601C582.866 199.072 582.984 199.389 584.397 199.954C585.093 200.302 585.764 200.694 586.409 201.131L585.232 202.024C585.409 204.129 588.386 204.2 588.234 206.459C588.234 206.528 588.563 206.6 588.716 206.705C589.044 207.006 589.409 207.267 589.799 207.481C590.328 207.704 590.896 207.821 591.471 207.822C591.718 207.822 591.954 207.352 592.188 207.105C591.788 206.776 591.365 206.165 591.013 206.188C589.458 206.188 589.906 205.082 589.681 204.293C589.919 204.411 590.128 204.58 590.293 204.788C591.471 205.965 594.026 205.787 594.26 204.387C594.563 202.545 594.712 200.68 594.707 198.814C594.707 197.543 594.402 196.283 592.355 196.331C594.389 195.272 594.389 195.272 593.461 193.426L593.331 193.179C593.188 192.878 592.984 192.612 592.732 192.397C592.478 192.179 592.183 192.02 591.863 191.927C591.545 191.833 591.21 191.809 590.879 191.854C590.55 191.9 590.234 192.015 589.952 192.192C588.116 193.026 588.374 194.826 587.904 196.249C587.74 196.732 588.411 197.483 588.258 197.966C588.065 198.568 588.033 199.211 588.164 199.83C588.296 200.449 588.587 201.023 589.012 201.495C589.587 202.33 589.012 203.059 587.539 203.342V198.119C587.642 197.431 587.572 196.728 587.339 196.072C586.645 195.072 587.198 194.261 587.491 193.462C587.893 192.638 588.366 191.85 588.905 191.109C589.929 191.685 590.775 191.356 590.871 190.133C590.949 188.929 590.851 187.721 590.575 186.545C590.318 186.062 589.635 185.663 589.211 185.229L588.797 185.382C588.87 184.964 588.87 184.538 588.797 184.122C588.505 183.382 587.962 182.052 587.704 182.087C586.01 182.381 586.256 181.571 586.527 180.477C586.545 179.965 586.386 179.463 586.08 179.054C585.032 177.301 584.043 175.524 582.831 173.878C581.264 171.75 579.499 169.762 577.817 167.716C576.935 166.513 575.972 165.373 574.931 164.305C572.389 161.952 569.752 159.6 567.091 157.364C564.738 155.389 562.384 153.425 559.936 151.601C558.5 150.531 556.839 149.755 555.31 148.801C554.132 148.05 553.025 147.096 551.778 146.45C548.411 144.673 544.973 143.003 541.572 141.251C541.267 141.047 541.029 140.756 540.889 140.415C539.099 136.887 537.358 133.276 535.569 129.736C533.662 125.973 531.706 122.243 529.741 118.515C527.776 114.787 525.81 111.305 523.926 107.66C523.243 106.342 523.043 104.777 521.796 103.766C521.7 103.665 521.644 103.53 521.643 103.39C521.418 101.143 519.795 99.5088 519.017 97.5094C518.583 96.3337 517.499 95.5214 517.677 94.1099C517.677 93.8629 517.357 93.5689 517.205 93.2991C516.627 92.2867 516.027 91.2983 515.498 90.2518C515.263 89.7704 515.498 88.9695 515.121 88.6642C513.826 87.4885 513.449 85.9009 512.766 84.4071C510.93 80.4779 508.847 76.6553 506.882 72.7858L506.31 71.691ZM737.014 265.311C737.676 265.772 738.487 266.249 739.062 265.538C739.569 264.71 739.964 263.82 740.239 262.891L741.416 263.666C740.827 265.349 737.672 265.819 739.19 268.548C738.12 267.749 737.649 268.195 737.084 268.96C736.519 269.724 736.388 270.406 737.084 271.029C737.778 271.653 738.332 271.029 738.862 270.583C739.743 269.807 740.651 269.078 741.545 268.324C741.467 268.629 741.341 268.919 741.168 269.183C740.344 270.112 739.438 270.96 738.673 271.935C738.426 272.252 738.544 272.841 738.484 273.311C738.914 273.332 739.344 273.305 739.768 273.229C740.05 273.146 740.262 272.817 740.533 272.63C741.192 272.147 741.875 271.677 742.546 271.207C742.262 272.534 741.639 273.665 743.57 273.994C743.735 273.994 743.793 274.629 743.924 274.946C744.053 275.264 744.299 276.252 744.525 276.263C745.131 276.215 745.719 276.039 746.254 275.746C746.663 275.519 747.056 275.264 747.43 274.982C746.172 277.699 743.17 278.229 742.228 280.78C742.042 280.671 741.871 280.536 741.723 280.38C739.932 278.028 738.261 275.546 736.354 273.324C734 270.477 731.456 267.689 728.808 265.091C726.878 263.233 724.816 261.514 722.639 259.95C719.426 257.597 716.083 255.317 712.823 252.964C708.39 249.963 703.695 247.372 698.792 245.225C695.472 243.649 691.987 242.425 688.525 241.168C685.066 239.908 681.275 238.52 677.567 237.475C673.858 236.427 670.21 235.674 666.514 234.897C664.16 234.414 661.888 234.051 659.546 233.722C657.723 233.53 655.892 233.432 654.059 233.429C653.177 233.42 652.3 233.553 651.458 233.815C651.141 233.909 650.986 234.521 650.763 234.886C651.079 235.112 651.418 235.302 651.776 235.451C652.376 235.651 652.953 235.756 653.612 235.897L653.518 236.357C652.141 236.215 650.775 236.052 649.386 235.968C648.963 235.968 648.21 236.05 648.21 236.239C648.091 236.685 648.21 237.486 648.433 237.651C649.078 237.96 649.778 238.139 650.492 238.179C651.669 238.332 652.93 238.39 654.143 238.497V239.025C653.845 239.177 653.521 239.274 653.189 239.308C651.624 239.143 650.069 238.909 648.48 238.731C647.601 238.586 646.711 238.515 645.82 238.52C645.383 238.52 644.642 238.92 644.642 239.251C644.579 239.403 644.557 239.57 644.576 239.734C644.596 239.898 644.659 240.056 644.757 240.19C644.855 240.322 644.985 240.428 645.137 240.496C645.288 240.566 645.454 240.593 645.62 240.579C645.843 240.579 646.055 240.897 646.478 241.225C646.151 241.273 645.82 241.293 645.491 241.284C642.898 240.651 640.162 240.992 637.803 242.237C637.543 242.391 637.004 242.002 636.626 241.896C636.248 241.79 635.449 241.414 634.967 241.603C634.296 241.908 634.024 241.919 633.624 241.284C633.269 240.863 632.842 240.503 632.366 240.225C631.599 239.615 630.27 239.051 630.176 238.403C629.976 237.051 629.94 235.979 628.597 236.05C628.868 235.38 629.516 234.581 629.34 234.04C629.215 233.71 629.182 233.357 629.243 233.01C629.301 232.665 629.455 232.343 629.681 232.074C630.364 231.052 630.117 229.841 629.28 229.723C627.502 229.569 625.75 229.464 623.925 229.464C622.099 229.464 620.006 229.629 618.039 229.687C617.653 229.612 617.278 229.494 616.921 229.335C617.345 229.099 617.462 228.993 617.579 228.982C621.3 228.676 625.019 228.465 628.726 228.053C630.092 227.9 631.706 228.324 632.789 227.087C633.542 226.23 634.131 225.241 634.814 224.324C636.379 222.242 638.121 220.254 639.521 218.043C640.24 216.866 642.182 215.962 641.134 214.338C641.736 213.964 642.314 213.549 642.864 213.103C643.259 212.688 643.618 212.238 643.936 211.763C644.207 211.398 644.454 211.033 644.713 210.658C645.022 210.078 645.42 209.552 645.891 209.093C646.444 208.67 646.762 208.363 646.15 207.811C645.538 207.258 644.831 206.705 644.159 206.152C644.689 206.102 645.22 206.159 645.725 206.317C646.397 206.388 647.338 206.564 647.703 206.21C648.304 205.647 648.21 204.788 647.245 204.342C647.127 204.342 647.067 204.106 646.867 203.836C648.892 204.682 649.375 204.387 649.634 202.541C649.634 202.082 650.198 201.695 650.469 201.259C650.741 200.824 651.282 200.306 651.212 199.92C651.141 199.531 650.552 199.025 650.117 198.743C649.69 198.471 649.241 198.24 648.774 198.048C646.633 196.955 644.548 195.695 642.336 194.815C640.122 193.932 637.944 193.415 635.78 192.638C633.613 191.861 631.187 190.755 628.846 189.98C626.503 189.204 623.877 188.533 621.371 187.863C618.998 187.136 616.59 186.535 614.154 186.062C610.623 185.498 606.927 185.251 603.313 184.888C600.5 184.557 597.709 184.158 594.896 183.864C594.648 183.851 594.398 183.892 594.165 183.982C593.934 184.071 593.721 184.206 593.543 184.382C593.331 184.616 593.412 185.251 593.543 185.639C594.034 187.11 594.629 188.544 595.319 189.933C595.98 191.109 595.696 192.932 597.38 193.462C596.968 195.955 599.416 195.495 600.534 196.695L598.181 196.401C598.178 196.633 598.147 196.861 598.086 197.084C597.569 198.413 597.827 199.214 599.416 199.437C599.959 199.507 600.429 200.072 601.171 200.611C599.922 200.789 598.641 200.177 598.299 201.588C598.195 201.932 598.162 202.29 598.199 202.646C598.239 203.001 598.348 203.346 598.522 203.659C598.793 203.965 599.817 203.659 600.393 203.576L604.243 206.01C603.198 205.858 602.204 205.455 601.347 204.836C600.311 203.977 599.369 204.741 598.499 204.941C598.158 205.011 598.098 206.433 597.827 207.633C596.65 208.305 596.65 208.316 597.898 209.821C598.121 210.093 598.003 210.632 598.052 210.999L596.686 210.904C596.285 210.904 595.873 210.904 595.508 210.833C595.491 211.263 595.524 211.693 595.602 212.115C595.684 212.386 595.991 212.598 596.333 213.009L594.744 213.692C594.567 213.761 594.406 213.867 594.273 214.002C594.139 214.135 594.036 214.296 593.965 214.473C593.895 214.648 593.863 214.837 593.87 215.026C593.875 215.216 593.921 215.402 594.002 215.574C594.095 215.832 594.838 215.892 595.297 215.997C595.565 216.038 595.838 216.062 596.109 216.067L595.933 217.972L598.557 216.797L598.841 217.22C598.499 217.62 598.228 218.173 597.792 218.397C596.451 219.032 596.686 219.867 597.475 221.22L600.041 218.702C601.217 218.079 601.217 218.079 601.948 216.68C602.066 216.467 602.336 216.173 602.536 216.173C603.051 216.223 603.565 216.074 603.972 215.753C604.378 215.432 604.643 214.969 604.714 214.455C604.714 214.28 605.02 214.15 605.184 213.998C606.537 212.821 607.987 211.645 609.234 210.338C611.001 208.458 612.624 206.422 614.308 204.458L614.731 204.67C614.705 205.019 614.617 205.363 614.472 205.682C612.859 207.893 611.246 210.104 609.551 212.244C607.857 214.385 606.021 216.737 604.043 218.854C601.372 221.819 598.71 224.829 595.802 227.536C592.817 230.26 589.672 232.804 586.385 235.157C583.031 237.591 579.523 239.862 575.955 241.967C572.459 244.041 568.856 245.934 565.162 247.636C560.17 249.918 555.109 252.069 549.977 253.975C546.044 255.435 541.96 256.457 537.934 257.634C535.709 258.28 533.496 258.962 531.225 259.409C526.516 260.339 521.807 261.162 517.016 261.95C514.509 262.373 511.967 262.655 509.448 262.996C506.268 263.419 503.09 263.973 499.901 264.173C496.993 264.385 494.015 264.244 491.154 264.173C490.326 264.107 489.502 263.977 488.695 263.784V263.408C490.012 263.408 491.331 263.479 492.638 263.408C495.31 263.267 497.97 263.079 500.642 262.833C501.456 262.766 502.253 262.559 502.997 262.219C503.433 262.019 503.715 261.42 503.985 260.95C503.985 260.879 503.562 260.373 503.303 260.339C502.467 260.233 501.595 260.268 500.749 260.209C500.351 260.159 499.958 260.084 499.572 259.986V259.48H502.031C502.653 259.588 503.294 259.473 503.839 259.154C504.384 258.836 504.799 258.334 505.01 257.739C505.138 257.289 505.225 256.829 505.269 256.363C504.755 256.227 504.224 256.163 503.691 256.175C503.161 256.268 502.703 256.703 502.185 256.858C501.902 256.929 501.548 256.728 501.23 256.646C501.361 256.375 501.43 256.023 501.643 255.856C502.185 255.446 502.821 255.117 503.373 254.752C503.607 255.01 503.896 255.213 504.217 255.347C504.539 255.48 504.885 255.541 505.233 255.524C505.581 255.507 505.922 255.413 506.229 255.249C506.537 255.084 506.804 254.855 507.011 254.574C507.517 253.812 507.234 253.164 506.328 253.2C505.301 253.291 504.279 253.437 503.268 253.634L502.491 252.458C502.889 252.389 503.282 252.297 503.667 252.176C504.163 251.964 504.633 251.694 505.115 251.446L504.35 250.023C503.974 249.33 503.597 248.624 503.173 247.953C502.443 246.778 501.702 245.601 500.901 244.424C500.783 244.259 500.395 244.237 500.124 244.212C499.854 244.19 499.265 244.212 498.829 244.212H497.464V243.848L499.677 243.66C499.866 243.21 499.878 242.704 499.712 242.246C499.548 241.787 499.215 241.405 498.782 241.179C498.535 241.013 498.135 240.743 498.159 240.543C498.201 240.195 498.173 239.842 498.078 239.505C497.981 239.167 497.819 238.853 497.601 238.579C497.381 238.305 497.109 238.078 496.801 237.909C496.492 237.742 496.154 237.638 495.804 237.602C496.71 236.109 496.652 235.886 495.228 234.946C495.228 234.451 495.404 233.709 495.228 233.581C493.873 232.698 494.298 231.229 493.897 230.052C492.462 225.831 490.849 221.666 489.342 217.467C488.966 216.454 488.354 216.186 487.624 216.985C485.569 219.02 483.695 221.227 482.021 223.583C479.112 228.229 475.616 232.557 473.58 237.698C472.403 240.661 471.037 243.579 469.931 246.53C469.13 248.741 468.469 251 467.953 253.292C467.458 255.273 467.166 257.299 467.082 259.34C467.082 262.29 466.435 265.219 467.2 268.219C468.531 273.69 470.716 278.917 473.674 283.71C476.458 288.17 479.78 292.274 483.563 295.929C486.376 298.611 489.447 300.987 492.462 303.48C496.286 306.47 500.431 309.027 504.821 311.103C507.776 312.62 510.977 313.619 514.074 314.855C517.87 316.667 521.959 317.778 526.151 318.136C529.129 318.619 532.037 319.099 535.086 319.477C536.84 319.7 538.616 319.7 540.394 319.805C543.291 319.982 546.175 320.299 549.057 320.299C551.943 320.299 554.649 320.029 557.44 319.771C561.83 319.348 566.234 318.983 570.589 318.3C574.285 317.719 577.94 316.904 581.536 315.866C585.338 314.759 589.057 313.384 592.766 311.972C596.377 310.684 599.915 309.197 603.361 307.515C608.481 304.856 613.495 301.964 618.44 298.965C621.47 297.099 624.384 295.05 627.162 292.823C629.516 290.932 631.588 288.614 633.955 286.685C636.055 284.859 637.932 282.79 639.545 280.522C640.288 279.556 641.146 278.663 642.195 277.452C642.215 277.844 642.215 278.236 642.195 278.628C641.961 280.008 641.242 281.257 640.169 282.156C638.909 283.262 638.568 285.096 636.931 286.002C636.237 286.391 635.048 287.179 635.754 288.214C634.801 289.096 633.235 289.907 633.283 290.637C633.354 291.932 632.907 292.095 631.965 292.306C631.645 292.377 631.36 292.562 631.165 292.823C630.163 294.354 629.233 295.918 627.397 296.635C627.15 296.728 626.974 297.353 627.032 297.683C627.091 298.011 627.62 298.035 627.962 298.082C628.536 298.111 629.108 298.111 629.681 298.082V298.553C629.3 298.696 628.905 298.803 628.503 298.87C627.661 298.799 626.815 298.799 625.973 298.87C625.07 299.149 624.198 299.52 623.372 299.976L623.465 300.716L627.94 301.539V301.94H623.089C622.397 301.916 621.713 302.056 621.087 302.35C620.581 302.633 620.299 303.316 619.911 303.81C620.451 304.23 621.06 304.553 621.713 304.761C623.761 304.987 625.832 305.033 627.903 305.15C625.455 306.139 622.677 304.727 620.358 306.326C619.181 304.869 618.191 304.68 616.673 305.549C615.709 306.115 615.932 306.727 616.521 307.773L620.052 306.856L620.169 307.867L617.109 308.878C616.367 307.361 614.942 307.703 613.672 307.867C613.248 307.867 612.895 308.597 612.496 308.986C612.903 309.315 613.349 309.596 613.825 309.821C614.241 309.892 614.667 309.892 615.083 309.821C616.638 309.821 616.638 309.821 617.545 311.137L617.121 311.043C616.73 310.891 616.313 310.816 615.894 310.826C615.474 310.836 615.06 310.928 614.675 311.1C614.294 311.269 613.947 311.516 613.66 311.822C613.372 312.127 613.148 312.485 613.001 312.878C612.918 313.01 612.81 313.122 612.682 313.212C612.554 313.3 612.411 313.362 612.259 313.395C611.615 313.462 610.978 313.579 610.352 313.748C609.94 313.913 609.694 314.443 609.376 314.819C609.74 315.124 610.093 315.677 610.469 315.7C611.918 315.807 613.376 315.7 614.697 315.7C615.072 316.113 615.403 316.783 615.696 316.759C617.061 316.688 618.416 316.431 619.769 316.242C620.063 316.242 620.392 316.053 620.641 316.148C620.74 316.232 620.816 316.34 620.858 316.461C620.901 316.583 620.912 316.715 620.887 316.843C620.698 317.081 620.432 317.247 620.134 317.313C619.245 317.524 618.345 317.688 617.439 317.805C617.156 317.805 616.862 317.618 616.556 317.536C615.364 317.071 614.125 316.743 612.859 316.56C612.296 316.56 611.684 317.453 611.07 317.936C611.624 318.23 612.165 318.747 612.719 318.771C614.085 318.771 615.461 318.605 616.898 318.5L617.205 319.453C616.026 319.676 614.92 319.853 613.814 320.158C613.602 320.217 613.402 320.77 613.413 321.076C613.424 321.381 613.86 321.57 614.119 321.593C615.861 321.699 617.65 321.747 619.451 321.817C619.451 322.792 620.218 322.91 621.429 322.605C622.659 322.365 623.907 322.243 625.161 322.241C625.384 322.241 625.619 322.569 625.962 322.817C622.595 323.264 622.5 323.335 621.876 325.664C620.763 325.696 619.655 325.834 618.569 326.075C617.873 326.287 616.827 327.004 616.838 327.463C616.838 328.826 618.015 328.063 618.768 328.12C619.523 328.18 620.475 328.569 621.124 328.275C622.183 327.768 623.031 327.098 623.925 328.416C623.968 328.471 624.025 328.514 624.087 328.543C624.151 328.576 624.221 328.592 624.289 328.592C626.055 328.251 627.82 327.886 629.681 327.51C630.058 327.652 630.682 328.12 631.211 328.038C632.291 327.823 633.347 327.505 634.367 327.087C635.39 326.722 636.308 325.652 637.509 326.686C637.614 326.781 637.887 326.686 638.061 326.686C640.169 326.182 642.245 325.554 644.277 324.805C647.81 323.322 651.212 321.629 654.613 319.924C655.167 319.653 655.461 318.887 655.873 318.348C658.463 317.053 660.699 315.536 660.759 314.537L658.968 314.407C661.839 312.854 664.429 311.502 666.974 310.066C667.69 309.576 668.359 309.023 668.975 308.409L668.644 307.773L665.666 308.585L672.87 303.186L671.694 302.175C672.87 300.811 674.837 300.105 675.224 298.011L673.836 297.6C674.942 296.659 675.896 295.918 676.744 295.06C677.016 294.621 677.208 294.141 677.309 293.637L675.907 293.506L675.354 293.424C676.403 292.495 677.378 291.743 678.203 290.848C678.485 290.554 678.355 289.884 678.426 289.39C677.985 289.359 677.542 289.41 677.12 289.543C675.483 290.578 673.907 291.706 672.282 292.754C671.799 292.947 671.292 293.073 670.775 293.131C670.926 292.865 671.099 292.612 671.294 292.377C671.464 292.224 671.653 292.093 671.857 291.988C675.166 290.237 677.59 287.461 680.098 284.827C680.358 284.556 680.217 283.91 680.262 283.427L679.085 283.556H678.967C679.662 282.274 680.463 280.934 681.097 279.522C681.298 279.075 681.041 278.44 680.992 277.899L679.063 278.605L681.758 275.417L682.123 275.546C682.218 277.394 682.358 279.251 682.418 281.11C682.476 282.967 682.418 284.638 682.418 286.778C682.123 287.39 680.863 288.19 681.404 289.625H684.866L684.971 290.049L680.911 291.026C680.911 291.496 680.792 292.4 681.063 292.542C681.708 292.803 682.408 292.901 683.1 292.823C683.842 292.823 684.571 292.649 685.525 292.518C685.289 292.989 685.254 293.201 685.171 293.212C684.183 293.459 683.171 293.611 682.194 293.894C681.472 294.062 680.794 294.377 680.203 294.823C679.946 295.048 680.203 295.811 680.146 296.329C680.911 296.329 681.687 296.329 682.499 296.176C682.818 296.176 683.146 295.648 683.394 295.695C685.549 296.176 687.49 295.376 689.491 294.882C690.043 294.811 690.6 294.811 691.152 294.882C689.974 295.567 688.711 296.092 687.397 296.447C685.999 296.718 684.629 297.112 683.3 297.623C682.605 297.977 682.124 298.211 681.441 297.87C680.345 297.316 679.639 297.94 679.085 298.694C678.533 299.445 678.851 300.165 679.817 300.222C680.278 300.206 680.738 300.155 681.193 300.07C681.981 300.07 682.793 300.07 683.547 299.893C684.3 299.716 685.607 299.764 686.113 299.21C687.29 298.035 688.02 298.259 688.903 299.21L686.549 300.388H684.348C682.63 300.47 681.241 302.045 679.297 301.41C678.885 301.27 678.121 301.822 677.661 302.234C677.202 302.645 677.344 303.115 677.19 303.561C677.637 303.754 678.117 303.86 678.604 303.87C679.922 303.621 681.097 302.445 682.57 303.375C682.652 303.375 682.841 303.375 682.97 303.304L686.878 301.811C687.82 303.127 685.607 302.986 685.583 303.87C683.23 303.256 681.123 303.409 679.628 305.575C679.395 305.332 679.139 305.115 678.862 304.927C678.445 304.72 677.971 304.655 677.513 304.744C677.055 304.834 676.64 305.072 676.332 305.422C676.142 305.693 676.046 306.019 676.061 306.35C676.613 306.707 677.242 306.924 677.897 306.986C679.501 306.8 681.097 306.533 682.676 306.186C683.3 306.068 683.854 305.775 684.512 305.645C684.849 305.599 685.188 305.599 685.525 305.645V306.044L683.925 307.221C683.193 306.998 682.57 306.575 682.029 306.667C680.984 306.854 679.974 307.204 679.038 307.703C678.615 307.926 678.462 308.655 678.191 309.16C678.662 309.372 679.192 309.832 679.605 309.75C681.016 309.443 682.392 308.96 683.912 308.503L685.995 308.973C684.768 309.398 683.585 309.941 682.465 310.597C682.232 310.728 681.966 310.795 681.698 310.783C680.529 310.624 679.347 310.576 678.168 310.643C677.627 310.714 677.202 311.56 676.732 312.066C677.248 312.306 677.777 312.51 678.321 312.678C679.01 312.82 679.724 312.762 680.38 312.512C681.038 312.262 681.609 311.83 682.029 311.266C682.076 311.829 681.949 312.391 681.664 312.878C681.346 313.443 680.84 313.971 681.664 314.548C682.759 315.347 684.584 314.372 685.054 313.161C685.691 312.043 686.483 311.021 687.408 310.126L688.22 311.126C687.857 312.443 685.478 311.961 686.172 314.031C687.632 313.925 689.197 314.336 690.315 312.854C690.398 312.726 690.833 312.854 691.104 312.854C692.284 313.004 693.48 312.94 694.636 312.666C695.248 312.397 696.625 311.491 695.813 310.115C695.742 309.997 696.073 309.549 696.296 309.361C697.591 308.256 697.613 308.186 696.473 307.009L698.732 305.01L699.275 305.633C698.731 306.318 698.228 307.032 697.768 307.773C697.697 307.904 698.061 308.398 698.321 308.561C699.275 309.16 699.921 308.361 700.674 307.997C701.193 307.811 701.729 307.685 702.275 307.621L702.369 308.091C701.193 308.503 700.522 309.737 698.837 309.409C697.155 309.078 696.485 309.914 696.967 312.277L700.039 310.703C700.397 310.982 700.838 311.137 701.293 311.137C701.747 311.137 702.19 310.982 702.547 310.703C703.501 310.173 704.312 308.773 705.76 309.703C705.76 309.703 705.936 309.703 706.031 309.632L709.267 308.455C713.124 307.192 716.871 305.619 720.474 303.75C723.876 301.799 727.608 300.351 730.773 298.093C734.925 295.023 738.907 291.73 742.698 288.225C746.643 284.697 749.656 280.357 752.728 276.087C755.642 272.198 757.83 267.814 759.19 263.15C759.426 262.256 759.744 261.385 760.003 260.503C760.686 258.069 761.367 255.645 762.027 253.211C762.172 252.626 762.284 252.032 762.357 251.435C762.718 249.677 762.958 247.897 763.074 246.107C763.074 243.884 762.628 241.648 762.617 239.426C762.544 234.559 761.562 229.748 759.72 225.241C758.993 223.204 758.084 221.235 757.001 219.36C755.341 216.691 753.471 214.187 751.538 211.669C750.42 210.186 749.185 208.799 747.938 207.41C747.349 206.753 746.689 206.528 746.16 207.517C745.323 209.058 744.394 210.563 743.675 212.221C743.11 213.504 741.746 214.574 742.38 216.291C742.498 216.609 742.723 218.219 741.203 217.772C741.063 217.772 740.651 218.208 740.58 218.502C740.333 219.431 740.273 220.43 739.968 221.336C739.449 222.841 739.545 223.16 740.862 223.583C741.175 224.321 741.423 225.084 741.604 225.865C741.604 226.241 741.263 226.675 741.063 227.042L740.756 226.83C740.615 226.112 740.485 225.407 740.321 224.547C738.815 225.642 738.732 226.593 739.85 227.547C740.026 227.655 740.177 227.8 740.29 227.972C740.405 228.145 740.483 228.34 740.517 228.543C740.55 228.747 740.54 228.956 740.485 229.155C740.432 229.355 740.336 229.54 740.202 229.699C739.885 228.899 739.732 227.899 738.59 228.523C737.978 228.888 738.154 231.099 738.755 231.486C739.839 232.192 739.932 233.24 738.991 233.946L738.179 232.229H737.789C737.483 233.474 735.765 234.298 736.837 236.063L737.52 235.815C737.743 235.71 737.943 235.592 738.566 235.251C738.109 236.651 737.789 237.602 737.46 238.615L737.095 238.497L736.519 236.462C735.826 236.762 735.263 237.301 734.94 237.983C734.616 238.665 734.548 239.44 734.752 240.167C736.459 240.167 736.188 241.614 736.671 242.52C735.789 242.591 734.881 242.873 734.907 241.496C734.907 241.238 734.364 240.79 734.035 240.743C733.706 240.697 733.375 241.12 733.163 241.414C732.952 241.708 732.693 242.331 732.399 242.743C730.973 244.719 731.093 245.036 733.446 245.412C733.436 245.987 733.598 246.551 733.91 247.033C734.222 247.515 734.671 247.893 735.201 248.117C735.333 248.2 735.446 248.305 735.537 248.43C735.628 248.555 735.695 248.697 735.73 248.847C736.013 250.201 736.577 251.036 738.166 250.306C738.403 251.375 738.473 252.247 737.308 252.517C736.788 251.682 736.472 250.612 735.789 250.246C735.434 250.083 735.117 249.844 734.861 249.549C734.606 249.252 734.416 248.906 734.306 248.529C734.132 248.326 733.92 248.159 733.681 248.038C733.443 247.917 733.184 247.843 732.917 247.824C732.215 248.568 731.674 249.449 731.327 250.412C731.233 250.729 732.328 251.375 732.974 251.964L733.47 253.986L733.599 254.246C732.976 254.08 732.391 253.802 731.868 253.423C731.282 252.812 730.986 251.812 729.856 252.176C729.332 252.363 728.876 252.704 728.545 253.151C728.217 253.6 728.03 254.137 728.009 254.692C727.25 255.273 726.53 255.902 725.853 256.575C725.735 256.703 726.066 257.551 726.336 257.657C726.586 257.725 726.847 257.737 727.101 257.687C727.354 257.639 727.594 257.532 727.8 257.376C728.006 257.221 728.173 257.019 728.29 256.788C728.405 256.558 728.464 256.302 728.466 256.045L731.482 254.434L729.974 257.728C729.162 257.352 728.561 257.88 728.454 258.902C728.446 259.142 728.494 259.378 728.598 259.592C728.7 259.808 728.852 259.996 729.044 260.139C729.203 260.213 729.377 260.251 729.552 260.25C729.728 260.25 729.901 260.209 730.059 260.132C730.217 260.055 730.356 259.945 730.465 259.807C730.576 259.669 730.653 259.509 730.692 259.34C730.881 258.668 731.115 257.903 731.95 258.327C732.411 258.563 732.599 259.316 732.952 259.902C730.704 260.703 730.503 261.02 730.962 262.702C733.105 262.82 733.541 262.432 733.245 260.574L734.529 260.879L735.177 262.903C734.941 262.833 734.647 262.667 734.565 262.738C733.943 263.269 733.37 263.855 732.858 264.49C732.729 264.655 732.988 265.419 733.069 265.419C733.693 265.434 734.313 265.348 734.907 265.162C735.141 265.067 735.141 264.456 735.377 264.207C735.854 263.78 736.362 263.387 736.895 263.033C736.895 264.101 736.977 264.712 737.014 265.311ZM611.553 326.909C611.669 327.051 611.918 327.545 612.283 327.674C612.945 327.951 613.676 328.019 614.379 327.87C615.082 327.721 615.722 327.362 616.215 326.838C616.415 326.639 616.673 326.216 616.591 326.063C616.5 325.921 616.378 325.8 616.237 325.708C616.095 325.617 615.935 325.559 615.766 325.533C614.766 325.533 613.765 325.733 612.766 325.757C612.314 325.764 611.867 325.668 611.458 325.475C610.93 325.228 610.505 324.664 609.977 324.582C608.956 324.447 607.923 324.447 606.904 324.582C606.691 324.638 606.496 324.749 606.339 324.904C606.182 325.059 606.069 325.252 606.009 325.463C606.036 325.686 606.121 325.899 606.255 326.08C606.39 326.261 606.569 326.405 606.775 326.499C608.27 326.71 609.777 326.757 611.553 326.886V326.909ZM601.84 322.959C601.343 323.128 600.855 323.333 600.382 323.569C600.382 323.569 600.475 324.393 600.688 324.486C601.597 324.898 602.554 325.199 603.536 325.381C603.818 325.381 604.325 324.816 604.501 324.415C604.585 324.215 604.196 323.64 603.891 323.498C603.223 323.26 602.539 323.078 601.84 322.959ZM616.262 323.382C614.942 322.075 612.33 321.83 610.011 322.899C610.293 323.216 610.505 323.687 610.789 323.747C611.965 323.97 613.202 324.075 614.414 324.215C614.837 324.275 615.354 324.146 615.672 324.346C616.442 324.888 617.366 325.165 618.308 325.137C619.249 325.106 620.154 324.77 620.887 324.181C620.364 323.488 619.597 323.018 618.742 322.866C617.886 322.713 617.006 322.889 616.273 323.358L616.262 323.382ZM603.561 322.229C604.792 322.966 606.209 323.335 607.644 323.287C608.128 323.287 608.611 322.605 609.105 322.229C608.611 321.888 608.162 321.37 607.621 321.264C606.268 320.993 604.737 320.17 603.561 322.229ZM595.52 322.087C595.967 322.594 596.109 322.934 596.333 322.993C596.989 323.187 597.672 323.278 598.357 323.264C598.57 323.264 598.735 322.547 598.911 322.158C598.348 321.845 597.746 321.608 597.12 321.452C596.674 321.416 596.191 321.804 595.52 322.087ZM602.241 321.888C602.512 321.641 603.324 321.205 603.266 320.911C603.03 319.57 601.783 319.57 600.771 319.511C600.441 319.511 599.758 320.111 599.781 320.417C599.852 321.664 600.971 321.664 602.241 321.875V321.888ZM602.818 318.336C603.127 318.85 603.578 319.264 604.116 319.528C604.656 319.791 605.261 319.891 605.854 319.816C606.398 319.755 606.946 319.853 607.432 320.099C608.117 320.674 608.949 321.044 609.833 321.169C610.718 321.294 611.62 321.168 612.436 320.804C612.695 320.723 613.084 320.324 613.035 320.205C612.919 319.911 612.612 319.499 612.365 319.488C610.964 319.382 609.751 318.194 608.222 318.853C608.021 318.936 607.61 318.535 607.044 318.206L611.023 317.713C610.776 317.277 610.705 316.914 610.482 316.759C609.975 316.347 609.382 316.053 608.747 315.895C608.112 315.739 607.449 315.725 606.809 315.854C606.08 316.066 605.774 315.982 605.362 315.336C605.081 314.869 604.626 314.532 604.098 314.395C603.57 314.258 603.009 314.335 602.536 314.608C602.324 314.701 602.218 315.572 602.277 315.594C603.183 315.995 604.102 316.324 605.031 316.631C605.384 316.736 605.82 316.631 606.103 316.806C606.386 316.983 606.103 317.406 606.103 317.713C605.741 317.783 605.37 317.783 605.008 317.713C604.826 317.598 604.625 317.524 604.413 317.493C604.203 317.462 603.987 317.475 603.781 317.533C603.575 317.588 603.384 317.686 603.217 317.821C603.053 317.956 602.916 318.123 602.818 318.311V318.336ZM594 320.269C593.304 319.898 592.854 319.512 592.531 319.559C592.2 319.605 591.87 320.124 591.542 320.43C591.914 320.756 592.34 321.015 592.8 321.193C593.055 321.193 593.41 320.731 594 320.269ZM594 320.269L594.037 320.288V320.241L594 320.269ZM595.427 317.489C595.433 319.295 596.21 320.005 597.603 319.759C597.958 319.759 598.534 319.477 598.57 319.254C598.587 319.054 598.553 318.852 598.47 318.669C598.388 318.484 598.26 318.327 598.098 318.206C597.224 317.913 596.332 317.672 595.427 317.489ZM600.853 318.559C601.428 317.994 602.029 317.665 602.029 317.382C601.935 315.937 600.534 316.513 599.747 316.113C599.628 316.113 599.193 316.631 598.911 316.914L600.853 318.559ZM678.926 314.484C677.844 315.129 676.911 315.352 676.037 314.383C676.994 313.216 677.64 313.22 678.926 314.484ZM605.431 312.526C605.431 314.514 605.974 314.877 608.044 314.677C608.422 314.677 608.763 314.183 609.128 313.925C608.822 313.514 608.587 312.842 608.199 312.749C607.286 312.583 606.36 312.505 605.431 312.514V312.526ZM678.926 314.484L678.956 314.466V314.514L678.926 314.484ZM610.763 313.277C611.517 312.489 612.425 311.983 612.412 311.467C612.412 310.372 611.235 310.502 610.494 310.443C609.751 310.384 608.693 310.255 608.856 311.315C608.951 311.937 609.917 312.431 610.763 313.266V313.277ZM674.741 310.643C673.907 311.397 672.789 311.925 672.729 312.56C672.67 313.195 673.718 313.395 674.507 313.065C675.578 312.56 675.26 311.854 674.741 310.597V310.643ZM675.142 310.409C676.132 309.903 677.427 310.409 677.415 308.949C677.415 308.538 676.908 308.127 676.637 307.715L674.283 309.443L675.142 310.409ZM741.085 277.134L741.192 277.946C741.744 278.074 742.312 278.106 742.874 278.04C743.853 277.734 744.053 276.958 743.546 275.688L741.085 277.134ZM741.051 276.216L742.663 274.382C742.204 274.065 741.616 273.418 741.297 273.523C740.691 273.819 740.186 274.291 739.85 274.876C739.79 274.946 740.473 275.558 741.051 276.194V276.216ZM736.974 265.301C736.56 265.166 736.111 265.186 735.711 265.356C735.296 265.532 734.962 265.858 734.776 266.266C734.677 266.495 734.627 266.742 734.627 266.989C734.627 267.238 734.677 267.485 734.776 267.713C734.87 267.924 735.576 268.054 735.953 267.936C737.453 267.421 737.589 267.046 736.974 265.301ZM736.974 265.301L737.014 265.314V265.311L736.966 265.278L736.974 265.301ZM507.535 260.899C506.9 260.305 506.383 259.622 506.199 259.75C505.516 260.089 504.875 260.507 504.292 260.997C504.668 261.339 505.093 261.985 505.469 261.938C506.205 261.696 506.902 261.345 507.535 260.899ZM513.285 260.102V259.608C512.944 259.422 512.59 259.068 512.237 259.068C511.365 259.068 510.493 259.151 509.635 259.316C509.165 259.371 508.722 259.568 508.364 259.879C508.2 260.068 508.364 260.879 508.529 260.974C509.016 261.177 509.549 261.245 510.071 261.173C510.753 261.119 511.424 260.981 512.072 260.763C512.495 260.578 512.9 260.358 513.285 260.102ZM507.535 260.899L507.563 260.927V260.879L507.535 260.899ZM508.589 255.916C507.058 255.916 505.916 256.858 506.021 257.786C506.021 258.151 506.517 258.739 506.811 258.762C507.988 258.857 509.6 257.586 509.401 256.762C509.294 256.339 508.729 256.034 508.589 255.905V255.916ZM726.153 254.716L726.525 253.812C726.124 253.692 725.619 253.363 725.347 253.505C724.725 253.885 724.145 254.331 723.616 254.834C723.899 255.092 724.265 255.634 724.466 255.575C725.059 255.354 725.626 255.067 726.153 254.716ZM726.153 254.716L726.147 254.729L726.207 254.681L726.153 254.716ZM726.607 253.952C727.379 253.261 728.109 252.527 728.797 251.753C729.008 251.47 728.866 250.929 728.892 250.506C728.42 250.506 727.808 250.375 727.537 250.612C726.973 251.166 726.503 251.811 726.147 252.517C725.984 252.741 726.361 253.211 726.607 253.939V253.952ZM730.092 250.012C730.799 249.136 731.441 248.208 732.01 247.236C732.117 247.035 731.587 246.225 731.222 246.129C730.373 245.895 729.115 247.307 729.149 248.484C729.16 248.847 729.609 249.224 730.092 250V250.012ZM707.36 242.462L707.255 243.167C707.903 243.413 708.055 244.765 709.15 243.884C709.456 243.649 709.397 242.954 709.516 242.462H707.36ZM704.77 241.931C705.313 242.836 706.054 243.108 706.878 242.484C706.956 242.314 706.998 242.129 706.998 241.942C706.998 241.757 706.956 241.573 706.878 241.402C706.172 241.026 705.313 240.579 704.796 241.885L704.77 241.931ZM699.238 241.462L699.85 242.119L701.134 241.12C700.862 240.885 700.451 240.403 700.357 240.448C699.948 240.745 699.574 241.084 699.238 241.462ZM710.068 239.862C709.679 241.238 710.068 241.767 711.022 241.614C711.412 241.614 711.74 241.12 712.092 240.848L710.068 239.862ZM707.703 240.225L708.315 240.661C708.684 240.276 709.019 239.859 709.316 239.414C709.316 239.414 708.809 238.956 708.538 238.709L707.703 240.225ZM637.569 240.356C638.29 240.248 638.993 240.035 639.65 239.72C641.641 238.415 643.595 237.037 645.454 235.545C645.674 235.289 645.84 234.991 645.944 234.67C646.048 234.349 646.084 234.01 646.055 233.675C646.055 231.758 644.359 230.887 643.219 229.699C642.824 229.373 642.329 229.195 641.817 229.193C640.667 229.051 639.501 229.243 638.456 229.745C637.413 230.248 636.536 231.041 635.931 232.029C635.19 233.139 634.604 234.346 634.189 235.614C634.061 236.151 634.047 236.706 634.154 237.247C634.259 237.787 634.479 238.298 634.8 238.744C635.119 239.193 635.532 239.566 636.011 239.839C636.488 240.113 637.019 240.282 637.569 240.332V240.356ZM663.053 230.275C663.594 229.629 664.124 229.264 664.136 228.911C664.147 228.558 663.512 227.735 663.372 227.804C662.829 227.99 662.356 228.331 662.006 228.781C661.91 228.875 662.522 229.498 663.053 230.228V230.275ZM661.693 228.125C661.118 227.093 660.373 226.776 659.498 227.276C659.227 227.441 659.063 228.452 659.227 228.547C660.056 229.178 660.874 228.753 661.693 228.125ZM661.693 228.125L661.712 228.158V228.113L661.693 228.125ZM666.114 227.394L667.291 226.159C666.855 225.831 666.443 225.312 665.973 225.253C665.502 225.194 665.137 225.713 664.712 225.971L666.114 227.394ZM662.7 226.524L664.089 225.041C663.685 224.766 663.251 224.537 662.794 224.359C662.65 224.293 662.49 224.269 662.332 224.29C662.176 224.311 662.027 224.374 661.905 224.474C661.783 224.575 661.69 224.709 661.638 224.858C661.588 225.008 661.581 225.169 661.616 225.324C661.687 225.619 662.194 225.924 662.7 226.477V226.524ZM665.196 223.794L666.373 222.488L665.196 221.536C664.901 221.913 664.478 222.242 664.384 222.714C664.384 222.866 664.83 223.231 665.196 223.747V223.794ZM669.492 223.759L669.561 222.783C668.908 222.748 668.251 222.748 667.597 222.783C667.526 222.783 667.502 223.36 667.455 223.665L669.492 223.759ZM671.657 219.749C669.857 219.854 668.538 220.009 667.798 218.243L666.325 220.243L668.751 220.819C669.277 221.275 669.913 221.583 670.599 221.714C670.869 221.69 671.174 220.69 671.657 219.749ZM674.26 215.635C673.657 214.485 673.091 213.807 672.035 213.692C671.694 213.692 671.294 214.303 670.858 214.644C671.187 214.986 671.483 215.538 671.883 215.643C672.673 215.73 673.469 215.727 674.26 215.635ZM674.26 215.635L674.283 215.68V215.632L674.26 215.635ZM639.788 178.661C640.44 179.34 641.583 179.56 641.688 180.771C641.688 180.923 642.383 181.217 642.489 181.123C642.628 181.007 642.742 180.865 642.823 180.703C642.904 180.54 642.951 180.364 642.959 180.182C642.83 179.348 642.559 178.535 642.289 177.512L644.359 177.806L644.584 175.689C645.854 175.183 646.266 174.513 645.761 173.656C645.573 173.313 645.42 172.955 645.302 172.583C645.725 172.456 646.161 172.36 646.562 172.196C646.961 172.032 647.61 171.726 647.585 171.596C647.361 170.526 648.08 170.15 648.763 169.621C649.081 169.248 649.326 168.816 649.48 168.35C649.646 168.045 649.786 167.727 649.962 167.422C650.258 166.891 650.552 166.351 650.881 165.845C651.106 165.495 651.358 165.165 651.635 164.857C651.894 164.55 652.21 164.305 652.459 163.985C654.143 161.94 655.732 159.823 657.52 157.858C658.697 156.577 658.781 156.472 657.214 155.695C656.848 155.478 656.45 155.316 656.037 155.213C652.176 154.53 648.327 153.741 644.443 153.247C640.829 152.79 637.168 152.578 633.53 152.367C630.47 152.189 627.409 152.142 624.349 152.084C618.924 151.915 613.495 152.194 608.115 152.918C606.421 153.178 604.656 153.047 602.96 153.307C599.428 153.848 595.896 154.484 592.366 155.177C589.635 155.707 586.939 156.353 584.232 157.023C583.029 157.435 581.798 157.753 580.547 157.977C579.854 157.989 579.177 158.162 578.562 158.483C577.949 158.804 577.42 159.261 577.016 159.823C578.193 161.222 579.37 162.587 580.452 164.105C581.865 166.162 584.408 167.233 585.314 169.738C585.565 170.327 585.912 170.871 586.338 171.349C587.74 173.066 589.117 174.796 590.599 176.443C591.126 176.966 591.778 177.343 592.495 177.535C593.506 177.818 594.59 177.866 595.626 178.055C597.168 178.334 598.71 178.665 600.253 178.935C600.386 178.952 600.522 178.938 600.653 178.901C600.782 178.863 600.901 178.799 601.005 178.712C601.641 177.984 602.055 178.476 602.618 178.854C603.49 179.429 604.456 179.877 605.431 180.406L606.137 178.476C606.574 179.124 606.749 179.654 607.138 179.912C607.915 180.324 608.963 180.971 609.588 180.723C610.458 180.371 609.963 179.394 609.47 178.723C609.387 178.606 609.47 178.383 609.47 178.055C609.73 178.215 609.978 178.395 610.211 178.594C610.93 179.394 611.588 180.254 612.341 181.005C613.896 182.535 614.578 182.37 615.143 180.44C615.143 180.371 615.283 180.324 615.543 180.135C616.026 182.146 617.899 182.252 619.569 182.699L618.722 181.522C620.04 180.44 617.839 179.723 618.157 178.641L620.418 180.618C620.459 181.272 620.708 181.897 621.124 182.406C621.766 183.066 622.503 183.624 623.312 184.064C623.521 184.173 623.749 184.23 623.984 184.23C624.216 184.23 624.448 184.173 624.655 184.064C624.901 183.757 624.738 183.123 624.749 182.64L623.443 182.734H623.053C623.349 182.134 623.583 181.559 623.866 181.054C623.984 180.817 624.207 180.429 624.349 180.44C625.679 180.547 626.207 179.641 626.774 178.701C626.866 178.608 626.981 178.542 627.106 178.506C627.233 178.472 627.365 178.471 627.491 178.501C627.669 178.63 627.715 178.995 627.74 179.253C627.762 179.53 627.762 179.81 627.74 180.088C628.684 180.643 629.865 180.99 629.681 182.511C629.681 182.782 629.847 183.299 630.047 183.357C631.129 183.665 631.305 184.534 631.623 185.427C631.67 185.613 631.758 185.787 631.882 185.931C632.005 186.078 632.161 186.193 632.336 186.267C632.512 186.342 632.702 186.376 632.894 186.364C633.084 186.353 633.27 186.299 633.435 186.204C633.755 186.039 633.931 185.122 633.801 184.663C633.672 184.205 633.049 183.746 632.482 183.111L632.612 181.852H633.613C633.684 181.852 633.742 181.971 633.813 182.029C633.942 184.158 633.942 184.158 635.92 184.476C635.554 185.405 634.93 186.393 636.637 186.651C636.768 186.651 636.849 187.005 636.979 187.157C637.32 187.545 637.65 188.181 638.039 188.228C638.426 188.273 639.134 187.887 639.663 187.687L637.004 183.357C637.022 182.799 636.923 182.241 636.708 181.723C636.403 181.288 635.684 181.135 634.872 180.723C637.004 178.877 639.087 177.066 641.183 175.277C641.332 175.168 641.505 175.095 641.688 175.066C641.758 175.066 641.853 175.066 642.006 175.137V176.206C639.805 176.76 639.746 176.829 639.851 178.677L639.788 178.661L639.768 178.641V178.657L639.788 178.661ZM627.724 180.085C627.214 180.011 626.696 180.134 626.274 180.429C625.849 180.727 625.556 181.179 625.455 181.688C625.232 182.971 626.22 183.428 627.197 183.782C627.461 184.355 627.901 184.829 628.457 185.133C628.752 185.251 629.28 184.805 629.705 184.616L628.281 182.265C628.144 181.718 627.928 180.896 627.724 180.085ZM639.768 178.657C639.66 178.633 639.551 178.62 639.439 178.617C638.344 178.783 637.004 178.841 636.979 180.253C636.979 180.865 637.91 181.429 638.37 182.112C638.544 182.346 638.522 182.722 638.698 182.934C639.114 183.435 639.585 183.889 640.099 184.287C640.228 184.382 640.84 184.111 640.876 183.933C640.994 183.299 641.264 182.37 640.945 182.041C640.147 181.098 639.729 179.892 639.768 178.657ZM627.721 180.077L627.703 180.006L627.68 180.054L627.721 180.077L627.724 180.085L627.74 180.088L627.721 180.077ZM753.353 155.823C751.751 155.647 750.821 156.177 750.856 157.317C750.913 157.548 751.03 157.76 751.196 157.932C751.362 158.104 751.569 158.229 751.798 158.294C752.859 158.435 753.434 157.458 753.353 155.823ZM747.724 155.484C747.629 155.707 747.585 155.947 747.593 156.191C747.603 156.432 747.667 156.669 747.779 156.887C747.891 157.101 748.052 157.289 748.246 157.433C748.441 157.581 748.664 157.682 748.902 157.729C749.044 157.729 749.608 157 749.645 156.553C749.831 155.046 748.714 155.471 747.783 155.435L747.724 155.484ZM746.92 154.96C747.683 154.446 748.292 154.059 748.867 153.648C749.702 153.047 749.526 152.472 748.867 151.847C747.761 150.825 747.089 152.013 746.324 152.378C746.132 152.542 745.983 152.75 745.892 152.987C745.801 153.223 745.771 153.48 745.805 153.73C745.876 154.152 746.439 154.468 746.92 154.96L746.913 154.964H746.924L746.92 154.96ZM752.292 151.813C751.492 152.483 750.703 153.073 750.02 153.766C749.879 153.895 750.02 154.541 750.244 154.73C750.395 154.826 750.565 154.887 750.741 154.907C750.92 154.927 751.099 154.907 751.268 154.848C751.924 154.417 752.536 153.92 753.093 153.367C753.195 153.252 753.269 153.117 753.307 152.97C753.346 152.821 753.348 152.668 753.316 152.519C753.175 152.296 752.775 152.118 752.292 151.802V151.813Z" fill="black"/>
</g>
<defs>
<clipPath id="clip0_8_46">
<rect width="800" height="420" fill="white"/>
</clipPath>
<clipPath id="clip1_8_46">
<rect width="347" height="258" fill="white" transform="translate(23 76)"/>
</clipPath>
<clipPath id="clip2_8_46">
<rect width="347" height="258" fill="white" transform="translate(23 76)"/>
</clipPath>
</defs>
</svg>
