<svg width="800" height="420" viewBox="0 0 800 420" fill="none" xmlns="http://www.w3.org/2000/svg">
<g clip-path="url(#clip0_302_222)">
<g clip-path="url(#clip1_302_222)">
<g clip-path="url(#clip2_302_222)">
<path d="M95.7034 76V185.954H84.3497C83.7187 178.729 83.4037 173.545 83.4037 170.404V161.921C82.0428 168.7 78.9769 175.024 74.494 180.299C70.2361 185.117 64.3752 187.524 56.9104 187.524C50.7726 187.581 44.7687 185.743 39.7219 182.263C34.422 178.59 30.2031 173.573 27.5002 167.733C24.4253 161.201 22.8883 154.056 23.0063 146.841C22.8993 139.621 24.3793 132.463 27.3432 125.872C29.9561 119.98 34.125 114.903 39.4069 111.186C44.5428 107.637 50.6606 105.769 56.9104 105.844C64.6902 105.844 70.6561 107.808 74.809 111.736C78.9618 115.662 81.8268 121.186 83.4037 128.306V76H95.7034ZM77.4109 167.497C81.4058 162.115 83.4037 155.23 83.4037 146.841C83.4037 137.952 81.4058 130.883 77.4109 125.637C73.416 120.39 67.5811 117.772 59.9073 117.783C52.2326 117.783 46.2137 120.479 41.8508 125.872C37.4879 131.265 35.307 138.255 35.307 146.841C35.215 151.964 36.293 157.04 38.4609 161.686C40.3759 165.828 43.4048 169.362 47.2127 171.896C50.9536 174.352 55.3475 175.638 59.8283 175.587C67.6081 175.587 73.49 172.891 77.4739 167.497H77.4109Z" fill="#FFEEDD"/>
<path d="M184.012 107.416L140.331 217.37H127.4L141.592 184.855L111.473 107.416H124.562L147.742 169.618L170.924 107.416H184.012Z" fill="#FFEEDD"/>
<path d="M255.905 113.228C260.688 118.159 263.08 124.861 263.08 133.333V185.954H250.78V136.474C250.78 124.338 245.155 118.264 233.907 118.254C228.212 118.226 222.708 120.296 218.453 124.065C213.871 128.034 210.716 133.384 209.464 139.302V185.954H197.164V107.415H209.464V129.878C210.896 123.164 214.364 117.05 219.399 112.363C223.98 108.121 230.018 105.788 236.272 105.844C244.535 105.844 251.079 108.305 255.905 113.228Z" fill="#FFEEDD"/>
<path d="M350.128 160.822C348.913 168.299 345.054 175.096 339.247 179.985C333.119 185.098 325.316 187.782 317.328 187.525C310.446 187.605 303.678 185.783 297.773 182.263C291.899 178.777 287.099 173.75 283.896 167.733C280.464 161.308 278.728 154.119 278.85 146.841C278.738 139.559 280.417 132.361 283.739 125.872C286.812 119.849 291.472 114.771 297.221 111.186C303.018 107.609 309.72 105.756 316.539 105.844C327.262 105.844 335.62 109.248 341.612 116.054C347.605 122.861 350.601 132.6 350.601 145.271C350.601 147.376 350.601 148.946 350.443 149.984H291.15C291.623 156.951 294.621 163.509 299.586 168.44C301.907 170.761 304.675 172.591 307.724 173.818C310.773 175.047 314.039 175.648 317.328 175.587C322.121 175.701 326.823 174.268 330.731 171.503C334.429 168.9 337.149 165.141 338.458 160.822H350.128ZM300.706 123.359C296.323 127.29 293.266 132.474 291.954 138.203H338.001C337.465 131.71 335.152 126.683 331.062 123.123C326.808 119.511 321.354 117.607 315.766 117.783C310.221 117.692 304.845 119.682 300.706 123.359Z" fill="#FFEEDD"/>
<path d="M370.091 170.718H354.007V185.954H370.091V170.718Z" fill="#FFEEDD"/>
<path d="M178.54 273.007C172.64 269.642 167.784 264.724 164.505 258.791C160.877 252.205 159.055 244.782 159.223 237.271C159.071 229.787 160.892 222.394 164.505 215.831C167.783 209.836 172.634 204.842 178.54 201.38C184.264 197.995 190.807 196.23 197.464 196.274C204.068 196.242 210.557 198.007 216.229 201.38C222.084 204.855 226.881 209.849 230.106 215.831C233.665 222.412 235.458 229.797 235.31 237.271C235.473 244.772 233.68 252.187 230.106 258.791C226.882 264.711 222.08 269.63 216.229 273.007C210.524 276.282 204.048 277.99 197.464 277.954C190.828 278 184.298 276.293 178.54 273.007ZM209.763 262.561C213.79 260.156 217.087 256.709 219.304 252.587C221.808 247.874 223.056 242.601 222.931 237.271C223.052 231.917 221.804 226.619 219.304 221.878C217.096 217.708 213.8 214.207 209.763 211.747C206.044 209.451 201.759 208.227 197.385 208.212C192.942 208.195 188.579 209.39 184.769 211.668C180.688 214.099 177.36 217.606 175.149 221.8C172.602 226.554 171.326 231.883 171.444 237.271C171.313 242.611 172.591 247.892 175.149 252.587C177.404 256.707 180.726 260.151 184.769 262.561C188.582 264.831 192.943 266.026 197.385 266.016C201.748 265.996 206.025 264.803 209.763 262.561Z" fill="#FFEEDD"/>
<path d="M271.501 203.264C275.486 198.594 281.11 196.264 288.374 196.274V208.84C281.016 208.84 275.365 211.197 271.422 215.909C267.653 220.292 264.883 225.436 263.301 230.988V267.745H251.001V197.846H263.301V219.207C264.721 213.319 267.533 207.853 271.501 203.264Z" fill="#FFEEDD"/>
<path d="M351.755 302.79C351.728 298.192 350.063 294.65 347.463 292.295C344.572 289.678 340.235 288.368 334.453 288.368H319.157C312.313 288.368 307.219 287.206 303.86 284.913C302.234 283.837 300.914 282.36 300.03 280.626C299.146 278.892 298.727 276.96 298.814 275.017C298.664 272.967 299.095 270.917 300.057 269.098C301.018 267.28 302.473 265.765 304.254 264.729C308.207 262.499 312.735 261.487 317.264 261.822C311.219 259.559 306.018 255.502 302.362 250.199C298.405 244.367 296.391 237.443 296.606 230.408C296.483 224.182 298.006 218.034 301.021 212.579C303.783 207.569 307.875 203.412 312.849 200.562C317.736 197.748 323.289 196.283 328.933 196.321C332.258 196.296 335.563 196.827 338.71 197.893L370.091 197.735V211.354C363.563 211.354 356.415 209.312 348.645 205.228C356.73 210.977 360.778 219.354 360.788 230.36C360.929 236.578 359.435 242.725 356.452 248.188C353.724 253.09 349.684 257.142 344.782 259.89C339.944 262.598 334.482 264.005 328.933 263.974C324.325 264.033 319.743 264.667 315.293 265.859C312.502 266.802 311.114 268.53 311.114 271.043C311.08 271.794 311.227 272.543 311.542 273.226C311.858 273.909 312.333 274.507 312.928 274.97C314.534 276.028 316.448 276.526 318.368 276.384H334.295C343.221 276.384 350.422 278.321 355.9 282.195C361.376 286.07 364.17 292.401 364.16 301.198C364.16 301.198 364.169 304.884 364.178 305.615C364.219 309.125 363.485 312.607 362.112 315.842C360.636 319.443 358.454 322.717 355.695 325.47C352.938 328.23 349.65 330.404 346.028 331.863C342.523 333.283 338.773 334.009 334.989 334C331.205 334.008 327.456 333.282 323.95 331.863C320.331 330.408 317.047 328.233 314.3 325.47L314.11 325.282L284.149 292.767C280.927 289.617 276.588 287.86 272.073 287.878C267.559 287.896 263.233 289.686 260.037 292.861C256.834 296.06 255.035 300.391 255.035 304.909C255.035 309.426 256.834 313.759 260.037 316.957C263.236 320.13 267.562 321.918 272.077 321.933C276.591 321.947 280.929 320.188 284.149 317.035L291.465 309.056L299.728 317.947L292.884 325.376L292.79 325.47C290.033 328.23 286.745 330.404 283.124 331.863C279.618 333.282 275.869 334.008 272.085 334C268.301 334.008 264.552 333.282 261.046 331.863C257.426 330.408 254.142 328.233 251.395 325.47C248.625 322.726 246.443 319.45 244.977 315.842C243.551 312.351 242.823 308.615 242.833 304.846C242.823 301.077 243.551 297.342 244.977 293.851C246.443 290.242 248.625 286.967 251.395 284.222C254.142 281.46 257.426 279.285 261.046 277.828C264.553 276.415 268.302 275.694 272.085 275.708C275.868 275.694 279.617 276.415 283.124 277.828C286.745 279.289 290.033 281.463 292.79 284.222L292.963 284.41L322.926 316.925C326.142 320.077 330.477 321.836 334.989 321.821C339.501 321.807 343.825 320.019 347.021 316.847C348.562 315.391 349.779 313.63 350.594 311.676C351.409 309.723 351.804 307.621 351.752 305.506C351.752 304.842 351.742 303.309 351.755 302.79ZM342.732 246.304C346.569 242.377 348.488 237.062 348.488 230.36C348.587 226.289 347.637 222.26 345.728 218.657C344.056 215.518 341.581 212.873 338.553 210.992C335.661 209.222 332.327 208.297 328.933 208.322C325.502 208.311 322.129 209.206 319.157 210.914C316.023 212.717 313.456 215.356 311.745 218.532C309.784 222.146 308.805 226.207 308.906 230.313C308.906 237.004 310.878 242.319 314.82 246.256C316.644 248.147 318.837 249.645 321.264 250.658C323.691 251.671 326.301 252.178 328.933 252.147C331.509 252.176 334.063 251.671 336.433 250.666C338.803 249.659 340.937 248.174 342.7 246.304H342.732Z" fill="#FFEEDD"/>
</g>
</g>
<path d="M612.29 374.065C706.054 374.065 782.064 298.054 782.064 204.29C782.064 110.526 706.054 34.5156 612.29 34.5156C518.526 34.5156 442.516 110.526 442.516 204.29C442.516 298.054 518.526 374.065 612.29 374.065Z" fill="black"/>
<path d="M735.427 261.206C736.08 261.66 736.879 262.13 737.446 261.428C737.946 260.613 738.335 259.736 738.606 258.82L739.766 259.584C739.185 261.242 736.076 261.707 737.572 264.396C736.517 263.608 736.053 264.048 735.496 264.802C734.938 265.556 734.81 266.228 735.496 266.843C736.181 267.458 736.726 266.843 737.249 266.403C738.118 265.637 739.012 264.919 739.894 264.176C739.817 264.477 739.692 264.763 739.522 265.023C738.71 265.938 737.817 266.773 737.062 267.736C736.818 268.049 736.935 268.629 736.876 269.092C737.3 269.114 737.724 269.087 738.142 269.011C738.42 268.93 738.629 268.605 738.896 268.421C739.546 267.945 740.219 267.481 740.881 267.018C740.601 268.327 739.986 269.44 741.891 269.765C742.052 269.765 742.111 270.392 742.238 270.704C742.366 271.018 742.609 271.992 742.831 272.003C743.428 271.955 744.009 271.782 744.536 271.493C744.939 271.269 745.327 271.018 745.696 270.739C744.455 273.418 741.496 273.94 740.567 276.456C740.384 276.348 740.215 276.215 740.069 276.062C738.304 273.743 736.656 271.296 734.776 269.105C732.455 266.298 729.948 263.55 727.337 260.988C725.434 259.156 723.402 257.462 721.257 255.92C718.088 253.601 714.793 251.352 711.578 249.033C707.208 246.075 702.579 243.521 697.746 241.404C694.472 239.85 691.037 238.643 687.625 237.404C684.214 236.162 680.477 234.794 676.822 233.763C673.165 232.73 669.568 231.988 665.925 231.222C663.603 230.747 661.364 230.387 659.055 230.064C657.259 229.873 655.454 229.777 653.646 229.774C652.777 229.767 651.912 229.896 651.082 230.156C650.769 230.248 650.617 230.852 650.397 231.211C650.708 231.434 651.042 231.621 651.395 231.768C651.987 231.965 652.555 232.069 653.206 232.208L653.112 232.661C651.755 232.522 650.408 232.36 649.04 232.277C648.622 232.277 647.879 232.358 647.879 232.544C647.763 232.984 647.879 233.774 648.1 233.936C648.736 234.241 649.426 234.419 650.13 234.457C651.29 234.609 652.533 234.666 653.728 234.771V235.292C653.434 235.441 653.115 235.536 652.788 235.57C651.245 235.408 649.713 235.177 648.146 235.002C647.279 234.859 646.401 234.789 645.524 234.794C645.093 234.794 644.362 235.188 644.362 235.513C644.301 235.664 644.278 235.829 644.298 235.991C644.317 236.152 644.379 236.307 644.476 236.439C644.572 236.57 644.701 236.675 644.851 236.742C645 236.81 645.163 236.837 645.326 236.823C645.546 236.823 645.755 237.137 646.173 237.46C645.85 237.507 645.524 237.527 645.198 237.519C642.642 236.895 639.946 237.23 637.62 238.459C637.364 238.609 636.832 238.226 636.46 238.122C636.088 238.017 635.3 237.646 634.824 237.832C634.162 238.133 633.895 238.145 633.5 237.519C633.15 237.102 632.729 236.749 632.259 236.475C631.504 235.873 630.193 235.316 630.101 234.679C629.904 233.345 629.868 232.289 628.545 232.358C628.812 231.698 629.451 230.91 629.276 230.376C629.154 230.052 629.121 229.703 629.181 229.362C629.239 229.021 629.39 228.703 629.613 228.439C630.286 227.431 630.043 226.237 629.218 226.12C627.465 225.97 625.737 225.866 623.938 225.866C622.139 225.866 620.074 226.028 618.136 226.086C617.756 226.012 617.386 225.896 617.033 225.738C617.452 225.507 617.567 225.402 617.683 225.39C621.351 225.089 625.017 224.881 628.673 224.474C630.019 224.324 631.609 224.741 632.677 223.523C633.42 222.677 634 221.703 634.673 220.798C636.216 218.746 637.934 216.787 639.314 214.607C640.023 213.447 641.937 212.555 640.904 210.955C641.498 210.584 642.067 210.176 642.61 209.736C642.999 209.327 643.352 208.884 643.666 208.414C643.933 208.055 644.177 207.696 644.432 207.325C644.737 206.754 645.129 206.234 645.593 205.783C646.139 205.365 646.452 205.063 645.849 204.519C645.245 203.974 644.548 203.429 643.886 202.883C644.408 202.835 644.932 202.89 645.43 203.047C646.092 203.116 647.02 203.289 647.38 202.942C647.972 202.385 647.879 201.539 646.928 201.098C646.812 201.098 646.753 200.867 646.556 200.6C648.552 201.435 649.028 201.144 649.284 199.323C649.284 198.872 649.84 198.49 650.107 198.06C650.374 197.631 650.908 197.121 650.839 196.739C650.769 196.356 650.188 195.857 649.759 195.579C649.339 195.312 648.896 195.083 648.436 194.894C646.325 193.817 644.27 192.576 642.089 191.706C639.906 190.836 637.759 190.326 635.625 189.561C633.489 188.795 631.098 187.705 628.789 186.941C626.48 186.176 623.891 185.514 621.421 184.854C619.082 184.136 616.708 183.544 614.306 183.079C610.825 182.522 607.181 182.279 603.618 181.92C600.845 181.595 598.094 181.201 595.321 180.91C595.075 180.899 594.83 180.939 594.6 181.027C594.371 181.115 594.161 181.248 593.986 181.421C593.777 181.653 593.858 182.279 593.986 182.661C594.47 184.111 595.057 185.525 595.738 186.894C596.389 188.053 596.109 189.851 597.769 190.373C597.363 192.831 599.777 192.378 600.879 193.561L598.559 193.271C598.556 193.499 598.524 193.724 598.465 193.944C597.955 195.254 598.211 196.043 599.777 196.263C600.311 196.333 600.775 196.889 601.506 197.422C600.275 197.597 599.012 196.993 598.675 198.385C598.573 198.723 598.54 199.076 598.577 199.427C598.615 199.778 598.723 200.117 598.895 200.425C599.162 200.728 600.172 200.425 600.74 200.344L604.535 202.744C603.504 202.594 602.525 202.196 601.68 201.585C600.659 200.739 599.73 201.492 598.872 201.689C598.536 201.759 598.478 203.162 598.211 204.344C597.049 205.006 597.049 205.018 598.28 206.501C598.5 206.768 598.384 207.301 598.431 207.662L597.085 207.568C596.69 207.568 596.284 207.568 595.924 207.498C595.907 207.921 595.939 208.346 596.017 208.762C596.098 209.029 596.4 209.238 596.737 209.644L595.17 210.317C594.996 210.385 594.838 210.489 594.706 210.622C594.574 210.754 594.472 210.912 594.402 211.087C594.334 211.26 594.301 211.446 594.308 211.632C594.314 211.819 594.358 212.003 594.439 212.172C594.531 212.427 595.263 212.485 595.716 212.589C595.98 212.63 596.248 212.654 596.517 212.659L596.342 214.537L598.929 213.377L599.209 213.795C598.872 214.189 598.605 214.735 598.175 214.955C596.853 215.581 597.085 216.405 597.863 217.738L600.392 215.256C601.552 214.641 601.552 214.641 602.272 213.262C602.388 213.053 602.655 212.762 602.853 212.762C603.36 212.812 603.867 212.664 604.267 212.349C604.667 212.032 604.93 211.575 605 211.07C605 210.896 605.301 210.769 605.463 210.618C606.797 209.458 608.226 208.299 609.456 207.011C611.197 205.157 612.797 203.15 614.457 201.213L614.874 201.422C614.849 201.767 614.762 202.105 614.62 202.42C613.03 204.6 611.439 206.78 609.768 208.89C608.098 211 606.288 213.319 604.338 215.406C601.704 218.329 599.081 221.296 596.214 223.965C593.27 226.65 590.171 229.159 586.93 231.478C583.623 233.878 580.165 236.116 576.648 238.192C573.2 240.236 569.649 242.102 566.006 243.781C561.086 246.03 556.096 248.151 551.037 250.03C547.16 251.469 543.133 252.477 539.164 253.637C536.972 254.275 534.789 254.946 532.55 255.388C527.908 256.304 523.266 257.115 518.543 257.891C516.071 258.309 513.564 258.587 511.081 258.924C507.948 259.341 504.814 259.886 501.669 260.084C498.804 260.292 495.867 260.153 493.047 260.084C492.23 260.018 491.42 259.891 490.622 259.7V259.33C491.921 259.33 493.222 259.399 494.509 259.33C497.144 259.191 499.766 259.005 502.4 258.762C503.203 258.696 503.988 258.492 504.722 258.158C505.151 257.961 505.429 257.37 505.696 256.906C505.696 256.836 505.279 256.338 505.023 256.304C504.2 256.199 503.34 256.234 502.505 256.176C502.114 256.126 501.726 256.052 501.344 255.956V255.457H503.769C504.383 255.564 505.015 255.45 505.553 255.135C506.09 254.821 506.499 254.327 506.706 253.741C506.834 253.298 506.919 252.843 506.961 252.384C506.455 252.25 505.931 252.187 505.407 252.198C504.884 252.291 504.431 252.72 503.921 252.872C503.643 252.941 503.294 252.744 502.981 252.663C503.109 252.396 503.179 252.048 503.387 251.885C503.921 251.48 504.547 251.155 505.093 250.796C505.323 251.05 505.607 251.25 505.925 251.382C506.242 251.514 506.584 251.574 506.927 251.557C507.27 251.54 507.605 251.447 507.909 251.285C508.211 251.124 508.474 250.898 508.678 250.621C509.178 249.868 508.9 249.231 508.005 249.265C506.993 249.356 505.986 249.499 504.989 249.694L504.222 248.535C504.616 248.467 505.003 248.374 505.382 248.257C505.871 248.048 506.335 247.781 506.811 247.537L506.055 246.134C505.685 245.451 505.313 244.755 504.895 244.093C504.175 242.934 503.446 241.774 502.656 240.614C502.54 240.452 502.158 240.43 501.889 240.405C501.624 240.383 501.043 240.405 500.614 240.405H499.268V240.046L501.449 239.862C501.635 239.417 501.648 238.919 501.485 238.467C501.321 238.014 500.993 237.638 500.567 237.415C500.323 237.252 499.928 236.986 499.952 236.789C499.994 236.445 499.967 236.097 499.873 235.765C499.778 235.431 499.617 235.122 499.401 234.852C499.186 234.582 498.917 234.358 498.613 234.191C498.309 234.027 497.976 233.924 497.631 233.889C498.525 232.416 498.467 232.196 497.063 231.269C497.063 230.782 497.236 230.051 497.063 229.924C495.728 229.054 496.145 227.605 495.751 226.445C494.335 222.283 492.746 218.178 491.261 214.039C490.888 213.041 490.285 212.775 489.565 213.563C487.542 215.57 485.693 217.745 484.041 220.068C481.176 224.648 477.728 228.915 475.721 233.983C474.56 236.904 473.214 239.781 472.123 242.69C471.334 244.87 470.682 247.096 470.174 249.357C469.686 251.31 469.398 253.308 469.316 255.318C469.316 258.228 468.677 261.115 469.431 264.073C470.743 269.466 472.897 274.619 475.814 279.343C478.559 283.741 481.833 287.787 485.562 291.39C488.335 294.035 491.364 296.376 494.335 298.834C498.106 301.782 502.193 304.303 506.52 306.349C509.434 307.844 512.59 308.829 515.642 310.048C519.384 311.834 523.416 312.93 527.549 313.283C530.484 313.758 533.351 314.233 536.357 314.605C538.085 314.825 539.837 314.825 541.59 314.928C544.445 315.103 547.288 315.415 550.131 315.415C552.975 315.415 555.643 315.149 558.394 314.894C562.722 314.477 567.063 314.118 571.357 313.445C575.001 312.871 578.605 312.069 582.149 311.045C585.898 309.954 589.564 308.598 593.221 307.206C596.781 305.937 600.268 304.47 603.665 302.812C608.713 300.192 613.656 297.339 618.531 294.382C621.519 292.544 624.391 290.523 627.129 288.329C629.451 286.463 631.493 284.178 633.826 282.277C635.897 280.476 637.748 278.437 639.338 276.201C640.069 275.249 640.916 274.369 641.949 273.175C641.969 273.561 641.969 273.947 641.949 274.333C641.719 275.694 641.011 276.926 639.953 277.812C638.71 278.903 638.374 280.711 636.761 281.604C636.076 281.987 634.905 282.764 635.601 283.784C634.661 284.654 633.117 285.453 633.164 286.172C633.234 287.449 632.793 287.61 631.865 287.819C631.548 287.889 631.268 288.071 631.075 288.329C630.088 289.837 629.172 291.379 627.362 292.086C627.118 292.179 626.944 292.793 627.001 293.119C627.059 293.442 627.582 293.467 627.918 293.512C628.484 293.542 629.049 293.542 629.613 293.512V293.976C629.238 294.118 628.849 294.223 628.452 294.289C627.622 294.219 626.788 294.219 625.957 294.289C625.067 294.564 624.208 294.931 623.393 295.379L623.485 296.109L627.896 296.921V297.316H623.115C622.433 297.292 621.757 297.431 621.141 297.721C620.642 297.999 620.364 298.672 619.981 299.159C620.513 299.574 621.114 299.892 621.757 300.098C623.776 300.319 625.818 300.365 627.86 300.481C625.446 301.455 622.709 300.064 620.422 301.64C619.262 300.203 618.287 300.017 616.79 300.875C615.839 301.431 616.059 302.035 616.639 303.067L620.12 302.163L620.236 303.159L617.219 304.156C616.487 302.661 615.083 302.998 613.831 303.159C613.413 303.159 613.064 303.878 612.671 304.261C613.072 304.587 613.513 304.863 613.981 305.085C614.392 305.155 614.812 305.155 615.222 305.085C616.754 305.085 616.754 305.085 617.649 306.383L617.23 306.291C616.845 306.14 616.434 306.066 616.02 306.076C615.607 306.086 615.2 306.177 614.82 306.346C614.443 306.513 614.102 306.756 613.819 307.057C613.535 307.358 613.314 307.712 613.169 308.1C613.087 308.229 612.98 308.34 612.854 308.428C612.729 308.514 612.587 308.577 612.438 308.609C611.803 308.675 611.174 308.791 610.558 308.957C610.151 309.119 609.909 309.642 609.595 310.012C609.954 310.313 610.302 310.859 610.674 310.881C612.101 310.986 613.54 310.881 614.84 310.881C615.211 311.288 615.536 311.949 615.826 311.925C617.172 311.856 618.507 311.601 619.842 311.415C620.131 311.415 620.456 311.229 620.701 311.323C620.799 311.405 620.872 311.512 620.915 311.631C620.958 311.752 620.968 311.881 620.943 312.007C620.757 312.243 620.495 312.406 620.201 312.47C619.325 312.679 618.437 312.841 617.544 312.957C617.266 312.957 616.976 312.771 616.673 312.69C615.499 312.233 614.277 311.909 613.03 311.729C612.473 311.729 611.87 312.61 611.266 313.085C611.811 313.375 612.345 313.885 612.891 313.909C614.237 313.909 615.594 313.746 617.01 313.642L617.312 314.581C616.151 314.801 615.06 314.975 613.97 315.276C613.761 315.335 613.564 315.88 613.575 316.181C613.586 316.482 614.017 316.668 614.271 316.691C615.989 316.796 617.753 316.843 619.528 316.912C619.528 317.873 620.283 317.99 621.477 317.689C622.69 317.452 623.921 317.331 625.157 317.33C625.377 317.33 625.61 317.653 625.946 317.898C622.628 318.338 622.534 318.407 621.919 320.704C620.821 320.736 619.729 320.873 618.659 321.11C617.973 321.318 616.94 322.026 616.952 322.477C616.952 323.822 618.112 323.069 618.855 323.126C619.599 323.184 620.537 323.568 621.176 323.278C622.221 322.778 623.056 322.118 623.938 323.417C623.981 323.471 624.036 323.514 624.099 323.544C624.161 323.575 624.229 323.59 624.297 323.59C626.038 323.254 627.779 322.895 629.613 322.524C629.985 322.663 630.599 323.126 631.122 323.045C632.186 322.834 633.228 322.52 634.232 322.107C635.241 321.747 636.146 320.692 637.33 321.712C637.434 321.805 637.702 321.712 637.876 321.712C639.953 321.215 641.999 320.596 644.003 319.857C647.485 318.396 650.839 316.726 654.193 315.045C654.738 314.778 655.028 314.024 655.434 313.491C657.987 312.215 660.192 310.72 660.25 309.734L658.485 309.606C661.317 308.076 663.87 306.742 666.378 305.328C667.083 304.845 667.744 304.298 668.35 303.693L668.025 303.067L665.088 303.867L672.191 298.544L671.031 297.548C672.191 296.203 674.13 295.507 674.512 293.442L673.143 293.038C674.233 292.109 675.173 291.379 676.01 290.533C676.278 290.101 676.467 289.627 676.566 289.13L675.185 289.002L674.639 288.921C675.673 288.005 676.636 287.263 677.448 286.381C677.726 286.091 677.599 285.431 677.668 284.944C677.234 284.912 676.796 284.964 676.38 285.094C674.767 286.115 673.212 287.227 671.61 288.259C671.135 288.45 670.635 288.575 670.125 288.631C670.274 288.369 670.445 288.12 670.636 287.889C670.805 287.738 670.991 287.609 671.193 287.505C674.455 285.779 676.845 283.042 679.317 280.445C679.572 280.178 679.433 279.541 679.479 279.065L678.319 279.193H678.202C678.887 277.929 679.676 276.607 680.302 275.215C680.5 274.775 680.245 274.149 680.199 273.615L678.296 274.311L680.953 271.168L681.312 271.296C681.406 273.117 681.545 274.948 681.603 276.78C681.661 278.612 681.603 280.259 681.603 282.369C681.312 282.973 680.071 283.761 680.605 285.175H684.017L684.121 285.593L680.118 286.555C680.118 287.02 680.001 287.911 680.268 288.051C680.904 288.309 681.594 288.406 682.276 288.329C683.007 288.329 683.726 288.156 684.666 288.028C684.434 288.492 684.399 288.701 684.318 288.712C683.344 288.955 682.346 289.106 681.383 289.384C680.671 289.549 680.003 289.86 679.42 290.3C679.166 290.521 679.42 291.274 679.364 291.785C680.118 291.785 680.883 291.785 681.684 291.633C681.998 291.633 682.322 291.112 682.566 291.159C684.69 291.633 686.604 290.845 688.577 290.358C689.12 290.289 689.67 290.289 690.214 290.358C689.052 291.033 687.808 291.551 686.512 291.9C685.135 292.169 683.783 292.556 682.473 293.06C681.789 293.408 681.313 293.64 680.64 293.303C679.56 292.758 678.864 293.373 678.319 294.115C677.773 294.857 678.087 295.565 679.038 295.622C679.494 295.606 679.947 295.555 680.396 295.472C681.173 295.472 681.974 295.472 682.716 295.298C683.459 295.124 684.748 295.171 685.247 294.625C686.407 293.467 687.127 293.687 687.997 294.625L685.676 295.785H683.506C681.812 295.866 680.443 297.42 678.527 296.794C678.121 296.654 677.367 297.2 676.914 297.606C676.461 298.012 676.602 298.475 676.45 298.915C676.89 299.105 677.363 299.209 677.843 299.218C679.142 298.973 680.302 297.815 681.754 298.73C681.834 298.73 682.02 298.73 682.148 298.661L686.001 297.188C686.929 298.486 684.748 298.347 684.724 299.218C682.404 298.614 680.326 298.765 678.852 300.899C678.624 300.66 678.371 300.446 678.098 300.261C677.687 300.057 677.219 299.993 676.768 300.081C676.316 300.169 675.907 300.403 675.603 300.748C675.416 301.015 675.322 301.338 675.337 301.664C675.88 302.015 676.501 302.229 677.147 302.29C678.729 302.107 680.302 301.845 681.859 301.501C682.473 301.386 683.019 301.096 683.669 300.968C684 300.923 684.335 300.923 684.666 300.968V301.362L683.088 302.522C682.368 302.302 681.754 301.884 681.22 301.977C680.19 302.161 679.195 302.505 678.272 302.998C677.854 303.218 677.704 303.936 677.437 304.435C677.901 304.643 678.424 305.096 678.83 305.015C680.221 304.713 681.579 304.237 683.077 303.786L685.13 304.25C683.92 304.667 682.755 305.204 681.65 305.85C681.42 305.98 681.159 306.045 680.894 306.035C679.741 305.877 678.576 305.83 677.414 305.896C676.88 305.965 676.461 306.8 675.998 307.299C676.507 307.534 677.029 307.736 677.565 307.902C678.243 308.041 678.948 307.985 679.595 307.738C680.243 307.492 680.806 307.066 681.22 306.511C681.266 307.064 681.141 307.62 680.86 308.1C680.547 308.656 680.048 309.177 680.86 309.745C681.94 310.534 683.739 309.572 684.202 308.378C684.831 307.276 685.612 306.268 686.523 305.386L687.324 306.371C686.965 307.671 684.62 307.195 685.305 309.236C686.743 309.131 688.287 309.537 689.389 308.075C689.471 307.949 689.9 308.075 690.167 308.075C691.33 308.223 692.509 308.161 693.649 307.891C694.252 307.624 695.61 306.731 694.809 305.375C694.739 305.258 695.065 304.818 695.285 304.632C696.561 303.543 696.584 303.473 695.459 302.313L697.687 300.342L698.221 300.957C697.686 301.632 697.19 302.336 696.736 303.067C696.666 303.195 697.026 303.682 697.281 303.844C698.221 304.435 698.859 303.646 699.602 303.287C700.113 303.104 700.641 302.979 701.181 302.917L701.273 303.38C700.113 303.786 699.451 305.003 697.791 304.679C696.132 304.354 695.471 305.177 695.946 307.507L698.975 305.954C699.327 306.231 699.763 306.383 700.211 306.383C700.659 306.383 701.095 306.231 701.447 305.954C702.388 305.433 703.187 304.053 704.616 304.969C704.616 304.969 704.789 304.969 704.882 304.899L708.073 303.739C711.875 302.493 715.569 300.943 719.121 299.101C722.475 297.177 726.154 295.75 729.275 293.523C733.368 290.497 737.293 287.25 741.031 283.795C744.919 280.317 747.89 276.039 750.919 271.829C753.792 267.995 755.948 263.674 757.289 259.074C757.522 258.194 757.836 257.335 758.09 256.466C758.763 254.066 759.436 251.676 760.086 249.276C760.23 248.7 760.339 248.115 760.412 247.525C760.767 245.793 761.004 244.038 761.119 242.273C761.119 240.082 760.679 237.878 760.667 235.687C760.596 230.889 759.628 226.146 757.812 221.703C757.094 219.693 756.198 217.754 755.131 215.905C753.495 213.273 751.65 210.804 749.746 208.322C748.644 206.861 747.426 205.493 746.196 204.124C745.615 203.475 744.965 203.255 744.444 204.229C743.619 205.747 742.703 207.231 741.994 208.867C741.438 210.131 740.091 211.186 740.718 212.879C740.834 213.192 741.054 214.78 739.557 214.34C739.418 214.34 739.012 214.769 738.943 215.058C738.698 215.974 738.64 216.96 738.339 217.853C737.828 219.337 737.922 219.651 739.221 220.068C739.529 220.795 739.773 221.548 739.952 222.317C739.952 222.688 739.616 223.117 739.418 223.478L739.116 223.269C738.977 222.56 738.849 221.866 738.687 221.018C737.202 222.097 737.121 223.036 738.223 223.976C738.396 224.082 738.545 224.226 738.657 224.395C738.771 224.565 738.847 224.757 738.88 224.957C738.913 225.159 738.903 225.365 738.849 225.561C738.796 225.758 738.701 225.94 738.571 226.097C738.258 225.309 738.106 224.324 736.982 224.937C736.378 225.298 736.551 227.478 737.143 227.86C738.211 228.555 738.304 229.588 737.376 230.284L736.575 228.591H736.192C735.89 229.819 734.196 230.632 735.252 232.371L735.925 232.127C736.145 232.023 736.343 231.907 736.957 231.57C736.506 232.95 736.192 233.889 735.867 234.887L735.508 234.771L734.938 232.764C734.255 233.06 733.701 233.592 733.382 234.264C733.062 234.936 732.996 235.701 733.197 236.417C734.88 236.417 734.613 237.844 735.089 238.737C734.22 238.806 733.325 239.085 733.349 237.727C733.349 237.473 732.815 237.031 732.49 236.986C732.165 236.939 731.84 237.357 731.631 237.646C731.422 237.936 731.167 238.551 730.877 238.957C729.473 240.905 729.589 241.218 731.909 241.588C731.899 242.155 732.058 242.711 732.367 243.186C732.675 243.661 733.118 244.033 733.639 244.255C733.77 244.336 733.882 244.44 733.971 244.563C734.061 244.687 734.126 244.826 734.161 244.975C734.44 246.308 734.996 247.132 736.563 246.412C736.796 247.467 736.865 248.326 735.716 248.592C735.205 247.77 734.893 246.714 734.22 246.354C733.869 246.193 733.557 245.958 733.305 245.666C733.052 245.374 732.865 245.032 732.757 244.661C732.585 244.461 732.377 244.296 732.142 244.177C731.906 244.058 731.651 243.985 731.388 243.965C730.695 244.699 730.163 245.569 729.82 246.517C729.728 246.829 730.807 247.467 731.445 248.048L731.933 250.042L732.06 250.297C731.446 250.134 730.868 249.858 730.354 249.485C729.775 248.883 729.484 247.897 728.371 248.257C727.854 248.441 727.404 248.776 727.078 249.218C726.755 249.66 726.57 250.189 726.549 250.737C725.802 251.31 725.092 251.93 724.425 252.593C724.308 252.72 724.633 253.555 724.9 253.66C725.146 253.726 725.404 253.738 725.654 253.689C725.904 253.641 726.14 253.536 726.343 253.383C726.546 253.229 726.711 253.031 726.826 252.803C726.939 252.576 726.999 252.325 727 252.071L729.972 250.482L728.486 253.729C727.686 253.359 727.094 253.88 726.989 254.888C726.981 255.124 727.027 255.357 727.13 255.568C727.23 255.781 727.381 255.966 727.57 256.106C727.726 256.18 727.898 256.217 728.071 256.216C728.244 256.216 728.415 256.176 728.571 256.099C728.726 256.024 728.863 255.915 728.971 255.78C729.079 255.643 729.156 255.486 729.194 255.318C729.38 254.657 729.612 253.902 730.435 254.32C730.888 254.553 731.074 255.294 731.422 255.873C729.206 256.663 729.008 256.975 729.461 258.634C731.573 258.75 732.003 258.367 731.712 256.535L732.977 256.836L733.616 258.831C733.383 258.762 733.094 258.598 733.013 258.668C732.399 259.192 731.835 259.77 731.33 260.396C731.202 260.558 731.458 261.312 731.539 261.312C732.152 261.328 732.764 261.241 733.349 261.058C733.581 260.964 733.581 260.362 733.814 260.118C734.284 259.696 734.785 259.308 735.31 258.959C735.31 260.013 735.391 260.613 735.427 261.206ZM611.742 321.932C611.857 322.071 612.101 322.558 612.46 322.686C613.114 322.959 613.835 323.027 614.528 322.879C615.221 322.733 615.851 322.378 616.337 321.862C616.534 321.666 616.79 321.249 616.709 321.097C616.618 320.958 616.499 320.838 616.36 320.748C616.219 320.658 616.061 320.6 615.895 320.576C614.91 320.576 613.923 320.773 612.937 320.796C612.492 320.803 612.051 320.708 611.648 320.518C611.127 320.275 610.708 319.718 610.187 319.637C609.182 319.504 608.163 319.504 607.158 319.637C606.948 319.693 606.756 319.802 606.601 319.955C606.447 320.107 606.334 320.297 606.276 320.506C606.303 320.726 606.387 320.936 606.519 321.114C606.651 321.293 606.827 321.435 607.03 321.527C608.504 321.736 609.99 321.781 611.742 321.909V321.932ZM602.167 318.037C601.675 318.204 601.194 318.406 600.728 318.639C600.728 318.639 600.821 319.451 601.031 319.543C601.927 319.95 602.87 320.246 603.838 320.425C604.116 320.425 604.616 319.869 604.79 319.474C604.872 319.276 604.488 318.708 604.187 318.569C603.53 318.334 602.855 318.155 602.167 318.037ZM616.384 318.454C615.083 317.166 612.507 316.924 610.221 317.979C610.499 318.291 610.708 318.755 610.988 318.814C612.148 319.034 613.366 319.137 614.562 319.276C614.979 319.335 615.489 319.207 615.803 319.404C616.561 319.94 617.473 320.212 618.4 320.184C619.329 320.154 620.221 319.823 620.943 319.242C620.428 318.559 619.673 318.096 618.829 317.946C617.986 317.795 617.117 317.969 616.395 318.43L616.384 318.454ZM603.862 317.317C605.076 318.044 606.474 318.407 607.888 318.361C608.365 318.361 608.841 317.689 609.328 317.317C608.841 316.982 608.399 316.471 607.865 316.367C606.53 316.1 605.022 315.288 603.862 317.317ZM595.936 317.178C596.376 317.678 596.517 318.013 596.737 318.071C597.384 318.263 598.057 318.352 598.732 318.338C598.942 318.338 599.104 317.631 599.278 317.247C598.723 316.939 598.13 316.706 597.513 316.551C597.073 316.517 596.598 316.899 595.936 317.178ZM602.562 316.982C602.829 316.737 603.629 316.309 603.571 316.019C603.34 314.697 602.11 314.697 601.112 314.639C600.787 314.639 600.113 315.231 600.136 315.532C600.206 316.76 601.309 316.76 602.562 316.969V316.982ZM603.131 313.48C603.435 313.987 603.879 314.394 604.41 314.654C604.941 314.914 605.538 315.014 606.124 314.94C606.66 314.879 607.201 314.975 607.679 315.218C608.354 315.785 609.174 316.15 610.046 316.273C610.918 316.397 611.807 316.272 612.612 315.914C612.866 315.833 613.25 315.44 613.203 315.323C613.088 315.033 612.786 314.627 612.543 314.616C611.161 314.511 609.965 313.341 608.457 313.99C608.26 314.071 607.854 313.676 607.297 313.352L611.219 312.865C610.975 312.436 610.905 312.077 610.685 311.925C610.186 311.519 609.6 311.229 608.976 311.075C608.349 310.92 607.696 310.906 607.064 311.033C606.346 311.242 606.043 311.16 605.637 310.522C605.36 310.062 604.913 309.73 604.392 309.595C603.871 309.46 603.318 309.535 602.853 309.804C602.644 309.896 602.539 310.755 602.597 310.778C603.49 311.173 604.396 311.496 605.312 311.799C605.66 311.902 606.09 311.799 606.369 311.972C606.647 312.147 606.369 312.564 606.369 312.865C606.012 312.935 605.646 312.935 605.289 312.865C605.11 312.753 604.912 312.679 604.703 312.649C604.496 312.618 604.283 312.631 604.08 312.688C603.876 312.743 603.688 312.84 603.524 312.972C603.361 313.105 603.228 313.27 603.131 313.456V313.48ZM594.438 315.386C593.75 315.021 593.307 314.64 592.988 314.686C592.663 314.731 592.338 315.242 592.014 315.543C592.38 315.866 592.8 316.121 593.255 316.297C593.505 316.297 593.856 315.84 594.438 315.386ZM594.438 315.386L594.473 315.404V315.357L594.438 315.386ZM595.844 312.645C595.851 314.424 596.615 315.124 597.989 314.883C598.338 314.883 598.906 314.605 598.942 314.385C598.959 314.187 598.925 313.988 598.844 313.808C598.763 313.626 598.637 313.47 598.478 313.352C597.614 313.063 596.735 312.825 595.844 312.645ZM601.193 313.7C601.761 313.143 602.353 312.818 602.353 312.54C602.26 311.114 600.879 311.682 600.102 311.288C599.986 311.288 599.557 311.799 599.278 312.077L601.193 313.7ZM678.161 309.682C676.893 308.436 676.257 308.432 675.312 309.584C676.174 310.538 677.094 310.318 678.161 309.682ZM605.707 307.752C605.707 309.711 606.241 310.071 608.283 309.873C608.655 309.873 608.991 309.386 609.351 309.131C609.05 308.726 608.817 308.064 608.435 307.972C607.534 307.809 606.621 307.73 605.707 307.74V307.752ZM678.161 309.682L678.191 309.664V309.711L678.161 309.682ZM610.964 308.493C611.706 307.716 612.601 307.218 612.588 306.708C612.588 305.629 611.428 305.757 610.697 305.698C609.965 305.642 608.922 305.514 609.084 306.558C609.177 307.171 610.129 307.658 610.964 308.482V308.493ZM674.036 305.896C673.212 306.638 672.11 307.16 672.052 307.786C671.994 308.412 673.026 308.609 673.804 308.284C674.861 307.786 674.547 307.09 674.036 305.85V305.896ZM674.431 305.664C675.406 305.166 676.683 305.664 676.671 304.226C676.671 303.821 676.171 303.415 675.905 303.009L673.584 304.713L674.431 305.664ZM739.441 272.861L739.546 273.662C740.09 273.788 740.651 273.819 741.205 273.754C742.169 273.453 742.366 272.688 741.866 271.435L739.441 272.861ZM739.407 271.956L740.996 270.147C740.544 269.835 739.964 269.197 739.65 269.301C739.052 269.593 738.555 270.058 738.223 270.634C738.164 270.704 738.838 271.307 739.407 271.934V271.956ZM735.387 261.196C734.979 261.062 734.536 261.082 734.142 261.25C733.733 261.424 733.405 261.744 733.221 262.147C733.123 262.373 733.074 262.616 733.074 262.86C733.074 263.105 733.123 263.348 733.221 263.574C733.314 263.781 734.01 263.909 734.382 263.794C735.86 263.286 735.993 262.915 735.387 261.196ZM735.427 261.206V261.208L735.387 261.196L735.38 261.173L735.427 261.206ZM509.195 256.856C508.57 256.27 508.061 255.597 507.877 255.723C507.206 256.058 506.574 256.47 505.999 256.953C506.369 257.289 506.787 257.927 507.159 257.88C507.884 257.641 508.57 257.295 509.195 256.856ZM514.864 256.071V255.584C514.527 255.399 514.179 255.051 513.831 255.051C512.971 255.051 512.112 255.132 511.267 255.294C510.803 255.349 510.365 255.544 510.013 255.851C509.851 256.037 510.013 256.836 510.176 256.93C510.656 257.13 511.18 257.197 511.696 257.126C512.367 257.073 513.031 256.937 513.67 256.721C514.086 256.539 514.485 256.322 514.864 256.071ZM509.195 256.856L509.225 256.883V256.836L509.195 256.856ZM508.002 70.3533L508.552 71.4055C510.489 75.2196 512.543 78.9883 514.354 82.8606C515.027 84.3332 515.398 85.8994 516.674 87.0582C517.046 87.3606 516.813 88.1487 517.046 88.6244C517.567 89.6568 518.16 90.6295 518.729 91.6277C518.88 91.8933 519.193 92.1844 519.193 92.4272C519.019 93.8188 520.087 94.6182 520.515 95.7784C521.282 97.7493 522.882 99.361 523.104 101.576C523.105 101.714 523.159 101.847 523.255 101.947C524.484 102.944 524.682 104.486 525.355 105.785C527.212 109.379 529.15 112.811 531.087 116.488C533.026 120.163 534.952 123.839 536.833 127.549C538.596 131.04 540.313 134.6 542.078 138.077C542.216 138.412 542.45 138.699 542.751 138.901C546.104 140.629 549.493 142.275 552.812 144.026C554.042 144.663 555.134 145.603 556.294 146.345C557.802 147.285 559.439 148.05 560.855 149.105C563.269 150.903 565.589 152.838 567.909 154.786C570.532 156.99 573.132 159.309 575.638 161.628C576.664 162.682 577.614 163.805 578.483 164.991C580.141 167.008 581.882 168.968 583.426 171.067C584.621 172.69 585.595 174.441 586.629 176.169C586.932 176.572 587.088 177.066 587.069 177.572C586.802 178.65 586.56 179.449 588.229 179.159C588.485 179.125 589.019 180.436 589.309 181.166C589.38 181.576 589.38 181.997 589.309 182.407L589.715 182.256C590.134 182.685 590.807 183.079 591.061 183.554C591.332 184.713 591.429 185.904 591.352 187.091C591.258 188.297 590.423 188.622 589.414 188.053C588.883 188.784 588.417 189.561 588.021 190.373C587.731 191.161 587.186 191.961 587.87 192.946C588.1 193.592 588.168 194.285 588.068 194.964V200.113C589.519 199.835 590.087 199.115 589.519 198.292C589.101 197.827 588.815 197.262 588.684 196.651C588.555 196.042 588.586 195.407 588.776 194.813C588.927 194.338 588.265 193.596 588.427 193.121C588.891 191.718 588.636 189.943 590.446 189.121C590.724 188.946 591.035 188.832 591.361 188.788C591.686 188.743 592.017 188.767 592.33 188.859C592.646 188.952 592.937 189.109 593.187 189.322C593.435 189.535 593.637 189.798 593.777 190.095L593.905 190.338C594.821 192.158 594.821 192.158 592.815 193.202C594.834 193.155 595.135 194.396 595.135 195.648C595.139 197.489 594.992 199.328 594.693 201.144C594.462 202.524 591.944 202.699 590.783 201.539C590.619 201.334 590.413 201.168 590.179 201.051C590.401 201.828 589.959 202.919 591.491 202.919C591.839 202.896 592.257 203.498 592.651 203.823C592.42 204.066 592.187 204.531 591.944 204.531C591.378 204.529 590.817 204.414 590.296 204.194C589.911 203.982 589.551 203.725 589.228 203.429C589.077 203.325 588.752 203.255 588.752 203.186C588.903 200.959 585.967 200.89 585.793 198.814L586.953 197.933C586.318 197.503 585.655 197.117 584.969 196.773C583.576 196.216 583.461 195.904 583.901 194.454C583.904 194.224 583.849 193.996 583.738 193.792C583.629 193.591 583.47 193.419 583.275 193.294C581.093 192.495 580.466 191.137 581.499 189.247C580.246 188.389 578.923 187.566 577.763 186.663C577.543 186.511 577.612 186.048 577.543 185.723C578.007 185.664 578.539 185.422 578.9 185.583C579.798 186.068 580.667 186.606 581.499 187.195V185.653L577.693 185.132C577.612 185.121 577.46 185.074 577.46 185.004C576.823 183.368 574.467 182.789 574.304 181.375C574.061 179.253 572.784 178.198 571.624 176.829C571.194 176.331 570.648 175.612 571.368 174.719C571.577 174.463 571.066 173.617 570.857 172.945L569.778 173.361C569.311 173.104 568.935 172.708 568.7 172.23C568.464 171.75 568.384 171.21 568.467 170.683C568.426 170.445 568.334 170.219 568.199 170.019C568.063 169.819 567.885 169.65 567.678 169.525C567.142 169.276 566.672 168.91 566.302 168.451C565.931 167.992 565.671 167.456 565.542 166.881C565.197 165.966 564.672 165.131 563.999 164.423C563.024 163.123 561.945 161.895 560.983 160.584C560.633 160.023 560.348 159.424 560.135 158.798C560.03 158.589 559.973 158.185 559.856 158.185C558.127 157.918 557.918 156.143 556.758 155.285C558.054 158.47 559.763 161.472 561.84 164.214L559.52 164.665L560.46 165.094C560.872 165.214 561.262 165.392 561.62 165.628C562.489 166.321 563.269 167.119 563.94 168.005C564.196 168.434 564.023 169.222 563.94 169.837C563.906 170.138 563.605 170.405 563.314 170.881C564.777 170.881 565.926 170.997 565.786 172.69C565.775 172.84 566.181 173.015 566.354 173.2C566.796 173.628 567.213 174.081 567.642 174.522L566.134 175.832C566.528 176.02 566.945 176.149 567.377 176.214C568.618 176.192 569.233 176.528 569.43 177.977C569.605 179.229 569.755 180.818 571.519 181.271C572.215 181.456 573.004 184.297 572.679 185.096C572.517 185.514 572.389 185.943 572.239 186.372L572.737 186.546L573.341 184.865C573.852 185.792 574.35 186.663 574.815 187.554C574.92 187.752 574.931 188.169 575.035 188.169C576.776 188.459 576.161 190.257 576.881 191.022C577.994 192.194 578.389 193.758 579.329 194.813C580.358 195.722 581.06 196.945 581.325 198.292C581.384 198.802 582.219 199.22 582.914 199.88C582.845 200.405 582.931 200.938 583.164 201.414C583.399 201.888 583.768 202.283 584.227 202.548C585.317 203.37 584.471 204.623 583.867 205.493C583.11 206.482 582.288 207.419 581.406 208.299C580.316 209.493 578.297 209.552 577.658 211.348C577.588 211.523 577.193 211.592 577.031 211.673L578.528 213.006C578.772 212.369 578.981 211.79 579.248 211.209C579.596 210.479 579.91 209.725 581.07 210.05C581.371 210.131 582.021 209.597 582.23 209.191C582.672 208.369 582.869 207.395 584.191 207.882C584.296 207.916 584.597 207.314 584.864 207.069C585.328 206.663 585.874 205.933 586.304 206.003C586.907 206.084 587.789 206.49 587.464 207.568C587.429 207.707 587.511 208.044 587.615 208.044C588.624 208.531 588.694 209.552 589.147 210.362C589.963 211.615 590.847 212.823 591.792 213.981C592.764 215.315 593.662 216.701 594.485 218.131C595.065 219.198 594.218 220.706 593.163 221.366C592.225 221.943 591.363 222.631 590.598 223.419C589.276 224.572 587.765 225.487 586.129 226.12C585.77 226.295 584.922 225.819 584.505 225.413C581.929 222.932 579.353 220.463 576.915 217.842C573.828 214.526 570.846 211.139 567.898 207.662C566.157 205.632 564.707 203.312 562.85 201.399C561.086 199.352 559.492 197.165 558.08 194.86C556.525 192.645 555.051 190.36 553.52 188.122C553.13 187.529 552.62 187.023 552.022 186.639C551.686 188.679 552.986 190.118 553.624 191.763C551.686 192.216 551.686 192.216 552.022 193.224C553.288 192.274 553.067 192.703 554.344 193.851C555.621 194.999 555.504 196.437 556.177 197.655C556.235 197.781 556.271 198.014 556.352 198.014C558.29 198.547 558.116 200.356 558.672 201.736C558.779 202.036 558.953 202.305 559.183 202.524C560.424 203.615 560.424 203.603 560.088 204.982C562.537 206.607 562.699 206.896 562.026 209.215C562.819 209.5 563.553 209.925 564.196 210.468C564.552 211.165 564.652 211.966 564.474 212.728C565.055 213.377 566.379 213.343 566.215 214.861C565.754 216.555 564.71 218.033 563.269 219.036C562.746 219.291 562.385 219.999 562.003 220.381C561.62 220.764 561.098 221.436 560.75 221.366C559.67 221.181 559.311 221.842 558.835 222.526C558.53 222.918 558.196 223.286 557.837 223.628L558.939 224.787C559.044 224.589 559.381 224.243 559.311 224.046C559.02 223.256 559.148 222.618 559.996 222.491C560.61 222.498 561.221 222.6 561.806 222.793L561.887 223.245C562.073 222.944 562.513 222.503 562.432 222.352C561.771 221.146 562.665 220.914 563.431 220.358C564.196 219.801 564.741 218.908 565.903 218.908C566.157 218.897 566.413 218.143 566.668 217.83C566.924 217.516 567.236 217.251 567.516 216.948C567.824 217.252 568.114 217.575 568.386 217.911C568.676 218.329 568.896 218.804 569.163 219.245C569.255 219.395 569.5 219.512 569.5 219.673C570.022 221.808 572.169 223.047 572.761 224.95C573.26 226.585 575.441 227.106 575.082 229.148C575.023 229.471 575.975 229.958 576.428 230.399C577.251 231.153 577.496 231.86 576.428 232.649C575.662 233.217 575.14 234.248 574.316 234.551C571.438 235.629 569.233 237.902 566.273 238.852C564.869 239.269 563.918 239.502 562.874 238.111C560.994 235.617 558.835 233.357 556.874 230.921C554.158 227.547 551.454 224.161 548.89 220.683C547.057 218.189 545.478 215.5 543.795 212.901C541.903 209.992 539.92 207.139 538.201 204.136C536.936 201.898 536.032 199.498 534.941 197.179C534.808 196.948 534.653 196.73 534.477 196.53C532.794 197.736 534.419 198.964 534.349 200.228L533.189 201.098C536.24 200.912 534.686 203.186 535.289 204.286C535.985 205.586 536.032 207.314 536.914 208.414C537.792 209.553 538.207 210.983 538.074 212.416C538.051 213.377 538.376 213.702 539.536 213.516L538.875 214.293C540.035 216.265 541.196 218.201 542.217 220.288C542.437 220.74 542.182 221.505 542.101 222.028C542.02 222.549 542.02 223.071 542.02 223.79L543.505 223.28C544.201 224.242 545.385 225.02 544.526 226.434C546.337 227.837 546.348 228.277 544.631 229.716C544.225 230.017 543.795 230.214 543.47 230.526C543.224 230.809 543.002 231.111 542.809 231.431C543.064 231.581 543.133 231.895 543.575 231.86C544.015 231.826 544.631 231.675 544.735 231.408C545.094 230.504 545.594 229.75 546.615 230.005C547.094 230.092 547.531 230.335 547.859 230.695C548.185 231.056 548.384 231.515 548.425 231.999C548.46 232.441 548.924 232.789 549.157 233.159C549.388 233.53 549.586 233.924 549.794 234.318C550.088 234.715 550.317 235.158 550.467 235.629C550.676 237.217 552.186 237.821 552.859 239.049C553.346 239.942 554.03 240.719 554.506 241.612C554.723 242.179 554.867 242.771 554.936 243.375L553.393 243.676C552.63 244.356 551.797 244.955 550.909 245.462C548.82 246.342 546.673 247.085 544.537 247.862C543.687 248.19 542.814 248.461 541.926 248.674C540.488 248.986 539.85 247.723 539.2 246.899C536.09 243.015 532.991 239.188 530.286 235.072C527.235 230.434 524.542 225.541 521.827 220.694C520.051 217.529 518.507 214.236 516.86 210.989C516.572 211.548 516.43 212.17 516.447 212.798C516.463 213.427 516.637 214.04 516.953 214.584C517.035 214.688 517.231 214.78 517.231 214.885C517.3 217.088 519.436 219.117 517.974 221.321C518.624 221.911 519.198 222.582 519.68 223.314C519.912 223.756 519.575 224.533 519.611 225.054C519.645 225.576 519.727 226.562 519.912 226.562C521.942 226.897 521.514 228.416 521.282 229.576C521.096 230.504 521.085 230.955 522.025 231.373C522.326 231.512 522.395 232.232 522.523 232.753C522.651 233.276 522.535 233.983 522.837 234.295C524.159 235.653 524.241 235.756 524.159 237.543L525.541 239.188L523.591 240.349C525.193 240.418 527.468 240.174 525.911 243.166C528.094 243.247 528.523 244.951 529.254 246.378C529.855 247.856 530.609 249.266 531.506 250.587C532.48 251.792 532.166 252.048 530.694 252.384C529.481 252.698 528.313 253.157 527.212 253.752C523.742 255.503 520.921 255.249 518.206 252.593C515.711 250.158 513.205 247.7 510.953 245.033C509.25 242.902 507.721 240.637 506.381 238.261C503.69 233.517 501.436 228.537 499.65 223.384C498.373 219.882 497.051 216.38 495.89 212.845C494.884 210.023 494.028 207.152 493.325 204.241C492.281 199.532 491.4 194.779 490.622 190.012C489.926 185.804 489.508 181.525 488.927 177.258C488.707 175.635 488.359 174.035 488.127 172.412C487.987 171.821 487.987 171.205 488.127 170.614C488.293 170.131 488.294 169.606 488.129 169.121C487.966 168.637 487.647 168.22 487.222 167.936C485.84 166.683 484.308 165.525 482.87 164.364C481.048 162.822 479.271 161.211 477.438 159.668C474.99 157.592 472.39 155.621 470.07 153.476C466.171 149.974 462.294 146.438 458.547 142.773C457.455 141.705 456.388 140.612 455.336 139.503C466.665 112.115 484.957 88.3276 508.002 70.3533ZM510.235 251.943C508.725 251.943 507.599 252.872 507.704 253.787C507.704 254.147 508.191 254.726 508.481 254.749C509.642 254.843 511.231 253.59 511.034 252.778C510.93 252.36 510.374 252.059 510.235 251.932V251.943ZM724.72 250.76L725.086 249.868C724.691 249.752 724.193 249.427 723.926 249.566C723.313 249.942 722.74 250.381 722.219 250.876C722.498 251.132 722.858 251.665 723.056 251.608C723.641 251.389 724.199 251.106 724.72 250.76ZM724.72 250.76L724.714 250.773L724.772 250.726L724.72 250.76ZM725.167 250.007C725.928 249.326 726.648 248.602 727.326 247.839C727.534 247.561 727.395 247.027 727.419 246.609C726.955 246.609 726.351 246.482 726.085 246.714C725.528 247.261 725.065 247.896 724.714 248.592C724.552 248.813 724.924 249.276 725.167 249.995V250.007ZM726.158 78.4075C745.422 95.8451 760.671 117.639 770.346 142.231C769.782 142.78 769.143 143.235 768.141 143.354C767.235 143.469 766.458 144.746 765.633 145.511C765.505 145.626 765.482 145.974 765.366 145.974C763.382 146.345 762.5 148.387 760.724 149.035C760.226 149.146 759.714 149.193 759.205 149.175C758.904 149.772 758.512 150.319 758.044 150.798C757.408 151.18 756.721 151.465 756.001 151.644L755.77 151.296C755.649 151.623 755.486 151.931 755.283 152.212C754.852 152.607 754.318 153.163 753.878 153.163C753.567 153.114 753.27 152.996 753.012 152.817C752.752 152.639 752.536 152.404 752.38 152.131C752.325 151.848 752.333 151.557 752.406 151.278C752.478 150.999 752.613 150.739 752.799 150.519C753.356 149.812 754.029 148.919 755.189 149.72C755.363 149.835 756.268 149.163 756.431 148.874C756.593 148.583 756.187 148.003 756.037 147.54C755.629 147.607 755.236 147.743 754.876 147.945C753.378 149.278 752.833 149.197 751.848 147.435C751.791 147.34 751.71 147.26 751.615 147.204C750.949 147.875 750.209 148.472 749.409 148.977C749.015 149.175 748.319 148.757 747.762 148.629C747.812 148.159 747.928 147.698 748.11 147.262C748.609 146.519 749.259 145.859 749.77 145.244L751.244 145.974L751.581 145.743L750.628 143.736C750.05 144.29 749.382 144.744 748.655 145.081C747.803 145.126 746.95 145.035 746.126 144.815C747.542 146.113 747.298 146.531 746.126 147.552C744.953 148.571 743.886 149.186 742.378 148.71C742.041 148.607 741.541 148.27 741.541 147.992C741.521 147.566 741.672 147.148 741.96 146.832C743.538 145.348 745.174 143.922 746.799 142.472C747.612 141.742 748.447 141.035 749.294 140.304L751.278 142.623L751.731 142.542C750.268 140.988 749.409 139.33 751.511 137.509H749.676C749.549 138.398 749.118 139.216 748.459 139.825C747.801 140.436 746.953 140.801 746.055 140.861C746.183 143.493 743.643 143.736 742.122 144.815C741.031 145.568 739.802 145.904 739.802 147.54C739.302 147.354 738.954 147.273 738.64 147.123C736.876 146.264 736.69 145.662 738.037 144.315C738.801 143.483 739.653 142.736 740.578 142.09C741.32 141.778 742.101 141.575 742.9 141.487C742.865 140.571 742.575 139.377 743.735 138.611C743.852 138.542 743.932 138.322 744.013 138.322C745.893 138.53 745.627 136.919 746.044 135.909C746.115 135.572 746.071 135.22 745.916 134.912L744.358 134.544C744.207 134.453 744.043 134.378 743.874 134.321C743.739 134.312 743.604 134.317 743.471 134.336L744.358 134.544C744.508 134.635 744.648 134.74 744.776 134.86C745.034 135.102 745.237 135.396 745.371 135.724C745.638 136.454 744.083 138.021 743.318 137.904C743.099 137.904 742.882 137.857 742.683 137.768C742.483 137.678 742.305 137.548 742.159 137.384C742.013 137.221 741.903 137.029 741.838 136.822C741.771 136.613 741.75 136.393 741.774 136.176L741.785 136.153C741.801 135.895 741.869 135.643 741.983 135.412C742.096 135.181 742.255 134.973 742.449 134.803C742.643 134.634 742.869 134.503 743.113 134.421C743.23 134.381 743.35 134.353 743.471 134.336L741.344 133.834C741.252 133.776 741.077 133.834 741.193 133.834C741.058 134.725 740.776 135.587 740.358 136.385C739.671 137.041 738.889 137.587 738.037 138.008C737.956 138.425 737.956 139.063 737.956 139.689C736.47 140.107 736.296 140.315 736.157 141.673C736.854 141.478 737.501 141.137 738.055 140.675C738.609 140.21 739.058 139.634 739.371 138.982C739.557 138.681 739.778 138.241 740.069 138.171C740.753 138.04 741.447 137.962 742.145 137.938C742.116 138.618 742.027 139.293 741.878 139.956C741.774 140.315 741.344 140.582 741.031 140.849C739.697 141.927 738.362 143.006 737.004 144.061C736.621 144.362 736.134 144.768 735.739 144.768C735.199 144.645 734.722 144.332 734.393 143.887C734.289 143.772 734.613 143.168 734.846 142.878C735.191 142.58 735.485 142.228 735.716 141.835L734.045 141.742C733.616 143.608 733.024 143.911 731.411 142.901C730.681 142.381 730.012 141.784 729.414 141.116C728.753 140.443 728.463 140.501 728.126 141.383C729.554 142.344 730.947 143.307 732.362 144.234C732.966 144.618 733.673 144.872 734.265 145.278C736.76 147.006 739.337 148.641 741.658 150.566C742.822 151.765 743.853 153.087 744.733 154.508C745.22 155.146 745.696 155.796 746.23 156.398C748.238 158.613 748.191 161.327 748.052 164.039C747.935 166.185 747.681 168.33 747.484 170.486C745.882 171.043 746.172 171.031 746.427 172.806C746.534 174.627 746.409 176.454 746.055 178.243C746.033 178.441 745.51 178.685 745.198 178.742C744.072 178.939 744.013 179.751 744.455 180.412C744.671 180.7 744.796 181.045 744.816 181.404C744.834 181.765 744.745 182.121 744.559 182.43C744.444 182.674 744.258 183.033 744.35 183.206C745.29 184.842 744.303 186.024 743.491 187.103L742.598 186.523C742.477 186.944 742.396 187.374 742.353 187.81C742.342 188.169 742.517 188.529 742.517 188.901C742.517 190.152 742.575 191.485 742.517 192.668C742.459 193.851 741.971 194.582 740.59 194.106C740.462 194.059 740.242 194.292 739.847 194.524C740.428 194.524 740.648 194.315 741.009 194.524C741.368 194.732 741.902 195.114 741.902 195.393C741.872 195.636 741.785 195.867 741.648 196.069C741.51 196.27 741.327 196.437 741.112 196.553C740.923 196.587 740.745 196.665 740.591 196.782C740.438 196.897 740.314 197.049 740.23 197.222C740.147 197.394 740.106 197.584 740.108 197.777C740.113 197.969 740.162 198.158 740.253 198.327C740.868 200.228 740.718 200.843 739.244 202.003C739.905 203.812 739.894 203.835 738.083 204.391C737.121 204.692 737.457 205.377 737.817 205.783C738.548 206.56 738.304 207.139 737.817 207.87C737.655 208.215 737.364 208.484 737.004 208.617C736.646 208.749 736.25 208.735 735.902 208.577C735.032 208.333 734.393 208.762 734.231 209.736C735.368 210.769 735.368 210.769 733.767 211.824C734.289 212.311 735.669 211.998 735.263 213.285C734.927 214.34 734.034 214.212 733.522 214.154C732.954 213.285 732.467 212.647 732.107 211.951C731.985 211.578 731.949 211.182 732.003 210.791V209.633H731.561C731.434 210.374 731.306 211.105 731.202 211.638C729.948 211.128 728.719 210.583 727.558 210.189C727.337 210.108 726.897 210.607 726.397 210.93C728.197 211.183 729.889 211.941 731.273 213.119C732.658 214.294 733.68 215.841 734.22 217.575C734.276 217.749 734.404 217.934 734.404 218.086C734.034 219.581 733.603 221.17 733.244 222.573C732.885 223.976 732.594 225.39 732.223 226.782C731.979 227.745 731.654 228.695 731.364 229.646C731.242 230.264 731.063 230.869 730.83 231.455C730.452 232.154 730.029 232.827 729.565 233.472C729.714 233.819 729.786 234.196 729.775 234.575C729.764 234.953 729.671 235.323 729.502 235.663C729.333 236.001 729.092 236.299 728.797 236.536C728.501 236.772 728.158 236.941 727.79 237.031C725.47 237.426 723.148 237.635 720.828 237.925C720.7 238.794 721.477 238.724 722.091 238.643C723.426 238.47 724.111 239.002 724.111 240.349C724.135 240.719 724.402 241.101 724.402 241.507C724.48 241.948 724.419 242.402 724.227 242.807C724.077 242.98 723.392 242.968 723.067 242.807C722.889 242.703 722.74 242.558 722.631 242.385C722.523 242.21 722.456 242.013 722.441 241.808C722.591 240.917 722.266 240.43 721.106 239.873C721.616 241.287 722.046 242.331 722.358 243.421C722.526 243.941 722.526 244.501 722.358 245.02C722.229 245.204 722.055 245.35 721.85 245.444C721.647 245.537 721.421 245.576 721.198 245.554C720.828 245.404 720.549 244.65 720.386 244.394C720.224 244.14 720.072 243.884 719.922 243.63L719.551 243.781C719.736 244.58 719.863 245.404 720.108 246.192C720.409 247.271 719.736 247.804 718.948 248.024C718.739 248.082 718.192 247.155 717.891 246.632C717.695 246.232 717.54 245.813 717.427 245.381L716.835 245.624L717.508 247.096C716.626 248.001 716.162 247.873 715.187 246.239C714.473 246.465 713.698 246.405 713.028 246.073C712.356 245.739 711.84 245.158 711.589 244.452C710.58 242.053 710.801 241.345 712.751 239.942C713.144 239.664 713.18 238.933 713.458 238.446C713.725 238.013 714.029 237.601 714.364 237.217C714.654 236.881 715.268 236.58 715.268 236.29C715.094 234.191 716.313 232.602 717.068 230.829C718.701 227.036 720.001 223.11 720.955 219.094C721.523 216.706 722.255 214.306 722.939 211.985C723.276 210.803 723.554 209.667 722.394 208.717C722.174 208.531 722.219 208.055 722.069 207.718C721.918 207.383 721.768 206.954 721.488 206.803C720.723 206.351 720.409 206.003 721.048 205.191C721.164 205.052 720.804 204.531 720.653 204.171C719.399 204.925 718.541 203.754 717.38 203.603C717.496 203.846 717.543 204.205 717.729 204.299C718.499 204.753 719.172 205.357 719.707 206.074C720.243 206.79 720.632 207.605 720.85 208.472C720.882 208.555 720.928 208.63 720.99 208.693C722.417 210.409 722.417 210.409 720.502 211.94C720.897 213.319 720.2 214.084 718.333 214.571C718.192 215.453 718.32 216.461 717.891 216.89C717.052 217.745 716.022 218.39 714.885 218.769C714.073 219.013 713.958 219.094 714.223 219.848C714.411 220.325 714.411 220.855 714.223 221.332C713.76 222.109 712.634 222.515 713.063 223.756C712.501 224.149 711.845 224.389 711.16 224.45C711.102 224.567 710.986 224.672 710.986 224.798C710.882 225.552 711.068 226.619 710.638 227.013C709.716 227.827 708.644 228.453 707.481 228.857C706.541 229.104 705.575 229.244 704.604 229.274L704.674 229.808L707.644 229.541C708.096 230.214 708.166 230.852 706.819 231.246C706.112 231.601 705.469 232.071 704.917 232.637C704.604 235.026 703.756 235.049 701.435 235.374C698.558 235.779 696.747 234.028 695.076 232.115C694.437 231.397 694.031 231.316 693.486 232.277L694.995 232.95C695.111 233.727 695.238 234.527 695.332 235.141C695.963 235.063 696.602 235.063 697.234 235.141C697.443 235.2 697.606 235.954 697.571 236.221C697.537 236.486 697.165 236.928 696.933 236.928C696.155 236.951 695.39 236.73 694.612 236.73C693.625 236.719 693.371 236.057 693.045 235.316C692.932 235.173 692.787 235.059 692.622 234.982C692.456 234.906 692.276 234.869 692.094 234.874C690.178 235.386 688.623 234.306 687.057 233.611C686.164 233.206 686.743 232.324 687.324 231.907C690.354 229.603 692.954 226.786 695.006 223.581C696.678 221.1 698.302 218.571 699.752 215.952C701.185 213.404 702.46 210.77 703.57 208.066C704.65 205.458 705.416 202.687 706.287 199.95C706.396 199.4 706.45 198.841 706.449 198.281C704.441 200.356 704.198 203.451 701.47 204.762C701.645 205.202 701.807 205.608 701.923 205.922L699.927 208.311C700.097 208.771 700.086 209.278 699.895 209.729C699.707 210.181 699.353 210.544 698.906 210.746C697.981 211.179 697.017 211.524 696.027 211.777C696.642 212.392 697.954 212.914 697.188 213.911C696.736 214.479 695.54 214.479 694.704 214.722C694.89 215.418 695.518 216.473 695.226 217.146C694.937 217.819 693.741 218.109 693.057 218.491C693.057 219.21 693.382 220.288 693.057 220.879C692.732 221.471 691.63 221.599 690.596 222.039L690.921 223.106C690.386 224.305 689.769 225.468 689.076 226.585C688.844 226.921 687.928 227.002 687.416 226.863C684.797 226.026 682.411 224.584 680.454 222.654C680.291 222.503 680.082 222.259 679.954 222.259C678.098 222.735 677.959 221.321 677.565 220.16C677.518 220.045 677.356 219.976 676.891 219.592C676.891 220.241 676.705 220.753 676.891 220.961C678.133 222.421 678.11 222.665 676.427 223.581C677.367 223.837 678.26 224.393 679.119 223.175C679.514 222.618 681.428 223.743 681.278 224.578C680.906 226.758 682.056 225.646 683.135 225.343L684.434 227.662L687.069 228.232C686.918 228.717 686.894 229.39 686.557 229.646C685.975 229.93 685.346 230.106 684.701 230.167C684.585 230.677 684.412 231.536 684.226 232.394H683.575C683.355 231.651 683.147 230.91 682.88 229.983C680.663 232.127 678.341 231.072 676.021 230.654C675.858 230.632 675.579 230.481 675.579 230.365C675.278 228.742 674.257 229.599 673.376 229.599C672.122 229.594 670.871 229.477 669.638 229.251C668.698 229.101 667.793 228.811 666.493 228.486C671.332 222.364 675.94 216.102 678.841 209.076C681.742 202.048 685.142 195.208 687.08 187.74C686.758 187.691 686.427 187.722 686.119 187.83C685.81 187.938 685.535 188.121 685.313 188.362C685.093 188.604 684.936 188.895 684.856 189.212C684.775 189.527 684.774 189.859 684.852 190.176C684.295 190.558 683.82 190.872 683.378 191.207C682.393 191.938 681.428 192.681 680.466 193.422C679.954 193.839 679.526 194.037 679.526 194.999C679.572 195.637 678.62 196.495 677.924 196.982C677.235 197.405 676.742 198.085 676.555 198.872C676.369 199.556 675.579 200.077 675.023 200.645C674.814 200.865 674.327 200.959 674.257 201.191C673.677 203.325 672.122 204.043 669.916 204.043C670.984 205.285 670.962 206.223 669.916 206.537C668.986 206.743 668.038 206.855 667.085 206.872C667.166 207.035 667.166 207.162 667.166 207.162L668.779 207.916C668.469 208.46 668.077 208.952 667.619 209.377C667.149 209.631 666.638 209.803 666.111 209.887C665.859 210.705 665.5 211.484 665.043 212.207C664.184 213.193 662.86 213.853 662.234 214.931C661.155 216.787 659.264 217.505 657.79 218.885C657.906 219.639 658.196 220.613 656.744 220.52C656.661 220.53 656.581 220.559 656.51 220.606C656.441 220.652 656.381 220.714 656.338 220.787C656.283 220.99 656.179 221.176 656.037 221.331C655.895 221.485 655.718 221.603 655.52 221.677C655.323 221.749 655.111 221.774 654.903 221.748C654.693 221.722 654.494 221.647 654.319 221.529C654.088 221.424 653.67 221.691 653.345 221.796C653.473 222.062 653.565 222.214 653.716 222.618C653.868 223.025 654.204 223.617 654.065 223.779C653.659 224.357 653.082 224.794 652.416 225.031C651.57 225.216 651.082 225.343 651.256 226.376C651.266 226.576 651.225 226.775 651.135 226.954C651.046 227.131 650.911 227.285 650.745 227.397C649.761 227.938 648.665 228.247 647.543 228.3C646.092 228.138 646.962 227.072 647.357 226.203C646.428 226.271 645.419 226.526 644.862 226.271C644.305 226.017 644.038 225.076 643.527 224.254C642.256 224.115 640.973 224.142 639.709 224.335C638.586 224.77 637.556 225.42 636.68 226.248C635.251 227.571 634.139 229.2 633.431 231.014C633.187 231.489 632.352 231.675 631.784 231.999L631.273 231.628C631.426 230.541 631.679 229.47 632.027 228.428C633.54 225.49 635.382 222.732 637.516 220.207C639.408 217.761 641.044 215.209 642.89 212.775C645.21 209.806 647.612 206.966 649.852 204.008C650.884 202.629 651.674 201.074 652.625 199.637C654.007 197.585 655.503 195.626 656.838 193.55C658.358 191.173 659.751 188.715 661.225 186.302C663.592 182.43 666.098 178.638 668.35 174.708C671.204 169.709 673.897 164.631 676.602 159.541C677.796 157.291 678.852 154.973 679.932 152.654C680.126 152.206 680.15 151.702 680.001 151.238C678.911 152.966 677.854 154.775 676.694 156.445C676.146 157.379 675.341 158.136 674.372 158.625C673.143 159.054 673.248 159.958 673.062 160.758C672.806 161.79 672.876 162.856 671.285 162.856C670.717 162.845 670.369 163.437 670.717 164.225C671.285 165.512 670.601 166.475 669.185 166.672C668.691 166.785 668.212 166.957 667.758 167.182C667.897 168.225 669.615 168.573 668.454 169.559C667.933 170.046 667.944 172.284 666.134 170.255C665.984 170.854 665.938 171.473 665.994 172.086C666.112 172.325 666.179 172.586 666.192 172.852C666.203 173.119 666.161 173.384 666.064 173.633C665.969 173.881 665.823 174.107 665.634 174.296C665.446 174.485 665.22 174.632 664.973 174.73C664.532 175.031 663.812 175.518 663.812 175.891C663.894 177.525 662.559 178.268 661.839 179.368C661.306 180.18 660.493 180.91 659.264 179.473C659.19 180.074 659.19 180.682 659.264 181.282C659.832 183.114 659.542 183.647 657.662 184.007C657.534 184.03 657.442 184.158 657.662 184.331C657.5 185.26 657.372 186.198 657.139 187.114C657.117 187.172 656.269 187.276 656.154 187.114C655.821 186.545 655.549 185.943 655.342 185.316L653.983 186.221C655.851 186.836 655.016 188.47 655.481 189.63C655.537 189.781 654.842 190.245 654.482 190.558C654.23 190.244 654 189.91 653.798 189.561C653.727 189.246 653.703 188.92 653.728 188.598L652.567 189.179C652.892 189.804 653.17 190.338 653.495 190.964C651.696 191.52 651.696 189.619 650.536 189.363L649.666 190.048V189.677C648.611 189.329 647.682 188.981 646.522 188.622C645.36 188.262 645.093 187.462 645.36 186.302C646.37 181.954 647.032 177.536 648.692 173.35C650.258 169.072 652.696 165.162 655.851 161.871C658.694 159.031 661.317 155.947 664.276 153.233C667.596 150.207 671.17 147.458 674.652 144.629C676.972 142.739 679.212 140.93 681.614 139.26C685.061 136.838 688.659 134.622 692.139 132.304C692.649 131.92 693.223 131.629 693.835 131.446C695.435 131.085 696.016 129.718 696.7 128.558C700.032 122.795 703.292 117.009 706.657 111.269C709.338 106.737 712.031 102.411 714.781 97.7493C717.532 93.0889 720.211 88.3461 722.962 83.7084C724.008 81.9291 725.082 80.1669 726.158 78.4075ZM728.602 246.122C729.299 245.259 729.933 244.344 730.494 243.386C730.599 243.189 730.076 242.389 729.717 242.295C728.88 242.064 727.639 243.456 727.673 244.616C727.685 244.975 728.126 245.346 728.602 246.111V246.122ZM706.193 238.679L706.089 239.374C706.727 239.617 706.878 240.951 707.957 240.082C708.259 239.85 708.201 239.166 708.317 238.679H706.193ZM703.64 238.156C704.174 239.049 704.905 239.316 705.717 238.701C705.794 238.534 705.835 238.352 705.835 238.167C705.835 237.984 705.794 237.803 705.717 237.635C705.022 237.264 704.174 236.823 703.664 238.111L703.64 238.156ZM698.186 237.693L698.789 238.342L700.054 237.357C699.788 237.125 699.381 236.649 699.289 236.695C698.886 236.987 698.517 237.321 698.186 237.693ZM708.863 236.116C708.479 237.473 708.863 237.994 709.803 237.844C710.186 237.844 710.51 237.357 710.858 237.09L708.863 236.116ZM706.53 236.475L707.133 236.904C707.498 236.525 707.828 236.113 708.12 235.675C708.12 235.675 707.62 235.222 707.353 234.98L706.53 236.475ZM637.388 236.603C638.1 236.498 638.793 236.287 639.442 235.976C641.404 234.69 643.33 233.332 645.163 231.86C645.38 231.608 645.544 231.315 645.646 230.998C645.748 230.681 645.785 230.348 645.755 230.017C645.755 228.127 644.084 227.269 642.959 226.097C642.57 225.777 642.082 225.6 641.577 225.599C640.444 225.458 639.294 225.647 638.265 226.143C637.235 226.638 636.372 227.419 635.775 228.394C635.044 229.488 634.466 230.678 634.057 231.929C633.931 232.458 633.918 233.006 634.022 233.538C634.125 234.071 634.343 234.575 634.659 235.015C634.974 235.457 635.382 235.824 635.853 236.094C636.323 236.364 636.847 236.53 637.388 236.58V236.603ZM662.513 226.665C663.046 226.028 663.569 225.669 663.58 225.321C663.592 224.973 662.965 224.161 662.826 224.23C662.292 224.413 661.825 224.748 661.48 225.193C661.386 225.285 661.99 225.9 662.513 226.619V226.665ZM661.172 224.547C660.605 223.527 659.87 223.216 659.008 223.709C658.741 223.871 658.579 224.868 658.741 224.961C659.559 225.583 660.365 225.165 661.172 224.547ZM661.172 224.547L661.19 224.578V224.533L661.172 224.547ZM665.53 223.825L666.69 222.607C666.261 222.283 665.855 221.772 665.391 221.714C664.927 221.657 664.567 222.167 664.148 222.423L665.53 223.825ZM662.165 222.966L663.533 221.505C663.136 221.234 662.707 221.008 662.257 220.834C662.115 220.768 661.957 220.744 661.803 220.765C661.648 220.785 661.501 220.848 661.381 220.947C661.26 221.047 661.169 221.177 661.118 221.325C661.068 221.473 661.061 221.632 661.097 221.784C661.166 222.075 661.666 222.376 662.165 222.921V222.966ZM664.625 220.277L665.786 218.989L664.625 218.05C664.334 218.421 663.917 218.746 663.825 219.21C663.825 219.361 664.265 219.72 664.625 220.23V220.277ZM668.86 220.241L668.929 219.28C668.285 219.245 667.637 219.245 666.993 219.28C666.923 219.28 666.899 219.848 666.853 220.149L668.86 220.241ZM670.996 216.288C669.221 216.392 667.92 216.544 667.19 214.804L665.739 216.775L668.13 217.343C668.648 217.793 669.276 218.097 669.952 218.225C670.219 218.201 670.52 217.215 670.996 216.288ZM673.56 212.233C672.967 211.099 672.409 210.431 671.368 210.317C671.031 210.317 670.636 210.919 670.208 211.256C670.531 211.592 670.822 212.137 671.217 212.241C671.995 212.325 672.782 212.323 673.56 212.233ZM673.56 212.233L673.584 212.277V212.23L673.56 212.233ZM627.698 177.188C628.63 177.737 629.794 178.077 629.613 179.577C629.613 179.844 629.776 180.354 629.973 180.412C631.041 180.714 631.214 181.572 631.528 182.452C631.574 182.636 631.66 182.806 631.782 182.949C631.904 183.093 632.058 183.206 632.231 183.28C632.404 183.354 632.592 183.387 632.781 183.377C632.968 183.365 633.151 183.311 633.314 183.218C633.628 183.056 633.803 182.151 633.675 181.7C633.547 181.247 632.932 180.795 632.374 180.169L632.502 178.928H633.489C633.559 178.928 633.617 179.044 633.687 179.103C633.814 181.201 633.814 181.201 635.764 181.514C635.403 182.43 634.788 183.404 636.471 183.659C636.599 183.659 636.68 184.007 636.808 184.158C637.144 184.54 637.469 185.166 637.853 185.213C638.235 185.258 638.932 184.876 639.455 184.679L636.832 180.412C636.85 179.861 636.752 179.311 636.541 178.8C636.24 178.371 635.531 178.221 634.73 177.815C636.832 175.994 638.885 174.209 640.951 172.446C641.099 172.338 641.269 172.267 641.45 172.237C641.519 172.237 641.613 172.237 641.763 172.306V173.361C639.594 173.907 639.535 173.976 639.639 175.797L639.577 175.783L639.558 175.763V175.777L639.577 175.783C640.219 176.451 641.347 176.667 641.45 177.861C641.45 178.012 642.134 178.302 642.239 178.209C642.377 178.094 642.489 177.954 642.569 177.795C642.648 177.634 642.695 177.46 642.704 177.281C642.576 176.459 642.309 175.658 642.042 174.649L644.084 174.939L644.305 172.852C645.558 172.353 645.964 171.693 645.465 170.847C645.281 170.51 645.129 170.157 645.012 169.79C645.43 169.664 645.86 169.57 646.255 169.408C646.648 169.246 647.287 168.944 647.265 168.818C647.043 167.761 647.752 167.39 648.425 166.869C648.739 166.501 648.98 166.075 649.132 165.617C649.295 165.316 649.434 165.002 649.608 164.701C649.899 164.178 650.188 163.646 650.514 163.147C650.735 162.802 650.984 162.477 651.256 162.173C651.512 161.871 651.824 161.628 652.068 161.314C653.728 159.298 655.295 157.21 657.058 155.274C658.218 154.01 658.301 153.906 656.757 153.141C656.395 152.926 656.003 152.767 655.596 152.665C651.79 151.992 647.994 151.215 644.166 150.728C640.603 150.277 636.994 150.068 633.408 149.859C630.391 149.684 627.373 149.639 624.356 149.581C619.008 149.415 613.656 149.689 608.352 150.403C606.682 150.659 604.941 150.531 603.27 150.786C599.788 151.32 596.306 151.946 592.826 152.629C590.134 153.152 587.475 153.79 584.807 154.45C583.622 154.856 582.407 155.17 581.175 155.39C580.492 155.401 579.823 155.573 579.218 155.888C578.613 156.205 578.092 156.657 577.693 157.21C578.853 158.589 580.013 159.935 581.081 161.431C582.474 163.46 584.981 164.515 585.874 166.984C586.122 167.565 586.463 168.102 586.883 168.573C588.265 170.266 589.622 171.971 591.085 173.594C591.603 174.11 592.247 174.482 592.954 174.672C593.951 174.95 595.018 174.997 596.039 175.183C597.56 175.46 599.081 175.785 600.601 176.052C600.733 176.068 600.867 176.055 600.995 176.018C601.123 175.98 601.241 175.918 601.343 175.832C601.971 175.114 602.377 175.599 602.934 175.971C603.793 176.539 604.744 176.98 605.707 177.502L606.403 175.599C606.833 176.238 607.006 176.76 607.39 177.015C608.155 177.421 609.189 178.059 609.804 177.815C610.663 177.467 610.174 176.504 609.687 175.844C609.606 175.727 609.687 175.507 609.687 175.183C609.944 175.342 610.188 175.52 610.418 175.716C611.127 176.504 611.776 177.352 612.519 178.093C614.051 179.601 614.724 179.438 615.28 177.536C615.28 177.467 615.42 177.421 615.675 177.235C616.151 179.218 617.997 179.323 619.644 179.763L618.809 178.603C620.108 177.536 617.939 176.829 618.253 175.763L620.48 177.711C620.522 178.356 620.766 178.972 621.176 179.473C621.81 180.124 622.537 180.674 623.335 181.108C623.539 181.216 623.765 181.272 623.996 181.272C624.226 181.272 624.454 181.216 624.658 181.108C624.901 180.807 624.739 180.18 624.75 179.705L623.463 179.797H623.079C623.37 179.206 623.602 178.638 623.88 178.14C623.996 177.907 624.217 177.525 624.356 177.536C625.668 177.641 626.189 176.748 626.747 175.821C626.838 175.73 626.951 175.665 627.075 175.629C627.199 175.595 627.329 175.594 627.454 175.624C627.629 175.751 627.676 176.111 627.698 176.365C627.721 176.639 627.721 176.914 627.698 177.188ZM627.683 177.187C627.181 177.113 626.67 177.234 626.254 177.525C625.835 177.819 625.546 178.263 625.446 178.766C625.226 180.03 626.202 180.481 627.164 180.829C627.424 181.396 627.859 181.863 628.406 182.163C628.697 182.279 629.218 181.839 629.637 181.653L628.232 179.334C628.097 178.796 627.886 177.985 627.683 177.187ZM639.558 175.777C639.452 175.754 639.342 175.741 639.233 175.739C638.154 175.902 636.832 175.96 636.808 177.35C636.808 177.954 637.725 178.51 638.178 179.184C638.351 179.415 638.329 179.786 638.502 179.994C638.912 180.488 639.376 180.936 639.883 181.328C640.011 181.421 640.615 181.154 640.649 180.98C640.765 180.354 641.032 179.438 640.718 179.114C639.932 178.184 639.518 176.995 639.558 175.777ZM627.681 177.178L627.663 177.107L627.64 177.154L627.681 177.178L627.683 177.187L627.698 177.188L627.681 177.178ZM751.534 153.267C749.955 153.094 749.039 153.615 749.073 154.74C749.13 154.968 749.245 155.177 749.408 155.346C749.571 155.515 749.776 155.638 750.002 155.702C751.047 155.842 751.615 154.879 751.534 153.267ZM745.986 152.932C745.892 153.152 745.848 153.389 745.857 153.629C745.867 153.868 745.929 154.102 746.04 154.315C746.151 154.527 746.308 154.711 746.5 154.855C746.692 154.999 746.912 155.099 747.147 155.146C747.286 155.146 747.843 154.427 747.879 153.987C748.063 152.502 746.961 152.919 746.044 152.885L745.986 152.932ZM745.193 152.416L745.186 152.421H745.198L745.193 152.416C745.945 151.908 746.545 151.528 747.112 151.123C747.935 150.531 747.762 149.963 747.112 149.348C746.021 148.34 745.36 149.511 744.606 149.87C744.415 150.032 744.269 150.238 744.18 150.471C744.09 150.704 744.06 150.957 744.094 151.204C744.164 151.62 744.718 151.932 745.193 152.416ZM750.489 149.314C749.701 149.974 748.922 150.555 748.249 151.238C748.11 151.366 748.249 152.003 748.469 152.189C748.618 152.284 748.786 152.344 748.961 152.364C749.137 152.384 749.313 152.364 749.479 152.306C750.126 151.881 750.73 151.391 751.278 150.845C751.379 150.732 751.451 150.599 751.49 150.454C751.528 150.308 751.531 150.156 751.498 150.01C751.359 149.79 750.964 149.615 750.489 149.302V149.314Z" fill="#FFEEDD"/>
</g>
<defs>
<clipPath id="clip0_302_222">
<rect width="800" height="420" fill="white"/>
</clipPath>
<clipPath id="clip1_302_222">
<rect width="347" height="258" fill="white" transform="translate(23 76)"/>
</clipPath>
<clipPath id="clip2_302_222">
<rect width="347" height="258" fill="white" transform="translate(23 76)"/>
</clipPath>
</defs>
</svg>
