<svg width="800" height="420" viewBox="0 0 800 420" fill="none" xmlns="http://www.w3.org/2000/svg">
<g clip-path="url(#clip0_302_154)">
<g clip-path="url(#clip1_302_154)">
<g clip-path="url(#clip2_302_154)">
<path d="M95.7034 76V185.954H84.3497C83.7187 178.729 83.4037 173.545 83.4037 170.404V161.921C82.0428 168.7 78.9769 175.024 74.494 180.299C70.2361 185.117 64.3752 187.524 56.9104 187.524C50.7726 187.581 44.7687 185.743 39.7219 182.263C34.422 178.59 30.2031 173.573 27.5002 167.733C24.4253 161.201 22.8883 154.056 23.0063 146.841C22.8993 139.621 24.3793 132.463 27.3432 125.872C29.9561 119.98 34.125 114.903 39.4069 111.186C44.5428 107.637 50.6606 105.769 56.9104 105.844C64.6902 105.844 70.6561 107.808 74.809 111.736C78.9618 115.662 81.8268 121.186 83.4037 128.306V76H95.7034ZM77.4109 167.497C81.4058 162.115 83.4037 155.23 83.4037 146.841C83.4037 137.952 81.4058 130.883 77.4109 125.637C73.416 120.39 67.5811 117.772 59.9073 117.783C52.2326 117.783 46.2137 120.479 41.8508 125.872C37.4879 131.265 35.307 138.255 35.307 146.841C35.215 151.964 36.293 157.04 38.4609 161.686C40.3759 165.828 43.4048 169.362 47.2127 171.896C50.9536 174.352 55.3475 175.638 59.8283 175.587C67.6081 175.587 73.49 172.891 77.4739 167.497H77.4109Z" fill="black"/>
<path d="M184.012 107.416L140.331 217.37H127.4L141.592 184.855L111.473 107.416H124.562L147.742 169.618L170.924 107.416H184.012Z" fill="black"/>
<path d="M255.905 113.228C260.688 118.159 263.08 124.861 263.08 133.333V185.954H250.78V136.474C250.78 124.338 245.155 118.264 233.907 118.254C228.212 118.226 222.708 120.296 218.453 124.065C213.871 128.034 210.716 133.384 209.464 139.302V185.954H197.164V107.415H209.464V129.878C210.896 123.164 214.364 117.05 219.399 112.363C223.98 108.121 230.018 105.788 236.272 105.844C244.535 105.844 251.079 108.305 255.905 113.228Z" fill="black"/>
<path d="M350.128 160.822C348.913 168.299 345.054 175.096 339.247 179.985C333.119 185.098 325.316 187.783 317.328 187.525C310.446 187.605 303.678 185.784 297.773 182.263C291.899 178.777 287.099 173.75 283.896 167.733C280.464 161.309 278.728 154.119 278.85 146.842C278.738 139.559 280.417 132.361 283.739 125.872C286.812 119.849 291.472 114.771 297.221 111.186C303.018 107.609 309.72 105.756 316.539 105.845C327.262 105.845 335.62 109.248 341.612 116.055C347.605 122.861 350.601 132.601 350.601 145.271C350.601 147.376 350.601 148.947 350.443 149.984H291.15C291.623 156.951 294.621 163.509 299.586 168.44C301.907 170.761 304.675 172.591 307.724 173.818C310.773 175.047 314.039 175.648 317.328 175.588C322.121 175.701 326.823 174.268 330.731 171.504C334.429 168.9 337.149 165.141 338.458 160.822H350.128ZM300.706 123.359C296.323 127.29 293.266 132.475 291.954 138.203H338.001C337.465 131.71 335.152 126.683 331.062 123.123C326.808 119.511 321.354 117.607 315.766 117.783C310.221 117.692 304.845 119.682 300.706 123.359Z" fill="black"/>
<path d="M370.091 170.718H354.007V185.954H370.091V170.718Z" fill="black"/>
<path d="M178.54 273.007C172.64 269.642 167.784 264.724 164.505 258.791C160.877 252.205 159.055 244.783 159.223 237.271C159.071 229.787 160.892 222.394 164.505 215.831C167.783 209.837 172.634 204.842 178.54 201.38C184.264 197.995 190.807 196.23 197.464 196.274C204.068 196.242 210.557 198.007 216.229 201.38C222.084 204.855 226.881 209.85 230.106 215.831C233.665 222.412 235.458 229.797 235.31 237.271C235.473 244.773 233.68 252.187 230.106 258.791C226.882 264.711 222.08 269.63 216.229 273.007C210.524 276.282 204.048 277.99 197.464 277.954C190.828 278 184.298 276.293 178.54 273.007ZM209.763 262.561C213.79 260.156 217.087 256.709 219.304 252.587C221.808 247.874 223.056 242.602 222.931 237.271C223.052 231.917 221.804 226.619 219.304 221.878C217.096 217.708 213.8 214.207 209.763 211.747C206.044 209.451 201.759 208.227 197.385 208.212C192.942 208.195 188.579 209.39 184.769 211.668C180.688 214.1 177.36 217.606 175.149 221.8C172.602 226.554 171.326 231.883 171.444 237.271C171.313 242.612 172.591 247.892 175.149 252.587C177.404 256.707 180.726 260.151 184.769 262.561C188.582 264.831 192.943 266.026 197.385 266.016C201.748 265.996 206.025 264.803 209.763 262.561Z" fill="black"/>
<path d="M271.501 203.264C275.486 198.594 281.11 196.264 288.374 196.274V208.84C281.016 208.84 275.365 211.197 271.422 215.909C267.653 220.292 264.883 225.436 263.301 230.988V267.745H251.001V197.846H263.301V219.207C264.721 213.319 267.533 207.853 271.501 203.264Z" fill="black"/>
<path d="M351.755 302.79C351.728 298.193 350.063 294.65 347.463 292.296C344.572 289.678 340.235 288.368 334.453 288.368H319.157C312.313 288.368 307.219 287.206 303.86 284.913C302.234 283.837 300.914 282.36 300.03 280.626C299.146 278.892 298.727 276.96 298.814 275.017C298.664 272.967 299.095 270.917 300.057 269.098C301.018 267.28 302.473 265.765 304.254 264.729C308.207 262.499 312.735 261.488 317.264 261.822C311.219 259.559 306.018 255.502 302.362 250.199C298.405 244.367 296.391 237.443 296.606 230.408C296.483 224.182 298.006 218.034 301.021 212.579C303.783 207.569 307.875 203.412 312.849 200.562C317.736 197.748 323.289 196.283 328.933 196.321C332.258 196.296 335.563 196.827 338.71 197.893L370.091 197.735V211.354C363.563 211.354 356.415 209.312 348.645 205.228C356.73 210.977 360.778 219.354 360.788 230.36C360.929 236.578 359.435 242.725 356.452 248.188C353.724 253.09 349.684 257.142 344.782 259.89C339.944 262.598 334.482 264.005 328.933 263.974C324.325 264.033 319.743 264.667 315.293 265.859C312.502 266.802 311.114 268.53 311.114 271.043C311.08 271.795 311.227 272.543 311.542 273.226C311.858 273.909 312.333 274.507 312.928 274.97C314.534 276.028 316.448 276.526 318.368 276.384H334.295C343.221 276.384 350.422 278.321 355.9 282.195C361.376 286.071 364.17 292.401 364.16 301.198C364.16 301.198 364.169 304.884 364.178 305.615C364.219 309.125 363.485 312.608 362.112 315.842C360.636 319.443 358.454 322.717 355.695 325.47C352.938 328.23 349.65 330.404 346.028 331.863C342.523 333.283 338.773 334.009 334.989 334C331.205 334.008 327.456 333.282 323.95 331.863C320.331 330.408 317.047 328.233 314.3 325.47L314.11 325.282L284.149 292.767C280.927 289.617 276.588 287.86 272.073 287.878C267.559 287.896 263.233 289.686 260.037 292.861C256.834 296.06 255.035 300.392 255.035 304.909C255.035 309.426 256.834 313.759 260.037 316.957C263.236 320.13 267.562 321.918 272.077 321.933C276.591 321.947 280.929 320.188 284.149 317.035L291.465 309.056L299.728 317.947L292.884 325.376L292.79 325.47C290.033 328.23 286.745 330.404 283.124 331.863C279.618 333.282 275.869 334.008 272.085 334C268.301 334.008 264.552 333.282 261.046 331.863C257.426 330.408 254.142 328.233 251.395 325.47C248.625 322.726 246.443 319.45 244.977 315.842C243.551 312.351 242.823 308.616 242.833 304.846C242.823 301.077 243.551 297.342 244.977 293.851C246.443 290.243 248.625 286.967 251.395 284.222C254.142 281.46 257.426 279.285 261.046 277.829C264.553 276.415 268.302 275.695 272.085 275.709C275.868 275.695 279.617 276.415 283.124 277.829C286.745 279.289 290.033 281.463 292.79 284.222L292.963 284.41L322.926 316.925C326.142 320.077 330.477 321.836 334.989 321.821C339.501 321.807 343.825 320.019 347.021 316.848C348.562 315.391 349.779 313.63 350.594 311.676C351.409 309.723 351.804 307.621 351.752 305.506C351.752 304.842 351.742 303.309 351.755 302.79ZM342.732 246.304C346.569 242.377 348.488 237.062 348.488 230.36C348.587 226.289 347.637 222.26 345.728 218.657C344.056 215.518 341.581 212.873 338.553 210.992C335.661 209.222 332.327 208.298 328.933 208.323C325.502 208.312 322.129 209.206 319.157 210.914C316.023 212.717 313.456 215.356 311.745 218.533C309.784 222.146 308.805 226.207 308.906 230.313C308.906 237.005 310.878 242.319 314.82 246.256C316.644 248.147 318.837 249.645 321.264 250.658C323.691 251.671 326.301 252.178 328.933 252.147C331.509 252.176 334.063 251.671 336.433 250.666C338.803 249.659 340.937 248.174 342.7 246.304H342.732Z" fill="black"/>
</g>
</g>
<path d="M612.29 374.064C706.053 374.064 782.064 298.053 782.064 204.29C782.064 110.526 706.053 34.5161 612.29 34.5161C518.526 34.5161 442.516 110.526 442.516 204.29C442.516 298.053 518.526 374.064 612.29 374.064Z" fill="white" stroke="black" stroke-width="3" stroke-miterlimit="1.5" stroke-linecap="round" stroke-linejoin="round"/>
<path fill-rule="evenodd" clip-rule="evenodd" d="M612.29 32.3862C517.414 32.3862 440.386 109.414 440.386 204.29C440.386 299.166 517.414 376.194 612.29 376.194C707.166 376.194 784.194 299.166 784.194 204.29C784.194 109.414 707.166 32.3862 612.29 32.3862ZM737.014 265.31C737.676 265.772 738.487 266.249 739.062 265.537C739.569 264.711 739.964 263.821 740.239 262.891L741.416 263.666C740.827 265.349 737.672 265.82 739.19 268.548C738.12 267.748 737.649 268.194 737.084 268.96C736.519 269.725 736.388 270.405 737.084 271.03C737.778 271.653 738.332 271.03 738.862 270.583C739.744 269.806 740.651 269.078 741.545 268.325C741.467 268.63 741.341 268.92 741.168 269.183C740.344 270.111 739.438 270.959 738.673 271.936C738.426 272.253 738.544 272.842 738.484 273.311C738.914 273.333 739.345 273.305 739.768 273.23C740.05 273.147 740.262 272.816 740.533 272.63C741.192 272.148 741.875 271.676 742.547 271.206C742.263 272.535 741.639 273.664 743.57 273.994C743.735 273.994 743.793 274.628 743.924 274.946C744.053 275.264 744.299 276.253 744.525 276.264C745.131 276.214 745.719 276.04 746.254 275.747C746.663 275.519 747.057 275.264 747.431 274.982C746.172 277.698 743.17 278.228 742.229 280.781C742.043 280.672 741.871 280.536 741.723 280.381C739.932 278.028 738.261 275.547 736.354 273.323C734 270.476 731.456 267.689 728.808 265.09C726.878 263.233 724.816 261.515 722.64 259.95C719.426 257.598 716.083 255.316 712.823 252.965C708.39 249.964 703.695 247.373 698.792 245.224C695.472 243.65 691.988 242.426 688.526 241.167C685.066 239.908 681.275 238.521 677.567 237.474C673.858 236.427 670.21 235.673 666.514 234.897C664.16 234.415 661.888 234.05 659.546 233.722C657.723 233.529 655.893 233.431 654.059 233.428C653.177 233.421 652.3 233.552 651.458 233.816C651.141 233.91 650.986 234.522 650.763 234.885C651.079 235.113 651.418 235.303 651.776 235.45C652.377 235.651 652.953 235.756 653.612 235.896L653.518 236.356C652.141 236.216 650.775 236.051 649.386 235.967C648.963 235.967 648.21 236.05 648.21 236.239C648.091 236.684 648.21 237.485 648.433 237.65C649.078 237.96 649.778 238.14 650.492 238.178C651.669 238.333 652.93 238.39 654.143 238.496V239.026C653.845 239.177 653.521 239.273 653.189 239.307C651.624 239.144 650.069 238.908 648.48 238.732C647.601 238.586 646.711 238.516 645.82 238.521C645.383 238.521 644.642 238.921 644.642 239.25C644.579 239.402 644.557 239.57 644.577 239.735C644.596 239.898 644.659 240.056 644.757 240.189C644.855 240.323 644.986 240.429 645.137 240.496C645.289 240.565 645.454 240.592 645.62 240.578C645.843 240.578 646.055 240.896 646.478 241.226C646.151 241.272 645.82 241.292 645.491 241.284C642.898 240.652 640.162 240.991 637.803 242.238C637.543 242.39 637.004 242.001 636.626 241.896C636.248 241.789 635.449 241.413 634.967 241.602C634.296 241.907 634.025 241.919 633.624 241.284C633.269 240.862 632.842 240.503 632.366 240.226C631.599 239.615 630.27 239.05 630.176 238.403C629.976 237.051 629.941 235.979 628.597 236.05C628.868 235.379 629.516 234.58 629.34 234.039C629.215 233.711 629.182 233.356 629.243 233.011C629.302 232.664 629.455 232.342 629.681 232.074C630.364 231.051 630.117 229.84 629.28 229.722C627.502 229.569 625.75 229.464 623.925 229.464C622.099 229.464 620.006 229.628 618.04 229.688C617.653 229.613 617.278 229.495 616.921 229.335C617.345 229.1 617.462 228.994 617.58 228.982C621.3 228.676 625.019 228.464 628.727 228.052C630.093 227.9 631.706 228.324 632.789 227.088C633.542 226.229 634.131 225.241 634.814 224.323C636.379 222.242 638.121 220.255 639.521 218.044C640.24 216.867 642.182 215.962 641.134 214.339C641.737 213.963 642.314 213.55 642.864 213.103C643.259 212.688 643.618 212.239 643.936 211.762C644.207 211.397 644.454 211.034 644.713 210.657C645.022 210.078 645.42 209.551 645.891 209.092C646.444 208.669 646.762 208.363 646.15 207.812C645.538 207.258 644.831 206.705 644.159 206.152C644.689 206.103 645.22 206.159 645.725 206.318C646.397 206.387 647.338 206.563 647.703 206.211C648.304 205.646 648.21 204.787 647.245 204.341C647.127 204.341 647.067 204.107 646.867 203.836C648.892 204.682 649.375 204.387 649.635 202.541C649.635 202.082 650.198 201.696 650.47 201.258C650.741 200.824 651.282 200.307 651.212 199.919C651.141 199.53 650.552 199.025 650.117 198.742C649.69 198.471 649.241 198.239 648.774 198.048C646.633 196.954 644.548 195.696 642.336 194.814C640.122 193.931 637.944 193.414 635.78 192.637C633.613 191.862 631.187 190.756 628.846 189.981C626.503 189.204 623.877 188.532 621.371 187.863C618.998 187.135 616.59 186.534 614.154 186.063C610.623 185.498 606.927 185.252 603.313 184.887C600.5 184.558 597.709 184.159 594.896 183.863C594.648 183.852 594.398 183.892 594.165 183.981C593.934 184.071 593.721 184.206 593.543 184.382C593.332 184.616 593.413 185.252 593.543 185.64C594.034 187.109 594.629 188.545 595.321 189.932C595.98 191.108 595.696 192.931 597.38 193.463C596.968 195.955 599.416 195.496 600.534 196.696L598.181 196.402C598.178 196.632 598.147 196.861 598.086 197.085C597.569 198.413 597.827 199.214 599.416 199.436C599.959 199.507 600.429 200.071 601.171 200.612C599.922 200.79 598.641 200.176 598.299 201.589C598.195 201.931 598.162 202.291 598.199 202.646C598.239 203.002 598.348 203.346 598.522 203.658C598.793 203.965 599.817 203.658 600.393 203.576L604.243 206.011C603.198 205.858 602.204 205.454 601.347 204.835C600.311 203.976 599.369 204.74 598.499 204.94C598.158 205.011 598.099 206.434 597.827 207.634C596.65 208.304 596.65 208.317 597.898 209.822C598.121 210.092 598.003 210.633 598.052 210.998L596.686 210.903C596.285 210.903 595.873 210.903 595.508 210.833C595.491 211.262 595.524 211.692 595.602 212.114C595.685 212.385 595.991 212.597 596.333 213.009L594.744 213.692C594.567 213.761 594.407 213.866 594.273 214.001C594.14 214.136 594.036 214.295 593.965 214.473C593.895 214.649 593.863 214.838 593.87 215.025C593.875 215.215 593.921 215.402 594.002 215.573C594.096 215.832 594.838 215.891 595.297 215.996C595.565 216.039 595.838 216.063 596.109 216.068L595.933 217.973L598.557 216.796L598.841 217.219C598.499 217.62 598.228 218.173 597.792 218.396C596.451 219.031 596.686 219.867 597.475 221.219L600.041 218.702C601.217 218.078 601.217 218.078 601.948 216.68C602.066 216.468 602.336 216.173 602.536 216.173C603.051 216.222 603.566 216.073 603.972 215.754C604.378 215.431 604.643 214.968 604.714 214.456C604.714 214.28 605.02 214.15 605.184 213.997C606.538 212.82 607.987 211.646 609.234 210.339C611.001 208.458 612.624 206.423 614.308 204.458L614.731 204.669C614.705 205.02 614.617 205.362 614.473 205.682C612.859 207.893 611.246 210.103 609.551 212.245C607.857 214.385 606.021 216.736 604.043 218.855C601.372 221.818 598.711 224.829 595.802 227.535C592.818 230.259 589.672 232.805 586.385 235.157C583.031 237.59 579.523 239.861 575.956 241.967C572.459 244.042 568.856 245.933 565.162 247.635C560.17 249.917 555.109 252.07 549.978 253.976C546.044 255.434 541.96 256.457 537.935 257.634C535.709 258.281 533.496 258.961 531.225 259.41C526.516 260.339 521.808 261.161 517.017 261.949C514.509 262.372 511.967 262.655 509.448 262.997C506.269 263.42 503.091 263.973 499.901 264.173C496.993 264.384 494.015 264.244 491.154 264.173C490.326 264.108 489.503 263.977 488.695 263.784V263.409C490.012 263.409 491.332 263.478 492.638 263.409C495.31 263.267 497.97 263.078 500.643 262.832C501.456 262.766 502.253 262.558 502.997 262.22C503.433 262.02 503.715 261.421 503.985 260.949C503.985 260.878 503.562 260.373 503.304 260.339C502.467 260.232 501.595 260.268 500.749 260.21C500.351 260.158 499.958 260.085 499.572 259.987V259.481H502.031C502.653 259.589 503.294 259.473 503.839 259.153C504.384 258.835 504.799 258.334 505.01 257.739C505.138 257.29 505.225 256.829 505.269 256.363C504.755 256.227 504.224 256.163 503.691 256.175C503.162 256.268 502.703 256.704 502.185 256.857C501.902 256.928 501.548 256.728 501.23 256.645C501.361 256.376 501.431 256.022 501.644 255.856C502.185 255.446 502.821 255.116 503.373 254.751C503.607 255.01 503.896 255.213 504.217 255.346C504.539 255.481 504.885 255.541 505.233 255.524C505.581 255.507 505.922 255.413 506.229 255.248C506.537 255.085 506.804 254.855 507.011 254.575C507.517 253.811 507.234 253.165 506.328 253.199C505.302 253.291 504.279 253.436 503.268 253.634L502.491 252.459C502.889 252.39 503.282 252.296 503.667 252.177C504.163 251.965 504.633 251.694 505.116 251.445L504.35 250.023C503.974 249.33 503.598 248.624 503.173 247.954C502.443 246.778 501.702 245.601 500.901 244.423C500.783 244.26 500.395 244.237 500.124 244.212C499.854 244.189 499.265 244.212 498.829 244.212H497.465V243.848L499.677 243.661C499.866 243.209 499.879 242.704 499.712 242.247C499.548 241.787 499.215 241.405 498.782 241.179C498.535 241.013 498.135 240.744 498.159 240.544C498.202 240.195 498.173 239.843 498.078 239.505C497.981 239.167 497.82 238.853 497.601 238.579C497.381 238.305 497.11 238.077 496.801 237.91C496.492 237.742 496.154 237.639 495.805 237.602C496.711 236.109 496.652 235.885 495.228 234.945C495.228 234.451 495.404 233.71 495.228 233.58C493.873 232.699 494.298 231.229 493.898 230.052C492.462 225.83 490.849 221.667 489.342 217.468C488.966 216.455 488.354 216.185 487.624 216.985C485.569 219.02 483.695 221.226 482.021 223.584C479.112 228.228 475.616 232.557 473.58 237.697C472.403 240.66 471.037 243.579 469.931 246.529C469.13 248.74 468.47 250.999 467.953 253.293C467.459 255.274 467.166 257.3 467.082 259.339C467.082 262.291 466.435 265.219 467.2 268.22C468.531 273.69 470.716 278.917 473.674 283.709C476.458 288.169 479.78 292.273 483.563 295.93C486.376 298.611 489.447 300.986 492.462 303.48C496.286 306.47 500.431 309.026 504.822 311.102C507.777 312.619 510.977 313.619 514.074 314.854C517.87 316.666 521.96 317.779 526.151 318.136C529.129 318.618 532.037 319.1 535.086 319.476C536.84 319.701 538.616 319.701 540.394 319.806C543.291 319.982 546.175 320.3 549.057 320.3C551.943 320.3 554.649 320.029 557.44 319.77C561.83 319.347 566.234 318.983 570.589 318.3C574.285 317.718 577.94 316.905 581.536 315.865C585.338 314.759 589.057 313.384 592.766 311.973C596.377 310.685 599.915 309.197 603.361 307.514C608.482 304.857 613.496 301.963 618.44 298.964C621.47 297.098 624.384 295.049 627.162 292.824C629.516 290.931 631.588 288.614 633.955 286.686C636.055 284.858 637.932 282.79 639.545 280.521C640.288 279.557 641.146 278.664 642.195 277.453C642.215 277.845 642.215 278.235 642.195 278.627C641.961 280.007 641.242 281.258 640.169 282.157C638.909 283.263 638.569 285.097 636.931 286.003C636.237 286.392 635.048 287.18 635.754 288.213C634.801 289.097 633.235 289.908 633.283 290.636C633.354 291.931 632.907 292.096 631.966 292.307C631.645 292.377 631.361 292.561 631.165 292.824C630.164 294.354 629.235 295.918 627.397 296.635C627.15 296.729 626.974 297.353 627.032 297.682C627.091 298.011 627.62 298.036 627.963 298.081C628.536 298.112 629.108 298.112 629.681 298.081V298.552C629.3 298.696 628.905 298.802 628.504 298.869C627.661 298.798 626.815 298.798 625.973 298.869C625.07 299.149 624.198 299.521 623.372 299.975L623.465 300.715L627.94 301.54V301.941H623.089C622.398 301.915 621.713 302.057 621.087 302.351C620.581 302.634 620.299 303.315 619.911 303.809C620.451 304.23 621.06 304.553 621.713 304.762C623.761 304.986 625.833 305.032 627.903 305.151C625.455 306.14 622.677 304.727 620.358 306.326C619.181 304.869 618.192 304.68 616.674 305.55C615.709 306.114 615.932 306.726 616.522 307.774L620.052 306.857L620.17 307.868L617.109 308.879C616.367 307.362 614.943 307.703 613.672 307.868C613.249 307.868 612.895 308.596 612.496 308.985C612.903 309.315 613.349 309.596 613.825 309.82C614.241 309.891 614.667 309.891 615.083 309.82C616.638 309.82 616.638 309.82 617.545 311.137L617.121 311.043C616.73 310.891 616.313 310.816 615.894 310.826C615.474 310.835 615.06 310.928 614.676 311.1C614.294 311.27 613.947 311.516 613.66 311.821C613.372 312.126 613.148 312.485 613.001 312.879C612.918 313.009 612.81 313.122 612.682 313.211C612.554 313.299 612.411 313.363 612.259 313.396C611.615 313.462 610.978 313.58 610.352 313.748C609.94 313.913 609.694 314.442 609.376 314.819C609.74 315.124 610.093 315.678 610.47 315.7C611.918 315.807 613.376 315.7 614.697 315.7C615.072 316.112 615.403 316.784 615.697 316.758C617.061 316.689 618.416 316.43 619.769 316.241C620.063 316.241 620.393 316.053 620.641 316.148C620.74 316.231 620.816 316.339 620.858 316.46C620.901 316.584 620.912 316.714 620.887 316.842C620.698 317.082 620.432 317.247 620.134 317.312C619.245 317.524 618.345 317.688 617.439 317.806C617.156 317.806 616.862 317.617 616.556 317.535C615.364 317.071 614.125 316.743 612.859 316.559C612.296 316.559 611.684 317.453 611.07 317.935C611.624 318.229 612.165 318.746 612.719 318.77C614.085 318.77 615.461 318.606 616.898 318.501L617.205 319.452C616.026 319.675 614.92 319.852 613.814 320.158C613.602 320.217 613.402 320.77 613.413 321.075C613.425 321.38 613.861 321.569 614.119 321.593C615.861 321.7 617.65 321.747 619.451 321.818C619.451 322.792 620.218 322.911 621.429 322.606C622.659 322.364 623.907 322.242 625.161 322.241C625.384 322.241 625.62 322.569 625.962 322.817C622.595 323.263 622.5 323.334 621.876 325.663C620.763 325.696 619.656 325.835 618.569 326.075C617.873 326.286 616.827 327.004 616.838 327.462C616.838 328.827 618.015 328.063 618.768 328.121C619.523 328.179 620.475 328.568 621.124 328.274C622.183 327.768 623.031 327.097 623.925 328.416C623.968 328.47 624.025 328.514 624.087 328.544C624.151 328.576 624.221 328.591 624.289 328.591C626.055 328.25 627.821 327.885 629.681 327.51C630.058 327.651 630.682 328.121 631.212 328.039C632.291 327.824 633.349 327.505 634.367 327.086C635.391 326.722 636.308 325.652 637.509 326.685C637.614 326.781 637.887 326.685 638.062 326.685C640.169 326.181 642.245 325.554 644.277 324.805C647.81 323.323 651.212 321.629 654.613 319.923C655.167 319.652 655.461 318.888 655.873 318.347C658.463 317.052 660.699 315.536 660.759 314.536L658.968 314.407C661.839 312.853 664.43 311.501 666.974 310.067C667.69 309.577 668.359 309.022 668.975 308.409L668.644 307.774L665.666 308.585L672.87 303.186L671.694 302.175C672.87 300.81 674.837 300.105 675.224 298.011L673.836 297.6C674.942 296.658 675.896 295.918 676.744 295.059C677.016 294.622 677.208 294.141 677.309 293.636L675.907 293.507L675.354 293.425C676.403 292.496 677.379 291.742 678.204 290.848C678.485 290.554 678.356 289.885 678.427 289.391C677.985 289.358 677.542 289.41 677.12 289.543C675.483 290.578 673.907 291.707 672.282 292.753C671.799 292.946 671.292 293.073 670.776 293.131C670.926 292.864 671.099 292.613 671.294 292.377C671.464 292.225 671.653 292.094 671.858 291.988C675.166 290.237 677.59 287.461 680.098 284.827C680.358 284.556 680.217 283.909 680.263 283.427L679.085 283.556H678.967C679.662 282.275 680.463 280.933 681.098 279.522C681.298 279.076 681.041 278.44 680.992 277.899L679.063 278.604L681.758 275.416L682.123 275.547C682.218 277.393 682.358 279.252 682.418 281.109C682.476 282.968 682.418 284.638 682.418 286.779C682.123 287.391 680.863 288.191 681.404 289.625H684.866L684.971 290.048L680.912 291.025C680.912 291.496 680.792 292.401 681.063 292.542C681.708 292.804 682.408 292.902 683.1 292.824C683.842 292.824 684.571 292.648 685.525 292.519C685.289 292.989 685.254 293.202 685.172 293.213C684.183 293.459 683.171 293.612 682.194 293.893C681.472 294.061 680.794 294.376 680.203 294.824C679.946 295.048 680.203 295.812 680.146 296.33C680.911 296.33 681.687 296.33 682.499 296.175C682.819 296.175 683.147 295.647 683.394 295.694C685.549 296.175 687.49 295.376 689.491 294.882C690.044 294.812 690.6 294.812 691.153 294.882C689.974 295.566 688.712 296.092 687.397 296.447C685.999 296.719 684.629 297.113 683.3 297.624C682.606 297.976 682.124 298.212 681.441 297.869C680.345 297.317 679.639 297.94 679.085 298.693C678.533 299.446 678.851 300.164 679.817 300.222C680.278 300.205 680.738 300.154 681.193 300.069C681.981 300.069 682.793 300.069 683.547 299.893C684.3 299.717 685.607 299.764 686.113 299.21C687.29 298.036 688.02 298.259 688.903 299.21L686.549 300.387H684.348C682.63 300.469 681.241 302.046 679.297 301.409C678.885 301.269 678.121 301.821 677.661 302.235C677.202 302.646 677.344 303.115 677.19 303.562C677.637 303.755 678.117 303.86 678.604 303.869C679.922 303.62 681.098 302.446 682.57 303.375C682.652 303.375 682.841 303.375 682.97 303.304L686.878 301.81C687.82 303.128 685.607 302.986 685.583 303.869C683.23 303.257 681.123 303.409 679.628 305.574C679.395 305.332 679.139 305.114 678.862 304.927C678.445 304.72 677.971 304.656 677.513 304.745C677.055 304.835 676.64 305.072 676.332 305.421C676.142 305.692 676.047 306.019 676.061 306.351C676.613 306.706 677.242 306.923 677.898 306.986C679.501 306.8 681.098 306.533 682.677 306.185C683.3 306.069 683.854 305.775 684.513 305.645C684.849 305.598 685.189 305.598 685.525 305.645V306.044L683.925 307.22C683.193 306.997 682.57 306.574 682.029 306.668C680.984 306.855 679.974 307.203 679.039 307.703C678.615 307.926 678.462 308.656 678.191 309.161C678.662 309.373 679.192 309.832 679.605 309.751C681.017 309.442 682.393 308.961 683.912 308.502L685.995 308.974C684.768 309.397 683.585 309.941 682.465 310.597C682.232 310.728 681.967 310.794 681.698 310.784C680.53 310.624 679.347 310.577 678.168 310.642C677.627 310.713 677.202 311.561 676.732 312.067C677.248 312.305 677.778 312.51 678.321 312.679C679.01 312.819 679.724 312.762 680.38 312.511C681.038 312.263 681.609 311.829 682.029 311.267C682.076 311.828 681.95 312.392 681.664 312.879C681.346 313.443 680.84 313.972 681.664 314.547C682.759 315.347 684.584 314.373 685.054 313.161C685.691 312.042 686.484 311.02 687.408 310.125L688.22 311.125C687.857 312.443 685.478 311.962 686.173 314.03C687.632 313.924 689.197 314.336 690.315 312.853C690.399 312.725 690.833 312.853 691.104 312.853C692.284 313.004 693.48 312.94 694.636 312.667C695.248 312.396 696.625 311.49 695.813 310.114C695.742 309.996 696.073 309.55 696.296 309.361C697.591 308.257 697.614 308.186 696.473 307.009L698.732 305.009L699.275 305.633C698.731 306.317 698.228 307.031 697.768 307.774C697.697 307.903 698.061 308.397 698.321 308.562C699.275 309.161 699.921 308.362 700.675 307.997C701.193 307.811 701.729 307.684 702.275 307.621L702.369 308.091C701.193 308.502 700.522 309.736 698.838 309.408C697.155 309.079 696.485 309.914 696.967 312.278L700.039 310.702C700.397 310.983 700.838 311.137 701.293 311.137C701.747 311.137 702.19 310.983 702.547 310.702C703.501 310.174 704.312 308.774 705.76 309.702C705.76 309.702 705.936 309.702 706.031 309.631L709.267 308.456C713.124 307.192 716.872 305.618 720.474 303.751C723.876 301.799 727.608 300.352 730.773 298.092C734.925 295.024 738.907 291.729 742.699 288.225C746.643 284.697 749.657 280.358 752.728 276.087C755.642 272.197 757.83 267.815 759.19 263.149C759.426 262.256 759.744 261.384 760.003 260.504C760.686 258.068 761.367 255.644 762.028 253.21C762.172 252.625 762.285 252.032 762.357 251.434C762.718 249.677 762.958 247.897 763.074 246.106C763.074 243.884 762.628 241.649 762.617 239.426C762.544 234.559 761.562 229.748 759.72 225.241C758.993 223.203 758.084 221.235 757.001 219.36C755.341 216.691 753.471 214.186 751.538 211.668C750.421 210.186 749.185 208.798 747.938 207.411C747.349 206.752 746.689 206.529 746.16 207.518C745.324 209.057 744.394 210.562 743.675 212.221C743.11 213.503 741.746 214.574 742.38 216.29C742.498 216.609 742.723 218.219 741.203 217.773C741.063 217.773 740.651 218.207 740.58 218.501C740.333 219.43 740.273 220.43 739.968 221.336C739.45 222.841 739.545 223.16 740.862 223.584C741.175 224.321 741.423 225.084 741.604 225.864C741.604 226.24 741.263 226.676 741.063 227.041L740.756 226.83C740.615 226.111 740.485 225.407 740.321 224.546C738.815 225.641 738.732 226.594 739.85 227.547C740.026 227.655 740.177 227.801 740.29 227.971C740.405 228.145 740.483 228.339 740.517 228.542C740.55 228.747 740.54 228.955 740.485 229.154C740.432 229.354 740.336 229.539 740.202 229.699C739.886 228.9 739.732 227.9 738.59 228.522C737.978 228.889 738.155 231.1 738.755 231.487C739.839 232.193 739.932 233.24 738.991 233.945L738.179 232.229H737.79C737.483 233.474 735.765 234.299 736.837 236.063L737.52 235.815C737.743 235.71 737.943 235.591 738.566 235.25C738.109 236.65 737.79 237.602 737.46 238.616L737.097 238.496L736.519 236.462C735.826 236.761 735.263 237.301 734.94 237.982C734.616 238.664 734.548 239.441 734.752 240.166C736.459 240.166 736.188 241.613 736.671 242.519C735.789 242.59 734.881 242.873 734.907 241.495C734.907 241.238 734.365 240.79 734.035 240.744C733.706 240.696 733.375 241.121 733.163 241.413C732.952 241.707 732.693 242.332 732.399 242.744C730.974 244.719 731.093 245.037 733.446 245.412C733.436 245.987 733.598 246.552 733.91 247.032C734.223 247.515 734.671 247.893 735.201 248.117C735.333 248.199 735.447 248.304 735.537 248.429C735.628 248.556 735.695 248.696 735.731 248.848C736.013 250.2 736.577 251.035 738.166 250.305C738.403 251.376 738.473 252.246 737.308 252.516C736.788 251.683 736.472 250.612 735.789 250.245C735.434 250.084 735.117 249.844 734.862 249.55C734.606 249.253 734.416 248.905 734.306 248.529C734.132 248.326 733.92 248.159 733.682 248.037C733.443 247.917 733.185 247.844 732.918 247.823C732.215 248.568 731.674 249.45 731.327 250.412C731.233 250.728 732.328 251.376 732.974 251.965L733.47 253.987L733.599 254.246C732.976 254.081 732.391 253.801 731.868 253.422C731.282 252.811 730.986 251.812 729.856 252.177C729.332 252.364 728.876 252.703 728.545 253.151C728.217 253.6 728.03 254.136 728.009 254.693C727.25 255.274 726.53 255.903 725.853 256.576C725.735 256.704 726.066 257.55 726.336 257.656C726.586 257.725 726.847 257.736 727.101 257.688C727.354 257.638 727.594 257.531 727.8 257.377C728.006 257.221 728.173 257.019 728.29 256.789C728.405 256.557 728.464 256.303 728.467 256.045L731.482 254.433L729.974 257.727C729.162 257.351 728.561 257.881 728.454 258.903C728.446 259.142 728.494 259.377 728.598 259.593C728.7 259.809 728.852 259.997 729.044 260.139C729.203 260.214 729.378 260.251 729.552 260.249C729.728 260.249 729.901 260.21 730.059 260.132C730.217 260.055 730.356 259.944 730.465 259.808C730.576 259.669 730.653 259.51 730.692 259.339C730.881 258.667 731.116 257.904 731.951 258.327C732.411 258.562 732.599 259.315 732.952 259.903C730.704 260.704 730.504 261.02 730.962 262.703C733.105 262.821 733.541 262.432 733.246 260.573L734.529 260.878L735.177 262.903C734.941 262.832 734.647 262.666 734.565 262.737C733.943 263.268 733.371 263.855 732.858 264.489C732.729 264.654 732.989 265.42 733.07 265.42C733.693 265.435 734.313 265.347 734.907 265.161C735.141 265.066 735.141 264.455 735.377 264.208C735.854 263.779 736.362 263.386 736.896 263.033C736.896 264.1 736.977 264.711 737.014 265.31ZM611.553 326.91C611.669 327.05 611.918 327.545 612.283 327.674C612.945 327.951 613.676 328.02 614.379 327.87C615.082 327.722 615.722 327.361 616.215 326.839C616.415 326.64 616.674 326.217 616.593 326.062C616.5 325.922 616.378 325.799 616.238 325.709C616.096 325.618 615.935 325.558 615.766 325.534C614.766 325.534 613.765 325.734 612.766 325.757C612.314 325.764 611.867 325.667 611.458 325.474C610.93 325.229 610.505 324.663 609.977 324.581C608.956 324.446 607.924 324.446 606.904 324.581C606.691 324.638 606.496 324.749 606.339 324.905C606.183 325.058 606.069 325.251 606.009 325.463C606.036 325.686 606.122 325.899 606.255 326.079C606.39 326.261 606.569 326.406 606.775 326.498C608.27 326.711 609.777 326.757 611.553 326.886V326.91ZM601.84 322.958C601.343 323.128 600.855 323.333 600.382 323.569C600.382 323.569 600.476 324.392 600.689 324.486C601.597 324.898 602.554 325.199 603.536 325.38C603.818 325.38 604.325 324.817 604.501 324.416C604.585 324.216 604.196 323.64 603.891 323.499C603.223 323.259 602.539 323.077 601.84 322.958ZM616.262 323.381C614.943 322.075 612.33 321.829 610.011 322.9C610.293 323.216 610.505 323.686 610.789 323.746C611.965 323.969 613.202 324.074 614.414 324.216C614.837 324.274 615.354 324.145 615.672 324.345C616.442 324.888 617.367 325.165 618.308 325.136C619.249 325.106 620.154 324.77 620.887 324.181C620.364 323.488 619.597 323.019 618.742 322.866C617.886 322.714 617.006 322.888 616.273 323.357L616.262 323.381ZM603.561 322.228C604.792 322.965 606.21 323.334 607.644 323.286C608.128 323.286 608.611 322.606 609.105 322.228C608.611 321.887 608.162 321.369 607.621 321.264C606.268 320.994 604.737 320.169 603.561 322.228ZM595.52 322.086C595.967 322.594 596.109 322.934 596.333 322.992C596.99 323.187 597.673 323.277 598.357 323.263C598.57 323.263 598.735 322.546 598.911 322.157C598.348 321.845 597.746 321.609 597.12 321.451C596.674 321.417 596.191 321.805 595.52 322.086ZM602.241 321.887C602.512 321.64 603.324 321.206 603.266 320.912C603.03 319.57 601.783 319.57 600.771 319.512C600.442 319.512 599.758 320.112 599.781 320.418C599.852 321.663 600.971 321.663 602.241 321.875V321.887ZM602.819 318.336C603.127 318.85 603.578 319.263 604.116 319.527C604.656 319.791 605.261 319.892 605.855 319.817C606.398 319.754 606.947 319.852 607.432 320.1C608.117 320.673 608.949 321.044 609.833 321.169C610.718 321.295 611.62 321.167 612.436 320.805C612.695 320.723 613.084 320.324 613.035 320.206C612.919 319.912 612.612 319.5 612.365 319.489C610.964 319.382 609.751 318.195 608.222 318.853C608.021 318.935 607.61 318.535 607.045 318.207L611.023 317.713C610.776 317.278 610.705 316.913 610.482 316.758C609.975 316.346 609.382 316.053 608.747 315.896C608.112 315.739 607.449 315.724 606.809 315.854C606.08 316.065 605.774 315.983 605.362 315.335C605.081 314.87 604.626 314.532 604.098 314.395C603.57 314.258 603.009 314.334 602.536 314.607C602.324 314.701 602.218 315.573 602.278 315.595C603.184 315.996 604.102 316.324 605.031 316.63C605.385 316.736 605.82 316.63 606.103 316.807C606.386 316.984 606.103 317.407 606.103 317.713C605.741 317.784 605.37 317.784 605.008 317.713C604.826 317.599 604.625 317.524 604.413 317.494C604.203 317.461 603.987 317.474 603.781 317.532C603.575 317.589 603.384 317.687 603.218 317.82C603.053 317.955 602.917 318.123 602.819 318.312V318.336ZM594 320.269C593.305 319.898 592.854 319.512 592.531 319.559C592.2 319.605 591.87 320.124 591.542 320.429C591.914 320.756 592.34 321.015 592.8 321.194C593.055 321.194 593.41 320.73 594 320.269ZM594 320.269L594.037 320.288V320.24L594 320.269ZM595.43 317.656C595.483 319.338 596.253 319.997 597.603 319.759C597.958 319.759 598.534 319.476 598.57 319.253C598.587 319.053 598.553 318.851 598.471 318.668C598.388 318.485 598.26 318.326 598.099 318.207C597.333 317.95 596.554 317.732 595.765 317.561L595.428 317.49L595.43 317.656ZM600.853 318.559C601.428 317.995 602.029 317.664 602.029 317.383C601.935 315.936 600.534 316.513 599.747 316.112C599.628 316.112 599.193 316.63 598.911 316.913L600.853 318.559ZM678.926 314.483C678.385 314.806 677.881 315.023 677.404 315.039C676.926 315.053 676.474 314.867 676.037 314.384C676.994 313.215 677.64 313.22 678.926 314.483ZM605.431 312.525C605.431 314.513 605.974 314.878 608.044 314.678C608.422 314.678 608.763 314.184 609.128 313.924C608.822 313.514 608.587 312.842 608.199 312.748C607.286 312.583 606.36 312.504 605.431 312.514V312.525ZM678.926 314.483L678.956 314.466V314.513L678.926 314.483ZM610.764 313.278C611.518 312.49 612.425 311.984 612.412 311.467C612.412 310.373 611.235 310.502 610.494 310.442C609.751 310.385 608.693 310.256 608.856 311.314C608.952 311.936 609.917 312.43 610.764 313.267V313.278ZM674.742 310.642C673.907 311.396 672.789 311.925 672.729 312.561C672.67 313.195 673.718 313.396 674.507 313.066C675.578 312.561 675.26 311.854 674.742 310.597V310.642ZM675.142 310.408C676.132 309.903 677.427 310.408 677.415 308.95C677.415 308.538 676.909 308.126 676.637 307.714L674.283 309.442L675.142 310.408ZM741.085 277.133L741.192 277.947C741.744 278.075 742.314 278.106 742.875 278.039C743.853 277.734 744.053 276.959 743.546 275.688L741.085 277.133ZM741.051 276.216L742.663 274.381C742.204 274.065 741.616 273.417 741.297 273.522C740.691 273.819 740.187 274.29 739.85 274.875C739.79 274.946 740.473 275.558 741.051 276.193V276.216ZM736.975 265.302C736.56 265.165 736.111 265.185 735.711 265.356C735.296 265.533 734.962 265.857 734.776 266.266C734.677 266.495 734.627 266.742 734.627 266.989C734.627 267.239 734.677 267.484 734.776 267.714C734.87 267.924 735.576 268.054 735.954 267.937C737.453 267.42 737.589 267.046 736.975 265.302ZM736.975 265.302L737.014 265.315V265.31L736.966 265.278L736.975 265.302ZM507.535 260.9C506.9 260.305 506.384 259.622 506.199 259.75C505.516 260.09 504.876 260.508 504.292 260.998C504.668 261.339 505.093 261.985 505.469 261.938C506.205 261.695 506.902 261.344 507.535 260.9ZM513.285 260.103V259.609C512.944 259.422 512.59 259.068 512.237 259.068C511.365 259.068 510.493 259.15 509.635 259.315C509.165 259.37 508.722 259.568 508.364 259.879C508.2 260.068 508.364 260.878 508.529 260.974C509.016 261.177 509.549 261.245 510.071 261.172C510.753 261.12 511.425 260.981 512.072 260.762C512.495 260.577 512.9 260.357 513.285 260.103ZM507.535 260.9L507.564 260.927V260.878L507.535 260.9ZM507.308 73.6202C509.145 77.2057 511.062 80.76 512.766 84.4065C513.449 85.9004 513.826 87.4879 515.121 88.6637C515.499 88.9704 515.263 89.7698 515.499 90.2526C516.027 91.2992 516.627 92.2875 517.205 93.2986C517.357 93.5684 517.677 93.8623 517.677 94.1094C517.499 95.5209 518.583 96.3331 519.017 97.5089C519.795 99.5082 521.419 101.143 521.643 103.39C521.644 103.53 521.7 103.666 521.796 103.767C523.043 104.778 523.243 106.341 523.926 107.659C525.811 111.306 527.776 114.786 529.741 118.516C531.708 122.244 533.662 125.973 535.569 129.736C537.358 133.277 539.099 136.888 540.89 140.416C541.029 140.755 541.267 141.046 541.573 141.251C544.973 143.004 548.411 144.673 551.778 146.449C553.025 147.095 554.132 148.049 555.31 148.801C556.839 149.755 558.5 150.532 559.936 151.601C562.384 153.426 564.738 155.388 567.091 157.365C569.752 159.6 572.389 161.951 574.931 164.304C575.972 165.373 576.935 166.512 577.817 167.715C579.499 169.761 581.264 171.749 582.831 173.878C584.043 175.525 585.032 177.3 586.08 179.054C586.386 179.463 586.545 179.964 586.527 180.477C586.256 181.57 586.01 182.381 587.704 182.087C587.963 182.053 588.505 183.382 588.798 184.122C588.87 184.539 588.87 184.965 588.798 185.381L589.211 185.228C589.635 185.664 590.318 186.063 590.575 186.546C590.851 187.72 590.949 188.928 590.871 190.133C590.776 191.357 589.929 191.686 588.905 191.108C588.366 191.849 587.893 192.637 587.491 193.463C587.199 194.261 586.645 195.073 587.339 196.072C587.572 196.727 587.642 197.43 587.539 198.119V203.341C589.012 203.059 589.587 202.329 589.012 201.495C588.587 201.023 588.298 200.449 588.164 199.83C588.034 199.212 588.065 198.567 588.258 197.965C588.411 197.484 587.74 196.731 587.904 196.249C588.374 194.826 588.116 193.025 589.952 192.192C590.235 192.014 590.55 191.899 590.879 191.855C591.21 191.808 591.545 191.832 591.863 191.926C592.183 192.02 592.478 192.18 592.732 192.396C592.984 192.612 593.188 192.879 593.332 193.18L593.461 193.426C594.389 195.273 594.389 195.273 592.355 196.331C594.402 196.284 594.708 197.542 594.708 198.813C594.712 200.679 594.563 202.545 594.26 204.387C594.026 205.787 591.471 205.964 590.293 204.787C590.128 204.58 589.919 204.412 589.681 204.293C589.907 205.081 589.458 206.187 591.013 206.187C591.365 206.164 591.788 206.775 592.188 207.106C591.954 207.352 591.718 207.823 591.471 207.823C590.896 207.822 590.328 207.704 589.799 207.481C589.41 207.266 589.045 207.006 588.717 206.705C588.563 206.599 588.234 206.529 588.234 206.458C588.386 204.201 585.409 204.13 585.232 202.024L586.409 201.13C585.764 200.695 585.093 200.303 584.397 199.953C582.984 199.39 582.866 199.071 583.313 197.602C583.316 197.367 583.26 197.136 583.147 196.93C583.037 196.726 582.875 196.551 582.679 196.425C580.464 195.614 579.829 194.236 580.877 192.319C579.606 191.449 578.264 190.614 577.087 189.698C576.864 189.543 576.933 189.075 576.864 188.745C577.334 188.686 577.875 188.439 578.24 188.603C579.15 189.095 580.032 189.64 580.877 190.238V188.674L577.016 188.146C576.933 188.133 576.78 188.086 576.78 188.015C576.133 186.357 573.743 185.769 573.578 184.335C573.331 182.182 572.036 181.111 570.86 179.724C570.423 179.218 569.87 178.489 570.6 177.583C570.812 177.324 570.294 176.465 570.082 175.784L568.987 176.207C568.513 175.945 568.132 175.544 567.894 175.058C567.655 174.571 567.573 174.024 567.658 173.489C567.615 173.247 567.522 173.019 567.385 172.816C567.248 172.613 567.067 172.441 566.857 172.314C566.313 172.062 565.838 171.691 565.461 171.225C565.085 170.76 564.822 170.216 564.69 169.632C564.341 168.705 563.807 167.857 563.125 167.139C562.137 165.821 561.042 164.575 560.065 163.245C559.712 162.677 559.422 162.069 559.206 161.433C559.1 161.221 559.041 160.811 558.924 160.811C557.168 160.54 556.957 158.739 555.78 157.87C557.096 161.101 558.828 164.145 560.936 166.927L558.581 167.386L559.536 167.82C559.953 167.941 560.349 168.123 560.713 168.361C561.593 169.064 562.384 169.873 563.066 170.772C563.326 171.208 563.149 172.008 563.066 172.631C563.032 172.936 562.726 173.208 562.431 173.689C563.913 173.689 565.079 173.808 564.939 175.525C564.927 175.677 565.339 175.855 565.514 176.042C565.963 176.476 566.386 176.937 566.82 177.382L565.291 178.713C565.69 178.902 566.113 179.034 566.552 179.099C567.81 179.076 568.435 179.419 568.635 180.887C568.811 182.158 568.964 183.77 570.754 184.23C571.459 184.416 572.26 187.298 571.929 188.109C571.766 188.532 571.635 188.968 571.483 189.403L571.989 189.58L572.601 187.875C573.119 188.815 573.625 189.698 574.096 190.603C574.203 190.803 574.214 191.226 574.319 191.226C576.086 191.52 575.462 193.343 576.192 194.12C577.321 195.309 577.722 196.896 578.676 197.965C579.719 198.888 580.431 200.128 580.701 201.495C580.759 202.012 581.607 202.435 582.312 203.106C582.241 203.638 582.329 204.178 582.565 204.661C582.804 205.142 583.177 205.542 583.643 205.812C584.749 206.646 583.891 207.917 583.278 208.799C582.511 209.801 581.678 210.752 580.783 211.646C579.677 212.857 577.628 212.915 576.98 214.738C576.909 214.914 576.509 214.985 576.344 215.068L577.864 216.42C578.111 215.774 578.322 215.186 578.593 214.596C578.946 213.857 579.264 213.091 580.441 213.421C580.746 213.503 581.406 212.962 581.618 212.55C582.065 211.715 582.266 210.728 583.607 211.222C583.714 211.257 584.019 210.646 584.29 210.397C584.76 209.986 585.314 209.246 585.75 209.317C586.362 209.398 587.257 209.81 586.927 210.903C586.89 211.045 586.974 211.386 587.079 211.386C588.105 211.88 588.174 212.915 588.634 213.739C589.462 215.008 590.358 216.234 591.318 217.408C592.302 218.763 593.215 220.168 594.049 221.618C594.638 222.7 593.777 224.23 592.707 224.9C591.757 225.485 590.882 226.184 590.107 226.983C588.765 228.152 587.233 229.08 585.573 229.722C585.209 229.9 584.349 229.417 583.925 229.005C581.313 226.489 578.7 223.984 576.226 221.324C573.095 217.962 570.071 214.525 567.08 210.998C565.314 208.941 563.844 206.586 561.96 204.646C560.17 202.569 558.553 200.351 557.122 198.014C555.544 195.766 554.049 193.448 552.497 191.179C552.1 190.577 551.584 190.064 550.977 189.674C550.635 191.743 551.954 193.203 552.602 194.873C550.635 195.331 550.635 195.331 550.977 196.354C552.26 195.391 552.037 195.825 553.332 196.99C554.627 198.154 554.509 199.613 555.192 200.848C555.25 200.976 555.287 201.213 555.368 201.213C557.335 201.752 557.157 203.587 557.722 204.987C557.83 205.291 558.008 205.565 558.241 205.787C559.499 206.893 559.499 206.882 559.158 208.28C561.643 209.929 561.806 210.223 561.125 212.574C561.928 212.864 562.672 213.294 563.326 213.845C563.686 214.552 563.787 215.365 563.607 216.138C564.196 216.796 565.539 216.762 565.373 218.301C564.905 220.019 563.847 221.519 562.384 222.536C561.854 222.795 561.488 223.513 561.1 223.9C560.713 224.289 560.182 224.971 559.83 224.9C558.735 224.712 558.37 225.383 557.887 226.077C557.577 226.475 557.239 226.847 556.875 227.195L557.992 228.369C558.1 228.169 558.441 227.818 558.37 227.618C558.074 226.817 558.205 226.171 559.064 226.04C559.688 226.047 560.308 226.151 560.9 226.347L560.983 226.806C561.171 226.5 561.619 226.053 561.536 225.9C560.865 224.677 561.772 224.441 562.549 223.878C563.326 223.312 563.878 222.406 565.057 222.406C565.314 222.395 565.573 221.63 565.833 221.313C566.092 220.995 566.408 220.725 566.692 220.418C567.005 220.727 567.299 221.055 567.576 221.395C567.87 221.818 568.092 222.301 568.364 222.747C568.457 222.901 568.705 223.018 568.705 223.183C569.236 225.347 571.412 226.605 572.013 228.535C572.519 230.194 574.731 230.722 574.367 232.794C574.308 233.122 575.273 233.616 575.732 234.062C576.568 234.827 576.816 235.544 575.732 236.345C574.957 236.922 574.426 237.967 573.591 238.273C570.671 239.367 568.435 241.673 565.433 242.637C564.007 243.06 563.043 243.296 561.984 241.885C560.077 239.355 557.887 237.062 555.899 234.591C553.143 231.169 550.401 227.734 547.799 224.207C545.939 221.678 544.337 218.95 542.63 216.313C540.712 213.362 538.7 210.468 536.958 207.423C535.674 205.152 534.757 202.718 533.65 200.365C533.516 200.131 533.358 199.911 533.179 199.708C531.472 200.93 533.121 202.176 533.05 203.458L531.873 204.341C534.968 204.152 533.391 206.458 534.003 207.574C534.708 208.892 534.757 210.646 535.651 211.762C536.543 212.916 536.963 214.368 536.828 215.82C536.804 216.796 537.135 217.125 538.311 216.937L537.641 217.725C538.816 219.725 539.995 221.689 541.03 223.807C541.255 224.265 540.995 225.04 540.912 225.572C540.83 226.1 540.83 226.629 540.83 227.358L542.337 226.841C543.042 227.817 544.244 228.606 543.373 230.04C545.209 231.463 545.221 231.91 543.48 233.369C543.068 233.674 542.63 233.874 542.301 234.191C542.053 234.478 541.827 234.785 541.631 235.11C541.889 235.262 541.96 235.58 542.408 235.544C542.855 235.51 543.48 235.357 543.585 235.086C543.95 234.168 544.457 233.404 545.492 233.663C545.977 233.751 546.42 233.998 546.753 234.363C547.085 234.729 547.287 235.193 547.328 235.685C547.363 236.133 547.833 236.486 548.07 236.862C548.305 237.238 548.505 237.639 548.717 238.038C549.015 238.441 549.246 238.89 549.4 239.367C549.611 240.979 551.142 241.591 551.825 242.837C552.319 243.743 553.014 244.531 553.496 245.437C553.716 246.011 553.861 246.612 553.932 247.224L552.366 247.529C551.594 248.219 550.747 248.827 549.847 249.341C547.728 250.234 545.55 250.988 543.385 251.776C542.521 252.109 541.635 252.384 540.735 252.6C539.276 252.916 538.629 251.634 537.97 250.799C534.815 246.86 531.672 242.978 528.929 238.802C525.833 234.099 523.103 229.134 520.348 224.218C518.546 221.008 516.981 217.668 515.31 214.373C515.017 214.941 514.874 215.572 514.891 216.208C514.906 216.847 515.084 217.469 515.403 218.02C515.487 218.125 515.686 218.219 515.686 218.325C515.757 220.56 517.922 222.618 516.439 224.853C517.099 225.452 517.681 226.132 518.171 226.877C518.405 227.324 518.064 228.112 518.1 228.64C518.134 229.17 518.218 230.17 518.405 230.17C520.464 230.51 520.03 232.051 519.795 233.228C519.607 234.168 519.595 234.627 520.548 235.05C520.853 235.191 520.924 235.922 521.054 236.45C521.184 236.98 521.065 237.697 521.372 238.015C522.714 239.391 522.797 239.496 522.714 241.308L524.115 242.978L522.137 244.155C523.762 244.225 526.069 243.978 524.491 247.012C526.705 247.094 527.14 248.823 527.881 250.271C528.49 251.771 529.256 253.2 530.166 254.54C531.154 255.762 530.836 256.022 529.342 256.363C528.112 256.682 526.927 257.147 525.811 257.75C522.29 259.527 519.429 259.268 516.676 256.576C514.144 254.105 511.602 251.612 509.319 248.906C507.591 246.745 506.04 244.448 504.68 242.038C501.95 237.225 499.664 232.173 497.852 226.946C496.557 223.395 495.215 219.842 494.038 216.256C493.019 213.394 492.151 210.481 491.437 207.529C490.377 202.752 489.483 197.931 488.695 193.096C487.987 188.826 487.564 184.487 486.976 180.159C486.752 178.513 486.398 176.888 486.164 175.242C486.022 174.643 486.022 174.018 486.164 173.419C486.332 172.929 486.333 172.397 486.167 171.905C486.001 171.414 485.677 170.991 485.245 170.703C483.844 169.432 482.29 168.256 480.831 167.08C478.983 165.515 477.181 163.881 475.322 162.316C472.839 160.21 470.202 158.211 467.848 156.036C463.891 152.483 459.961 148.896 456.158 145.178C455.969 144.994 455.78 144.808 455.593 144.622C466.29 116.574 484.31 92.1228 507.308 73.6202ZM508.589 255.916C507.058 255.916 505.916 256.857 506.021 257.787C506.021 258.151 506.517 258.738 506.811 258.761C507.988 258.856 509.6 257.587 509.401 256.762C509.295 256.339 508.729 256.033 508.589 255.904V255.916ZM726.153 254.716L726.525 253.811C726.124 253.693 725.619 253.364 725.348 253.504C724.726 253.886 724.145 254.331 723.617 254.833C723.899 255.093 724.266 255.633 724.466 255.576C725.059 255.355 725.626 255.066 726.153 254.716ZM726.153 254.716L726.147 254.728L726.207 254.682L726.153 254.716ZM726.607 253.952C727.38 253.262 728.109 252.526 728.797 251.752C729.008 251.471 728.866 250.928 728.892 250.505C728.42 250.505 727.808 250.376 727.537 250.612C726.973 251.167 726.503 251.81 726.147 252.516C725.984 252.74 726.361 253.21 726.607 253.939V253.952ZM726.539 81.6489C745.489 99.3122 760.345 121.308 769.525 146.053C768.879 146.505 768.28 147.375 767.654 147.956C767.524 148.072 767.502 148.426 767.382 148.426C765.37 148.801 764.476 150.872 762.674 151.531C762.168 151.644 761.65 151.69 761.133 151.672C760.828 152.278 760.43 152.833 759.956 153.318C759.311 153.705 758.614 153.995 757.884 154.177L757.648 153.823C757.526 154.155 757.36 154.468 757.154 154.753C756.718 155.154 756.177 155.717 755.73 155.717C755.415 155.668 755.114 155.549 754.851 155.367C754.588 155.186 754.37 154.948 754.21 154.671C754.155 154.384 754.164 154.089 754.236 153.805C754.31 153.522 754.446 153.259 754.635 153.037C755.2 152.318 755.883 151.412 757.059 152.226C757.237 152.342 758.154 151.661 758.32 151.367C758.485 151.071 758.073 150.483 757.919 150.015C757.506 150.082 757.107 150.221 756.742 150.425C755.223 151.777 754.671 151.695 753.671 149.907C753.613 149.81 753.53 149.731 753.434 149.673C752.759 150.354 752.008 150.959 751.197 151.472C750.797 151.672 750.091 151.249 749.526 151.12C749.577 150.642 749.695 150.174 749.879 149.732C750.385 148.978 751.045 148.309 751.564 147.685L753.059 148.426L753.4 148.19L752.433 146.155C751.848 146.718 751.17 147.178 750.432 147.52C749.568 147.565 748.702 147.473 747.867 147.25C749.303 148.566 749.056 148.99 747.867 150.026C746.677 151.06 745.594 151.683 744.065 151.2C743.724 151.095 743.217 150.755 743.217 150.472C743.196 150.04 743.349 149.617 743.641 149.295C745.242 147.79 746.9 146.344 748.55 144.873C749.374 144.133 750.22 143.416 751.081 142.673L753.093 145.026L753.553 144.944C752.069 143.368 751.197 141.686 753.329 139.839H751.468C751.338 140.741 750.902 141.57 750.233 142.189C749.566 142.808 748.705 143.177 747.795 143.239C747.924 145.91 745.348 146.155 743.805 147.25C742.699 148.014 741.452 148.355 741.452 150.015C740.945 149.826 740.591 149.744 740.273 149.59C738.484 148.72 738.295 148.109 739.661 146.743C740.436 145.898 741.3 145.141 742.24 144.485C742.991 144.169 743.783 143.963 744.594 143.873C744.559 142.945 744.265 141.733 745.442 140.957C745.56 140.887 745.642 140.663 745.723 140.663C747.632 140.874 747.36 139.24 747.784 138.216C747.856 137.875 747.811 137.517 747.654 137.205L746.074 136.833C745.919 136.739 745.754 136.663 745.583 136.606C745.446 136.596 745.308 136.6 745.174 136.62L746.074 136.833C746.226 136.924 746.368 137.03 746.497 137.151C746.76 137.398 746.966 137.696 747.101 138.029C747.372 138.768 745.794 140.357 745.017 140.239C744.796 140.239 744.576 140.193 744.374 140.102C744.171 140.011 743.991 139.877 743.843 139.713C743.694 139.547 743.583 139.352 743.518 139.142C743.45 138.93 743.428 138.707 743.453 138.487L743.464 138.463C743.48 138.202 743.549 137.946 743.664 137.712C743.779 137.478 743.941 137.266 744.137 137.094C744.334 136.922 744.563 136.79 744.81 136.707C744.929 136.665 745.05 136.637 745.174 136.62L743.017 136.112C742.923 136.052 742.745 136.112 742.863 136.112C742.727 137.015 742.44 137.889 742.017 138.699C741.32 139.363 740.526 139.919 739.661 140.345C739.579 140.768 739.579 141.415 739.579 142.05C738.072 142.473 737.895 142.685 737.754 144.062C738.461 143.865 739.119 143.52 739.68 143.05C740.242 142.578 740.696 141.995 741.016 141.333C741.203 141.028 741.428 140.58 741.723 140.511C742.417 140.377 743.122 140.299 743.829 140.274C743.799 140.964 743.708 141.648 743.558 142.321C743.453 142.685 743.017 142.956 742.699 143.227C741.345 144.321 739.991 145.415 738.615 146.485C738.226 146.79 737.731 147.202 737.331 147.202C736.783 147.077 736.3 146.76 735.965 146.309C735.86 146.191 736.188 145.579 736.425 145.285C736.774 144.982 737.072 144.626 737.308 144.227L735.613 144.133C735.177 146.026 734.576 146.333 732.94 145.309C732.2 144.781 731.522 144.174 730.915 143.498C730.244 142.815 729.95 142.874 729.609 143.768C731.056 144.744 732.469 145.721 733.906 146.661C734.518 147.05 735.235 147.308 735.836 147.72C738.366 149.472 740.98 151.131 743.335 153.083C744.515 154.299 745.561 155.641 746.454 157.082C746.949 157.728 747.431 158.389 747.972 158.999C750.009 161.246 749.962 163.999 749.82 166.749C749.702 168.926 749.445 171.103 749.245 173.289C747.619 173.854 747.913 173.842 748.173 175.643C748.281 177.489 748.154 179.343 747.795 181.158C747.772 181.358 747.243 181.605 746.924 181.664C745.783 181.864 745.723 182.688 746.172 183.358C746.391 183.65 746.517 184 746.538 184.365C746.557 184.731 746.466 185.092 746.277 185.404C746.16 185.652 745.972 186.016 746.065 186.192C747.018 187.852 746.017 189.051 745.193 190.144L744.288 189.558C744.165 189.984 744.083 190.419 744.04 190.862C744.029 191.226 744.205 191.591 744.205 191.969C744.205 193.237 744.265 194.59 744.205 195.79C744.147 196.99 743.653 197.731 742.251 197.248C742.122 197.201 741.898 197.437 741.497 197.671C742.087 197.671 742.309 197.46 742.676 197.671C743.041 197.884 743.582 198.271 743.582 198.553C743.552 198.8 743.464 199.035 743.325 199.239C743.184 199.444 742.998 199.613 742.781 199.73C742.589 199.764 742.407 199.844 742.253 199.962C742.096 200.078 741.971 200.233 741.886 200.409C741.801 200.584 741.76 200.775 741.763 200.971C741.767 201.166 741.818 201.358 741.909 201.53C742.534 203.458 742.38 204.081 740.885 205.258C741.557 207.093 741.545 207.117 739.709 207.681C738.732 207.986 739.073 208.681 739.438 209.092C740.179 209.881 739.932 210.468 739.438 211.21C739.273 211.56 738.978 211.833 738.615 211.968C738.251 212.101 737.849 212.087 737.496 211.928C736.614 211.68 735.965 212.114 735.802 213.103C736.955 214.15 736.955 214.15 735.33 215.22C735.86 215.714 737.26 215.397 736.848 216.702C736.507 217.773 735.601 217.644 735.082 217.584C734.507 216.702 734.012 216.056 733.646 215.35C733.522 214.971 733.487 214.569 733.541 214.173V212.997H733.094C732.963 213.75 732.834 214.491 732.729 215.032C731.456 214.514 730.21 213.962 729.032 213.563C728.808 213.48 728.361 213.986 727.854 214.314C729.681 214.571 731.397 215.34 732.801 216.533C734.206 217.726 735.242 219.295 735.789 221.055C735.847 221.231 735.976 221.418 735.976 221.573C735.601 223.089 735.164 224.701 734.8 226.124C734.436 227.547 734.14 228.982 733.764 230.394C733.517 231.369 733.187 232.334 732.893 233.299C732.768 233.925 732.588 234.539 732.351 235.134C731.968 235.842 731.539 236.525 731.067 237.179C731.219 237.532 731.293 237.914 731.282 238.298C731.269 238.681 731.177 239.057 731.005 239.401C730.833 239.745 730.589 240.047 730.289 240.287C729.99 240.527 729.64 240.697 729.267 240.79C726.914 241.19 724.559 241.402 722.205 241.696C722.076 242.577 722.864 242.506 723.487 242.426C724.841 242.249 725.535 242.789 725.535 244.155C725.561 244.531 725.83 244.918 725.83 245.329C725.91 245.777 725.847 246.238 725.653 246.649C725.501 246.823 724.807 246.812 724.477 246.649C724.297 246.544 724.145 246.396 724.034 246.22C723.925 246.044 723.858 245.843 723.841 245.636C723.994 244.73 723.665 244.237 722.488 243.672C723.005 245.106 723.44 246.166 723.759 247.272C723.928 247.799 723.928 248.367 723.759 248.894C723.626 249.08 723.45 249.227 723.242 249.322C723.036 249.418 722.807 249.457 722.581 249.435C722.205 249.283 721.923 248.517 721.758 248.259C721.593 248 721.438 247.742 721.286 247.484L720.91 247.635C721.098 248.448 721.227 249.283 721.475 250.082C721.78 251.177 721.098 251.717 720.298 251.94C720.086 251.999 719.531 251.059 719.226 250.528C719.027 250.122 718.871 249.697 718.756 249.26L718.155 249.506L718.838 250.999C717.944 251.917 717.472 251.788 716.484 250.129C715.76 250.359 714.973 250.298 714.293 249.961C713.611 249.622 713.089 249.033 712.835 248.317C711.809 245.883 712.035 245.166 714.012 243.743C714.411 243.461 714.448 242.718 714.73 242.225C715 241.785 715.308 241.368 715.649 240.979C715.943 240.638 716.566 240.332 716.566 240.039C716.389 237.91 717.626 236.297 718.391 234.499C720.048 230.651 721.367 226.668 722.334 222.595C722.911 220.173 723.653 217.737 724.346 215.384C724.689 214.185 724.971 213.033 723.794 212.069C723.571 211.88 723.617 211.397 723.465 211.056C723.311 210.715 723.159 210.281 722.875 210.128C722.099 209.669 721.781 209.317 722.428 208.492C722.546 208.351 722.181 207.823 722.028 207.458C720.757 208.223 719.886 207.035 718.708 206.882C718.826 207.129 718.874 207.492 719.063 207.587C719.844 208.049 720.525 208.661 721.069 209.388C721.612 210.113 722.006 210.941 722.228 211.822C722.26 211.904 722.307 211.981 722.37 212.045C723.817 213.786 723.817 213.786 721.876 215.339C722.276 216.736 721.569 217.513 719.675 218.007C719.531 218.902 719.662 219.924 719.226 220.36C718.375 221.226 717.332 221.881 716.177 222.266C715.354 222.513 715.237 222.595 715.506 223.361C715.696 223.843 715.696 224.382 715.506 224.866C715.037 225.652 713.894 226.064 714.33 227.324C713.759 227.723 713.093 227.966 712.399 228.028C712.34 228.146 712.223 228.253 712.223 228.382C712.117 229.146 712.305 230.228 711.869 230.628C710.935 231.453 709.847 232.089 708.667 232.498C707.714 232.748 706.734 232.89 705.749 232.921L705.82 233.463L708.833 233.191C709.29 233.874 709.361 234.522 707.995 234.922C707.278 235.282 706.626 235.759 706.065 236.332C705.749 238.756 704.89 238.779 702.534 239.108C699.616 239.52 697.78 237.744 696.084 235.804C695.435 235.074 695.023 234.992 694.471 235.967L696.002 236.65C696.12 237.438 696.248 238.249 696.343 238.873C696.984 238.793 697.632 238.793 698.274 238.873C698.485 238.932 698.65 239.696 698.615 239.968C698.581 240.237 698.203 240.685 697.969 240.685C697.179 240.707 696.402 240.484 695.613 240.484C694.612 240.473 694.355 239.801 694.024 239.05C693.909 238.904 693.763 238.789 693.595 238.712C693.426 238.634 693.243 238.596 693.06 238.601C691.116 239.121 689.539 238.026 687.95 237.321C687.044 236.91 687.632 236.016 688.22 235.591C691.295 233.255 693.932 230.398 696.013 227.146C697.709 224.63 699.356 222.066 700.827 219.407C702.281 216.823 703.573 214.152 704.701 211.408C705.796 208.763 706.572 205.953 707.456 203.175C707.566 202.619 707.622 202.051 707.62 201.483C705.583 203.587 705.337 206.728 702.569 208.057C702.747 208.503 702.912 208.916 703.029 209.234L701.004 211.657C701.178 212.124 701.165 212.638 700.972 213.095C700.782 213.554 700.422 213.922 699.968 214.126C699.031 214.567 698.052 214.916 697.048 215.173C697.673 215.796 699.004 216.326 698.226 217.337C697.768 217.913 696.554 217.913 695.706 218.161C695.895 218.866 696.531 219.936 696.236 220.619C695.942 221.302 694.73 221.596 694.035 221.983C694.035 222.713 694.366 223.806 694.035 224.406C693.706 225.006 692.588 225.136 691.539 225.583L691.87 226.664C691.326 227.882 690.701 229.061 689.998 230.194C689.762 230.534 688.832 230.617 688.314 230.475C685.657 229.627 683.237 228.163 681.252 226.206C681.086 226.053 680.875 225.806 680.745 225.806C678.862 226.289 678.722 224.853 678.321 223.677C678.273 223.561 678.11 223.49 677.638 223.101C677.638 223.758 677.45 224.278 677.638 224.49C678.897 225.971 678.874 226.218 677.167 227.146C678.121 227.406 679.027 227.97 679.898 226.735C680.298 226.171 682.241 227.311 682.087 228.157C681.711 230.368 682.877 229.241 683.972 228.934L685.289 231.287L687.962 231.864C687.808 232.356 687.784 233.039 687.444 233.299C686.853 233.586 686.214 233.765 685.561 233.827C685.443 234.344 685.267 235.216 685.078 236.085H684.417C684.195 235.333 683.983 234.58 683.712 233.64C681.464 235.815 679.11 234.745 676.755 234.322C676.589 234.299 676.308 234.146 676.308 234.028C676.003 232.38 674.966 233.251 674.071 233.251C672.8 233.245 671.531 233.127 670.281 232.899C669.327 232.745 668.41 232.451 667.091 232.122C672 225.912 676.673 219.561 679.616 212.434C682.559 205.305 686.006 198.366 687.973 190.791C687.647 190.74 687.31 190.773 686.998 190.882C686.685 190.992 686.405 191.178 686.181 191.422C685.958 191.668 685.798 191.963 685.717 192.284C685.636 192.603 685.634 192.94 685.712 193.262C685.149 193.649 684.666 193.968 684.217 194.307C683.219 195.049 682.241 195.803 681.264 196.554C680.745 196.978 680.311 197.179 680.311 198.154C680.358 198.802 679.391 199.671 678.685 200.165C677.986 200.595 677.486 201.284 677.298 202.082C677.109 202.776 676.308 203.306 675.743 203.881C675.531 204.105 675.037 204.201 674.966 204.435C674.377 206.599 672.8 207.329 670.563 207.329C671.646 208.587 671.623 209.54 670.563 209.858C669.62 210.067 668.657 210.18 667.691 210.197C667.774 210.363 667.774 210.491 667.774 210.491L669.41 211.257C669.096 211.807 668.698 212.307 668.232 212.739C667.755 212.996 667.237 213.171 666.703 213.256C666.447 214.085 666.084 214.876 665.62 215.609C664.748 216.609 663.406 217.279 662.771 218.372C661.676 220.255 659.758 220.984 658.262 222.384C658.38 223.148 658.674 224.136 657.202 224.041C657.117 224.051 657.037 224.082 656.965 224.129C656.894 224.176 656.834 224.238 656.79 224.312C656.735 224.518 656.63 224.707 656.485 224.863C656.341 225.021 656.161 225.14 655.961 225.215C655.76 225.289 655.546 225.313 655.334 225.288C655.121 225.261 654.918 225.185 654.742 225.066C654.507 224.958 654.083 225.229 653.754 225.336C653.883 225.606 653.977 225.759 654.13 226.171C654.284 226.583 654.626 227.183 654.484 227.347C654.072 227.933 653.487 228.377 652.811 228.617C651.953 228.805 651.458 228.934 651.635 229.981C651.645 230.185 651.603 230.387 651.513 230.567C651.422 230.747 651.285 230.904 651.117 231.017C650.119 231.565 649.007 231.879 647.868 231.933C646.397 231.768 647.279 230.688 647.679 229.806C646.738 229.874 645.714 230.134 645.149 229.874C644.584 229.617 644.314 228.663 643.796 227.829C642.506 227.689 641.204 227.716 639.922 227.912C638.783 228.352 637.738 229.012 636.849 229.851C635.401 231.195 634.273 232.846 633.555 234.685C633.306 235.168 632.46 235.357 631.883 235.685L631.365 235.31C631.52 234.207 631.777 233.12 632.129 232.062C633.665 229.083 635.533 226.286 637.698 223.724C639.616 221.242 641.276 218.655 643.148 216.185C645.502 213.174 647.939 210.292 650.211 207.292C651.258 205.893 652.059 204.317 653.024 202.859C654.426 200.777 655.944 198.79 657.297 196.684C658.839 194.273 660.252 191.78 661.747 189.332C664.147 185.404 666.69 181.559 668.975 177.571C671.869 172.502 674.601 167.35 677.344 162.187C678.556 159.905 679.628 157.554 680.723 155.201C680.92 154.748 680.944 154.236 680.792 153.765C679.686 155.517 678.615 157.353 677.438 159.047C676.882 159.995 676.065 160.763 675.082 161.258C673.836 161.693 673.942 162.61 673.753 163.421C673.495 164.469 673.564 165.55 671.951 165.55C671.376 165.538 671.023 166.139 671.376 166.938C671.951 168.243 671.257 169.22 669.821 169.42C669.32 169.536 668.834 169.71 668.374 169.937C668.515 170.997 670.257 171.349 669.08 172.349C668.55 172.843 668.562 175.113 666.726 173.054C666.575 173.662 666.527 174.29 666.585 174.913C666.704 175.154 666.773 175.42 666.785 175.688C666.797 175.96 666.753 176.229 666.655 176.481C666.558 176.733 666.41 176.962 666.219 177.154C666.028 177.346 665.8 177.495 665.549 177.594C665.101 177.899 664.371 178.393 664.371 178.771C664.455 180.43 663.1 181.182 662.371 182.298C661.828 183.122 661.005 183.863 659.758 182.405C659.683 183.014 659.683 183.632 659.758 184.241C660.333 186.098 660.04 186.639 658.133 187.004C658.003 187.027 657.909 187.158 658.133 187.332C657.969 188.275 657.839 189.227 657.602 190.157C657.579 190.215 656.719 190.32 656.603 190.157C656.266 189.579 655.989 188.968 655.779 188.332L654.4 189.251C656.296 189.874 655.449 191.531 655.919 192.708C655.978 192.862 655.272 193.332 654.907 193.649C654.651 193.33 654.417 192.992 654.213 192.637C654.142 192.318 654.116 191.989 654.143 191.662L652.964 192.25C653.294 192.885 653.577 193.426 653.906 194.06C652.081 194.625 652.081 192.697 650.904 192.437L650.022 193.132V192.755C648.952 192.403 648.01 192.05 646.833 191.686C645.654 191.32 645.383 190.509 645.654 189.332C646.678 184.921 647.35 180.441 649.034 176.194C650.623 171.854 653.095 167.89 656.296 164.55C659.18 161.67 661.839 158.54 664.841 155.788C668.21 152.718 671.835 149.931 675.366 147.061C677.721 145.144 679.991 143.31 682.429 141.615C685.926 139.157 689.575 136.911 693.105 134.558C693.622 134.17 694.204 133.875 694.825 133.689C696.448 133.323 697.037 131.935 697.731 130.76C701.111 124.913 704.418 119.045 707.832 113.223C710.551 108.625 713.282 104.237 716.072 99.5082C718.862 94.781 721.58 89.9701 724.371 85.2656C725.083 84.0543 725.808 82.8502 726.539 81.6489ZM730.092 250.011C730.799 249.135 731.441 248.208 732.01 247.235C732.117 247.035 731.587 246.224 731.222 246.129C730.374 245.895 729.115 247.306 729.149 248.483C729.16 248.848 729.609 249.223 730.092 250V250.011ZM707.36 242.461L707.255 243.167C707.903 243.412 708.055 244.766 709.15 243.884C709.456 243.65 709.397 242.955 709.516 242.461H707.36ZM704.77 241.931C705.313 242.837 706.054 243.107 706.878 242.484C706.956 242.313 706.998 242.13 706.998 241.943C706.998 241.757 706.956 241.572 706.878 241.402C706.172 241.027 705.313 240.578 704.796 241.885L704.77 241.931ZM699.238 241.461L699.85 242.119L701.134 241.121C700.862 240.885 700.451 240.402 700.357 240.449C699.948 240.746 699.575 241.084 699.238 241.461ZM710.068 239.861C709.679 241.238 710.068 241.767 711.023 241.613C711.412 241.613 711.74 241.121 712.092 240.849L710.068 239.861ZM707.703 240.226L708.315 240.66C708.684 240.276 709.019 239.858 709.316 239.415C709.316 239.415 708.809 238.955 708.538 238.708L707.703 240.226ZM637.569 240.355C638.29 240.249 638.993 240.036 639.651 239.72C641.641 238.415 643.595 237.038 645.454 235.544C645.674 235.289 645.84 234.99 645.944 234.669C646.048 234.349 646.085 234.011 646.055 233.674C646.055 231.757 644.359 230.888 643.219 229.699C642.824 229.373 642.329 229.195 641.817 229.194C640.667 229.051 639.501 229.242 638.456 229.745C637.413 230.248 636.537 231.04 635.932 232.028C635.19 233.139 634.604 234.346 634.189 235.615C634.061 236.151 634.047 236.707 634.154 237.247C634.259 237.786 634.479 238.298 634.8 238.745C635.119 239.192 635.533 239.566 636.011 239.84C636.488 240.112 637.019 240.281 637.569 240.332V240.355ZM663.054 230.275C663.595 229.628 664.124 229.264 664.136 228.911C664.147 228.558 663.512 227.734 663.372 227.805C662.829 227.991 662.356 228.331 662.006 228.782C661.91 228.874 662.522 229.499 663.054 230.228V230.275ZM661.693 228.126C661.118 227.092 660.373 226.776 659.498 227.277C659.227 227.44 659.063 228.451 659.227 228.546C660.056 229.177 660.874 228.754 661.693 228.126ZM661.693 228.126L661.712 228.157V228.112L661.693 228.126ZM666.114 227.395L667.291 226.158C666.855 225.83 666.443 225.312 665.973 225.252C665.502 225.195 665.137 225.712 664.712 225.972L666.114 227.395ZM662.7 226.523L664.089 225.04C663.685 224.766 663.251 224.536 662.794 224.359C662.65 224.294 662.49 224.269 662.332 224.291C662.176 224.311 662.027 224.374 661.905 224.475C661.783 224.576 661.69 224.708 661.638 224.857C661.588 225.008 661.581 225.17 661.617 225.323C661.688 225.618 662.194 225.924 662.7 226.478V226.523ZM665.196 223.795L666.374 222.489L665.196 221.536C664.901 221.912 664.478 222.242 664.384 222.713C664.384 222.866 664.83 223.23 665.196 223.747V223.795ZM669.492 223.758L669.561 222.784C668.908 222.747 668.251 222.747 667.598 222.784C667.527 222.784 667.502 223.361 667.456 223.666L669.492 223.758ZM671.657 219.75C669.857 219.855 668.538 220.008 667.798 218.244L666.325 220.242L668.751 220.819C669.277 221.276 669.914 221.584 670.599 221.713C670.869 221.689 671.176 220.69 671.657 219.75ZM674.26 215.634C673.657 214.486 673.092 213.807 672.035 213.692C671.694 213.692 671.294 214.302 670.858 214.645C671.187 214.985 671.483 215.539 671.883 215.644C672.673 215.73 673.469 215.727 674.26 215.634ZM674.26 215.634L674.283 215.68V215.632L674.26 215.634ZM639.788 178.662C640.44 179.341 641.583 179.559 641.688 180.771C641.688 180.924 642.383 181.216 642.489 181.124C642.628 181.006 642.742 180.864 642.823 180.702C642.904 180.54 642.951 180.363 642.959 180.181C642.83 179.348 642.559 178.535 642.289 177.513L644.359 177.806L644.584 175.688C645.855 175.183 646.266 174.514 645.761 173.655C645.573 173.314 645.42 172.955 645.302 172.583C645.725 172.455 646.161 172.36 646.562 172.197C646.961 172.032 647.61 171.725 647.586 171.597C647.361 170.525 648.08 170.149 648.763 169.621C649.081 169.247 649.326 168.816 649.48 168.35C649.646 168.045 649.787 167.726 649.963 167.421C650.258 166.891 650.552 166.35 650.881 165.845C651.106 165.496 651.358 165.166 651.635 164.857C651.894 164.55 652.212 164.304 652.459 163.986C654.143 161.94 655.732 159.823 657.52 157.859C658.697 156.577 658.781 156.472 657.215 155.695C656.848 155.478 656.451 155.316 656.037 155.212C652.176 154.53 648.327 153.742 644.443 153.248C640.829 152.789 637.168 152.578 633.53 152.366C630.47 152.189 627.409 152.143 624.349 152.084C618.924 151.915 613.496 152.193 608.115 152.917C606.421 153.177 604.656 153.048 602.961 153.306C599.428 153.849 595.896 154.484 592.366 155.176C589.635 155.706 586.939 156.354 584.232 157.022C583.029 157.434 581.798 157.754 580.547 157.977C579.854 157.988 579.177 158.163 578.562 158.482C577.949 158.803 577.42 159.262 577.016 159.823C578.193 161.221 579.37 162.587 580.452 164.104C581.865 166.162 584.408 167.232 585.314 169.737C585.566 170.326 585.912 170.87 586.338 171.349C587.74 173.066 589.117 174.795 590.6 176.442C591.126 176.965 591.778 177.343 592.495 177.536C593.506 177.818 594.59 177.865 595.626 178.054C597.168 178.335 598.711 178.665 600.253 178.936C600.386 178.952 600.522 178.939 600.653 178.9C600.782 178.862 600.902 178.798 601.005 178.713C601.643 177.983 602.055 178.476 602.618 178.854C603.49 179.43 604.456 179.876 605.431 180.406L606.137 178.476C606.575 179.125 606.749 179.653 607.138 179.911C607.915 180.325 608.963 180.971 609.588 180.724C610.458 180.37 609.963 179.393 609.47 178.724C609.388 178.605 609.47 178.382 609.47 178.054C609.73 178.216 609.978 178.395 610.211 178.594C610.93 179.393 611.589 180.254 612.341 181.005C613.896 182.536 614.578 182.369 615.143 180.441C615.143 180.37 615.283 180.325 615.543 180.136C616.026 182.147 617.899 182.253 619.569 182.699L618.723 181.523C620.04 180.441 617.839 179.724 618.157 178.642L620.418 180.619C620.459 181.272 620.708 181.897 621.124 182.405C621.766 183.065 622.503 183.623 623.312 184.064C623.521 184.173 623.749 184.231 623.984 184.231C624.218 184.231 624.448 184.173 624.655 184.064C624.901 183.758 624.738 183.122 624.749 182.641L623.443 182.734H623.054C623.349 182.135 623.583 181.559 623.866 181.053C623.984 180.817 624.207 180.43 624.349 180.441C625.679 180.548 626.207 179.642 626.774 178.7C626.866 178.608 626.981 178.543 627.106 178.506C627.233 178.472 627.365 178.47 627.491 178.5C627.669 178.631 627.715 178.994 627.74 179.253C627.762 179.531 627.762 179.809 627.74 180.088C628.684 180.643 629.865 180.989 629.681 182.51C629.681 182.781 629.847 183.298 630.047 183.358C631.129 183.665 631.305 184.535 631.623 185.427C631.67 185.613 631.758 185.786 631.882 185.931C632.005 186.077 632.161 186.192 632.336 186.267C632.512 186.343 632.702 186.375 632.894 186.365C633.084 186.354 633.271 186.299 633.435 186.203C633.755 186.04 633.931 185.121 633.802 184.664C633.672 184.204 633.049 183.747 632.482 183.111L632.612 181.853H633.613C633.684 181.853 633.742 181.97 633.813 182.03C633.942 184.159 633.942 184.159 635.92 184.475C635.554 185.404 634.93 186.392 636.637 186.652C636.768 186.652 636.849 187.004 636.98 187.158C637.32 187.545 637.65 188.18 638.039 188.227C638.426 188.274 639.134 187.886 639.663 187.686L637.004 183.358C637.022 182.798 636.923 182.242 636.708 181.723C636.403 181.287 635.685 181.135 634.872 180.724C637.004 178.876 639.087 177.066 641.183 175.277C641.332 175.167 641.505 175.095 641.688 175.065C641.758 175.065 641.853 175.065 642.006 175.136V176.207C639.805 176.759 639.746 176.83 639.851 178.676L639.788 178.662L639.768 178.642V178.656L639.788 178.662ZM627.724 180.086C627.214 180.011 626.696 180.134 626.274 180.43C625.85 180.728 625.556 181.178 625.455 181.688C625.232 182.97 626.22 183.429 627.197 183.781C627.461 184.356 627.901 184.829 628.457 185.134C628.752 185.252 629.28 184.805 629.705 184.616L628.281 182.264C628.144 181.718 627.928 180.896 627.724 180.086ZM639.768 178.656C639.661 178.633 639.551 178.619 639.439 178.618C638.344 178.783 637.004 178.842 636.98 180.252C636.98 180.864 637.91 181.429 638.37 182.111C638.544 182.347 638.522 182.722 638.698 182.935C639.114 183.436 639.585 183.889 640.099 184.286C640.229 184.382 640.841 184.11 640.876 183.934C640.994 183.298 641.264 182.369 640.946 182.041C640.149 181.097 639.729 179.892 639.768 178.656ZM627.721 180.078L627.703 180.005L627.68 180.053L627.721 180.078L627.724 180.086L627.74 180.088L627.721 180.078ZM753.353 155.823C751.751 155.648 750.821 156.176 750.856 157.316C750.913 157.549 751.03 157.761 751.196 157.931C751.362 158.103 751.569 158.228 751.798 158.293C752.859 158.434 753.434 157.458 753.353 155.823ZM747.724 155.483C747.629 155.706 747.585 155.948 747.593 156.19C747.603 156.432 747.667 156.67 747.779 156.886C747.891 157.101 748.052 157.288 748.246 157.433C748.441 157.581 748.664 157.681 748.902 157.728C749.044 157.728 749.608 157 749.645 156.554C749.831 155.047 748.714 155.47 747.784 155.436L747.724 155.483ZM746.92 154.961C747.683 154.445 748.292 154.059 748.867 153.649C749.702 153.048 749.526 152.471 748.867 151.848C747.761 150.826 747.089 152.013 746.324 152.378C746.132 152.542 745.983 152.751 745.892 152.987C745.801 153.223 745.771 153.48 745.805 153.731C745.876 154.153 746.439 154.468 746.92 154.961L746.913 154.965H746.924L746.92 154.961ZM752.292 151.812C751.493 152.483 750.703 153.072 750.02 153.765C749.879 153.894 750.02 154.542 750.244 154.731C750.395 154.826 750.565 154.887 750.743 154.907C750.92 154.927 751.099 154.907 751.268 154.848C751.924 154.417 752.536 153.92 753.093 153.366C753.195 153.252 753.269 153.116 753.307 152.97C753.346 152.821 753.349 152.667 753.316 152.518C753.175 152.295 752.775 152.118 752.292 151.801V151.812Z" fill="black"/>
</g>
<defs>
<clipPath id="clip0_302_154">
<rect width="800" height="420" fill="white"/>
</clipPath>
<clipPath id="clip1_302_154">
<rect width="347" height="258" fill="white" transform="translate(23 76)"/>
</clipPath>
<clipPath id="clip2_302_154">
<rect width="347" height="258" fill="white" transform="translate(23 76)"/>
</clipPath>
</defs>
</svg>
