<svg width="578" height="597" viewBox="0 0 578 597" fill="none" xmlns="http://www.w3.org/2000/svg">
<path opacity="0.8" d="M533.005 97.2147L507.005 97.2147C254.611 97.2147 50.0053 301.821 50.0053 554.215L533.005 554.215L533.005 97.2147Z" fill="#E5B578"/>
<path d="M157.4 54.6787C148.008 146.955 170.174 240.133 192.211 331.727C220.097 329.213 248.872 332.352 275.576 340.813C325.254 253.226 355.02 156.867 362.77 58.5577C328.903 48.658 294.68 38.6956 259.349 35.483C224.018 32.2815 186.983 36.3889 157.854 52.8518" fill="#FFEEDD"/>
<path d="M100.206 62.8408C100.206 62.8408 111.984 67.1716 117.616 63.0566C123.249 58.9312 123.383 51.3723 121.259 45.1554C118.296 36.4821 111.921 28.8493 104.53 22.3297C100.479 18.7488 95.9042 15.3541 90.3816 13.8798C84.859 12.4055 78.2014 13.2992 74.7434 17.151C71.239 21.0514 71.8853 26.5592 71.8595 31.5548C71.8141 40.0281 69.3301 48.4147 64.6782 55.7891C62.2302 59.666 58.7067 63.5437 53.616 64.3636C48.5254 65.1835 42.3527 61.0163 43.9541 56.8123C47.2731 83.7156 50.8005 111.249 64.67 135.785C83.0046 168.22 117.705 192.323 136.882 224.409C139.862 229.394 142.5 234.791 142.206 240.322C141.912 245.853 137.866 251.488 131.551 252.559C124.616 253.734 117.63 248.979 114.878 243.308C112.118 237.626 112.534 231.305 113.001 225.241" stroke="#1C1C1C" stroke-width="16" stroke-linejoin="bevel"/>
<path d="M146.167 40.9757C138.768 136.553 164.067 232.281 189.193 326.375C218.004 323.087 247.879 325.619 275.742 333.7C324.975 241.97 353.368 141.671 358.916 39.9003C323.599 30.5097 287.911 21.0632 251.247 18.6182C214.583 16.1848 176.338 21.3455 146.592 39.0769" stroke="#1C1C1C" stroke-width="16" stroke-miterlimit="10"/>
<path d="M406.749 83.7693C406.749 83.7693 397.085 85.0326 392.07 79.8069C387.066 74.5821 388.281 66.8332 391.576 60.8689C396.163 52.5504 404.052 45.902 412.774 40.5707C417.553 37.6464 422.846 34.9989 428.753 34.4929C434.66 33.9765 441.297 36.0965 444.136 40.6468C447.011 45.2636 445.369 50.7715 444.491 55.8717C443.006 64.5249 444.04 73.5567 447.463 81.9118C449.271 86.3191 452.17 90.9063 457.214 92.6656C462.258 94.4249 469.313 91.278 468.45 86.6896C460.215 113.563 451.652 141.061 433.06 163.622C408.488 193.441 368.701 211.818 343.329 241.146C339.387 245.704 335.72 250.739 335.032 256.436C334.343 262.144 337.455 268.626 343.713 270.861C350.584 273.307 358.575 269.715 362.413 264.41C366.251 259.104 366.96 252.566 367.583 246.294" stroke="#1C1C1C" stroke-width="16" stroke-linejoin="bevel"/>
<path d="M208.781 439.443L184.715 473.244L156.9 489.576L154.932 500.011L169.967 513.57L255.398 521.856L278.385 512.448L279.378 501.104L254.096 479.916L230.848 440.551" stroke="#1C1C1C" stroke-width="16" stroke-linecap="square" stroke-linejoin="bevel"/>
<path d="M204.421 434.26C199.26 424.848 191.94 416.238 182.995 409.06C193.098 400.709 205.65 394.64 213.083 384.473C203.512 375.171 192.354 360.59 183.712 350.673C185.117 351.745 211.169 359.302 224.188 361.897C240.412 365.132 256.334 361.079 272.044 357.039C260.885 367.092 255.028 380.712 240.349 386.847C252.358 393.619 258.715 400.455 265.899 410.994C256.386 416.705 247.221 429.782 237.707 435.494" stroke="#1C1C1C" stroke-width="16" stroke-linecap="square" stroke-linejoin="bevel"/>
</svg>
