<svg width="33" height="32" viewBox="0 0 33 32" fill="none" xmlns="http://www.w3.org/2000/svg">
<g opacity="0.9" clip-path="url(#clip0_344_669)">
<path fill-rule="evenodd" clip-rule="evenodd" d="M16.5 0C7.38375 0 0 7.16 0 16C0 23.08 4.72312 29.06 11.2819 31.18C12.1069 31.32 12.4162 30.84 12.4162 30.42C12.4162 30.04 12.3956 28.78 12.3956 27.44C8.25 28.18 7.1775 26.46 6.8475 25.56C6.66188 25.1 5.8575 23.68 5.15625 23.3C4.57875 23 3.75375 22.26 5.13562 22.24C6.435 22.22 7.36312 23.4 7.6725 23.88C9.1575 26.3 11.5294 25.62 12.4781 25.2C12.6225 24.16 13.0556 23.46 13.53 23.06C9.85875 22.66 6.0225 21.28 6.0225 15.16C6.0225 13.42 6.66188 11.98 7.71375 10.86C7.54875 10.46 6.97125 8.82 7.87875 6.62C7.87875 6.62 9.26062 6.2 12.4162 8.26C13.7362 7.9 15.1388 7.72 16.5413 7.72C17.9438 7.72 19.3463 7.9 20.6663 8.26C23.8219 6.18 25.2038 6.62 25.2038 6.62C26.1112 8.82 25.5338 10.46 25.3688 10.86C26.4206 11.98 27.06 13.4 27.06 15.16C27.06 21.3 23.2031 22.66 19.5319 23.06C20.13 23.56 20.6456 24.52 20.6456 26.02C20.6456 28.16 20.625 29.88 20.625 30.42C20.625 30.84 20.9344 31.34 21.7594 31.18C25.0349 30.1076 27.8811 28.0662 29.8975 25.3432C31.914 22.6201 32.999 19.3524 33 16C33 7.16 25.6163 0 16.5 0Z" fill="#FFEEDD"/>
</g>
<defs>
<clipPath id="clip0_344_669">
<rect width="33" height="32" fill="white"/>
</clipPath>
</defs>
</svg>
