<svg width="38" height="38" viewBox="0 0 38 38" fill="none" xmlns="http://www.w3.org/2000/svg">
<g opacity="0.9">
<path fill-rule="evenodd" clip-rule="evenodd" d="M1.58333 4.49354C1.58333 3.72172 1.88994 2.98151 2.4357 2.43575C2.98146 1.88998 3.72167 1.58338 4.4935 1.58338H33.5033C33.8858 1.58275 34.2647 1.65758 34.6182 1.80357C34.9718 1.94956 35.293 2.16384 35.5636 2.43416C35.8343 2.70448 36.0489 3.02552 36.1953 3.37889C36.3416 3.73227 36.4169 4.11105 36.4167 4.49354V33.5034C36.4171 33.8859 36.3421 34.2648 36.1959 34.6184C36.0497 34.9719 35.8353 35.2932 35.5649 35.5638C35.2944 35.8344 34.9733 36.049 34.6198 36.1953C34.2663 36.3417 33.8875 36.4169 33.5049 36.4167H4.4935C4.1112 36.4167 3.73264 36.3414 3.37946 36.195C3.02628 36.0487 2.7054 35.8342 2.43514 35.5638C2.16489 35.2934 1.95056 34.9724 1.8044 34.6191C1.65824 34.2659 1.58312 33.8873 1.58333 33.505V4.49354ZM15.371 14.8644H20.0877V17.233C20.7686 15.8714 22.5102 14.6459 25.1275 14.6459C30.1451 14.6459 31.3342 17.3581 31.3342 22.3345V31.5527H26.2564V23.4682C26.2564 20.634 25.5756 19.0349 23.8466 19.0349C21.4478 19.0349 20.4503 20.7591 20.4503 23.4682V31.5527H15.371V14.8644ZM6.66267 31.3358H11.742V14.6459H6.66267V31.3342V31.3358ZM12.4687 9.20238C12.4783 9.63728 12.4009 10.0697 12.2411 10.4743C12.0813 10.8789 11.8423 11.2475 11.5381 11.5584C11.2339 11.8694 10.8707 12.1165 10.4697 12.2851C10.0688 12.4538 9.63813 12.5407 9.20312 12.5407C8.76812 12.5407 8.3375 12.4538 7.93653 12.2851C7.53556 12.1165 7.17232 11.8694 6.86813 11.5584C6.56394 11.2475 6.32493 10.8789 6.16512 10.4743C6.00531 10.0697 5.92792 9.63728 5.9375 9.20238C5.9563 8.34873 6.30861 7.53638 6.91898 6.9393C7.52936 6.34221 8.34927 6.00787 9.20312 6.00787C10.057 6.00787 10.8769 6.34221 11.4873 6.9393C12.0976 7.53638 12.45 8.34873 12.4687 9.20238Z" fill="#FFEEDD"/>
</g>
</svg>
