<svg width="33" height="32" viewBox="0 0 33 32" fill="none" xmlns="http://www.w3.org/2000/svg">
<g opacity="0.9" clip-path="url(#clip0_344_665)">
<path fill-rule="evenodd" clip-rule="evenodd" d="M27.1934 5.90662C27.5332 5.76794 27.9051 5.72011 28.2704 5.76811C28.6357 5.81611 28.9811 5.95818 29.2706 6.17953C29.5601 6.40089 29.7831 6.69344 29.9164 7.02673C30.0497 7.36002 30.0885 7.72187 30.0286 8.07462L26.9101 26.4173C26.6076 28.1866 24.6056 29.2013 22.9322 28.32C21.5325 27.5826 19.4535 26.4466 17.5835 25.2613C16.6485 24.668 13.7844 22.768 14.1364 21.416C14.4389 20.26 19.2514 15.916 22.0014 13.3333C23.0807 12.3186 22.5885 11.7333 21.3139 12.6666C18.1472 14.984 13.0666 18.508 11.3864 19.5C9.90412 20.3746 9.13137 20.524 8.20737 20.3746C6.52162 20.1026 4.95825 19.6813 3.68225 19.168C1.958 18.4746 2.04187 16.176 3.68087 15.5066L27.1934 5.90662Z" fill="#FFEEDD"/>
</g>
<defs>
<clipPath id="clip0_344_665">
<rect width="33" height="32" fill="white"/>
</clipPath>
</defs>
</svg>
