<svg width="33" height="34" viewBox="0 0 33 34" fill="none" xmlns="http://www.w3.org/2000/svg">
<g opacity="0.9">
<path d="M32.5091 6.99403C31.361 7.5182 30.1276 7.87236 28.831 8.03245C30.1689 7.20765 31.1698 5.90952 31.647 4.38028C30.39 5.14951 29.0144 5.69097 27.5798 5.98111C26.615 4.91984 25.3372 4.21641 23.9447 3.98003C22.5522 3.74366 21.1229 3.98757 19.8787 4.67389C18.6345 5.36021 17.6451 6.45054 17.064 7.77561C16.4829 9.10068 16.3426 10.5863 16.665 12.0019C14.1181 11.8702 11.6265 11.1881 9.35196 10.0001C7.07743 8.81198 5.07078 7.14442 3.46225 5.10561C2.91225 6.08311 2.596 7.21645 2.596 8.42345C2.59539 9.51002 2.8551 10.58 3.35208 11.5383C3.84907 12.4967 4.56797 13.3138 5.445 13.9173C4.42788 13.8839 3.4332 13.6008 2.54375 13.0914V13.1764C2.54365 14.7003 3.0553 16.1774 3.99188 17.3569C4.92846 18.5365 6.23229 19.3458 7.68213 19.6477C6.73858 19.9108 5.74934 19.9495 4.78913 19.761C5.19818 21.0723 5.995 22.219 7.06801 23.0405C8.14102 23.862 9.43651 24.3173 10.7731 24.3425C8.50415 26.1777 5.70197 27.1732 2.81738 27.1688C2.3064 27.1689 1.79586 27.1382 1.28838 27.0767C4.21641 29.0164 7.62484 30.0458 11.1059 30.0418C22.8896 30.0418 29.3315 19.9863 29.3315 11.2653C29.3315 10.9819 29.3246 10.6958 29.3123 10.4124C30.5653 9.47883 31.6469 8.32272 32.5064 6.99828L32.5091 6.99403Z" fill="#FFEEDD"/>
</g>
</svg>
