<svg width="38" height="38" viewBox="0 0 38 38" fill="none" xmlns="http://www.w3.org/2000/svg">
<g opacity="0.9" clip-path="url(#clip0_344_677)">
<path d="M37.2084 10.3027C36.9932 9.53516 36.5741 8.84025 35.9955 8.29187C35.4007 7.72663 34.6715 7.3223 33.877 7.11704C30.9035 6.33329 18.9905 6.33329 18.9905 6.33329C14.0241 6.27679 9.05896 6.52531 4.12303 7.07746C3.3285 7.29788 2.60076 7.71125 2.00453 8.28079C1.4187 8.84446 0.994364 9.53954 0.772698 10.3011C0.240212 13.1697 -0.0185065 16.0824 3.11618e-05 19C-0.0189688 21.9149 0.239114 24.8266 0.772698 27.6988C0.989614 28.4572 1.41236 29.1491 1.99978 29.708C2.5872 30.267 3.3187 30.6707 4.12303 30.8845C7.13611 31.6666 18.9905 31.6666 18.9905 31.6666C23.9632 31.7232 28.9347 31.4747 33.877 30.9225C34.6715 30.7172 35.4007 30.3129 35.9955 29.7476C36.5739 29.1994 36.9925 28.5044 37.2068 27.7368C37.7532 24.8693 38.0188 21.9554 38 19.0364C38.0411 16.105 37.7758 13.1774 37.2084 10.3011V10.3027ZM15.2032 24.4213V13.5802L25.1149 19.0015L15.2032 24.4213Z" fill="#FFEEDD"/>
</g>
<defs>
<clipPath id="clip0_344_677">
<rect width="38" height="38" fill="white"/>
</clipPath>
</defs>
</svg>
